<?xml version="1.0" encoding="utf-8"?>
<!-- Generator: Adobe Illustrator 15.0.0, SVG Export Plug-In . SVG Version: 6.00 Build 0)  -->
<!DOCTYPE svg PUBLIC "-//W3C//DTD SVG 1.1//EN" "http://www.w3.org/Graphics/SVG/1.1/DTD/svg11.dtd">
<svg version="1.1" id="Layer_1" xmlns="http://www.w3.org/2000/svg" xmlns:xlink="http://www.w3.org/1999/xlink" x="0px" y="0px"
	 width="14px" height="14px" viewBox="9 8.998 14 14" enable-background="new 9 8.998 14 14" xml:space="preserve">
<path fill="#555555" d="M17.4,10.399c0.197,0,0.363,0.067,0.498,0.202l4.899,4.9C22.933,15.636,23,15.801,23,15.999
	s-0.067,0.363-0.202,0.498l-4.899,4.9c-0.135,0.135-0.301,0.202-0.498,0.202c-0.2,0-0.368-0.067-0.501-0.2s-0.199-0.3-0.199-0.5
	c0-0.197,0.067-0.363,0.202-0.498l3.708-3.702H9.7c-0.193,0-0.358-0.068-0.495-0.205C9.068,16.356,9,16.191,9,15.998
	s0.068-0.358,0.206-0.495c0.137-0.137,0.301-0.205,0.495-0.205h10.91l-3.708-3.703c-0.135-0.135-0.202-0.301-0.202-0.498
	c0-0.201,0.066-0.367,0.199-0.5C17.032,10.464,17.2,10.398,17.4,10.399L17.4,10.399z"/>
</svg>
