<?xml version="1.0" encoding="utf-8"?>
<!-- Generator: Adobe Illustrator 15.0.0, SVG Export Plug-In . SVG Version: 6.00 Build 0)  -->
<!DOCTYPE svg PUBLIC "-//W3C//DTD SVG 1.1//EN" "http://www.w3.org/Graphics/SVG/1.1/DTD/svg11.dtd">
<svg version="1.1" id="Layer_1" xmlns="http://www.w3.org/2000/svg" xmlns:xlink="http://www.w3.org/1999/xlink" x="0px" y="0px"
	 width="12px" height="9.602px" viewBox="10 11.198 12 9.602" enable-background="new 10 11.198 12 9.602" xml:space="preserve">
<path fill="#555555" d="M17.2,11.198c0.169,0,0.312,0.058,0.427,0.175l4.199,4.199C21.943,15.688,22,15.829,22,15.999
	s-0.057,0.311-0.173,0.427l-4.2,4.199C17.512,20.742,17.369,20.8,17.2,20.8c-0.171,0-0.314-0.058-0.429-0.173
	c-0.113-0.113-0.171-0.256-0.171-0.429c0-0.168,0.058-0.311,0.173-0.427l3.179-3.172h-9.352c-0.166,0-0.308-0.059-0.425-0.176
	C10.059,16.305,10,16.164,10,15.998s0.059-0.307,0.177-0.424c0.117-0.117,0.258-0.176,0.424-0.176h9.352l-3.179-3.175
	c-0.115-0.115-0.173-0.258-0.173-0.426c0-0.173,0.058-0.314,0.171-0.429S17.028,11.198,17.2,11.198L17.2,11.198z"/>
</svg>
