<?xml version="1.0" encoding="utf-8"?>
<!-- Generator: Adobe Illustrator 15.0.0, SVG Export Plug-In . SVG Version: 6.00 Build 0)  -->
<!DOCTYPE svg PUBLIC "-//W3C//DTD SVG 1.1//EN" "http://www.w3.org/Graphics/SVG/1.1/DTD/svg11.dtd">
<svg version="1.1" id="Layer_1" xmlns="http://www.w3.org/2000/svg" xmlns:xlink="http://www.w3.org/1999/xlink" x="0px" y="0px"
	 width="12px" height="12px" viewBox="10 9.999 12 12" enable-background="new 10 9.999 12 12" xml:space="preserve">
<path fill="#555555" d="M16,9.999c0.814,0,1.593,0.158,2.333,0.476c0.74,0.316,1.378,0.742,1.913,1.277
	c0.536,0.536,0.962,1.173,1.277,1.913C21.842,14.406,22,15.184,22,15.999s-0.158,1.593-0.477,2.333
	c-0.315,0.74-0.741,1.379-1.277,1.913c-0.535,0.536-1.173,0.962-1.913,1.278S16.814,21.999,16,21.999s-1.593-0.158-2.333-0.476
	c-0.74-0.316-1.377-0.742-1.913-1.278c-0.536-0.534-0.961-1.173-1.277-1.913C10.159,17.592,10,16.814,10,15.999
	s0.158-1.593,0.475-2.333c0.317-0.74,0.743-1.377,1.278-1.913s1.173-0.961,1.913-1.278C14.407,10.157,15.186,9.999,16,9.999z
	 M19.064,19.835l-6.9-6.899c-0.341,0.429-0.605,0.904-0.792,1.428C11.184,14.886,11.09,15.432,11.09,16
	c0,0.665,0.131,1.301,0.391,1.907s0.607,1.128,1.045,1.565c0.438,0.438,0.959,0.786,1.566,1.047c0.606,0.258,1.242,0.39,1.907,0.39
	c0.571,0,1.118-0.093,1.642-0.279c0.521-0.187,0.996-0.45,1.422-0.795H19.064z M16,11.09c-0.57,0-1.118,0.094-1.641,0.279
	s-0.998,0.451-1.424,0.795l6.898,6.898c0.346-0.426,0.609-0.899,0.796-1.422c0.187-0.523,0.279-1.07,0.278-1.642
	c0-0.665-0.131-1.3-0.389-1.907c-0.262-0.605-0.609-1.128-1.047-1.566c-0.438-0.438-0.959-0.785-1.566-1.045
	C17.301,11.221,16.665,11.091,16,11.09L16,11.09z"/>
</svg>
