<?xml version="1.0" encoding="utf-8"?>
<!-- Generator: Adobe Illustrator 15.0.0, SVG Export Plug-In . SVG Version: 6.00 Build 0)  -->
<!DOCTYPE svg PUBLIC "-//W3C//DTD SVG 1.1//EN" "http://www.w3.org/Graphics/SVG/1.1/DTD/svg11.dtd">
<svg version="1.1" id="Layer_1" xmlns="http://www.w3.org/2000/svg" xmlns:xlink="http://www.w3.org/1999/xlink" x="0px" y="0px"
	 width="14px" height="14px" viewBox="9 8.999 14 14" enable-background="new 9 8.999 14 14" xml:space="preserve">
<path fill="#555555" d="M16,9.999c0.815,0,1.592,0.158,2.334,0.475c0.739,0.316,1.377,0.743,1.912,1.279
	c0.536,0.535,0.962,1.173,1.278,1.913S22,15.184,22,15.999s-0.159,1.593-0.476,2.333s-0.742,1.379-1.278,1.913
	c-0.535,0.536-1.173,0.962-1.912,1.277c-0.74,0.318-1.518,0.477-2.334,0.477s-1.594-0.158-2.334-0.477
	c-0.739-0.315-1.377-0.741-1.912-1.277c-0.536-0.534-0.962-1.173-1.278-1.913C10.157,17.592,10,16.814,10,15.999
	s0.159-1.593,0.476-2.333c0.315-0.74,0.742-1.378,1.278-1.913c0.535-0.536,1.173-0.962,1.912-1.279
	C14.406,10.157,15.185,9.999,16,9.999z M19.064,19.835l-6.899-6.899c-0.342,0.429-0.606,0.904-0.794,1.428
	C11.183,14.887,11.09,15.433,11.09,16c0,0.664,0.129,1.301,0.39,1.906c0.26,0.606,0.608,1.128,1.045,1.566
	c0.438,0.438,0.961,0.786,1.567,1.046c0.605,0.261,1.242,0.39,1.906,0.39c0.572,0,1.118-0.091,1.641-0.279
	c0.522-0.186,0.997-0.449,1.423-0.794H19.064z M16,11.09c-0.571,0-1.118,0.092-1.641,0.279c-0.522,0.186-0.997,0.45-1.423,0.795
	l6.898,6.899c0.345-0.426,0.609-0.9,0.796-1.423c0.188-0.522,0.279-1.07,0.279-1.641c0-0.665-0.129-1.301-0.39-1.907
	c-0.26-0.607-0.608-1.128-1.047-1.565c-0.438-0.438-0.959-0.786-1.565-1.046C17.301,11.221,16.665,11.092,16,11.09L16,11.09z"/>
</svg>
