<?xml version="1.0" encoding="utf-8"?>
<!-- Generator: Adobe Illustrator 15.0.0, SVG Export Plug-In . SVG Version: 6.00 Build 0)  -->
<!DOCTYPE svg PUBLIC "-//W3C//DTD SVG 1.1//EN" "http://www.w3.org/Graphics/SVG/1.1/DTD/svg11.dtd">
<svg version="1.1" id="Layer_1" xmlns="http://www.w3.org/2000/svg" xmlns:xlink="http://www.w3.org/1999/xlink" x="0px" y="0px"
	 width="12px" height="12px" viewBox="10 9.999 12 12" enable-background="new 10 9.999 12 12" xml:space="preserve">
<path fill="#555555" d="M16,10.999c0.679,0,1.327,0.132,1.944,0.396s1.147,0.619,1.595,1.064c0.446,0.448,0.802,0.978,1.064,1.595
	C20.868,14.672,21,15.32,21,15.999s-0.132,1.327-0.396,1.944c-0.263,0.617-0.618,1.148-1.064,1.595
	c-0.447,0.446-0.978,0.802-1.595,1.065c-0.617,0.263-1.266,0.396-1.944,0.396s-1.327-0.132-1.944-0.396s-1.146-0.619-1.595-1.065
	c-0.446-0.446-0.801-0.978-1.064-1.595C11.132,17.326,11,16.678,11,15.999s0.132-1.327,0.396-1.944s0.619-1.146,1.064-1.595
	c0.447-0.446,0.978-0.801,1.595-1.065C14.673,11.131,15.321,10.999,16,10.999z M18.554,19.196l-5.751-5.751
	c-0.284,0.359-0.504,0.754-0.659,1.191c-0.157,0.435-0.235,0.889-0.235,1.363c0,0.554,0.109,1.084,0.326,1.589
	c0.216,0.505,0.506,0.94,0.87,1.306c0.365,0.363,0.8,0.654,1.306,0.871c0.505,0.215,1.035,0.325,1.589,0.325
	c0.476,0,0.933-0.077,1.368-0.232C17.802,19.703,18.197,19.482,18.554,19.196L18.554,19.196z M16,11.908
	c-0.475,0-0.933,0.078-1.367,0.232c-0.436,0.154-0.832,0.377-1.187,0.662l5.748,5.75c0.288-0.356,0.507-0.751,0.663-1.186
	c0.156-0.436,0.232-0.893,0.231-1.369c0-0.554-0.109-1.083-0.324-1.589c-0.218-0.505-0.508-0.94-0.872-1.306
	c-0.365-0.364-0.799-0.654-1.306-0.869C17.084,12.018,16.554,11.909,16,11.908L16,11.908z"/>
</svg>
