<?xml version="1.0" encoding="utf-8"?>
<!-- Generator: Adobe Illustrator 15.0.0, SVG Export Plug-In . SVG Version: 6.00 Build 0)  -->
<!DOCTYPE svg PUBLIC "-//W3C//DTD SVG 1.1//EN" "http://www.w3.org/Graphics/SVG/1.1/DTD/svg11.dtd">
<svg version="1.1" id="Layer_1" xmlns="http://www.w3.org/2000/svg" xmlns:xlink="http://www.w3.org/1999/xlink" x="0px" y="0px"
	 width="14px" height="14px" viewBox="9 8.999 14 14" enable-background="new 9 8.999 14 14" xml:space="preserve">
<path fill="#555555" d="M16,8.999c0.951,0,1.857,0.185,2.723,0.554c0.863,0.369,1.606,0.867,2.231,1.492s1.122,1.369,1.491,2.232
	S23,15.048,23,15.999s-0.186,1.858-0.555,2.722s-0.866,1.608-1.491,2.232c-0.625,0.625-1.369,1.122-2.231,1.49
	c-0.863,0.371-1.771,0.556-2.723,0.556s-1.859-0.185-2.723-0.556c-0.862-0.368-1.606-0.865-2.231-1.49
	c-0.625-0.624-1.122-1.369-1.491-2.232C9.184,17.857,9,16.95,9,15.999s0.186-1.858,0.555-2.722c0.368-0.863,0.866-1.607,1.491-2.232
	s1.369-1.122,2.231-1.492C14.141,9.184,15.049,8.999,16,8.999z M19.575,20.475l-8.05-8.05c-0.398,0.5-0.707,1.056-0.926,1.666
	S10.271,15.338,10.271,16c0,0.775,0.151,1.518,0.455,2.225c0.303,0.707,0.709,1.315,1.219,1.827c0.511,0.511,1.121,0.917,1.828,1.22
	c0.707,0.304,1.449,0.455,2.225,0.455c0.667,0,1.305-0.107,1.914-0.326c0.609-0.217,1.163-0.524,1.66-0.926H19.575z M16,10.271
	c-0.667,0-1.305,0.108-1.914,0.326c-0.609,0.217-1.163,0.526-1.66,0.928l8.049,8.049c0.401-0.497,0.711-1.051,0.928-1.66
	c0.219-0.609,0.326-1.248,0.326-1.914c0-0.775-0.151-1.518-0.455-2.225c-0.303-0.709-0.709-1.316-1.221-1.827
	c-0.511-0.511-1.119-0.917-1.826-1.22C17.518,10.425,16.775,10.273,16,10.271L16,10.271z"/>
</svg>
