<?xml version="1.0" encoding="utf-8"?>
<!-- Generator: Adobe Illustrator 15.0.0, SVG Export Plug-In . SVG Version: 6.00 Build 0)  -->
<!DOCTYPE svg PUBLIC "-//W3C//DTD SVG 1.1//EN" "http://www.w3.org/Graphics/SVG/1.1/DTD/svg11.dtd">
<svg version="1.1" id="Layer_1" xmlns="http://www.w3.org/2000/svg" xmlns:xlink="http://www.w3.org/1999/xlink" x="0px" y="0px"
	 width="14px" height="14px" viewBox="9 9 14 14" enable-background="new 9 9 14 14" xml:space="preserve">
<path fill="#555555" d="M16,9c0.526,0,0.977,0.187,1.35,0.56s0.56,0.823,0.56,1.35V21.09c0,0.527-0.187,0.978-0.56,1.351
	c-0.373,0.372-0.823,0.559-1.35,0.559c-0.527,0-0.977-0.187-1.35-0.559c-0.373-0.373-0.56-0.823-0.56-1.351V10.909
	c0-0.527,0.187-0.977,0.56-1.35C15.023,9.186,15.473,9,16,9z M10.909,16.636c0.527,0,0.977,0.187,1.35,0.56s0.559,0.822,0.559,1.35
	v2.545c0,0.527-0.186,0.978-0.559,1.351c-0.373,0.372-0.823,0.559-1.35,0.559s-0.977-0.187-1.35-0.559
	C9.187,22.067,9,21.617,9,21.09v-2.545c0-0.527,0.187-0.977,0.559-1.35C9.932,16.822,10.382,16.636,10.909,16.636z M10.909,17.909
	c-0.176,0-0.326,0.062-0.45,0.187s-0.187,0.274-0.187,0.45v2.545c0,0.176,0.062,0.325,0.187,0.449
	c0.125,0.125,0.274,0.188,0.45,0.188s0.325-0.062,0.45-0.188c0.125-0.124,0.187-0.273,0.187-0.449v-2.545
	c0-0.176-0.062-0.326-0.187-0.45S11.085,17.909,10.909,17.909z M16,10.272c-0.176,0-0.326,0.062-0.45,0.187
	c-0.124,0.124-0.187,0.274-0.187,0.45v10.182c0,0.176,0.062,0.325,0.187,0.449c0.125,0.125,0.274,0.188,0.45,0.188
	s0.325-0.062,0.45-0.188c0.124-0.124,0.187-0.273,0.187-0.449V10.909c0-0.176-0.062-0.326-0.187-0.45
	C16.325,10.335,16.176,10.272,16,10.272z M21.091,12.818c0.527,0,0.977,0.187,1.35,0.559C22.813,13.75,23,14.2,23,14.727v6.363
	c0,0.527-0.187,0.978-0.56,1.351c-0.373,0.372-0.822,0.559-1.35,0.559s-0.977-0.187-1.35-0.559c-0.373-0.373-0.56-0.823-0.56-1.351
	v-6.363c0-0.527,0.187-0.977,0.56-1.35C20.114,13.004,20.563,12.818,21.091,12.818z M21.091,14.091
	c-0.176,0-0.325,0.062-0.449,0.187c-0.125,0.125-0.188,0.274-0.188,0.45v6.363c0,0.176,0.062,0.325,0.188,0.449
	c0.124,0.125,0.273,0.188,0.449,0.188s0.326-0.062,0.45-0.188c0.125-0.124,0.187-0.273,0.187-0.449v-6.363
	c0-0.176-0.062-0.326-0.187-0.45C21.417,14.153,21.267,14.091,21.091,14.091z"/>
</svg>
