<?xml version="1.0" encoding="utf-8"?>
<!-- Generator: Adobe Illustrator 15.0.0, SVG Export Plug-In . SVG Version: 6.00 Build 0)  -->
<!DOCTYPE svg PUBLIC "-//W3C//DTD SVG 1.1//EN" "http://www.w3.org/Graphics/SVG/1.1/DTD/svg11.dtd">
<svg version="1.1" id="Layer_1" xmlns="http://www.w3.org/2000/svg" xmlns:xlink="http://www.w3.org/1999/xlink" x="0px" y="0px"
	 width="12px" height="12.001px" viewBox="10 10 12 12.001" enable-background="new 10 10 12 12.001" xml:space="preserve">
<path fill="#555555" d="M16,10c0.45,0,0.837,0.161,1.157,0.48c0.319,0.32,0.48,0.705,0.48,1.157v8.726
	c0,0.451-0.161,0.838-0.48,1.158C16.837,21.84,16.452,22,16,22s-0.837-0.16-1.157-0.479c-0.319-0.32-0.48-0.706-0.48-1.158v-8.727
	c0-0.452,0.161-0.838,0.48-1.158C15.163,10.159,15.548,10,16,10z M11.637,16.545c0.451,0,0.838,0.161,1.156,0.479
	c0.32,0.32,0.479,0.705,0.479,1.158v2.181c0,0.452-0.159,0.838-0.479,1.158c-0.318,0.319-0.705,0.479-1.156,0.479
	c-0.452,0-0.838-0.16-1.158-0.479C10.161,21.2,10,20.814,10,20.363v-2.182c0-0.452,0.161-0.837,0.479-1.157
	C10.799,16.705,11.185,16.545,11.637,16.545z M11.637,17.637c-0.151,0-0.28,0.053-0.386,0.16c-0.106,0.106-0.161,0.234-0.161,0.386
	v2.181c0,0.152,0.054,0.279,0.161,0.386c0.106,0.106,0.234,0.161,0.386,0.161c0.15,0,0.278-0.054,0.386-0.161
	c0.107-0.106,0.16-0.233,0.16-0.386v-2.181c0-0.151-0.053-0.28-0.16-0.386S11.787,17.637,11.637,17.637z M16,11.09
	c-0.15,0-0.279,0.054-0.386,0.161c-0.106,0.106-0.16,0.234-0.16,0.386v8.727c0,0.152,0.053,0.279,0.16,0.386S15.85,20.91,16,20.91
	s0.278-0.054,0.386-0.161c0.106-0.106,0.16-0.233,0.16-0.386v-8.727c0-0.151-0.053-0.279-0.16-0.386S16.15,11.09,16,11.09z
	 M20.363,13.273c0.452,0,0.838,0.159,1.158,0.479C21.839,14.071,22,14.457,22,14.908v5.455c0,0.451-0.161,0.838-0.48,1.158
	C21.2,21.84,20.815,22,20.362,22c-0.451,0-0.837-0.16-1.156-0.479c-0.32-0.32-0.48-0.706-0.48-1.158v-5.455
	c0-0.451,0.16-0.837,0.48-1.156C19.525,13.432,19.911,13.273,20.363,13.273z M20.363,14.363c-0.15,0-0.278,0.053-0.384,0.16
	c-0.107,0.107-0.162,0.235-0.162,0.387v5.453c0,0.152,0.053,0.279,0.162,0.386c0.105,0.106,0.233,0.161,0.384,0.161
	c0.151,0,0.28-0.054,0.386-0.161c0.107-0.106,0.161-0.233,0.161-0.386V14.91c0-0.151-0.054-0.279-0.161-0.387
	C20.644,14.416,20.515,14.363,20.363,14.363z"/>
</svg>
