<?xml version="1.0" encoding="utf-8"?>
<!-- Generator: Adobe Illustrator 15.0.0, SVG Export Plug-In . SVG Version: 6.00 Build 0)  -->
<!DOCTYPE svg PUBLIC "-//W3C//DTD SVG 1.1//EN" "http://www.w3.org/Graphics/SVG/1.1/DTD/svg11.dtd">
<svg version="1.1" id="Layer_1" xmlns="http://www.w3.org/2000/svg" xmlns:xlink="http://www.w3.org/1999/xlink" x="0px" y="0px"
	 width="18px" height="18px" viewBox="6.999 6.999 18 18" enable-background="new 6.999 6.999 18 18" xml:space="preserve">
<path fill="#555555" d="M16,7.749c0.645,0,1.254,0.104,1.829,0.314c0.573,0.208,1.083,0.496,1.529,0.864
	c0.445,0.367,0.847,0.803,1.2,1.31c0.355,0.506,0.651,1.053,0.888,1.641c0.237,0.588,0.422,1.212,0.554,1.872
	c0.395,1.98,0.813,3.546,1.257,4.696s1.024,2.085,1.743,2.804H18.12c0.086,0.246,0.129,0.496,0.129,0.75
	c0,0.621-0.22,1.151-0.659,1.591s-0.97,0.659-1.591,0.659s-1.151-0.22-1.591-0.659s-0.659-0.97-0.659-1.591
	c0-0.254,0.043-0.504,0.129-0.75H6.999c0.719-0.719,1.3-1.653,1.743-2.804c0.444-1.15,0.863-2.715,1.257-4.696
	c0.132-0.66,0.317-1.284,0.553-1.872s0.532-1.135,0.888-1.641c0.355-0.506,0.756-0.942,1.201-1.31
	c0.445-0.368,0.955-0.655,1.53-0.864C14.745,7.854,15.354,7.749,16,7.749L16,7.749z M16,21.249c-0.207,0-0.384,0.073-0.53,0.221
	c-0.146,0.146-0.22,0.323-0.22,0.53s0.074,0.384,0.22,0.53s0.323,0.22,0.53,0.22s0.383-0.073,0.531-0.22
	c0.146-0.146,0.22-0.323,0.22-0.53s-0.073-0.384-0.22-0.53C16.383,21.322,16.207,21.249,16,21.249z M16,9.25
	c-0.453,0-0.88,0.07-1.28,0.211c-0.4,0.14-0.743,0.32-1.028,0.539c-0.285,0.218-0.549,0.481-0.793,0.788
	c-0.244,0.306-0.442,0.604-0.595,0.894c-0.152,0.289-0.29,0.598-0.413,0.925c-0.123,0.328-0.213,0.599-0.272,0.812
	c-0.059,0.213-0.107,0.421-0.146,0.624c-0.5,2.52-1.051,4.422-1.653,5.708h12.363c-0.601-1.285-1.152-3.188-1.652-5.708
	c-0.038-0.203-0.088-0.411-0.146-0.624c-0.058-0.213-0.149-0.483-0.272-0.812s-0.26-0.637-0.412-0.925
	c-0.152-0.289-0.351-0.587-0.595-0.894S18.595,10.218,18.31,10s-0.628-0.398-1.028-0.539s-0.827-0.211-1.28-0.211H16z"/>
</svg>
