<?xml version="1.0" encoding="utf-8"?>
<!-- Generator: Adobe Illustrator 15.0.0, SVG Export Plug-In . SVG Version: 6.00 Build 0)  -->
<!DOCTYPE svg PUBLIC "-//W3C//DTD SVG 1.1//EN" "http://www.w3.org/Graphics/SVG/1.1/DTD/svg11.dtd">
<svg version="1.1" id="Layer_1" xmlns="http://www.w3.org/2000/svg" xmlns:xlink="http://www.w3.org/1999/xlink" x="0px" y="0px"
	 width="18px" height="18px" viewBox="7 7 18 18" enable-background="new 7 7 18 18" xml:space="preserve">
<path fill="#555555" d="M16,8.666c0.573,0,1.113,0.094,1.626,0.279c0.509,0.186,0.962,0.441,1.358,0.768
	c0.396,0.326,0.752,0.715,1.066,1.164c0.315,0.451,0.578,0.938,0.788,1.459c0.212,0.522,0.376,1.078,0.493,1.664
	c0.352,1.762,0.723,3.151,1.117,4.174s0.91,1.854,1.55,2.492h-6.115c0.076,0.219,0.114,0.441,0.114,0.668
	c0,0.551-0.195,1.021-0.586,1.414c-0.391,0.392-0.862,0.586-1.414,0.586c-0.553,0-1.023-0.195-1.414-0.586
	c-0.393-0.391-0.586-0.863-0.586-1.414c0-0.227,0.038-0.449,0.113-0.668H8c0.639-0.639,1.154-1.469,1.549-2.492
	c0.395-1.021,0.768-2.412,1.117-4.174c0.117-0.586,0.282-1.142,0.491-1.664c0.21-0.521,0.474-1.008,0.788-1.459
	c0.316-0.449,0.673-0.836,1.068-1.164c0.396-0.326,0.85-0.582,1.359-0.768C14.885,8.759,15.426,8.666,16,8.666L16,8.666z M16,20.666
	c-0.184,0-0.341,0.064-0.471,0.195c-0.131,0.131-0.196,0.288-0.196,0.473c0,0.184,0.065,0.34,0.196,0.472
	C15.659,21.934,15.816,22,16,22s0.34-0.064,0.473-0.194c0.129-0.132,0.194-0.288,0.194-0.472c0-0.185-0.063-0.342-0.194-0.473
	C16.34,20.73,16.184,20.666,16,20.666z M16,10c-0.402,0-0.782,0.062-1.137,0.188c-0.356,0.125-0.662,0.285-0.915,0.479
	c-0.253,0.192-0.488,0.426-0.705,0.699c-0.218,0.271-0.394,0.537-0.527,0.795c-0.136,0.258-0.259,0.531-0.368,0.822
	c-0.109,0.292-0.188,0.532-0.24,0.723c-0.053,0.188-0.096,0.373-0.131,0.555c-0.444,2.238-0.935,3.93-1.47,5.072h10.989
	c-0.534-1.143-1.023-2.834-1.469-5.072c-0.033-0.182-0.078-0.365-0.131-0.555c-0.051-0.19-0.131-0.431-0.24-0.723
	c-0.109-0.293-0.231-0.566-0.366-0.822c-0.136-0.258-0.312-0.521-0.53-0.795c-0.217-0.273-0.453-0.507-0.705-0.699
	c-0.255-0.193-0.56-0.354-0.914-0.479C16.785,10.063,16.404,10,16.002,10H16z"/>
</svg>
