<?xml version="1.0" encoding="utf-8"?>
<!-- Generator: Adobe Illustrator 15.0.0, SVG Export Plug-In . SVG Version: 6.00 Build 0)  -->
<!DOCTYPE svg PUBLIC "-//W3C//DTD SVG 1.1//EN" "http://www.w3.org/Graphics/SVG/1.1/DTD/svg11.dtd">
<svg version="1.1" id="Layer_1" xmlns="http://www.w3.org/2000/svg" xmlns:xlink="http://www.w3.org/1999/xlink" x="0px" y="0px"
	 width="16px" height="14.666px" viewBox="8 8.667 16 14.666" enable-background="new 8 8.667 16 14.666" xml:space="preserve">
<path fill="#555555" d="M24,20.667c-1.333-1.335-2-3.335-2.667-6.667C20.757,11.112,18.944,8.667,16,8.667S11.243,11.112,10.667,14
	C10,17.333,9.333,19.333,8,20.667h6.115C14.042,20.875,14,21.099,14,21.332c0,1.105,0.895,2,2,2c1.104,0,2-0.895,2-2
	c0-0.233-0.043-0.457-0.116-0.665H24z M16.667,21.333c0,0.368-0.3,0.667-0.667,0.667c-0.368,0-0.667-0.299-0.667-0.667
	s0.299-0.666,0.667-0.666C16.367,20.667,16.667,20.965,16.667,21.333z"/>
</svg>
