<?xml version="1.0" encoding="utf-8"?>
<!-- Generator: Adobe Illustrator 15.0.0, SVG Export Plug-In . SVG Version: 6.00 Build 0)  -->
<!DOCTYPE svg PUBLIC "-//W3C//DTD SVG 1.1//EN" "http://www.w3.org/Graphics/SVG/1.1/DTD/svg11.dtd">
<svg version="1.1" id="Layer_1" xmlns="http://www.w3.org/2000/svg" xmlns:xlink="http://www.w3.org/1999/xlink" x="0px" y="0px"
	 width="18px" height="18px" viewBox="7 6.999 18 18" enable-background="new 7 6.999 18 18" xml:space="preserve">
<path fill="#555555" d="M25,21.25c-1.5-1.501-2.25-3.751-3-7.5c-0.649-3.249-2.687-6-6-6c-3.313,0-5.351,2.751-6,6
	c-0.75,3.75-1.5,6-3,7.5h6.88c-0.083,0.234-0.13,0.486-0.13,0.749c0,1.243,1.007,2.25,2.25,2.25c1.242,0,2.25-1.007,2.25-2.25
	c0-0.263-0.048-0.515-0.131-0.749H25z M16.75,22c0,0.414-0.337,0.75-0.75,0.75c-0.414,0-0.75-0.336-0.75-0.75s0.336-0.75,0.75-0.75
	C16.413,21.25,16.75,21.586,16.75,22z"/>
</svg>
