<?xml version="1.0" encoding="utf-8"?>
<!-- Generator: Adobe Illustrator 15.0.0, SVG Export Plug-In . SVG Version: 6.00 Build 0)  -->
<!DOCTYPE svg PUBLIC "-//W3C//DTD SVG 1.1//EN" "http://www.w3.org/Graphics/SVG/1.1/DTD/svg11.dtd">
<svg version="1.1" id="Layer_1" xmlns="http://www.w3.org/2000/svg" xmlns:xlink="http://www.w3.org/1999/xlink" x="0px" y="0px"
	 width="16px" height="14.667px" viewBox="8 8.666 16 14.667" enable-background="new 8 8.666 16 14.667" xml:space="preserve">
<path fill="#555555" d="M16,8.666c0.573,0,1.114,0.093,1.626,0.279c0.509,0.185,0.962,0.441,1.358,0.768
	c0.396,0.326,0.753,0.715,1.067,1.164c0.315,0.45,0.578,0.937,0.788,1.459c0.212,0.522,0.376,1.077,0.493,1.664
	c0.351,1.761,0.722,3.151,1.117,4.174c0.395,1.022,0.91,1.854,1.55,2.492h-6.115c0.076,0.219,0.114,0.441,0.114,0.667
	c0,0.552-0.195,1.022-0.586,1.414s-0.862,0.586-1.414,0.586s-1.023-0.195-1.414-0.586c-0.392-0.39-0.586-0.862-0.586-1.414
	c0-0.226,0.038-0.448,0.114-0.667H8c0.639-0.639,1.155-1.469,1.549-2.492c0.395-1.022,0.768-2.413,1.117-4.174
	c0.117-0.587,0.282-1.142,0.491-1.664c0.21-0.522,0.474-1.009,0.789-1.459c0.316-0.449,0.672-0.837,1.067-1.164
	c0.396-0.327,0.85-0.582,1.36-0.768C14.885,8.759,15.426,8.666,16,8.666L16,8.666z M16,20.665c-0.184,0-0.341,0.065-0.471,0.196
	s-0.196,0.288-0.196,0.472s0.066,0.341,0.196,0.472C15.659,21.934,15.816,22,16,22s0.34-0.065,0.472-0.195
	c0.13-0.131,0.195-0.288,0.195-0.472s-0.064-0.341-0.195-0.472C16.34,20.73,16.184,20.665,16,20.665z M16,10
	c-0.402,0-0.782,0.062-1.137,0.188c-0.356,0.125-0.662,0.285-0.915,0.479c-0.253,0.193-0.488,0.427-0.705,0.7
	c-0.217,0.271-0.393,0.537-0.527,0.794c-0.136,0.258-0.259,0.532-0.368,0.823c-0.109,0.292-0.189,0.532-0.241,0.722
	c-0.053,0.189-0.096,0.374-0.131,0.555c-0.444,2.239-0.934,3.93-1.469,5.073h10.989c-0.534-1.143-1.024-2.834-1.469-5.073
	c-0.033-0.181-0.078-0.365-0.13-0.555s-0.132-0.43-0.241-0.722c-0.109-0.293-0.231-0.566-0.366-0.823
	c-0.136-0.257-0.312-0.521-0.53-0.794c-0.217-0.273-0.453-0.507-0.706-0.7c-0.254-0.193-0.559-0.354-0.914-0.479
	S16.404,10,16.002,10H16z"/>
</svg>
