<?xml version="1.0" encoding="utf-8"?>
<!-- Generator: Adobe Illustrator 15.0.0, SVG Export Plug-In . SVG Version: 6.00 Build 0)  -->
<!DOCTYPE svg PUBLIC "-//W3C//DTD SVG 1.1//EN" "http://www.w3.org/Graphics/SVG/1.1/DTD/svg11.dtd">
<svg version="1.1" id="Layer_1" xmlns="http://www.w3.org/2000/svg" xmlns:xlink="http://www.w3.org/1999/xlink" x="0px" y="0px"
	 width="14px" height="14px" viewBox="9 9 14 14" enable-background="new 9 9 14 14" xml:space="preserve">
<path fill="#555555" d="M22.3,11.1c0.201,0,0.367,0.066,0.501,0.199C22.934,11.433,23,11.6,23,11.8c0,0.197-0.067,0.363-0.202,0.498
	l-8.4,8.4C14.263,20.833,14.097,20.9,13.9,20.9s-0.363-0.067-0.498-0.202l-4.2-4.2C9.067,16.363,9,16.197,9,16
	c0-0.201,0.066-0.367,0.199-0.5C9.333,15.367,9.5,15.3,9.7,15.3c0.197,0,0.363,0.067,0.498,0.202l3.702,3.709l7.903-7.909
	C21.938,11.167,22.104,11.1,22.3,11.1z"/>
</svg>
