<?xml version="1.0" encoding="utf-8"?>
<!-- Generator: Adobe Illustrator 15.0.0, SVG Export Plug-In . SVG Version: 6.00 Build 0)  -->
<!DOCTYPE svg PUBLIC "-//W3C//DTD SVG 1.1//EN" "http://www.w3.org/Graphics/SVG/1.1/DTD/svg11.dtd">
<svg version="1.1" id="Layer_1" xmlns="http://www.w3.org/2000/svg" xmlns:xlink="http://www.w3.org/1999/xlink" x="0px" y="0px"
	 width="14px" height="14px" viewBox="9 9 14 14" enable-background="new 9 9 14 14" xml:space="preserve">
<path fill="#555555" d="M21.399,11.8c0.173,0,0.315,0.057,0.43,0.171C21.943,12.086,22,12.229,22,12.399
	c0,0.17-0.057,0.312-0.173,0.428l-7.2,7.2C14.512,20.143,14.369,20.2,14.2,20.2s-0.312-0.058-0.427-0.173l-3.601-3.601
	C10.057,16.312,10,16.169,10,16c0-0.173,0.057-0.314,0.171-0.429c0.114-0.113,0.258-0.172,0.43-0.172
	c0.168,0,0.311,0.059,0.427,0.174l3.173,3.179l6.773-6.779C21.089,11.857,21.231,11.8,21.399,11.8z"/>
</svg>
