<?xml version="1.0" encoding="utf-8"?>
<!-- Generator: Adobe Illustrator 18.1.1, SVG Export Plug-In . SVG Version: 6.00 Build 0)  -->
<svg version="1.1" id="Layer_1" xmlns="http://www.w3.org/2000/svg" xmlns:xlink="http://www.w3.org/1999/xlink" x="0px" y="0px"
	 width="24px" height="24px" viewBox="294 386 24 24" style="enable-background:new 294 386 24 24;" xml:space="preserve">
<g>
	<g>
		<path style="fill:#555555;" d="M312.2,390.9c0.3,0,0.5,0.1,0.6,0.2c0.1,0.1,0.2,0.4,0.2,0.6s-0.1,0.5-0.3,0.6l-5.6,5.6l5.6,5.6
			c0.2,0.2,0.3,0.4,0.3,0.6c0,0.3-0.1,0.5-0.2,0.6c-0.1,0.1-0.4,0.2-0.6,0.2s-0.5-0.1-0.6-0.3L306,399l-5.6,5.6
			c-0.2,0.2-0.4,0.3-0.6,0.3c-0.3,0-0.5-0.1-0.6-0.2c-0.1-0.1-0.2-0.4-0.2-0.6s0.1-0.5,0.3-0.6l5.6-5.6l-5.6-5.6
			c-0.2-0.2-0.3-0.4-0.3-0.6c0-0.3,0.1-0.5,0.2-0.6c0.1-0.1,0.4-0.2,0.6-0.2s0.5,0.1,0.6,0.3l5.6,5.6l5.6-5.6
			C311.8,391,312,390.9,312.2,390.9z"/>
	</g>
</g>
<g>
	<g>
		<path style="fill:#555555;" d="M306,409.5c-3.1,0-6-1.2-8.1-3.4c-2.2-2.2-3.4-5.1-3.4-8.1c0-3.1,1.2-6,3.4-8.1
			c2.2-2.2,5.1-3.4,8.1-3.4c3.1,0,6,1.2,8.1,3.4c2.2,2.2,3.4,5.1,3.4,8.1c0,3.1-1.2,6-3.4,8.1C312,408.3,309.1,409.5,306,409.5z
			 M306,387.6c-2.8,0-5.4,1.1-7.4,3.1s-3.1,4.6-3.1,7.4c0,2.8,1.1,5.4,3.1,7.4s4.6,3.1,7.4,3.1c2.8,0,5.4-1.1,7.4-3.1
			s3.1-4.6,3.1-7.4c0-2.8-1.1-5.4-3.1-7.4S308.8,387.6,306,387.6z"/>
	</g>
</g>
</svg>
