<?xml version="1.0" encoding="utf-8"?>
<!-- Generator: Adobe Illustrator 18.1.1, SVG Export Plug-In . SVG Version: 6.00 Build 0)  -->
<svg version="1.1" id="Layer_1" xmlns="http://www.w3.org/2000/svg" xmlns:xlink="http://www.w3.org/1999/xlink" x="0px" y="0px"
	 width="28px" height="28px" viewBox="292 384 28 28" style="enable-background:new 292 384 28 28;" xml:space="preserve">
<g>
	<g>
		<path style="fill:#555555;" d="M313.1,389.9c0.3,0,0.6,0.1,0.7,0.2c0.1,0.1,0.2,0.5,0.2,0.7s-0.1,0.6-0.3,0.7l-6.4,6.4l6.4,6.4
			c0.2,0.2,0.3,0.5,0.3,0.7c0,0.3-0.1,0.6-0.2,0.7c-0.1,0.1-0.5,0.2-0.7,0.2c-0.2,0-0.6-0.1-0.7-0.3l-6.4-6.4l-6.4,6.4
			c-0.2,0.2-0.5,0.3-0.7,0.3c-0.3,0-0.6-0.1-0.7-0.2c-0.1-0.1-0.2-0.5-0.2-0.7s0.1-0.6,0.3-0.7l6.4-6.4l-6.4-6.4
			c-0.2-0.2-0.3-0.5-0.3-0.7c0-0.3,0.1-0.6,0.2-0.7c0.1-0.1,0.5-0.2,0.7-0.2c0.2,0,0.6,0.1,0.7,0.3l6.4,6.4l6.4-6.4
			C312.6,390,312.8,389.9,313.1,389.9z"/>
	</g>
</g>
<g>
	<g>
		<path style="fill:#555555;" d="M306,411c-3.5,0-6.7-1.4-9.2-3.8c-2.5-2.5-3.8-5.7-3.8-9.2c0-3.5,1.4-6.7,3.8-9.2s5.7-3.8,9.2-3.8
			c3.5,0,6.7,1.4,9.2,3.8c2.5,2.5,3.8,5.7,3.8,9.2c0,3.5-1.4,6.7-3.8,9.2C312.7,409.6,309.5,411,306,411z M306,386.2
			c-3.2,0-6.1,1.2-8.3,3.5c-2.2,2.2-3.5,5.2-3.5,8.3c0,3.2,1.2,6.1,3.5,8.3c2.2,2.2,5.2,3.5,8.3,3.5c3.2,0,6.1-1.2,8.3-3.5
			c2.2-2.2,3.5-5.2,3.5-8.3c0-3.2-1.2-6.1-3.5-8.3C312.1,387.4,309.2,386.2,306,386.2z"/>
	</g>
</g>
</svg>
