<?xml version="1.0" encoding="utf-8"?>
<!-- Generator: Adobe Illustrator 18.1.1, SVG Export Plug-In . SVG Version: 6.00 Build 0)  -->
<svg version="1.1" id="Layer_1" xmlns="http://www.w3.org/2000/svg" xmlns:xlink="http://www.w3.org/1999/xlink" x="0px" y="0px"
	 width="26px" height="26px" viewBox="-293.8 391.8 26 26" enable-background="new -293.8 391.8 26 26" xml:space="preserve">
<path fill="#555555" d="M-274.7,397.8c0.2,0,0.5,0.1,0.6,0.2c0.2,0.2,0.2,0.4,0.2,0.6c0,0.2-0.1,0.5-0.3,0.6l-5.5,5.5l5.5,5.5
	c0.2,0.2,0.3,0.4,0.3,0.6c0,0.2-0.1,0.5-0.2,0.6c-0.2,0.2-0.4,0.2-0.6,0.2c-0.2,0-0.5-0.1-0.6-0.3l-5.5-5.5l-5.5,5.5
	c-0.2,0.2-0.4,0.3-0.6,0.3c-0.3,0-0.5-0.1-0.6-0.2c-0.2-0.2-0.2-0.4-0.2-0.6c0-0.2,0.1-0.5,0.3-0.6l5.5-5.5l-5.5-5.5
	c-0.2-0.2-0.3-0.4-0.3-0.6c0-0.3,0.1-0.5,0.2-0.6c0.2-0.2,0.4-0.2,0.6-0.2c0.2,0,0.5,0.1,0.6,0.3l5.5,5.5l5.5-5.5
	C-275.1,397.9-274.9,397.8-274.7,397.8z"/>
<g>
	<path fill="#555555" d="M-280.8,416.5c-6.5,0-11.7-5.3-11.7-11.8c0-6.5,5.3-11.8,11.7-11.8s11.8,5.3,11.8,11.8
		C-269,411.3-274.3,416.5-280.8,416.5z M-280.8,394.5c-5.7,0-10.2,4.6-10.2,10.3s4.6,10.2,10.2,10.2c5.7,0,10.2-4.6,10.2-10.2
		S-275.1,394.5-280.8,394.5z"/>
</g>
</svg>
