<?xml version="1.0" encoding="utf-8"?>
<!-- Generator: Adobe Illustrator 15.0.0, SVG Export Plug-In . SVG Version: 6.00 Build 0)  -->
<!DOCTYPE svg PUBLIC "-//W3C//DTD SVG 1.1//EN" "http://www.w3.org/Graphics/SVG/1.1/DTD/svg11.dtd">
<svg version="1.1" id="Layer_1" xmlns="http://www.w3.org/2000/svg" xmlns:xlink="http://www.w3.org/1999/xlink" x="0px" y="0px"
	 width="14px" height="14px" viewBox="9 8.999 14 14" enable-background="new 9 8.999 14 14" xml:space="preserve">
<path fill="#555555" d="M16,9.999c0.815,0,1.592,0.158,2.334,0.475c0.739,0.316,1.377,0.743,1.912,1.279
	c0.536,0.535,0.962,1.173,1.278,1.913S22,15.184,22,15.999s-0.159,1.593-0.476,2.333s-0.742,1.379-1.278,1.913
	c-0.535,0.536-1.173,0.962-1.912,1.277c-0.74,0.318-1.519,0.477-2.334,0.477s-1.594-0.158-2.334-0.477
	c-0.739-0.315-1.377-0.741-1.912-1.277c-0.536-0.534-0.962-1.173-1.278-1.913C10.157,17.592,10,16.814,10,15.999
	s0.159-1.593,0.476-2.333c0.315-0.74,0.742-1.378,1.278-1.913c0.535-0.536,1.173-0.962,1.912-1.279
	C14.406,10.157,15.185,9.999,16,9.999z M16,11.09c-0.665,0-1.301,0.131-1.907,0.39c-0.607,0.261-1.128,0.608-1.565,1.047
	c-0.438,0.437-0.786,0.959-1.046,1.565c-0.26,0.607-0.39,1.242-0.39,1.907s0.129,1.302,0.39,1.907
	c0.26,0.606,0.607,1.128,1.046,1.565c0.437,0.438,0.958,0.786,1.565,1.047c0.606,0.26,1.242,0.39,1.907,0.39s1.301-0.13,1.907-0.39
	c0.607-0.261,1.128-0.609,1.565-1.047c0.438-0.438,0.786-0.959,1.048-1.565c0.259-0.605,0.39-1.242,0.39-1.907
	c-0.002-0.664-0.131-1.3-0.39-1.907c-0.262-0.606-0.609-1.129-1.048-1.565c-0.438-0.438-0.96-0.786-1.565-1.047
	C17.301,11.221,16.665,11.09,16,11.09z M17.838,14.358c0.149,0,0.278,0.053,0.386,0.16c0.105,0.106,0.16,0.235,0.16,0.387
	c0,0.15-0.055,0.279-0.162,0.388l-2.313,2.313c-0.105,0.105-0.233,0.158-0.386,0.158s-0.282-0.053-0.387-0.158l-1.158-1.154
	c-0.105-0.105-0.158-0.235-0.158-0.389c0-0.15,0.053-0.279,0.16-0.386c0.107-0.107,0.235-0.16,0.386-0.16
	c0.151,0,0.28,0.054,0.389,0.161l0.771,0.771l1.927-1.931C17.557,14.413,17.687,14.358,17.838,14.358L17.838,14.358z"/>
</svg>
