<?xml version="1.0" encoding="utf-8"?>
<!-- Generator: Adobe Illustrator 18.1.1, SVG Export Plug-In . SVG Version: 6.00 Build 0)  -->
<svg version="1.1" id="Layer_1" xmlns="http://www.w3.org/2000/svg" xmlns:xlink="http://www.w3.org/1999/xlink" x="0px" y="0px"
	 width="32px" height="32px" viewBox="290 382 32 32" style="enable-background:new 290 382 32 32;" xml:space="preserve">
<g>
	<g>
		<path style="fill:#555555;" d="M314,388.9c0.4,0,0.7,0.1,0.8,0.3c0.1,0.1,0.3,0.5,0.3,0.8c0,0.3-0.1,0.7-0.4,0.8l-7.2,7.2l7.2,7.2
			c0.3,0.3,0.4,0.5,0.4,0.8c0,0.4-0.1,0.7-0.3,0.8c-0.1,0.1-0.5,0.3-0.8,0.3s-0.7-0.1-0.8-0.4l-7.2-7.2l-7.2,7.2
			c-0.3,0.3-0.5,0.4-0.8,0.4c-0.4,0-0.7-0.1-0.8-0.3c-0.1-0.1-0.3-0.5-0.3-0.8c0-0.3,0.1-0.7,0.4-0.8l7.2-7.2l-7.2-7.2
			c-0.3-0.3-0.4-0.5-0.4-0.8c0-0.4,0.1-0.7,0.3-0.8c0.1-0.1,0.5-0.3,0.8-0.3c0.3,0,0.7,0.1,0.8,0.4l7.2,7.2l7.2-7.2
			C313.4,389,313.7,388.9,314,388.9z"/>
	</g>
</g>
<g>
	<g>
		<path style="fill:#555555;" d="M306,413c-4,0-7.8-1.6-10.6-4.4c-2.8-2.8-4.4-6.6-4.4-10.6c0-4,1.6-7.8,4.4-10.6S302,383,306,383
			c4,0,7.8,1.6,10.6,4.4c2.8,2.8,4.4,6.6,4.4,10.6c0,4-1.6,7.8-4.4,10.6C313.8,411.4,310,413,306,413z M306,384.4
			c-3.6,0-7.1,1.4-9.6,4s-4,6-4,9.6c0,3.6,1.4,7.1,4,9.6s6,4,9.6,4c3.6,0,7.1-1.4,9.6-4s4-6,4-9.6c0-3.6-1.4-7.1-4-9.6
			S309.6,384.4,306,384.4z"/>
	</g>
</g>
</svg>
