<?xml version="1.0" encoding="utf-8"?>
<!-- Generator: Adobe Illustrator 18.1.1, SVG Export Plug-In . SVG Version: 6.00 Build 0)  -->
<svg version="1.1" id="Layer_1" xmlns="http://www.w3.org/2000/svg" xmlns:xlink="http://www.w3.org/1999/xlink" x="0px" y="0px"
	 width="18px" height="18px" viewBox="297 389 18 18" style="enable-background:new 297 389 18 18;" xml:space="preserve">
<g>
	<g>
		<path style="fill:#555555;" d="M310.4,392.9c0.2,0,0.4,0.1,0.4,0.1c0.1,0.1,0.1,0.3,0.1,0.4c0,0.1-0.1,0.4-0.2,0.4l-4,4l4,4
			c0.1,0.1,0.2,0.3,0.2,0.4c0,0.2-0.1,0.4-0.1,0.4c-0.1,0.1-0.3,0.1-0.4,0.1s-0.4-0.1-0.4-0.2l-4-4l-4,4c-0.1,0.1-0.3,0.2-0.4,0.2
			c-0.2,0-0.4-0.1-0.4-0.1c-0.1-0.1-0.1-0.3-0.1-0.4s0.1-0.4,0.2-0.4l4-4l-4-4c-0.1-0.1-0.2-0.3-0.2-0.4c0-0.2,0.1-0.4,0.1-0.4
			c0.1-0.1,0.3-0.1,0.4-0.1c0.1,0,0.4,0.1,0.4,0.2l4,4l4-4C310.1,393,310.3,392.9,310.4,392.9z"/>
	</g>
</g>
<g>
	<g>
		<path style="fill:#555555;" d="M306,406c-2.1,0-4.1-0.8-5.7-2.3c-1.5-1.5-2.3-3.5-2.3-5.7c0-2.1,0.8-4.1,2.3-5.7
			c1.5-1.5,3.5-2.3,5.7-2.3c2.1,0,4.1,0.8,5.7,2.3c1.5,1.5,2.3,3.5,2.3,5.7c0,2.1-0.8,4.1-2.3,5.7C310.1,405.2,308.1,406,306,406z
			 M306,390.7c-1.9,0-3.8,0.8-5.1,2.1s-2.1,3.2-2.1,5.1c0,1.9,0.8,3.8,2.1,5.1s3.2,2.1,5.1,2.1c1.9,0,3.8-0.8,5.1-2.1
			s2.1-3.2,2.1-5.1c0-1.9-0.8-3.8-2.1-5.1S307.9,390.7,306,390.7z"/>
	</g>
</g>
</svg>
