<?xml version="1.0" encoding="utf-8"?>
<!-- Generator: Adobe Illustrator 15.0.0, SVG Export Plug-In . SVG Version: 6.00 Build 0)  -->
<!DOCTYPE svg PUBLIC "-//W3C//DTD SVG 1.1//EN" "http://www.w3.org/Graphics/SVG/1.1/DTD/svg11.dtd">
<svg version="1.1" id="Layer_1" xmlns="http://www.w3.org/2000/svg" xmlns:xlink="http://www.w3.org/1999/xlink" x="0px" y="0px"
	 width="15px" height="15px" viewBox="8.5 8.499 15 15" enable-background="new 8.5 8.499 15 15" xml:space="preserve">
<path fill="#555555" d="M16,8.999c0.951,0,1.858,0.185,2.722,0.554s1.607,0.867,2.232,1.492c0.625,0.625,1.122,1.369,1.491,2.232
	C22.815,14.14,23,15.048,23,15.999s-0.185,1.858-0.555,2.722c-0.369,0.863-0.866,1.608-1.491,2.232
	c-0.625,0.625-1.369,1.122-2.232,1.491c-0.863,0.37-1.771,0.555-2.722,0.555s-1.859-0.185-2.722-0.555
	c-0.863-0.369-1.607-0.866-2.232-1.491c-0.625-0.624-1.122-1.369-1.492-2.232S9,16.95,9,15.999s0.185-1.859,0.554-2.722
	s0.867-1.607,1.492-2.232c0.625-0.625,1.369-1.122,2.232-1.492S15.049,8.999,16,8.999z M16,10.272c-0.776,0-1.518,0.152-2.225,0.455
	c-0.708,0.303-1.316,0.709-1.827,1.22c-0.511,0.51-0.917,1.12-1.22,1.827c-0.303,0.708-0.455,1.449-0.455,2.225
	s0.151,1.518,0.455,2.225c0.303,0.708,0.71,1.316,1.22,1.827c0.51,0.51,1.119,0.917,1.827,1.221c0.708,0.303,1.45,0.455,2.225,0.455
	c0.775,0,1.517-0.152,2.225-0.455c0.708-0.304,1.316-0.711,1.827-1.221c0.51-0.511,0.917-1.119,1.221-1.827
	c0.303-0.707,0.455-1.449,0.455-2.225c-0.001-0.775-0.152-1.517-0.455-2.225c-0.304-0.708-0.71-1.317-1.221-1.827
	c-0.511-0.511-1.12-0.917-1.827-1.22S16.775,10.272,16,10.272z M18.144,14.085c0.175,0,0.325,0.062,0.45,0.187
	c0.124,0.125,0.187,0.275,0.187,0.45c0,0.176-0.063,0.327-0.189,0.453l-2.7,2.699c-0.123,0.123-0.271,0.184-0.448,0.184
	c-0.179,0-0.33-0.061-0.452-0.184l-1.352-1.347c-0.123-0.123-0.184-0.274-0.184-0.453c0-0.176,0.062-0.326,0.187-0.45
	c0.125-0.125,0.274-0.187,0.45-0.187s0.327,0.063,0.453,0.188l0.899,0.9l2.248-2.252C17.816,14.148,17.968,14.085,18.144,14.085
	L18.144,14.085z"/>
</svg>
