<?xml version="1.0" encoding="utf-8"?>
<!-- Generator: Adobe Illustrator 15.0.0, SVG Export Plug-In . SVG Version: 6.00 Build 0)  -->
<!DOCTYPE svg PUBLIC "-//W3C//DTD SVG 1.1//EN" "http://www.w3.org/Graphics/SVG/1.1/DTD/svg11.dtd">
<svg version="1.1" id="Layer_1" xmlns="http://www.w3.org/2000/svg" xmlns:xlink="http://www.w3.org/1999/xlink" x="0px" y="0px"
	 width="14px" height="14px" viewBox="9 9 14 14" enable-background="new 9 9 14 14" xml:space="preserve">
<path fill="#555555" d="M17.5,11.499c0.609,0,1.192,0.12,1.748,0.357s1.034,0.558,1.436,0.959c0.4,0.401,0.721,0.879,0.958,1.436
	C21.88,14.808,21.999,15.391,22,16c0,0.608-0.12,1.191-0.358,1.748c-0.237,0.556-0.558,1.034-0.958,1.436
	c-0.401,0.4-0.878,0.722-1.436,0.959c-0.556,0.238-1.14,0.357-1.748,0.357H13c-0.544,0-1.046-0.134-1.506-0.402
	s-0.823-0.633-1.091-1.092C10.134,18.545,10,18.043,10,17.498c0-0.546,0.134-1.046,0.403-1.506c0.268-0.459,0.631-0.823,1.091-1.092
	s0.962-0.402,1.506-0.402h0.258c0.206-0.581,0.516-1.098,0.929-1.549c0.415-0.451,0.909-0.807,1.487-1.064
	C16.251,11.627,16.859,11.498,17.5,11.499L17.5,11.499z M17.5,12.499c-0.432,0-0.849,0.077-1.249,0.233
	c-0.399,0.154-0.751,0.364-1.055,0.63c-0.303,0.266-0.557,0.583-0.762,0.953c-0.204,0.37-0.336,0.765-0.396,1.184H13
	c-0.553,0-1.022,0.196-1.415,0.586c-0.39,0.392-0.586,0.862-0.586,1.414c0,0.554,0.196,1.023,0.586,1.414
	C11.978,19.305,12.447,19.5,13,19.5h4.5c0.474,0,0.928-0.094,1.359-0.278s0.804-0.434,1.116-0.746
	c0.313-0.312,0.562-0.685,0.747-1.117c0.186-0.432,0.278-0.885,0.278-1.358s-0.093-0.928-0.278-1.359
	c-0.185-0.432-0.434-0.806-0.747-1.118c-0.311-0.312-0.685-0.562-1.116-0.746S17.974,12.499,17.5,12.499z"/>
</svg>
