<?xml version="1.0" encoding="utf-8"?>
<!-- Generator: Adobe Illustrator 15.0.0, SVG Export Plug-In . SVG Version: 6.00 Build 0)  -->
<!DOCTYPE svg PUBLIC "-//W3C//DTD SVG 1.1//EN" "http://www.w3.org/Graphics/SVG/1.1/DTD/svg11.dtd">
<svg version="1.1" id="Layer_1" xmlns="http://www.w3.org/2000/svg" xmlns:xlink="http://www.w3.org/1999/xlink" x="0px" y="0px"
	 width="14px" height="14px" viewBox="8.999 8.334 14 14" enable-background="new 8.999 8.334 14 14" xml:space="preserve">
<path fill="#555555" d="M17.499,10.583c0.609,0,1.193,0.12,1.748,0.357c0.556,0.237,1.035,0.558,1.436,0.959
	c0.402,0.401,0.722,0.88,0.96,1.437c0.237,0.555,0.356,1.139,0.356,1.748c0,0.568-0.103,1.113-0.308,1.637
	c-0.21,0.523-0.491,0.982-0.845,1.376c-0.356,0.392-0.78,0.718-1.274,0.978c-0.493,0.26-1.018,0.421-1.572,0.482v-1.008
	c0.56-0.081,1.068-0.284,1.524-0.608c0.457-0.324,0.817-0.736,1.081-1.238C20.87,16.201,21,15.661,21,15.083
	c0-0.474-0.091-0.928-0.276-1.359c-0.187-0.433-0.435-0.804-0.747-1.117c-0.313-0.313-0.685-0.562-1.118-0.747
	c-0.432-0.186-0.886-0.276-1.359-0.276c-0.432,0-0.848,0.076-1.248,0.231c-0.399,0.155-0.751,0.366-1.055,0.631
	c-0.304,0.267-0.558,0.583-0.762,0.954c-0.204,0.37-0.337,0.764-0.396,1.184h-1.039c-0.552,0-1.022,0.195-1.414,0.587
	c-0.393,0.39-0.586,0.862-0.586,1.414c0,0.302,0.059,0.582,0.177,0.84c0.119,0.259,0.274,0.469,0.468,0.634
	c0.192,0.165,0.406,0.295,0.643,0.388c0.236,0.092,0.474,0.139,0.713,0.139h2v0.999h-2c-0.544,0-1.046-0.134-1.506-0.401
	c-0.46-0.269-0.823-0.633-1.091-1.093c-0.269-0.458-0.403-0.961-0.403-1.506c0-0.544,0.134-1.047,0.403-1.505
	c0.269-0.46,0.632-0.824,1.091-1.092c0.46-0.269,0.96-0.403,1.506-0.403h0.258c0.206-0.581,0.517-1.097,0.93-1.549
	c0.414-0.451,0.911-0.807,1.487-1.064C16.25,10.711,16.858,10.582,17.499,10.583L17.499,10.583z M16.499,14.583
	c0.138,0,0.257,0.05,0.355,0.148l1.5,1.5c0.097,0.097,0.145,0.214,0.145,0.353c0,0.143-0.048,0.264-0.143,0.357
	s-0.214,0.143-0.357,0.143c-0.141,0-0.26-0.049-0.355-0.145l-0.645-0.648v3.293c0,0.14-0.05,0.257-0.146,0.354
	c-0.099,0.098-0.216,0.146-0.354,0.146c-0.139,0-0.256-0.049-0.354-0.146c-0.098-0.097-0.146-0.214-0.146-0.354v-3.293l-0.645,0.648
	c-0.097,0.096-0.214,0.145-0.355,0.145c-0.139,0-0.257-0.051-0.354-0.146c-0.097-0.099-0.146-0.217-0.146-0.354
	c0-0.132,0.048-0.25,0.145-0.352l1.5-1.5C16.242,14.633,16.359,14.583,16.499,14.583L16.499,14.583z"/>
</svg>
