<?xml version="1.0" encoding="utf-8"?>
<!-- Generator: Adobe Illustrator 15.0.0, SVG Export Plug-In . SVG Version: 6.00 Build 0)  -->
<!DOCTYPE svg PUBLIC "-//W3C//DTD SVG 1.1//EN" "http://www.w3.org/Graphics/SVG/1.1/DTD/svg11.dtd">
<svg version="1.1" id="Layer_1" xmlns="http://www.w3.org/2000/svg" xmlns:xlink="http://www.w3.org/1999/xlink" x="0px" y="0px"
	 width="14px" height="14px" viewBox="9 8.998 14 14" enable-background="new 9 8.998 14 14" xml:space="preserve">
<path fill="#555555" d="M17.75,10.749c0.711,0,1.391,0.139,2.039,0.417c0.648,0.278,1.207,0.651,1.675,1.119
	s0.841,1.026,1.118,1.675c0.278,0.649,0.417,1.329,0.418,2.04c0,0.71-0.14,1.391-0.418,2.04c-0.277,0.648-0.65,1.206-1.118,1.675
	c-0.468,0.467-1.025,0.841-1.675,1.118c-0.649,0.278-1.329,0.417-2.039,0.417H12.5c-0.635,0-1.221-0.156-1.757-0.47
	c-0.537-0.312-0.961-0.737-1.273-1.273C9.156,18.969,9,18.384,9,17.748s0.156-1.221,0.47-1.757c0.313-0.536,0.737-0.961,1.273-1.274
	c0.536-0.313,1.122-0.469,1.757-0.469h0.301c0.24-0.678,0.602-1.28,1.084-1.807c0.483-0.527,1.061-0.941,1.734-1.242
	C16.293,10.898,17.003,10.748,17.75,10.749L17.75,10.749z M17.75,11.916c-0.504,0-0.99,0.09-1.457,0.271
	c-0.466,0.181-0.876,0.426-1.23,0.736c-0.354,0.31-0.65,0.68-0.889,1.112s-0.392,0.892-0.462,1.381H12.5
	c-0.644,0-1.194,0.228-1.65,0.684c-0.456,0.456-0.684,1.006-0.684,1.649c0,0.645,0.228,1.194,0.684,1.65
	c0.456,0.456,1.006,0.684,1.65,0.684h5.25c0.553,0,1.082-0.108,1.586-0.324s0.938-0.506,1.303-0.87
	c0.365-0.364,0.655-0.799,0.871-1.304c0.216-0.504,0.324-1.032,0.324-1.585s-0.108-1.082-0.324-1.586
	c-0.216-0.504-0.506-0.939-0.871-1.304c-0.364-0.365-0.799-0.655-1.303-0.871S18.303,11.916,17.75,11.916z"/>
</svg>
