<?xml version="1.0" encoding="utf-8"?>
<!-- Generator: Adobe Illustrator 15.0.0, SVG Export Plug-In . SVG Version: 6.00 Build 0)  -->
<!DOCTYPE svg PUBLIC "-//W3C//DTD SVG 1.1//EN" "http://www.w3.org/Graphics/SVG/1.1/DTD/svg11.dtd">
<svg version="1.1" id="Layer_1" xmlns="http://www.w3.org/2000/svg" xmlns:xlink="http://www.w3.org/1999/xlink" x="0px" y="0px"
	 width="14px" height="14px" viewBox="9 9 14 14" enable-background="new 9 9 14 14" xml:space="preserve">
<path fill="#555555" d="M17.749,9.792c0.711,0,1.392,0.139,2.039,0.417c0.648,0.278,1.207,0.651,1.675,1.119
	c0.469,0.468,0.841,1.026,1.119,1.675c0.278,0.648,0.416,1.328,0.416,2.039c0,0.663-0.119,1.299-0.36,1.91
	c-0.243,0.61-0.571,1.146-0.984,1.604c-0.415,0.458-0.911,0.839-1.487,1.141c-0.575,0.303-1.187,0.49-1.834,0.563v-1.176
	c0.653-0.095,1.246-0.331,1.779-0.709c0.533-0.379,0.953-0.859,1.26-1.445c0.309-0.584,0.461-1.214,0.461-1.889
	c0-0.553-0.107-1.082-0.323-1.586c-0.217-0.504-0.507-0.938-0.871-1.303c-0.365-0.365-0.799-0.655-1.304-0.871
	c-0.504-0.216-1.033-0.323-1.586-0.323c-0.504,0-0.989,0.09-1.456,0.271c-0.466,0.181-0.876,0.426-1.231,0.735
	c-0.354,0.311-0.65,0.681-0.888,1.113c-0.239,0.432-0.393,0.892-0.462,1.381h-1.212c-0.644,0-1.194,0.228-1.65,0.684
	c-0.457,0.456-0.684,1.006-0.684,1.65c0,0.353,0.069,0.679,0.207,0.979c0.139,0.302,0.32,0.548,0.545,0.741
	c0.225,0.192,0.474,0.343,0.75,0.451c0.275,0.107,0.552,0.162,0.832,0.162h2.333v1.166h-2.333c-0.635,0-1.221-0.156-1.757-0.469
	c-0.537-0.313-0.961-0.738-1.273-1.274c-0.313-0.535-0.47-1.121-0.47-1.757c0-0.635,0.156-1.22,0.47-1.756s0.737-0.961,1.273-1.273
	c0.536-0.313,1.121-0.47,1.757-0.47h0.301c0.24-0.678,0.602-1.28,1.084-1.807c0.483-0.527,1.062-0.941,1.735-1.242
	C16.292,9.941,17.002,9.791,17.749,9.792L17.749,9.792z M16.582,14.458c0.161,0,0.3,0.058,0.415,0.173l1.75,1.75
	c0.112,0.113,0.168,0.25,0.168,0.411c0,0.167-0.055,0.307-0.166,0.417c-0.11,0.11-0.25,0.166-0.417,0.166
	c-0.164,0-0.302-0.057-0.415-0.168l-0.752-0.757v3.842c0,0.162-0.057,0.299-0.171,0.412c-0.114,0.114-0.251,0.171-0.412,0.171
	s-0.298-0.057-0.413-0.171c-0.114-0.113-0.171-0.25-0.171-0.412V16.45l-0.752,0.757c-0.112,0.111-0.25,0.168-0.415,0.168
	c-0.161,0-0.299-0.058-0.413-0.171c-0.114-0.114-0.171-0.252-0.171-0.413c0-0.154,0.056-0.292,0.168-0.41l1.75-1.75
	C16.282,14.516,16.42,14.458,16.582,14.458L16.582,14.458z"/>
</svg>
