<?xml version="1.0" encoding="utf-8"?>
<!-- Generator: Adobe Illustrator 15.0.0, SVG Export Plug-In . SVG Version: 6.00 Build 0)  -->
<!DOCTYPE svg PUBLIC "-//W3C//DTD SVG 1.1//EN" "http://www.w3.org/Graphics/SVG/1.1/DTD/svg11.dtd">
<svg version="1.1" id="Layer_1" xmlns="http://www.w3.org/2000/svg" xmlns:xlink="http://www.w3.org/1999/xlink" x="0px" y="0px"
	 width="14px" height="14px" viewBox="9 9 14 14" enable-background="new 9 9 14 14" xml:space="preserve">
<path fill="#555555" d="M16,9c0.483,0,0.896,0.171,1.237,0.513s0.513,0.754,0.513,1.237v0.301c0.143,0.049,0.314,0.119,0.515,0.21
	l0.21-0.21c0.343-0.343,0.756-0.515,1.239-0.515c0.479,0,0.892,0.171,1.235,0.515c0.343,0.344,0.515,0.755,0.515,1.235
	c0,0.483-0.172,0.896-0.515,1.239l-0.21,0.21c0.091,0.2,0.161,0.372,0.21,0.515h0.301c0.482,0,0.896,0.171,1.237,0.513
	S23,15.517,23,16s-0.171,0.896-0.513,1.237s-0.755,0.513-1.237,0.513h-0.301c-0.049,0.143-0.119,0.314-0.21,0.515l0.21,0.21
	c0.343,0.343,0.515,0.756,0.515,1.239c0,0.479-0.172,0.892-0.515,1.235c-0.344,0.343-0.756,0.515-1.235,0.515
	c-0.483,0-0.896-0.172-1.239-0.515l-0.21-0.21c-0.2,0.091-0.372,0.161-0.515,0.21v0.301c0,0.482-0.171,0.896-0.513,1.237
	S16.483,23,16,23s-0.896-0.171-1.237-0.513s-0.513-0.755-0.513-1.237v-0.301c-0.143-0.049-0.314-0.119-0.515-0.21l-0.21,0.21
	c-0.343,0.343-0.755,0.515-1.235,0.515c-0.483,0-0.896-0.172-1.237-0.515c-0.342-0.344-0.513-0.756-0.513-1.235
	c0-0.486,0.17-0.899,0.51-1.239l0.21-0.21c-0.091-0.2-0.161-0.372-0.21-0.515H10.75c-0.483,0-0.896-0.171-1.237-0.513S9,16.483,9,16
	s0.171-0.896,0.513-1.237s0.754-0.513,1.237-0.513h0.301c0.049-0.143,0.119-0.314,0.21-0.515l-0.21-0.21
	c-0.34-0.34-0.51-0.753-0.51-1.239c0-0.48,0.171-0.892,0.513-1.235c0.342-0.343,0.754-0.515,1.237-0.515
	c0.48,0,0.892,0.171,1.235,0.515l0.21,0.21c0.2-0.091,0.372-0.161,0.515-0.21V10.75c0-0.483,0.171-0.896,0.513-1.237S15.517,9,16,9z
	 M16,10.167c-0.161,0-0.298,0.057-0.413,0.171c-0.114,0.114-0.171,0.251-0.171,0.413v1.208c-0.681,0.097-1.302,0.354-1.864,0.77
	L12.7,11.876c-0.115-0.116-0.252-0.174-0.41-0.174c-0.161,0-0.298,0.057-0.413,0.171c-0.114,0.114-0.171,0.251-0.171,0.413
	c0,0.164,0.056,0.302,0.168,0.415l0.853,0.853c-0.416,0.562-0.673,1.183-0.77,1.864H10.75c-0.161,0-0.298,0.057-0.413,0.171
	c-0.114,0.114-0.171,0.251-0.171,0.413s0.057,0.298,0.171,0.412c0.114,0.115,0.251,0.171,0.413,0.171h1.208
	c0.097,0.681,0.354,1.302,0.77,1.863L11.875,19.3c-0.112,0.112-0.168,0.251-0.168,0.415c0,0.161,0.057,0.299,0.171,0.412
	c0.114,0.115,0.251,0.172,0.413,0.172c0.158,0,0.295-0.058,0.41-0.174l0.852-0.853c0.562,0.416,1.183,0.674,1.864,0.771v1.207
	c0,0.161,0.057,0.299,0.171,0.413c0.114,0.114,0.251,0.171,0.413,0.171s0.299-0.057,0.413-0.171
	c0.114-0.114,0.171-0.252,0.171-0.413v-1.207c0.681-0.097,1.302-0.354,1.864-0.771l0.852,0.853c0.115,0.116,0.254,0.174,0.415,0.174
	s0.299-0.057,0.412-0.172c0.115-0.113,0.172-0.251,0.172-0.412s-0.058-0.3-0.174-0.415l-0.853-0.853
	c0.416-0.562,0.674-1.183,0.771-1.863h1.208c0.16,0,0.298-0.057,0.412-0.171c0.114-0.114,0.171-0.251,0.171-0.412
	s-0.057-0.298-0.171-0.413s-0.252-0.171-0.412-0.171h-1.208c-0.097-0.681-0.354-1.302-0.771-1.864l0.853-0.853
	c0.116-0.115,0.174-0.253,0.174-0.415s-0.057-0.299-0.172-0.413c-0.113-0.114-0.251-0.171-0.412-0.171s-0.3,0.058-0.415,0.174
	l-0.852,0.852c-0.562-0.416-1.184-0.673-1.864-0.77V10.75c0-0.161-0.057-0.298-0.171-0.413C16.298,10.224,16.161,10.167,16,10.167
	L16,10.167z M16,13.667c0.645,0,1.193,0.228,1.65,0.684c0.455,0.456,0.684,1.006,0.684,1.65s-0.229,1.194-0.684,1.65
	c-0.457,0.456-1.006,0.684-1.65,0.684c-0.644,0-1.194-0.228-1.65-0.684c-0.456-0.456-0.684-1.006-0.684-1.65s0.228-1.194,0.684-1.65
	C14.806,13.895,15.356,13.667,16,13.667z M16,14.833c-0.322,0-0.597,0.114-0.825,0.342c-0.228,0.228-0.342,0.503-0.342,0.825
	s0.114,0.597,0.342,0.825s0.503,0.342,0.825,0.342c0.322,0,0.597-0.114,0.824-0.342c0.229-0.228,0.342-0.503,0.342-0.825
	s-0.113-0.597-0.342-0.825C16.597,14.947,16.322,14.833,16,14.833z"/>
</svg>
