<?xml version="1.0" encoding="utf-8"?>
<!-- Generator: Adobe Illustrator 15.0.0, SVG Export Plug-In . SVG Version: 6.00 Build 0)  -->
<!DOCTYPE svg PUBLIC "-//W3C//DTD SVG 1.1//EN" "http://www.w3.org/Graphics/SVG/1.1/DTD/svg11.dtd">
<svg version="1.1" id="Layer_1" xmlns="http://www.w3.org/2000/svg" xmlns:xlink="http://www.w3.org/1999/xlink" x="0px" y="0px"
	 width="14px" height="14px" viewBox="9 9 14 14" enable-background="new 9 9 14 14" xml:space="preserve">
<path fill="#555555" d="M16,10c0.413,0,0.769,0.146,1.06,0.44c0.293,0.293,0.44,0.646,0.44,1.06v0.258
	c0.122,0.042,0.27,0.103,0.442,0.18l0.179-0.18c0.295-0.294,0.647-0.441,1.062-0.441c0.411,0,0.764,0.146,1.059,0.441
	c0.294,0.295,0.441,0.647,0.441,1.059c0,0.415-0.147,0.768-0.441,1.062l-0.181,0.179c0.078,0.173,0.139,0.32,0.181,0.442H20.5
	c0.413,0,0.769,0.146,1.06,0.44C21.853,15.233,22,15.587,22,16s-0.146,0.769-0.44,1.06c-0.293,0.293-0.646,0.44-1.06,0.44h-0.258
	c-0.042,0.122-0.103,0.27-0.181,0.442l0.181,0.179c0.294,0.295,0.441,0.647,0.441,1.062c0,0.411-0.147,0.764-0.441,1.059
	c-0.295,0.294-0.647,0.441-1.059,0.441c-0.415,0-0.768-0.147-1.062-0.441l-0.179-0.18c-0.173,0.077-0.32,0.138-0.442,0.18V20.5
	c0,0.413-0.146,0.769-0.44,1.06C16.767,21.853,16.413,22,16,22s-0.769-0.146-1.06-0.44c-0.293-0.293-0.44-0.646-0.44-1.06v-0.258
	c-0.122-0.042-0.27-0.103-0.442-0.18l-0.179,0.18c-0.295,0.294-0.647,0.441-1.059,0.441c-0.415,0-0.768-0.147-1.061-0.441
	c-0.293-0.295-0.439-0.647-0.439-1.059c0-0.416,0.146-0.771,0.437-1.062l0.18-0.179c-0.077-0.173-0.137-0.32-0.18-0.442H11.5
	c-0.413,0-0.769-0.146-1.06-0.44C10.147,16.767,10,16.413,10,16s0.146-0.769,0.44-1.06c0.293-0.293,0.646-0.44,1.06-0.44h0.258
	c0.042-0.122,0.103-0.27,0.181-0.442l-0.181-0.179c-0.291-0.291-0.437-0.646-0.437-1.062c0-0.411,0.146-0.764,0.439-1.059
	c0.293-0.294,0.646-0.441,1.061-0.441c0.411,0,0.765,0.146,1.058,0.441l0.181,0.18c0.171-0.077,0.318-0.138,0.441-0.18V11.5
	c0-0.413,0.146-0.769,0.439-1.06C15.233,10.147,15.587,10,16,10z M16,11c-0.138,0-0.255,0.05-0.354,0.146
	c-0.098,0.099-0.146,0.216-0.146,0.354v1.035c-0.584,0.084-1.116,0.303-1.598,0.66l-0.729-0.731c-0.099-0.1-0.216-0.148-0.352-0.148
	c-0.139,0-0.256,0.048-0.354,0.146c-0.097,0.097-0.146,0.215-0.146,0.354c0,0.141,0.048,0.259,0.145,0.356l0.73,0.731
	c-0.356,0.481-0.576,1.013-0.66,1.597H11.5c-0.138,0-0.255,0.049-0.354,0.146c-0.098,0.098-0.146,0.215-0.146,0.354
	c0,0.139,0.049,0.255,0.146,0.353c0.099,0.1,0.216,0.146,0.354,0.146h1.035c0.083,0.584,0.304,1.116,0.661,1.598l-0.732,0.729
	c-0.095,0.097-0.144,0.216-0.144,0.356c0,0.138,0.049,0.256,0.146,0.353c0.098,0.099,0.215,0.147,0.354,0.147
	c0.135,0,0.252-0.049,0.352-0.148l0.729-0.732c0.482,0.357,1.015,0.578,1.598,0.662V20.5c0,0.138,0.05,0.256,0.146,0.354
	c0.099,0.098,0.216,0.146,0.354,0.146s0.256-0.049,0.354-0.146c0.098-0.099,0.146-0.217,0.146-0.354v-1.034
	c0.584-0.084,1.116-0.304,1.599-0.662l0.729,0.732c0.099,0.1,0.218,0.148,0.355,0.148c0.139,0,0.258-0.049,0.354-0.147
	c0.099-0.097,0.147-0.215,0.147-0.353s-0.05-0.258-0.149-0.356l-0.73-0.73c0.356-0.482,0.578-1.015,0.66-1.597h1.036
	c0.137,0,0.255-0.049,0.353-0.146c0.098-0.099,0.146-0.216,0.146-0.354c0-0.139-0.049-0.256-0.146-0.354S20.639,15.5,20.502,15.5
	h-1.036c-0.082-0.583-0.304-1.115-0.66-1.598l0.73-0.73c0.1-0.099,0.149-0.217,0.149-0.356c0-0.139-0.049-0.256-0.147-0.354
	c-0.096-0.098-0.215-0.146-0.354-0.146c-0.138,0-0.257,0.049-0.355,0.148l-0.729,0.73c-0.482-0.356-1.015-0.576-1.599-0.66V11.5
	c0-0.138-0.049-0.255-0.146-0.354C16.255,11.05,16.138,11,16,11L16,11z M16,14c0.553,0,1.022,0.195,1.415,0.587
	c0.39,0.391,0.586,0.862,0.586,1.414s-0.196,1.023-0.586,1.414c-0.393,0.392-0.862,0.586-1.415,0.586s-1.022-0.194-1.415-0.586
	c-0.39-0.391-0.586-0.862-0.586-1.414s0.196-1.023,0.586-1.414C14.978,14.195,15.447,14,16,14z M16,15
	c-0.276,0-0.513,0.098-0.707,0.293C15.098,15.487,15,15.724,15,16s0.098,0.513,0.293,0.707C15.487,16.902,15.724,17,16,17
	s0.513-0.098,0.706-0.293c0.196-0.194,0.293-0.431,0.293-0.707s-0.097-0.513-0.293-0.707C16.513,15.098,16.276,15,16,15z"/>
</svg>
