<?xml version="1.0" encoding="utf-8"?>
<!-- Generator: Adobe Illustrator 15.0.0, SVG Export Plug-In . SVG Version: 6.00 Build 0)  -->
<!DOCTYPE svg PUBLIC "-//W3C//DTD SVG 1.1//EN" "http://www.w3.org/Graphics/SVG/1.1/DTD/svg11.dtd">
<svg version="1.1" id="Layer_1" xmlns="http://www.w3.org/2000/svg" xmlns:xlink="http://www.w3.org/1999/xlink" x="0px" y="0px"
	 width="10px" height="10px" viewBox="11 11 10 10" enable-background="new 11 11 10 10" xml:space="preserve">
<path fill="#555555" d="M19.5,12c0.144,0,0.263,0.047,0.356,0.142C19.951,12.236,20,12.356,20,12.499
	c0,0.141-0.049,0.26-0.144,0.355l-3.15,3.145l3.15,3.145C19.951,19.24,20,19.359,20,19.499c0,0.144-0.049,0.263-0.144,0.357
	c-0.094,0.095-0.214,0.142-0.356,0.142c-0.142,0-0.26-0.048-0.354-0.144L16,16.706l-3.146,3.15C12.759,19.951,12.64,20,12.5,20
	c-0.144,0-0.264-0.049-0.357-0.143C12.049,19.762,12,19.643,12,19.499c0-0.141,0.049-0.259,0.146-0.355l3.148-3.145l-3.148-3.145
	C12.049,12.759,12,12.64,12,12.499c0-0.143,0.049-0.263,0.143-0.357C12.237,12.047,12.356,12,12.5,12
	c0.141,0,0.26,0.047,0.354,0.144L16,15.293l3.146-3.149C19.24,12.047,19.358,12,19.5,12z"/>
</svg>
