<?xml version="1.0" encoding="utf-8"?>
<!-- Generator: Adobe Illustrator 15.0.0, SVG Export Plug-In . SVG Version: 6.00 Build 0)  -->
<!DOCTYPE svg PUBLIC "-//W3C//DTD SVG 1.1//EN" "http://www.w3.org/Graphics/SVG/1.1/DTD/svg11.dtd">
<svg version="1.1" id="Layer_1" xmlns="http://www.w3.org/2000/svg" xmlns:xlink="http://www.w3.org/1999/xlink" x="0px" y="0px"
	 width="18px" height="18px" viewBox="7 6.999 18 18" enable-background="new 7 6.999 18 18" xml:space="preserve">
<path fill="#555555" d="M23,7.999c0.286,0,0.525,0.095,0.715,0.284C23.904,8.474,24,8.712,24,8.999c0,0.281-0.096,0.519-0.288,0.711
	l-6.298,6.289l6.298,6.289C23.904,22.48,24,22.717,24,22.999c0,0.285-0.096,0.524-0.285,0.716c-0.189,0.189-0.428,0.284-0.715,0.284
	c-0.281,0-0.519-0.097-0.711-0.288L16,17.413l-6.289,6.298C9.519,23.902,9.282,23.999,9,23.999c-0.286,0-0.525-0.095-0.716-0.284
	C8.095,23.523,8,23.284,8,22.999c0-0.28,0.096-0.519,0.289-0.711l6.297-6.289L8.289,9.71C8.096,9.518,8,9.28,8,8.999
	c0-0.287,0.095-0.525,0.284-0.716C8.475,8.094,8.713,7.999,9,7.999c0.281,0,0.519,0.096,0.711,0.289L16,14.586l6.289-6.298
	C22.481,8.095,22.719,7.999,23,7.999z"/>
</svg>
