<?xml version="1.0" encoding="utf-8"?>
<!-- Generator: Adobe Illustrator 15.0.0, SVG Export Plug-In . SVG Version: 6.00 Build 0)  -->
<!DOCTYPE svg PUBLIC "-//W3C//DTD SVG 1.1//EN" "http://www.w3.org/Graphics/SVG/1.1/DTD/svg11.dtd">
<svg version="1.1" id="Layer_1" xmlns="http://www.w3.org/2000/svg" xmlns:xlink="http://www.w3.org/1999/xlink" x="0px" y="0px"
	 width="14px" height="14px" viewBox="9 8.999 14 14" enable-background="new 9 8.999 14 14" xml:space="preserve">
<path fill="#555555" d="M21.25,9.999c0.214,0,0.395,0.071,0.536,0.214C21.928,10.354,22,10.534,22,10.749
	c0,0.211-0.073,0.389-0.216,0.533l-4.725,4.717l4.725,4.717C21.927,20.859,22,21.038,22,21.249c0,0.214-0.072,0.394-0.214,0.536
	c-0.142,0.142-0.322,0.214-0.536,0.214c-0.212,0-0.39-0.073-0.533-0.216L16,17.06l-4.717,4.724
	c-0.145,0.143-0.322,0.216-0.533,0.216c-0.215,0-0.395-0.072-0.536-0.214C10.071,21.643,10,21.463,10,21.249
	c0-0.211,0.072-0.39,0.217-0.533l4.724-4.717l-4.724-4.717C10.072,11.138,10,10.96,10,10.749c0-0.215,0.071-0.395,0.214-0.536
	c0.142-0.143,0.321-0.214,0.536-0.214c0.211,0,0.389,0.072,0.533,0.216L16,14.938l4.717-4.724
	C20.86,10.071,21.038,9.999,21.25,9.999z"/>
</svg>
