<?xml version="1.0" encoding="utf-8"?>
<!-- Generator: Adobe Illustrator 15.0.0, SVG Export Plug-In . SVG Version: 6.00 Build 0)  -->
<!DOCTYPE svg PUBLIC "-//W3C//DTD SVG 1.1//EN" "http://www.w3.org/Graphics/SVG/1.1/DTD/svg11.dtd">
<svg version="1.1" id="Layer_1" xmlns="http://www.w3.org/2000/svg" xmlns:xlink="http://www.w3.org/1999/xlink" x="0px" y="0px"
	 width="16px" height="16px" viewBox="8 7.999 16 16" enable-background="new 8 7.999 16 16" xml:space="preserve">
<path fill="#555555" d="M22.125,8.999c0.25,0,0.46,0.083,0.625,0.249C22.916,9.415,23,9.623,23,9.874
	c0,0.246-0.086,0.454-0.252,0.622l-5.511,5.503l5.511,5.503C22.914,21.67,23,21.878,23,22.124c0,0.25-0.084,0.459-0.25,0.626
	c-0.165,0.164-0.375,0.249-0.625,0.249c-0.247,0-0.455-0.085-0.622-0.252L16,17.236l-5.503,5.511
	c-0.169,0.167-0.376,0.252-0.622,0.252c-0.251,0-0.459-0.085-0.625-0.249C9.083,22.583,9,22.374,9,22.124
	c0-0.246,0.084-0.454,0.253-0.622l5.51-5.503l-5.51-5.503C9.084,10.328,9,10.12,9,9.874c0-0.251,0.083-0.459,0.25-0.626
	c0.166-0.166,0.374-0.249,0.625-0.249c0.246,0,0.453,0.084,0.622,0.253L16,14.762l5.503-5.511
	C21.67,9.083,21.878,8.999,22.125,8.999z"/>
</svg>
