<?xml version="1.0" encoding="utf-8"?>
<!-- Generator: Adobe Illustrator 15.0.0, SVG Export Plug-In . SVG Version: 6.00 Build 0)  -->
<!DOCTYPE svg PUBLIC "-//W3C//DTD SVG 1.1//EN" "http://www.w3.org/Graphics/SVG/1.1/DTD/svg11.dtd">
<svg version="1.1" id="Layer_1" xmlns="http://www.w3.org/2000/svg" xmlns:xlink="http://www.w3.org/1999/xlink" x="0px" y="0px"
	 width="18px" height="18px" viewBox="7 6.999 18 18" enable-background="new 7 6.999 18 18" xml:space="preserve">
<path fill="#555555" d="M23.875,6.999c0.322,0,0.591,0.107,0.805,0.32C24.893,7.533,25,7.802,25,8.124
	c0,0.316-0.108,0.583-0.324,0.8l-7.085,7.075l7.085,7.075c0.216,0.217,0.324,0.483,0.324,0.8c0,0.322-0.107,0.59-0.32,0.805
	c-0.214,0.213-0.482,0.32-0.805,0.32c-0.317,0-0.583-0.108-0.8-0.324L16,17.59l-7.075,7.085c-0.217,0.216-0.483,0.324-0.8,0.324
	c-0.322,0-0.591-0.107-0.805-0.32C7.107,24.464,7,24.196,7,23.874c0-0.316,0.108-0.583,0.325-0.8l7.084-7.075L7.325,8.924
	C7.108,8.707,7,8.44,7,8.124c0-0.322,0.107-0.591,0.32-0.805c0.214-0.213,0.482-0.32,0.805-0.32c0.316,0,0.583,0.108,0.8,0.325
	L16,14.409l7.075-7.085C23.292,7.107,23.558,6.999,23.875,6.999z"/>
</svg>
