<?xml version="1.0" encoding="utf-8"?>
<!-- Generator: Adobe Illustrator 15.0.0, SVG Export Plug-In . SVG Version: 6.00 Build 0)  -->
<!DOCTYPE svg PUBLIC "-//W3C//DTD SVG 1.1//EN" "http://www.w3.org/Graphics/SVG/1.1/DTD/svg11.dtd">
<svg version="1.1" id="Layer_1" xmlns="http://www.w3.org/2000/svg" xmlns:xlink="http://www.w3.org/1999/xlink" x="0px" y="0px"
	 width="10px" height="10px" viewBox="11 10.999 10 10" enable-background="new 11 10.999 10 10" xml:space="preserve">
<path fill="#555555" d="M20.375,10.999c0.179,0,0.328,0.06,0.446,0.178C20.94,11.295,21,11.445,21,11.624
	c0,0.176-0.061,0.324-0.18,0.444l-3.937,3.931l3.937,3.931c0.119,0.12,0.18,0.269,0.18,0.444c0,0.179-0.06,0.328-0.179,0.447
	c-0.118,0.118-0.268,0.178-0.446,0.178c-0.177,0-0.324-0.061-0.444-0.18L16,16.883l-3.931,3.937c-0.121,0.119-0.269,0.18-0.444,0.18
	c-0.179,0-0.329-0.06-0.447-0.178C11.06,20.702,11,20.553,11,20.374c0-0.176,0.06-0.324,0.181-0.444l3.936-3.931l-3.936-3.931
	C11.06,11.948,11,11.8,11,11.624c0-0.179,0.06-0.329,0.178-0.447c0.119-0.118,0.268-0.178,0.447-0.178
	c0.176,0,0.324,0.06,0.444,0.18L16,15.116l3.931-3.937C20.051,11.059,20.198,10.999,20.375,10.999z"/>
</svg>
