<?xml version="1.0" encoding="utf-8"?>
<!-- Generator: Adobe Illustrator 15.0.0, SVG Export Plug-In . SVG Version: 6.00 Build 0)  -->
<!DOCTYPE svg PUBLIC "-//W3C//DTD SVG 1.1//EN" "http://www.w3.org/Graphics/SVG/1.1/DTD/svg11.dtd">
<svg version="1.1" id="Layer_1" xmlns="http://www.w3.org/2000/svg" xmlns:xlink="http://www.w3.org/1999/xlink" x="0px" y="0px"
	 width="12px" height="12px" viewBox="9.934 10.158 12 12" enable-background="new 9.934 10.158 12 12" xml:space="preserve">
<path fill="#555555" d="M12.163,11.157c2.514,0,5.025,0,7.54,0c0.372,0.038,0.648,0.207,0.852,0.42
	c0.203,0.214,0.364,0.499,0.38,0.895c0,2.454,0,4.91,0,7.363c-0.022,0.494-0.255,0.81-0.538,1.034
	c-0.148,0.117-0.32,0.214-0.531,0.258c-0.215,0.045-0.469,0.029-0.753,0.029c-2.096,0-4.184,0-6.272,0
	c-0.291,0-0.547,0.016-0.771-0.019c-0.213-0.03-0.403-0.117-0.555-0.227c-0.297-0.216-0.526-0.525-0.579-0.988
	c0-2.514,0-5.026,0-7.539C11.047,11.678,11.457,11.268,12.163,11.157L12.163,11.157z M11.853,12.471
	c-0.019,0.162-0.007,0.333-0.007,0.501c0,2.22,0,4.407,0,6.63c0,0.184,0,0.319,0.077,0.433c0.068,0.104,0.166,0.18,0.314,0.199
	c0.159,0.019,0.33,0.005,0.502,0.005c2.227,0,4.42,0,6.641,0c0.186,0,0.317,0.001,0.433-0.076c0.104-0.07,0.18-0.165,0.199-0.314
	c0.019-0.157,0.006-0.332,0.006-0.504c0-2.214,0-4.441,0-6.641c0-0.188-0.001-0.32-0.076-0.432c-0.07-0.104-0.166-0.179-0.316-0.2
	c-0.14-0.018-0.294-0.005-0.449-0.005c-2.007,0-4.011,0-5.998,0c-0.301,0-0.651-0.025-0.928,0.005
	C12.054,12.095,11.879,12.23,11.853,12.471z"/>
<path fill="#555555" d="M15.31,12.699c0.419,0,0.837,0,1.257,0c0.015,1.632,0.015,3.25-0.205,4.648c-0.28,0-0.562,0-0.841,0
	c-0.235-1.383-0.229-3.004-0.217-4.632C15.304,12.708,15.303,12.699,15.31,12.699z"/>
<path fill="#555555" d="M15.842,18.03c0.384-0.034,0.649,0.152,0.776,0.375c0.157,0.275,0.105,0.666-0.046,0.87
	c-0.218,0.291-0.71,0.417-1.076,0.188c-0.239-0.152-0.421-0.462-0.327-0.86c0.042-0.177,0.109-0.276,0.234-0.384
	C15.517,18.119,15.654,18.049,15.842,18.03L15.842,18.03z"/>
</svg>
