<?xml version="1.0" encoding="utf-8"?>
<!-- Generator: Adobe Illustrator 18.1.1, SVG Export Plug-In . SVG Version: 6.00 Build 0)  -->
<svg version="1.1" id="Layer_1" xmlns="http://www.w3.org/2000/svg" xmlns:xlink="http://www.w3.org/1999/xlink" x="0px" y="0px"
	 width="36px" height="36px" viewBox="-194.1 192.2 36 36" enable-background="new -194.1 192.2 36 36" xml:space="preserve">
<path fill="#555555" d="M-188.9,193.2c8.5,0,17.1,0,25.6,0c1.3,0.1,2.2,0.7,2.9,1.4c0.7,0.7,1.2,1.7,1.3,3c0,8.3,0,16.7,0,25
	c-0.1,1.7-0.9,2.8-1.8,3.5c-0.5,0.4-1.1,0.7-1.8,0.9c-0.7,0.2-1.6,0.1-2.6,0.1c-7.1,0-14.2,0-21.3,0c-1,0-1.9,0.1-2.6-0.1
	c-0.7-0.1-1.4-0.4-1.9-0.8c-1-0.7-1.8-1.8-2-3.4c0-8.6,0-17.1,0-25.6C-192.7,194.9-191.3,193.5-188.9,193.2L-188.9,193.2z
	 M-189.9,197.6c-0.1,0.5,0,1.1,0,1.7c0,7.5,0,15,0,22.5c0,0.6,0,1.1,0.3,1.5c0.2,0.4,0.6,0.6,1.1,0.7c0.5,0.1,1.1,0,1.7,0
	c7.6,0,15,0,22.6,0c0.6,0,1.1,0,1.5-0.3c0.4-0.2,0.6-0.6,0.7-1.1c0.1-0.5,0-1.1,0-1.7c0-7.5,0-15.1,0-22.6c0-0.6,0-1.1-0.3-1.5
	c-0.2-0.4-0.6-0.6-1.1-0.7c-0.5-0.1-1,0-1.5,0c-6.8,0-13.6,0-20.4,0c-1,0-2.2-0.1-3.2,0C-189.3,196.3-189.9,196.8-189.9,197.6z"/>
<path fill="#555555" d="M-178.2,198.4c1.4,0,2.8,0,4.3,0c0.1,5.5,0.1,11.1-0.7,15.8c-1,0-1.9,0-2.9,0
	C-178.3,209.5-178.2,204-178.2,198.4C-178.2,198.4-178.2,198.4-178.2,198.4z"/>
<path fill="#555555" d="M-176.4,216.5c1.3-0.1,2.2,0.5,2.6,1.3c0.5,0.9,0.4,2.3-0.2,3c-0.7,1-2.4,1.4-3.7,0.6
	c-0.8-0.5-1.4-1.6-1.1-2.9c0.1-0.6,0.4-0.9,0.8-1.3C-177.5,216.8-177,216.6-176.4,216.5L-176.4,216.5z"/>
</svg>
