<?xml version="1.0" encoding="utf-8"?>
<!-- Generator: Adobe Illustrator 15.0.0, SVG Export Plug-In . SVG Version: 6.00 Build 0)  -->
<!DOCTYPE svg PUBLIC "-//W3C//DTD SVG 1.1//EN" "http://www.w3.org/Graphics/SVG/1.1/DTD/svg11.dtd">
<svg version="1.1" id="Layer_1" xmlns="http://www.w3.org/2000/svg" xmlns:xlink="http://www.w3.org/1999/xlink" x="0px" y="0px"
	 width="14px" height="14px" viewBox="8.935 9.158 14 14" enable-background="new 8.935 9.158 14 14" xml:space="preserve">
<path fill="#555555" d="M11.408,10.156c3.017,0,6.032,0,9.049,0c0.446,0.045,0.779,0.248,1.021,0.505
	c0.245,0.256,0.438,0.599,0.457,1.072c0,2.946,0,5.893,0,8.838c-0.027,0.592-0.306,0.971-0.646,1.24
	c-0.177,0.141-0.384,0.256-0.637,0.309c-0.257,0.053-0.562,0.035-0.905,0.035c-2.514,0-5.02,0-7.527,0
	c-0.349,0-0.655,0.018-0.925-0.021c-0.256-0.037-0.484-0.141-0.667-0.273c-0.354-0.259-0.629-0.63-0.692-1.184
	c0-3.018,0-6.032,0-9.05C10.07,10.78,10.561,10.29,11.408,10.156L11.408,10.156z M11.037,11.733c-0.021,0.194-0.007,0.4-0.007,0.604
	c0,2.662,0,5.288,0,7.954c0,0.222-0.002,0.382,0.091,0.519c0.083,0.125,0.2,0.215,0.378,0.238c0.191,0.023,0.396,0.007,0.604,0.007
	c2.671,0,5.304,0,7.968,0c0.223,0,0.382,0.001,0.52-0.09c0.125-0.085,0.215-0.199,0.237-0.379c0.023-0.188,0.008-0.398,0.008-0.603
	c0-2.658,0-5.329,0-7.97c0-0.225-0.001-0.384-0.092-0.518c-0.084-0.125-0.199-0.215-0.377-0.238
	c-0.169-0.022-0.354-0.007-0.54-0.007c-2.41,0-4.813,0-7.198,0c-0.361,0-0.782-0.031-1.114,0.007
	C11.278,11.283,11.068,11.444,11.037,11.733z"/>
<path fill="#555555" d="M15.186,12.007c0.502,0,1.004,0,1.507,0c0.018,1.957,0.018,3.901-0.245,5.578c-0.337,0-0.674,0-1.01,0
	c-0.281-1.658-0.273-3.604-0.259-5.559C15.176,12.018,15.176,12.007,15.186,12.007z"/>
<path fill="#555555" d="M15.824,18.405c0.462-0.043,0.779,0.182,0.933,0.448c0.188,0.331,0.127,0.8-0.056,1.044
	c-0.261,0.35-0.852,0.501-1.29,0.225c-0.288-0.181-0.505-0.554-0.392-1.03c0.05-0.214,0.131-0.333,0.279-0.462
	C15.434,18.511,15.598,18.428,15.824,18.405L15.824,18.405z"/>
</svg>
