<?xml version="1.0" encoding="utf-8"?>
<!-- Generator: Adobe Illustrator 15.0.0, SVG Export Plug-In . SVG Version: 6.00 Build 0)  -->
<!DOCTYPE svg PUBLIC "-//W3C//DTD SVG 1.1//EN" "http://www.w3.org/Graphics/SVG/1.1/DTD/svg11.dtd">
<svg version="1.1" id="Layer_1" xmlns="http://www.w3.org/2000/svg" xmlns:xlink="http://www.w3.org/1999/xlink" x="0px" y="0px"
	 width="13.995px" height="14px" viewBox="8.938 9.157 13.995 14" enable-background="new 8.938 9.157 13.995 14"
	 xml:space="preserve">
<path fill="#555555" d="M10.655,9.158c3.518,0,7.035,0,10.553,0c0.521,0.053,0.908,0.289,1.192,0.589
	c0.285,0.299,0.511,0.698,0.532,1.251c0,3.436,0,6.872,0,10.307c-0.031,0.69-0.356,1.133-0.753,1.447
	c-0.207,0.164-0.448,0.298-0.743,0.359c-0.3,0.062-0.655,0.041-1.055,0.041c-2.932,0-5.854,0-8.779,0
	c-0.407,0-0.764,0.021-1.079-0.024c-0.299-0.044-0.564-0.165-0.777-0.319c-0.414-0.302-0.735-0.735-0.809-1.381
	c0-3.519,0-7.036,0-10.554C9.095,9.887,9.667,9.315,10.655,9.158L10.655,9.158z M10.222,10.998
	c-0.025,0.226-0.008,0.467-0.008,0.703c0,3.105,0,6.168,0,9.277c0,0.258-0.001,0.446,0.106,0.605
	c0.098,0.145,0.233,0.251,0.441,0.278c0.223,0.027,0.462,0.008,0.703,0.008c3.116,0,6.187,0,9.294,0
	c0.259,0,0.444,0.001,0.605-0.106c0.146-0.098,0.251-0.231,0.277-0.441c0.027-0.219,0.009-0.464,0.009-0.703
	c0-3.099,0-6.215,0-9.294c0-0.262-0.001-0.448-0.106-0.604c-0.099-0.146-0.233-0.25-0.441-0.278
	c-0.196-0.026-0.412-0.008-0.63-0.008c-2.81,0-5.613,0-8.395,0c-0.421,0-0.912-0.036-1.299,0.008
	C10.504,10.472,10.259,10.661,10.222,10.998z"/>
<path fill="#555555" d="M15.061,11.316c0.586,0,1.172,0,1.758,0c0.02,2.283,0.021,4.55-0.286,6.506c-0.393,0-0.785,0-1.177,0
	c-0.329-1.933-0.32-4.204-0.303-6.482C15.051,11.329,15.051,11.317,15.061,11.316z"/>
<path fill="#555555" d="M15.805,18.779c0.539-0.05,0.91,0.211,1.088,0.523c0.219,0.385,0.147,0.932-0.065,1.218
	c-0.304,0.407-0.993,0.584-1.504,0.261c-0.336-0.211-0.589-0.645-0.458-1.201c0.059-0.25,0.153-0.389,0.327-0.539
	C15.351,18.903,15.542,18.804,15.805,18.779L15.805,18.779z"/>
</svg>
