<?xml version="1.0" encoding="utf-8"?>
<!-- Generated by IcoMoon.io -->
<!DOCTYPE svg PUBLIC "-//W3C//DTD SVG 1.1//EN" "http://www.w3.org/Graphics/SVG/1.1/DTD/svg11.dtd">
<svg version="1.1" xmlns="http://www.w3.org/2000/svg" xmlns:xlink="http://www.w3.org/1999/xlink" width="32" height="32" viewBox="0 0 32 32">
<path d="M3.877 0.174c8.033 0 16.065 0 24.098 0 1.193 0.12 2.075 0.659 2.725 1.344 0.649 0.683 1.166 1.594 1.213 2.856 0 7.846 0 15.692 0 23.538-0.070 1.577-0.811 2.588-1.717 3.304-0.474 0.375-1.023 0.681-1.699 0.821-0.684 0.143-1.496 0.093-2.408 0.093-6.693 0-13.366 0-20.047 0-0.928 0-1.744 0.049-2.464-0.056-0.682-0.099-1.288-0.375-1.773-0.728-0.946-0.688-1.679-1.678-1.848-3.155 0-8.033 0-16.065 0-24.098 0.359-2.254 1.666-3.561 3.92-3.92zM2.888 4.374c-0.058 0.517-0.019 1.067-0.019 1.605 0 7.091 0 14.086 0 21.186 0 0.588-0.002 1.019 0.243 1.381 0.223 0.331 0.533 0.573 1.008 0.635 0.51 0.066 1.056 0.019 1.605 0.019 7.116 0 14.128-0 21.223 0 0.591 0 1.014 0.001 1.381-0.243 0.335-0.222 0.573-0.529 0.635-1.008 0.064-0.499 0.019-1.059 0.019-1.605 0-7.075-0-14.193 0-21.223 0-0.597-0.002-1.025-0.243-1.381-0.225-0.333-0.532-0.571-1.008-0.635-0.447-0.059-0.94-0.019-1.437-0.019-6.415 0-12.819 0-19.17 0-0.962 0-2.082-0.081-2.968 0.019-0.625 0.070-1.183 0.5-1.269 1.269z" fill="#555555"></path>
<path d="M13.938 5.102c1.338 0 2.675 0 4.013 0 0.044 5.214 0.048 10.389-0.653 14.858-0.896 0-1.792 0-2.688 0-0.75-4.415-0.73-9.599-0.691-14.802-0.002-0.027-0.003-0.053 0.019-0.056z" fill="#555555"></path>
<path d="M15.637 22.144c1.23-0.113 2.077 0.483 2.483 1.195 0.502 0.88 0.338 2.129-0.149 2.781-0.694 0.93-2.266 1.333-3.435 0.597-0.767-0.483-1.345-1.471-1.045-2.744 0.134-0.571 0.349-0.887 0.747-1.232 0.362-0.314 0.8-0.542 1.4-0.597z" fill="#555555"></path>
</svg>
