<?xml version="1.0" encoding="utf-8"?>
<!-- Generator: Adobe Illustrator 19.0.1, SVG Export Plug-In . SVG Version: 6.00 Build 0)  -->
<svg version="1.0" id="Layer_1" xmlns="http://www.w3.org/2000/svg" xmlns:xlink="http://www.w3.org/1999/xlink" x="0px" y="0px"
	 width="12px" height="12px" viewBox="-583 586.8 12 12" enable-background="new -583 586.8 12 12" xml:space="preserve">
<path fill="#555555" d="M-577.3,588.9c0.5,0,0.9,0.1,1.4,0.3c0.4,0.1,0.8,0.4,1.2,0.5c0.4,0.3,0.6,0.5,0.9,0.8s0.5,0.5,0.8,0.8
	s0.4,0.5,0.5,0.8s0.3,0.4,0.4,0.5l0.1,0.3v0.1c0,0-0.1,0.1-0.1,0.4c-0.1,0.1-0.3,0.4-0.3,0.5c-0.1,0.1-0.3,0.4-0.4,0.6
	s-0.4,0.4-0.5,0.6c-0.3,0.3-0.4,0.4-0.6,0.6c-0.3,0.3-0.5,0.4-0.8,0.5s-0.6,0.3-0.9,0.4c-0.4,0.1-0.8,0.1-1,0.1
	c-0.5,0-0.9-0.1-1.4-0.3c-0.4-0.1-0.8-0.4-1.2-0.5c-0.4-0.3-0.6-0.5-0.9-0.8s-0.5-0.5-0.8-0.8s-0.4-0.5-0.5-0.8s-0.3-0.4-0.4-0.5
	l-0.1-0.3v-0.1c0,0,0.1-0.1,0.1-0.4c0.1-0.1,0.3-0.4,0.3-0.5c0.1-0.1,0.3-0.4,0.4-0.6s0.4-0.4,0.5-0.6c0.3-0.3,0.4-0.4,0.6-0.6
	c0.3-0.3,0.5-0.4,0.8-0.5s0.6-0.3,0.9-0.4C-578.1,588.9-577.8,588.9-577.3,588.9z M-577.3,589.8c-0.3,0-0.6,0-0.9,0.1
	s-0.5,0.1-0.8,0.3s-0.5,0.3-0.8,0.5c-0.3,0.3-0.4,0.4-0.6,0.5c-0.1,0.1-0.4,0.4-0.5,0.5c-0.1,0.3-0.3,0.4-0.4,0.5
	c-0.1,0.1-0.1,0.3-0.3,0.4c0.1,0.1,0.1,0.3,0.3,0.4c0.1,0.1,0.3,0.3,0.4,0.5c0.1,0.3,0.3,0.4,0.5,0.5c0.1,0.1,0.4,0.4,0.6,0.5
	s0.5,0.4,0.8,0.5s0.5,0.3,0.8,0.3c0.3,0.1,0.6,0.1,0.9,0.1c0.3,0,0.6,0,0.9-0.1s0.5-0.1,0.8-0.3s0.5-0.3,0.8-0.5
	c0.3-0.1,0.4-0.4,0.6-0.5c0.1-0.1,0.4-0.4,0.5-0.5c0.1-0.3,0.3-0.4,0.4-0.5c0.1-0.1,0.1-0.3,0.3-0.4c-0.1-0.1-0.1-0.3-0.3-0.4
	c-0.1-0.1-0.3-0.4-0.4-0.5c-0.1-0.3-0.4-0.4-0.5-0.5s-0.4-0.4-0.6-0.5s-0.5-0.4-0.8-0.5s-0.5-0.3-0.8-0.3
	C-576.8,589.8-577.1,589.8-577.3,589.8L-577.3,589.8z M-577.3,591.1c0.5,0,0.9,0.1,1.2,0.5c0.4,0.4,0.5,0.8,0.5,1.2
	s-0.1,0.9-0.5,1.2c-0.4,0.4-0.8,0.5-1.2,0.5c-0.4,0-0.9-0.1-1.2-0.5c-0.4-0.4-0.5-0.8-0.5-1.2s0.1-0.9,0.5-1.2
	C-578.2,591.5-577.8,591.1-577.3,591.1z M-577.3,592c-0.3,0-0.4,0.1-0.6,0.3c-0.1,0.1-0.3,0.4-0.3,0.6c0,0.3,0.1,0.4,0.3,0.6
	c0.1,0.1,0.4,0.3,0.6,0.3c0.3,0,0.4-0.1,0.6-0.3c0.1-0.1,0.3-0.4,0.3-0.6c0-0.3-0.1-0.4-0.3-0.6C-576.9,592.1-577.1,592-577.3,592z"
	/>
</svg>
