<?xml version="1.0" encoding="utf-8"?>
<!-- Generator: Adobe Illustrator 15.0.0, SVG Export Plug-In . SVG Version: 6.00 Build 0)  -->
<!DOCTYPE svg PUBLIC "-//W3C//DTD SVG 1.1//EN" "http://www.w3.org/Graphics/SVG/1.1/DTD/svg11.dtd">
<svg version="1.1" id="Layer_1" xmlns="http://www.w3.org/2000/svg" xmlns:xlink="http://www.w3.org/1999/xlink" x="0px" y="0px"
	 width="14px" height="14px" viewBox="9 9.001 14 14" enable-background="new 9 9.001 14 14" xml:space="preserve">
<path fill="#555555" d="M16,10.75c0.635,0,1.252,0.096,1.853,0.289c0.6,0.193,1.126,0.443,1.578,0.752s0.879,0.65,1.279,1.023
	c0.398,0.374,0.734,0.748,1.006,1.122c0.272,0.374,0.508,0.715,0.707,1.023s0.346,0.558,0.44,0.75L23,16.001
	c-0.021,0.045-0.051,0.107-0.087,0.185c-0.036,0.078-0.122,0.236-0.258,0.474c-0.135,0.238-0.279,0.474-0.434,0.707
	c-0.152,0.232-0.355,0.506-0.605,0.82c-0.25,0.313-0.51,0.607-0.776,0.879c-0.268,0.272-0.585,0.547-0.95,0.822
	c-0.367,0.276-0.742,0.512-1.127,0.704c-0.384,0.193-0.816,0.352-1.296,0.475c-0.48,0.122-0.969,0.184-1.467,0.185
	c-0.635,0-1.252-0.097-1.853-0.29c-0.6-0.192-1.126-0.442-1.579-0.749c-0.453-0.308-0.878-0.646-1.278-1.017
	c-0.399-0.37-0.735-0.742-1.007-1.114c-0.272-0.373-0.507-0.712-0.707-1.019s-0.346-0.558-0.44-0.752L9,16.023
	c0.021-0.045,0.05-0.107,0.086-0.185c0.037-0.078,0.123-0.236,0.258-0.477s0.28-0.476,0.433-0.708s0.355-0.507,0.606-0.825
	s0.51-0.612,0.777-0.884c0.268-0.272,0.584-0.547,0.95-0.825c0.366-0.278,0.741-0.514,1.126-0.709
	c0.384-0.195,0.816-0.354,1.296-0.476S15.501,10.75,16,10.75z M16,11.917c-0.425,0-0.843,0.057-1.253,0.168
	c-0.41,0.112-0.78,0.257-1.109,0.436c-0.329,0.178-0.651,0.393-0.966,0.645c-0.314,0.252-0.587,0.5-0.816,0.745
	c-0.229,0.244-0.452,0.507-0.667,0.788s-0.388,0.521-0.515,0.722s-0.248,0.401-0.36,0.602c0.112,0.198,0.232,0.396,0.36,0.594
	c0.128,0.199,0.299,0.438,0.515,0.716c0.215,0.278,0.438,0.538,0.667,0.779s0.501,0.486,0.816,0.735s0.636,0.462,0.966,0.638
	c0.33,0.177,0.7,0.32,1.109,0.431c0.41,0.111,0.828,0.166,1.253,0.166c0.426,0,0.843-0.056,1.253-0.168s0.78-0.257,1.109-0.434
	c0.33-0.176,0.652-0.39,0.967-0.64c0.314-0.251,0.586-0.498,0.815-0.741s0.452-0.505,0.668-0.784
	c0.215-0.279,0.387-0.519,0.515-0.72c0.128-0.201,0.247-0.4,0.36-0.597c-0.113-0.197-0.232-0.396-0.36-0.597s-0.3-0.441-0.515-0.72
	c-0.216-0.279-0.438-0.541-0.668-0.784s-0.501-0.49-0.815-0.741s-0.637-0.464-0.967-0.641c-0.329-0.176-0.699-0.321-1.109-0.433
	S16.425,11.915,16,11.915V11.917z M16,13.667c0.644,0,1.194,0.228,1.65,0.684c0.456,0.456,0.684,1.005,0.684,1.649
	s-0.228,1.194-0.684,1.65s-1.006,0.684-1.65,0.684s-1.194-0.228-1.649-0.684c-0.456-0.456-0.684-1.006-0.684-1.65
	s0.228-1.194,0.684-1.649C14.806,13.895,15.355,13.667,16,13.667z M16,14.833c-0.322,0-0.597,0.114-0.824,0.342
	c-0.228,0.228-0.342,0.502-0.342,0.825c0,0.322,0.114,0.597,0.342,0.824c0.228,0.228,0.502,0.342,0.824,0.342
	c0.322,0,0.597-0.114,0.825-0.342c0.229-0.228,0.342-0.502,0.342-0.824c0-0.322-0.113-0.597-0.342-0.825
	C16.597,14.947,16.322,14.833,16,14.833z"/>
</svg>
