<?xml version="1.0" encoding="utf-8"?>
<!-- Generator: Adobe Illustrator 15.0.0, SVG Export Plug-In . SVG Version: 6.00 Build 0)  -->
<!DOCTYPE svg PUBLIC "-//W3C//DTD SVG 1.1//EN" "http://www.w3.org/Graphics/SVG/1.1/DTD/svg11.dtd">
<svg version="1.1" id="Layer_1" xmlns="http://www.w3.org/2000/svg" xmlns:xlink="http://www.w3.org/1999/xlink" x="0px" y="0px"
	 width="14px" height="14px" viewBox="9 9.001 14 14" enable-background="new 9 9.001 14 14" xml:space="preserve">
<path fill="#555555" d="M16,11.5c0.544,0,1.073,0.082,1.589,0.248c0.514,0.166,0.964,0.38,1.353,0.645
	c0.387,0.265,0.753,0.558,1.096,0.877c0.341,0.32,0.629,0.642,0.862,0.961c0.233,0.321,0.436,0.613,0.605,0.877
	c0.171,0.265,0.298,0.479,0.378,0.644L22,16.001c-0.019,0.038-0.044,0.091-0.074,0.158c-0.031,0.067-0.104,0.202-0.222,0.407
	c-0.116,0.204-0.239,0.405-0.372,0.605c-0.131,0.199-0.304,0.434-0.519,0.703c-0.214,0.268-0.438,0.52-0.665,0.754
	c-0.229,0.232-0.501,0.469-0.813,0.704c-0.314,0.236-0.637,0.438-0.966,0.603c-0.33,0.166-0.7,0.302-1.112,0.407
	c-0.411,0.105-0.83,0.158-1.257,0.159c-0.544,0-1.073-0.083-1.589-0.249c-0.514-0.165-0.964-0.379-1.353-0.642
	c-0.389-0.264-0.753-0.555-1.096-0.872c-0.343-0.316-0.63-0.636-0.863-0.954c-0.232-0.32-0.435-0.61-0.605-0.874
	c-0.172-0.263-0.297-0.479-0.377-0.645L10,16.021c0.019-0.039,0.043-0.093,0.073-0.159c0.032-0.067,0.105-0.203,0.222-0.408
	c0.115-0.207,0.24-0.409,0.371-0.608c0.131-0.198,0.304-0.434,0.52-0.706c0.215-0.273,0.437-0.525,0.666-0.759
	c0.229-0.232,0.501-0.469,0.813-0.706c0.314-0.238,0.637-0.44,0.966-0.607c0.329-0.168,0.699-0.304,1.111-0.409
	C15.153,11.554,15.572,11.5,16,11.5z M16,12.5c-0.364,0-0.723,0.05-1.074,0.145c-0.352,0.096-0.669,0.22-0.95,0.374
	c-0.282,0.152-0.559,0.337-0.828,0.553s-0.503,0.429-0.7,0.639c-0.195,0.209-0.387,0.435-0.57,0.675
	c-0.185,0.241-0.333,0.446-0.442,0.619c-0.108,0.172-0.213,0.344-0.308,0.517c0.095,0.169,0.198,0.339,0.308,0.509
	c0.109,0.171,0.256,0.375,0.442,0.613c0.184,0.238,0.375,0.461,0.57,0.667c0.197,0.208,0.431,0.417,0.7,0.632
	c0.27,0.212,0.546,0.395,0.828,0.545c0.282,0.152,0.6,0.275,0.95,0.37c0.352,0.096,0.71,0.143,1.074,0.143
	c0.365,0,0.723-0.049,1.074-0.144c0.352-0.097,0.669-0.221,0.95-0.372c0.282-0.15,0.559-0.335,0.829-0.549
	c0.269-0.216,0.502-0.427,0.699-0.635c0.195-0.209,0.387-0.434,0.572-0.673c0.185-0.238,0.331-0.444,0.441-0.616
	c0.109-0.173,0.212-0.343,0.309-0.513c-0.097-0.169-0.199-0.34-0.309-0.512c-0.11-0.172-0.257-0.378-0.441-0.616
	c-0.186-0.239-0.376-0.464-0.572-0.673c-0.198-0.208-0.431-0.42-0.699-0.635s-0.547-0.398-0.829-0.549
	c-0.281-0.151-0.599-0.276-0.95-0.372C16.723,12.547,16.364,12.499,16,12.5L16,12.5z M16,14c0.553,0,1.022,0.195,1.415,0.587
	c0.39,0.391,0.586,0.86,0.586,1.413s-0.196,1.023-0.586,1.415c-0.393,0.39-0.862,0.586-1.415,0.586s-1.022-0.196-1.413-0.586
	C14.195,17.023,14,16.553,14,16s0.195-1.022,0.587-1.413C14.978,14.195,15.447,14,16,14z M16,15c-0.276,0-0.513,0.098-0.706,0.293
	c-0.195,0.195-0.293,0.43-0.293,0.707c0,0.276,0.098,0.513,0.293,0.707S15.724,17,16,17s0.513-0.099,0.707-0.293
	C16.904,16.511,17,16.276,17,16s-0.096-0.512-0.293-0.707C16.513,15.098,16.276,15,16,15z"/>
</svg>
