<?xml version="1.0" encoding="utf-8"?>
<!-- Generator: Adobe Illustrator 15.0.0, SVG Export Plug-In . SVG Version: 6.00 Build 0)  -->
<!DOCTYPE svg PUBLIC "-//W3C//DTD SVG 1.1//EN" "http://www.w3.org/Graphics/SVG/1.1/DTD/svg11.dtd">
<svg version="1.1" id="Layer_1" xmlns="http://www.w3.org/2000/svg" xmlns:xlink="http://www.w3.org/1999/xlink" x="0px" y="0px"
	 width="14px" height="14px" viewBox="8.333 8.998 14 14" enable-background="new 8.333 8.998 14 14" xml:space="preserve">
<path fill="#555555" d="M14.959,9.998c0.207,0,0.383,0.072,0.527,0.217l5.25,5.25c0.149,0.148,0.223,0.326,0.223,0.534
	c0,0.207-0.073,0.385-0.223,0.533l-5.25,5.25c-0.145,0.146-0.32,0.216-0.527,0.216c-0.208,0-0.385-0.072-0.531-0.22
	c-0.147-0.146-0.219-0.323-0.221-0.53c0-0.211,0.072-0.389,0.216-0.533l4.718-4.717l-4.718-4.717
	c-0.144-0.145-0.216-0.321-0.216-0.533c0-0.216,0.072-0.394,0.215-0.536C14.563,10.069,14.743,9.998,14.959,9.998L14.959,9.998z
	 M10.459,9.998c0.207,0,0.382,0.072,0.527,0.217l5.25,5.25c0.149,0.148,0.223,0.326,0.223,0.534c0,0.207-0.073,0.385-0.223,0.533
	l-5.25,5.25c-0.145,0.146-0.32,0.216-0.527,0.216c-0.208,0-0.385-0.072-0.531-0.22c-0.147-0.146-0.22-0.323-0.221-0.53
	c0-0.211,0.071-0.389,0.216-0.533l4.718-4.717l-4.718-4.717c-0.145-0.145-0.216-0.321-0.216-0.533c0-0.216,0.071-0.394,0.214-0.536
	S10.242,9.998,10.459,9.998L10.459,9.998z"/>
</svg>
