<?xml version="1.0" encoding="utf-8"?>
<!-- Generator: Adobe Illustrator 15.0.0, SVG Export Plug-In . SVG Version: 6.00 Build 0)  -->
<!DOCTYPE svg PUBLIC "-//W3C//DTD SVG 1.1//EN" "http://www.w3.org/Graphics/SVG/1.1/DTD/svg11.dtd">
<svg version="1.1" id="Layer_1" xmlns="http://www.w3.org/2000/svg" xmlns:xlink="http://www.w3.org/1999/xlink" x="0px" y="0px"
	 width="14px" height="14px" viewBox="8.333 8.999 14 14" enable-background="new 8.333 8.999 14 14" xml:space="preserve">
<path fill="#555555" d="M14.896,8.999c0.242,0,0.447,0.084,0.616,0.252l6.124,6.125c0.174,0.173,0.261,0.381,0.261,0.623
	c0,0.241-0.087,0.449-0.261,0.622l-6.124,6.125c-0.168,0.169-0.374,0.252-0.616,0.252c-0.242,0-0.448-0.085-0.619-0.257
	c-0.171-0.17-0.256-0.377-0.257-0.618c0-0.247,0.084-0.454,0.252-0.622l5.503-5.503l-5.503-5.503
	c-0.168-0.168-0.252-0.375-0.252-0.622c0-0.251,0.083-0.459,0.25-0.625C14.436,9.082,14.645,8.999,14.896,8.999L14.896,8.999z
	 M9.646,8.999c0.242,0,0.447,0.084,0.616,0.252l6.125,6.125c0.173,0.173,0.26,0.381,0.26,0.623c0,0.241-0.087,0.449-0.26,0.622
	l-6.125,6.125c-0.168,0.169-0.374,0.252-0.616,0.252c-0.242,0-0.448-0.085-0.619-0.257c-0.171-0.17-0.256-0.377-0.257-0.618
	c0-0.247,0.084-0.454,0.252-0.622l5.503-5.503l-5.503-5.503c-0.168-0.168-0.252-0.375-0.252-0.622c0-0.251,0.083-0.459,0.25-0.625
	C9.186,9.082,9.395,8.999,9.646,8.999L9.646,8.999z"/>
</svg>
