<?xml version="1.0" encoding="utf-8"?>
<!-- Generator: Adobe Illustrator 19.0.1, SVG Export Plug-In . SVG Version: 6.00 Build 0)  -->
<svg version="1.1" id="Layer_1" xmlns="http://www.w3.org/2000/svg" xmlns:xlink="http://www.w3.org/1999/xlink" x="0px" y="0px"
	 width="12px" height="12px" viewBox="-182 204 12 12" style="enable-background:new -182 204 12 12;" xml:space="preserve">
<style type="text/css">
	.st0{fill:none;stroke:#000000;stroke-miterlimit:10;}
</style>
<path d="M-180.4,204h8.7c0.5,0,0.8,0.2,1.2,0.5c0.3,0.3,0.5,0.7,0.5,1.2v6c0,0.5-0.2,0.8-0.5,1.2c-0.3,0.3-0.7,0.5-1.2,0.5h-4.4
	l-3.8,2.7v-2.7h-0.5c-0.5,0-0.8-0.2-1.2-0.5c-0.3-0.3-0.5-0.7-0.5-1.2v-6c0-0.5,0.2-0.8,0.5-1.2C-181.2,204.2-180.8,204-180.4,204z
	 M-171.6,205.1h-8.7c-0.1,0-0.3,0.1-0.4,0.2c-0.1,0.1-0.2,0.2-0.2,0.4v6c0,0.2,0.1,0.3,0.2,0.4c0.1,0.1,0.2,0.2,0.4,0.2h1.6v1.7
	l2.4-1.7h4.7c0.2,0,0.3-0.1,0.4-0.2c0.1-0.1,0.2-0.2,0.2-0.4v-6c0-0.2-0.1-0.3-0.2-0.4C-171.4,205.1-171.5,205.1-171.6,205.1
	L-171.6,205.1z"/>
<g>
	<line class="st0" x1="-179.8" y1="206.6" x2="-172.3" y2="206.6"/>
	<line class="st0" x1="-179.8" y1="208.5" x2="-172.3" y2="208.5"/>
	<line class="st0" x1="-179.8" y1="210.5" x2="-175.4" y2="210.5"/>
</g>
</svg>
