<?xml version="1.0" encoding="utf-8"?>
<!-- Generator: Adobe Illustrator 19.0.1, SVG Export Plug-In . SVG Version: 6.00 Build 0)  -->
<svg version="1.1" id="Layer_1" xmlns="http://www.w3.org/2000/svg" xmlns:xlink="http://www.w3.org/1999/xlink" x="0px" y="0px"
	 width="12px" height="12px" viewBox="-581.8 585.9 12 12" style="enable-background:new -581.8 585.9 12 12;" xml:space="preserve"
	>
<g>
	<g>
		<path d="M-579.5,586.9h7.2c0.4,0,0.6,0.1,1,0.4c0.2,0.2,0.4,0.6,0.4,1v5c0,0.4-0.1,0.6-0.4,1c-0.2,0.2-0.6,0.4-1,0.4h-3.6
			l-3.1,2.2v-2.2h-0.4c-0.4,0-0.6-0.1-1-0.4c-0.2-0.2-0.4-0.6-0.4-1v-5c0-0.4,0.1-0.6,0.4-1C-580.3,587.1-580,586.9-579.5,586.9z
			 M-572.4,587.9h-7.3c-0.1,0-0.2,0.1-0.4,0.1c-0.1,0.1-0.1,0.1-0.1,0.4v5c0,0.1,0.1,0.2,0.1,0.4c0.1,0.1,0.1,0.1,0.4,0.1h1.4v1.4
			l2-1.4h3.9c0.1,0,0.2-0.1,0.4-0.1c0.1-0.1,0.1-0.1,0.1-0.4v-5c0-0.1-0.1-0.2-0.1-0.4C-572.2,587.9-572.2,587.9-572.4,587.9
			L-572.4,587.9z"/>
	</g>
	<g>
		<g>
			<rect x="-579.2" y="588.6" width="6.3" height="0.9"/>
		</g>
		<g>
			<rect x="-579.2" y="590.2" width="6.3" height="0.9"/>
		</g>
		<g>
			<rect x="-579.2" y="591.9" width="3.6" height="0.9"/>
		</g>
	</g>
</g>
</svg>
