<?xml version="1.0" encoding="utf-8"?>
<!-- Generator: Adobe Illustrator 18.1.1, SVG Export Plug-In . SVG Version: 6.00 Build 0)  -->
<svg version="1.1" id="Layer_1" xmlns="http://www.w3.org/2000/svg" xmlns:xlink="http://www.w3.org/1999/xlink" x="0px" y="0px"
	 width="48px" height="48px" viewBox="-200 186 48 48" enable-background="new -200 186 48 48" xml:space="preserve">
<path d="M-176,187c0.4,0,0.7,0,0.9,0c2,0.1,4,0.4,5.9,1c1.9,0.6,3.7,1.4,5.3,2.4c1.6,1,3.1,2.2,4.5,3.6c1.4,1.4,2.5,2.9,3.4,4.6
	c0.9,1.7,1.7,3.5,2.2,5.4c0.5,1.9,0.8,3.9,0.8,6s-0.3,4-0.8,6c-0.5,1.9-1.3,3.7-2.2,5.4c-0.9,1.7-2.1,3.2-3.4,4.6
	c-1.4,1.4-2.8,2.6-4.5,3.6c-1.6,1-3.4,1.8-5.3,2.4c-1.9,0.6-3.9,0.9-5.9,1c-0.2,0-0.5,0-0.9,0s-0.7,0-0.9,0c-2-0.1-4-0.4-5.9-1
	c-1.9-0.6-3.7-1.4-5.3-2.4c-1.6-1-3.1-2.2-4.5-3.6c-1.4-1.4-2.5-2.9-3.4-4.6c-0.9-1.7-1.7-3.5-2.2-5.4c-0.5-1.9-0.8-3.9-0.8-6
	s0.3-4,0.8-6c0.5-1.9,1.3-3.7,2.2-5.4c0.9-1.7,2.1-3.2,3.4-4.6c1.4-1.4,2.8-2.6,4.5-3.6c1.6-1,3.4-1.8,5.3-2.4
	c1.9-0.6,3.9-0.9,5.9-1C-176.7,187-176.4,187-176,187z M-186.4,212.1h-8.3c0.4,3.9,1.9,7.3,4.5,10.2c2.6,2.9,5.7,4.9,9.4,5.9
	c-1.4-2.2-2.6-4.6-3.7-7.3C-185.5,218.2-186.2,215.3-186.4,212.1z M-169.8,212.1h-12.4c0.1,1.4,0.3,2.8,0.7,4.2s0.7,2.6,1.1,3.7
	c0.4,1.1,0.9,2.1,1.5,3.2c0.6,1,1.1,1.9,1.5,2.6c0.4,0.7,0.9,1.3,1.4,1.9c0.5-0.6,0.9-1.3,1.4-2c0.4-0.7,0.9-1.5,1.5-2.6
	c0.6-1,1-2.1,1.5-3.2c0.4-1.1,0.8-2.3,1.2-3.7C-170.1,214.9-169.9,213.5-169.8,212.1L-169.8,212.1z M-180.8,191.8
	c-3.7,1-6.9,2.9-9.4,5.9c-2.6,2.9-4.1,6.4-4.5,10.2h8.3C-186,202.2-184.1,196.8-180.8,191.8z M-157.3,212.1h-8.3
	c-0.4,5.7-2.3,11.1-5.6,16.1c3.7-1,6.9-2.9,9.4-5.9C-159.2,219.4-157.7,216-157.3,212.1L-157.3,212.1z M-176,192.3
	c-0.5,0.6-0.9,1.3-1.4,2c-0.4,0.7-0.9,1.5-1.5,2.6c-0.6,1-1.1,2.1-1.5,3.2c-0.4,1.1-0.8,2.3-1.1,3.7c-0.3,1.4-0.6,2.8-0.7,4.2h12.4
	c-0.1-1.4-0.3-2.8-0.7-4.2c-0.3-1.4-0.7-2.6-1.2-3.7c-0.4-1.1-0.9-2.1-1.5-3.2c-0.6-1-1.1-1.9-1.5-2.6
	C-175.1,193.6-175.5,192.9-176,192.3L-176,192.3z M-171.2,191.8c3.3,5,5.2,10.4,5.6,16.1h8.3c-0.4-3.9-1.9-7.3-4.5-10.2
	C-164.4,194.7-167.5,192.8-171.2,191.8L-171.2,191.8z"/>
</svg>
