<?xml version="1.0" encoding="utf-8"?>
<!-- Generator: Adobe Illustrator 19.0.1, SVG Export Plug-In . SVG Version: 6.00 Build 0)  -->
<svg version="1.0" id="Layer_1" xmlns="http://www.w3.org/2000/svg" xmlns:xlink="http://www.w3.org/1999/xlink" x="0px" y="0px"
	 width="12px" height="12px" viewBox="-182 204 12 12" enable-background="new -182 204 12 12" xml:space="preserve">
<path fill="#555555" d="M-173.8,204h2.2c0.5,0,0.8,0.2,1.2,0.5c0.3,0.3,0.5,0.7,0.5,1.2v2.2c0,0.5-0.2,0.8-0.5,1.2
	c-0.3,0.3-0.7,0.5-1.2,0.5h-2.2c-0.5,0-0.8-0.2-1.2-0.5c-0.3-0.3-0.5-0.7-0.5-1.2v-2.2c0-0.5,0.2-0.8,0.5-1.2
	C-174.7,204.2-174.3,204-173.8,204z M-180.4,210.5h2.2c0.5,0,0.8,0.2,1.2,0.5c0.3,0.3,0.5,0.7,0.5,1.2v2.2c0,0.5-0.2,0.8-0.5,1.2
	c-0.3,0.3-0.7,0.5-1.2,0.5h-2.2c-0.5,0-0.8-0.2-1.2-0.5c-0.3-0.3-0.5-0.7-0.5-1.2v-2.2c0-0.5,0.2-0.8,0.5-1.2
	C-181.2,210.7-180.8,210.5-180.4,210.5z M-178.2,211.6h-2.2c-0.1,0-0.3,0.1-0.4,0.2c-0.1,0.1-0.2,0.2-0.2,0.4v2.2
	c0,0.2,0.1,0.3,0.2,0.4c0.1,0.1,0.2,0.2,0.4,0.2h2.2c0.1,0,0.3-0.1,0.4-0.2c0.1-0.1,0.2-0.2,0.2-0.4v-2.2c0-0.2-0.1-0.3-0.2-0.4
	C-177.9,211.7-178,211.6-178.2,211.6z M-180.4,204h2.2c0.5,0,0.8,0.2,1.2,0.5c0.3,0.3,0.5,0.7,0.5,1.2v2.2c0,0.5-0.2,0.8-0.5,1.2
	c-0.3,0.3-0.7,0.5-1.2,0.5h-2.2c-0.5,0-0.8-0.2-1.2-0.5c-0.3-0.3-0.5-0.7-0.5-1.2v-2.2c0-0.5,0.2-0.8,0.5-1.2
	C-181.2,204.2-180.8,204-180.4,204z M-178.2,205.1h-2.2c-0.1,0-0.3,0.1-0.4,0.2c-0.1,0.1-0.2,0.2-0.2,0.4v2.2c0,0.1,0.1,0.3,0.2,0.4
	c0.1,0.1,0.2,0.2,0.4,0.2h2.2c0.1,0,0.3-0.1,0.4-0.2c0.1-0.1,0.2-0.2,0.2-0.4v-2.2c0-0.2-0.1-0.3-0.2-0.4
	C-177.9,205.1-178,205.1-178.2,205.1z M-173.8,210.5h2.2c0.5,0,0.8,0.2,1.2,0.5c0.3,0.3,0.5,0.7,0.5,1.2v2.2c0,0.5-0.2,0.8-0.5,1.2
	c-0.3,0.3-0.7,0.5-1.2,0.5h-2.2c-0.5,0-0.8-0.2-1.2-0.5c-0.3-0.3-0.5-0.7-0.5-1.2v-2.2c0-0.5,0.2-0.8,0.5-1.2
	C-174.7,210.7-174.3,210.5-173.8,210.5z M-171.6,211.6h-2.2c-0.1,0-0.3,0.1-0.4,0.2c-0.1,0.1-0.2,0.2-0.2,0.4v2.2
	c0,0.2,0.1,0.3,0.2,0.4c0.1,0.1,0.2,0.2,0.4,0.2h2.2c0.2,0,0.3-0.1,0.4-0.2c0.1-0.1,0.2-0.2,0.2-0.4v-2.2c0-0.2-0.1-0.3-0.2-0.4
	C-171.4,211.7-171.5,211.6-171.6,211.6z M-171.6,205.1h-2.2c-0.1,0-0.3,0.1-0.4,0.2c-0.1,0.1-0.2,0.2-0.2,0.4v2.2
	c0,0.1,0.1,0.3,0.2,0.4c0.1,0.1,0.2,0.2,0.4,0.2h2.2c0.2,0,0.3-0.1,0.4-0.2c0.1-0.1,0.2-0.2,0.2-0.4v-2.2c0-0.2-0.1-0.3-0.2-0.4
	C-171.4,205.1-171.5,205.1-171.6,205.1z"/>
</svg>
