<?xml version="1.0" encoding="utf-8"?>
<!-- Generator: Adobe Illustrator 15.0.0, SVG Export Plug-In . SVG Version: 6.00 Build 0)  -->
<!DOCTYPE svg PUBLIC "-//W3C//DTD SVG 1.1//EN" "http://www.w3.org/Graphics/SVG/1.1/DTD/svg11.dtd">
<svg version="1.1" id="Layer_1" xmlns="http://www.w3.org/2000/svg" xmlns:xlink="http://www.w3.org/1999/xlink" x="0px" y="0px"
	 width="14px" height="14px" viewBox="9 9 14 14" enable-background="new 9 9 14 14" xml:space="preserve">
<path fill="#555555" d="M18.182,10h2.182c0.451,0,0.838,0.161,1.157,0.479C21.841,10.799,22,11.185,22,11.637v2.182
	c0,0.451-0.159,0.838-0.479,1.157c-0.319,0.318-0.705,0.479-1.157,0.479h-2.182c-0.452,0-0.837-0.161-1.157-0.479
	c-0.319-0.319-0.48-0.706-0.48-1.157v-2.182c0-0.452,0.161-0.838,0.48-1.157C17.345,10.159,17.729,10,18.182,10z M11.637,16.545
	h2.182c0.451,0,0.838,0.161,1.157,0.479c0.319,0.319,0.479,0.705,0.479,1.157v2.183c0,0.451-0.159,0.837-0.479,1.156
	C14.656,21.841,14.27,22,13.818,22h-2.182c-0.452,0-0.838-0.161-1.157-0.48C10.159,21.199,10,20.814,10,20.363v-2.182
	c0-0.452,0.161-0.838,0.479-1.157C10.799,16.705,11.185,16.545,11.637,16.545z M13.819,17.637h-2.182
	c-0.15,0-0.279,0.053-0.386,0.159c-0.106,0.107-0.16,0.235-0.16,0.386v2.182c0,0.151,0.053,0.279,0.16,0.386
	c0.107,0.107,0.235,0.161,0.386,0.161h2.182c0.15,0,0.277-0.054,0.385-0.161c0.106-0.106,0.16-0.234,0.16-0.386v-2.182
	c0-0.15-0.054-0.279-0.16-0.386C14.097,17.69,13.969,17.637,13.819,17.637z M11.637,10h2.182c0.451,0,0.838,0.161,1.157,0.479
	c0.319,0.319,0.479,0.705,0.479,1.157v2.182c0,0.451-0.159,0.838-0.479,1.157c-0.319,0.318-0.706,0.479-1.157,0.479h-2.182
	c-0.452,0-0.838-0.161-1.157-0.479C10.159,14.656,10,14.27,10,13.818v-2.182c0-0.452,0.161-0.838,0.479-1.157
	C10.799,10.159,11.185,10,11.637,10z M13.819,11.09h-2.182c-0.15,0-0.279,0.054-0.386,0.161s-0.16,0.234-0.16,0.386v2.182
	c0,0.15,0.053,0.278,0.16,0.386c0.107,0.106,0.235,0.159,0.386,0.159h2.182c0.15,0,0.277-0.053,0.385-0.159
	c0.106-0.107,0.16-0.235,0.16-0.386v-2.182c0-0.151-0.054-0.279-0.16-0.386C14.097,11.145,13.969,11.09,13.819,11.09z
	 M18.182,16.545h2.182c0.451,0,0.838,0.161,1.157,0.479C21.841,17.344,22,17.729,22,18.182v2.182c0,0.451-0.161,0.838-0.48,1.157
	C21.199,21.841,20.814,22,20.363,22h-2.182c-0.452,0-0.837-0.161-1.157-0.48c-0.319-0.32-0.48-0.705-0.48-1.157v-2.182
	c0-0.451,0.161-0.838,0.48-1.158C17.345,16.703,17.729,16.545,18.182,16.545z M20.363,17.637h-2.182
	c-0.15,0-0.278,0.053-0.386,0.159c-0.105,0.107-0.159,0.235-0.159,0.386v2.182c0,0.151,0.053,0.279,0.159,0.386
	c0.107,0.107,0.235,0.161,0.386,0.161h2.182c0.151,0,0.279-0.054,0.386-0.161c0.107-0.106,0.161-0.234,0.161-0.386v-2.182
	c0-0.15-0.054-0.279-0.161-0.386C20.643,17.69,20.515,17.637,20.363,17.637z M20.363,11.09h-2.182c-0.15,0-0.278,0.054-0.386,0.161
	c-0.105,0.107-0.159,0.234-0.159,0.386v2.182c0,0.15,0.053,0.278,0.159,0.386c0.107,0.106,0.235,0.159,0.386,0.159h2.182
	c0.151,0,0.279-0.053,0.386-0.159c0.107-0.107,0.161-0.235,0.161-0.386v-2.182c0-0.151-0.054-0.279-0.161-0.386
	C20.643,11.144,20.515,11.09,20.363,11.09z"/>
</svg>
