<?xml version="1.0" encoding="utf-8"?>
<!-- Generator: Adobe Illustrator 15.0.0, SVG Export Plug-In . SVG Version: 6.00 Build 0)  -->
<!DOCTYPE svg PUBLIC "-//W3C//DTD SVG 1.1//EN" "http://www.w3.org/Graphics/SVG/1.1/DTD/svg11.dtd">
<svg version="1.1" id="Layer_1" xmlns="http://www.w3.org/2000/svg" xmlns:xlink="http://www.w3.org/1999/xlink" x="0px" y="0px"
	 width="14px" height="14px" viewBox="9 9 14 14" enable-background="new 9 9 14 14" xml:space="preserve">
<path fill="#555555" d="M18.545,9h2.546c0.526,0,0.977,0.187,1.35,0.559c0.373,0.373,0.56,0.823,0.56,1.35v2.545
	c0,0.527-0.187,0.977-0.56,1.35s-0.823,0.56-1.35,0.56h-2.546c-0.527,0-0.977-0.187-1.35-0.56s-0.56-0.823-0.56-1.35v-2.545
	c0-0.527,0.187-0.977,0.56-1.35C17.568,9.186,18.018,9,18.545,9z M10.909,16.636h2.545c0.527,0,0.977,0.187,1.35,0.56
	s0.56,0.822,0.56,1.35v2.546c0,0.526-0.187,0.977-0.56,1.35S13.981,23,13.454,23h-2.545c-0.527,0-0.977-0.187-1.35-0.56
	C9.186,22.067,9,21.617,9,21.091v-2.546c0-0.527,0.187-0.977,0.559-1.35C9.932,16.822,10.382,16.636,10.909,16.636z M13.455,17.909
	h-2.545c-0.176,0-0.326,0.062-0.45,0.187s-0.187,0.274-0.187,0.45v2.545c0,0.176,0.062,0.326,0.187,0.45
	c0.125,0.125,0.274,0.187,0.45,0.187h2.545c0.176,0,0.325-0.062,0.45-0.187c0.125-0.124,0.187-0.274,0.187-0.45v-2.545
	c0-0.176-0.062-0.326-0.187-0.45S13.63,17.909,13.455,17.909z M10.909,9h2.545c0.527,0,0.977,0.187,1.35,0.559
	c0.373,0.373,0.56,0.823,0.56,1.35v2.545c0,0.527-0.187,0.977-0.56,1.35s-0.823,0.56-1.35,0.56h-2.545
	c-0.527,0-0.977-0.187-1.35-0.56C9.186,14.431,9,13.981,9,13.454v-2.545c0-0.527,0.187-0.977,0.559-1.35
	C9.932,9.186,10.382,9,10.909,9z M13.455,10.272h-2.545c-0.176,0-0.326,0.062-0.45,0.187s-0.187,0.274-0.187,0.45v2.545
	c0,0.176,0.062,0.325,0.187,0.45s0.274,0.187,0.45,0.187h2.545c0.176,0,0.325-0.062,0.45-0.187s0.187-0.274,0.187-0.45v-2.545
	c0-0.176-0.062-0.326-0.187-0.45S13.63,10.272,13.455,10.272z M18.545,16.636h2.546c0.526,0,0.977,0.187,1.35,0.56
	S23,18.018,23,18.545v2.546c0,0.526-0.187,0.977-0.56,1.35S21.617,23,21.091,23h-2.546c-0.527,0-0.977-0.187-1.35-0.56
	s-0.56-0.823-0.56-1.35v-2.546c0-0.527,0.187-0.977,0.56-1.35S18.018,16.636,18.545,16.636z M21.091,17.909h-2.545
	c-0.176,0-0.326,0.062-0.45,0.187s-0.187,0.274-0.187,0.45v2.545c0,0.176,0.062,0.326,0.187,0.45
	c0.124,0.125,0.274,0.187,0.45,0.187h2.545c0.176,0,0.326-0.062,0.45-0.187c0.125-0.124,0.187-0.274,0.187-0.45v-2.545
	c0-0.176-0.062-0.326-0.187-0.45C21.417,17.972,21.267,17.909,21.091,17.909z M21.091,10.272h-2.545
	c-0.176,0-0.326,0.062-0.45,0.187s-0.187,0.274-0.187,0.45v2.545c0,0.176,0.062,0.325,0.187,0.45s0.274,0.187,0.45,0.187h2.545
	c0.176,0,0.326-0.062,0.45-0.187c0.125-0.125,0.187-0.274,0.187-0.45v-2.545c0-0.176-0.062-0.326-0.187-0.45
	C21.417,10.334,21.267,10.272,21.091,10.272z"/>
</svg>
