<?xml version="1.0" encoding="utf-8"?>
<!-- Generator: Adobe Illustrator 18.1.1, SVG Export Plug-In . SVG Version: 6.00 Build 0)  -->
<svg version="1.1" id="Layer_1" xmlns="http://www.w3.org/2000/svg" xmlns:xlink="http://www.w3.org/1999/xlink" x="0px" y="0px"
	 width="36px" height="36px" viewBox="0 0 36 36" enable-background="new 0 0 36 36" xml:space="preserve">
<g>
	<g>
		<path d="M3,29.9c-0.5,0-1-0.2-1.4-0.6c-0.8-0.8-0.8-2,0-2.8L26.5,1.6c0.8-0.8,2-0.8,2.8,0c0.8,0.8,0.8,2,0,2.8L4.4,29.3
			C4,29.7,3.5,29.9,3,29.9z"/>
	</g>
	<g>
		<path d="M12.1,33.7c-0.5,0-1-0.2-1.4-0.6c-0.8-0.8-0.8-2,0-2.8l19.6-19.6c0.8-0.8,2-0.8,2.8,0c0.8,0.8,0.8,2,0,2.8L13.5,33.1
			C13.1,33.5,12.6,33.7,12.1,33.7z"/>
	</g>
	<g>
		<path d="M23.5,35c-0.5,0-1-0.2-1.4-0.6c-0.8-0.8-0.8-2,0-2.8l9.5-9.5c0.8-0.8,2-0.8,2.8,0c0.8,0.8,0.8,2,0,2.8l-9.5,9.5
			C24.5,34.8,24,35,23.5,35z"/>
	</g>
</g>
</svg>
