<?xml version="1.0" encoding="utf-8"?>
<!-- Generator: Adobe Illustrator 18.1.1, SVG Export Plug-In . SVG Version: 6.00 Build 0)  -->
<svg version="1.1" id="Layer_1" xmlns="http://www.w3.org/2000/svg" xmlns:xlink="http://www.w3.org/1999/xlink" x="0px" y="0px"
	 width="8px" height="8px" viewBox="0 0 8 8" enable-background="new 0 0 8 8" xml:space="preserve">
<g>
	<g>
		<path d="M1.4,6.1c-0.1,0-0.2,0-0.2-0.1C1,5.9,1,5.6,1.1,5.5l4.4-4.4C5.6,1,5.9,1,6,1.1c0.1,0.1,0.1,0.4,0,0.5L1.6,6
			C1.5,6.1,1.4,6.1,1.4,6.1z"/>
	</g>
	<g>
		<path d="M3,6.8c-0.1,0-0.2,0-0.2-0.1c-0.1-0.1-0.1-0.4,0-0.5l3.5-3.5c0.1-0.1,0.4-0.1,0.5,0c0.1,0.1,0.1,0.4,0,0.5L3.2,6.7
			C3.1,6.7,3,6.8,3,6.8z"/>
	</g>
	<g>
		<path d="M5,7C4.9,7,4.8,7,4.7,6.9c-0.1-0.1-0.1-0.4,0-0.5l1.7-1.7c0.1-0.1,0.4-0.1,0.5,0C7,4.9,7,5.1,6.9,5.2L5.2,6.9
			C5.2,7,5.1,7,5,7z"/>
	</g>
</g>
</svg>
