<?xml version="1.0" encoding="utf-8"?>
<!-- Generator: Adobe Illustrator 15.0.0, SVG Export Plug-In . SVG Version: 6.00 Build 0)  -->
<!DOCTYPE svg PUBLIC "-//W3C//DTD SVG 1.1//EN" "http://www.w3.org/Graphics/SVG/1.1/DTD/svg11.dtd">
<svg version="1.1" id="Layer_1" xmlns="http://www.w3.org/2000/svg" xmlns:xlink="http://www.w3.org/1999/xlink" x="0px" y="0px"
	 width="14px" height="13.416px" viewBox="9 8.625 14 13.416" enable-background="new 9 8.625 14 13.416" xml:space="preserve">
<path fill="#555555" d="M16,8.625c0.635,0,1.221,0.156,1.757,0.469s0.961,0.738,1.273,1.273c0.312,0.536,0.47,1.122,0.47,1.757v1.75
	c0,0.486-0.094,0.946-0.283,1.381c-0.188,0.434-0.451,0.812-0.788,1.135c0.888,0.14,1.676,0.345,2.365,0.617
	c0.689,0.271,1.229,0.593,1.62,0.964C22.805,18.342,23,18.732,23,19.143v1.148c0,0.483-0.171,0.896-0.513,1.237
	s-0.755,0.513-1.237,0.513h-10.5c-0.483,0-0.896-0.171-1.237-0.513S9,20.774,9,20.291v-1.152c0-0.41,0.195-0.801,0.586-1.172
	c0.39-0.37,0.93-0.691,1.618-0.964c0.688-0.271,1.476-0.476,2.363-0.612c-0.334-0.325-0.595-0.705-0.784-1.137
	c-0.188-0.433-0.283-0.893-0.283-1.378v-1.75c0-0.635,0.157-1.221,0.47-1.757c0.313-0.536,0.737-0.961,1.273-1.273
	S15.365,8.625,16,8.625z M16,17.375c-0.845,0-1.66,0.067-2.445,0.203c-0.785,0.135-1.47,0.324-2.053,0.567
	c-0.234,0.097-0.442,0.2-0.626,0.31c-0.184,0.109-0.323,0.208-0.419,0.296c-0.096,0.089-0.168,0.165-0.217,0.23
	c-0.048,0.065-0.073,0.118-0.073,0.157v1.152c0,0.161,0.057,0.299,0.171,0.413c0.114,0.113,0.251,0.171,0.413,0.171h10.5
	c0.161,0,0.298-0.058,0.413-0.171c0.113-0.114,0.171-0.252,0.171-0.413v-1.148c0-0.039-0.024-0.091-0.073-0.157
	c-0.049-0.064-0.121-0.142-0.217-0.229s-0.235-0.188-0.419-0.297s-0.393-0.214-0.627-0.314c-0.583-0.242-1.268-0.432-2.053-0.567
	C17.659,17.442,16.845,17.374,16,17.375L16,17.375z M16,9.792c-0.644,0-1.194,0.228-1.65,0.684
	c-0.456,0.456-0.684,1.005-0.684,1.649v1.75c0,0.645,0.228,1.194,0.684,1.65c0.456,0.456,1.006,0.684,1.65,0.684
	c0.645,0,1.193-0.228,1.65-0.684c0.455-0.456,0.684-1.005,0.684-1.65v-1.75c0-0.644-0.229-1.194-0.684-1.649
	C17.193,10.02,16.645,9.792,16,9.792z"/>
</svg>
