<?xml version="1.0" encoding="utf-8"?>
<!-- Generator: Adobe Illustrator 16.0.3, SVG Export Plug-In . SVG Version: 6.00 Build 0)  -->
<!DOCTYPE svg PUBLIC "-//W3C//DTD SVG 1.1//EN" "http://www.w3.org/Graphics/SVG/1.1/DTD/svg11.dtd">
<svg version="1.1" id="Layer_1" xmlns="http://www.w3.org/2000/svg" xmlns:xlink="http://www.w3.org/1999/xlink" x="0px" y="0px"
	 width="60px" height="60px" viewBox="-23 -23 60 60" enable-background="new -23 -23 60 60" xml:space="preserve">
<path fill="#555555" d="M7-20.792c2.629,0,5.055,0.646,7.278,1.94c2.224,1.298,3.979,3.063,5.276,5.276
	c1.289,2.224,1.945,4.649,1.945,7.278v7.25c0,2.016-0.387,3.918-1.176,5.721c-0.77,1.799-1.869,3.371-3.256,4.707
	c3.672,0.58,6.943,1.435,9.793,2.553c2.852,1.123,5.094,2.465,6.713,3.998C35.193,19.466,36,21.08,36,22.789v4.753
	c0,2.001-0.708,3.714-2.124,5.13c-1.416,1.407-3.124,2.12-5.126,2.12h-43.5c-1.997,0-3.719-0.704-5.126-2.12
	C-21.292,31.256-22,29.543-22,27.542V22.77c0-1.699,0.807-3.322,2.426-4.856c1.619-1.534,3.852-2.86,6.712-3.989
	c2.851-1.127,6.112-1.982,9.78-2.534c-1.383-1.35-2.459-2.921-3.243-4.716C-7.104,4.881-7.5,2.969-7.5,0.963v-7.25
	c0-2.629,0.651-5.055,1.945-7.278c1.298-2.219,3.054-3.979,5.277-5.272C1.945-20.136,4.371-20.792,7-20.792z M7,15.459
	c-3.502,0-6.877,0.277-10.129,0.844c-3.257,0.558-6.089,1.336-8.505,2.352c-0.972,0.396-1.832,0.82-2.596,1.279
	c-0.76,0.447-1.335,0.863-1.732,1.227c-0.396,0.368-0.704,0.689-0.902,0.953c-0.198,0.27-0.302,0.486-0.302,0.646v4.777
	c0,0.666,0.241,1.236,0.708,1.709c0.477,0.472,1.038,0.707,1.708,0.707h43.5c0.67,0,1.232-0.24,1.709-0.707
	c0.477-0.473,0.707-1.043,0.707-1.709v-4.758c0-0.16-0.104-0.377-0.301-0.646c-0.199-0.27-0.501-0.59-0.897-0.949
	c-0.396-0.358-0.972-0.783-1.737-1.231c-0.764-0.448-1.623-0.888-2.596-1.298c-2.416-1.006-5.258-1.794-8.51-2.352
	C13.873,15.736,10.502,15.453,7,15.459L7,15.459z M7-15.954c-2.671,0-4.937,0.944-6.839,2.832c-1.883,1.897-2.832,4.163-2.832,6.83
	v7.25c0,2.677,0.949,4.951,2.832,6.835C2.063,9.686,4.329,10.63,7,10.63c2.672,0,4.938-0.944,6.84-2.837
	c1.883-1.884,2.832-4.158,2.832-6.835v-7.25c0-2.667-0.949-4.941-2.832-6.83C11.938-15.01,9.672-15.954,7-15.954z"/>
</svg>
