<?xml version="1.0" encoding="utf-8"?>
<!-- Generator: Adobe Illustrator 15.0.0, SVG Export Plug-In . SVG Version: 6.00 Build 0)  -->
<!DOCTYPE svg PUBLIC "-//W3C//DTD SVG 1.1//EN" "http://www.w3.org/Graphics/SVG/1.1/DTD/svg11.dtd">
<svg version="1.1" id="Layer_1" xmlns="http://www.w3.org/2000/svg" xmlns:xlink="http://www.w3.org/1999/xlink" x="0px" y="0px"
	 width="14px" height="14px" viewBox="9 8.333 14 14" enable-background="new 9 8.333 14 14" xml:space="preserve">
<path fill="#555555" d="M16,9.583c0.544,0,1.046,0.134,1.506,0.402s0.823,0.633,1.091,1.091C18.864,11.536,19,12.038,19,12.582v1.5
	c0,0.417-0.08,0.811-0.243,1.184c-0.16,0.372-0.387,0.697-0.674,0.973c0.76,0.121,1.436,0.297,2.026,0.529
	c0.59,0.232,1.054,0.509,1.389,0.827C21.833,17.912,22,18.246,22,18.6v0.983c0,0.414-0.146,0.768-0.44,1.061
	c-0.293,0.292-0.646,0.439-1.06,0.439h-9c-0.413,0-0.769-0.146-1.06-0.439C10.147,20.351,10,19.997,10,19.583v-0.987
	c0-0.352,0.167-0.688,0.502-1.005s0.797-0.592,1.388-0.826c0.59-0.233,1.265-0.409,2.024-0.524
	c-0.286-0.279-0.509-0.604-0.671-0.975C13.082,14.895,13,14.499,13,14.084v-1.5c0-0.544,0.135-1.046,0.403-1.506
	c0.268-0.459,0.631-0.823,1.091-1.091S15.456,9.583,16,9.583z M16,17.083c-0.725,0-1.423,0.058-2.096,0.175
	c-0.673,0.115-1.26,0.276-1.76,0.486c-0.201,0.082-0.378,0.17-0.536,0.265c-0.158,0.093-0.277,0.179-0.359,0.254
	c-0.082,0.076-0.145,0.142-0.186,0.197C11.021,18.516,11,18.561,11,18.594v0.988c0,0.138,0.05,0.256,0.146,0.354
	c0.099,0.097,0.216,0.146,0.354,0.146h9c0.138,0,0.255-0.05,0.354-0.146c0.098-0.098,0.146-0.216,0.146-0.354v-0.984
	c0-0.033-0.021-0.078-0.062-0.134s-0.104-0.122-0.186-0.197c-0.082-0.074-0.201-0.161-0.359-0.254s-0.337-0.184-0.537-0.269
	c-0.5-0.208-1.088-0.371-1.761-0.486C17.422,17.141,16.725,17.082,16,17.083L16,17.083z M16,10.584
	c-0.553,0-1.022,0.195-1.415,0.586c-0.39,0.392-0.586,0.861-0.586,1.413v1.5c0,0.554,0.196,1.024,0.586,1.414
	c0.393,0.392,0.862,0.587,1.415,0.587s1.022-0.195,1.415-0.587c0.39-0.39,0.586-0.86,0.586-1.414v-1.5
	c0-0.552-0.196-1.023-0.586-1.413C17.022,10.779,16.553,10.584,16,10.584z"/>
</svg>
