<?xml version="1.0" encoding="utf-8"?>
<!-- Generator: Adobe Illustrator 19.0.1, SVG Export Plug-In . SVG Version: 6.00 Build 0)  -->
<svg version="1.1" id="Layer_1" xmlns="http://www.w3.org/2000/svg" xmlns:xlink="http://www.w3.org/1999/xlink" x="0px" y="0px"
	 width="14px" height="14px" viewBox="9 9 14 14" style="enable-background:new 9 9 14 14;" xml:space="preserve">
<path d="M11.6,10h8.7c0.5,0,0.8,0.2,1.2,0.5c0.3,0.3,0.5,0.7,0.5,1.2v6c0,0.5-0.2,0.8-0.5,1.2c-0.3,0.3-0.7,0.5-1.2,0.5H16L12.2,22
	v-2.7h-0.5c-0.5,0-0.8-0.2-1.2-0.5c-0.3-0.3-0.5-0.7-0.5-1.2v-6c0-0.5,0.2-0.8,0.5-1.2S11.2,10,11.6,10z M20.4,11.1h-8.7
	c-0.1,0-0.3,0.1-0.4,0.2c-0.1,0.1-0.2,0.2-0.2,0.4v6c0,0.1,0.1,0.3,0.2,0.4s0.2,0.2,0.4,0.2h1.6v1.7l2.4-1.7h4.7
	c0.1,0,0.3-0.1,0.4-0.2c0.1-0.1,0.2-0.2,0.2-0.4v-6c0-0.2-0.1-0.3-0.2-0.4C20.6,11.1,20.5,11.1,20.4,11.1L20.4,11.1z"/>
<g>
	<path d="M16,12.6c-0.2,0-0.4,0-0.5,0.1c-0.2,0-0.4,0.1-0.6,0.2L14.5,12c0.2-0.1,0.5-0.2,0.7-0.3c0.3-0.1,0.6-0.1,0.8-0.1
		c0.3,0,0.6,0,0.8,0.1c0.2,0.1,0.4,0.2,0.5,0.3s0.2,0.3,0.3,0.5c0.1,0.2,0.1,0.3,0.1,0.5s0,0.3-0.1,0.4c0,0.1-0.1,0.2-0.2,0.3
		s-0.1,0.2-0.2,0.3c-0.1,0.1-0.2,0.2-0.3,0.3c-0.1,0.1-0.1,0.1-0.2,0.2c-0.1,0.1-0.1,0.1-0.2,0.2c-0.1,0.1-0.1,0.2-0.1,0.3
		s-0.1,0.2-0.1,0.3c0,0,0,0.1,0,0.1s0,0.1,0,0.1h-1.1c0-0.1,0-0.1,0-0.2c0-0.1,0-0.1,0-0.2c0-0.1,0-0.3,0.1-0.4
		c0-0.1,0.1-0.2,0.1-0.3c0.1-0.1,0.1-0.2,0.2-0.3c0.1-0.1,0.2-0.2,0.2-0.3c0.1-0.1,0.2-0.2,0.3-0.4s0.2-0.3,0.2-0.4
		c0-0.1,0-0.2-0.1-0.3C16.3,12.7,16.2,12.6,16,12.6z M16.7,16.7c0,0.2-0.1,0.4-0.2,0.5s-0.3,0.2-0.5,0.2c-0.2,0-0.4-0.1-0.5-0.2
		c-0.2-0.1-0.2-0.3-0.2-0.5s0.1-0.4,0.2-0.5c0.2-0.1,0.3-0.2,0.5-0.2c0.2,0,0.4,0.1,0.5,0.2S16.7,16.4,16.7,16.7z"/>
</g>
</svg>
