<?xml version="1.0" encoding="utf-8"?>
<!-- Generator: Adobe Illustrator 15.0.0, SVG Export Plug-In . SVG Version: 6.00 Build 0)  -->
<!DOCTYPE svg PUBLIC "-//W3C//DTD SVG 1.1//EN" "http://www.w3.org/Graphics/SVG/1.1/DTD/svg11.dtd">
<svg version="1.1" id="Layer_1" xmlns="http://www.w3.org/2000/svg" xmlns:xlink="http://www.w3.org/1999/xlink" x="0px" y="0px"
	 width="18px" height="18px" viewBox="6.999 7.66 18 18" enable-background="new 6.999 7.66 18 18" xml:space="preserve">
<path fill="#555555" d="M22.647,22.051l-0.149-6.9l-2.389-2.325l0.004-3.065l-1.531-0.051l-0.021,1.605L15.837,8.66l-6.49,6.663
	l0.149,6.899c0.009,0.684,0.07,2.435,0.07,2.435s1.747,0.009,2.429,0l2.915-0.037l0.033-3.975l2.476-0.036l0.038,3.99l2.758-0.053
	c0.667-0.007,2.434-0.033,2.434-0.033S22.656,22.744,22.647,22.051L22.647,22.051z M20.771,22.657
	c-0.09,0.091-0.281,0.243-0.576,0.248l-1.456,0.011l0.002-3.61h-5.116l-0.021,3.544c-0.295,0.004-2.125,0.02-2.217-0.071
	c-0.09-0.087-0.244-0.279-0.246-0.576L11,15.981l4.866-4.997l4.998,4.868l0.14,6.219C21.008,22.368,20.859,22.566,20.771,22.657
	L20.771,22.657z"/>
</svg>
