<?xml version="1.0" encoding="utf-8"?>
<!-- Generator: Adobe Illustrator 15.0.0, SVG Export Plug-In . SVG Version: 6.00 Build 0)  -->
<!DOCTYPE svg PUBLIC "-//W3C//DTD SVG 1.1//EN" "http://www.w3.org/Graphics/SVG/1.1/DTD/svg11.dtd">
<svg version="1.1" id="Layer_1" xmlns="http://www.w3.org/2000/svg" xmlns:xlink="http://www.w3.org/1999/xlink" x="0px" y="0px"
	 width="18px" height="18px" viewBox="6.999 7.66 18 18" enable-background="new 6.999 7.66 18 18" xml:space="preserve">
<path fill="#555555" d="M23.479,22.725l-0.168-7.763l-2.688-2.616l0.004-3.449l-1.722-0.056l-0.023,1.806L15.816,7.66l-7.301,7.495
	l0.168,7.762c0.011,0.768,0.078,2.738,0.078,2.738s1.965,0.01,2.732,0l3.281-0.041l0.037-4.472l2.785-0.041l0.042,4.49l3.102-0.06
	c0.751-0.008,2.738-0.037,2.738-0.037S23.489,23.504,23.479,22.725L23.479,22.725z M21.367,23.406
	c-0.101,0.103-0.316,0.274-0.648,0.28l-1.639,0.011l0.003-4.06h-5.756l-0.022,3.986c-0.333,0.004-2.391,0.021-2.494-0.08
	c-0.102-0.098-0.275-0.315-0.278-0.649l-0.158-6.997l5.475-5.622l5.622,5.477l0.158,6.996
	C21.634,23.082,21.467,23.305,21.367,23.406L21.367,23.406z"/>
</svg>
