<?xml version="1.0" encoding="utf-8"?>
<!-- Generator: Adobe Illustrator 18.1.1, SVG Export Plug-In . SVG Version: 6.00 Build 0)  -->
<svg version="1.1" id="Layer_1" xmlns="http://www.w3.org/2000/svg" xmlns:xlink="http://www.w3.org/1999/xlink" x="0px" y="0px"
	 width="48px" height="48px" viewBox="-198 184.7 48 48" enable-background="new -198 184.7 48 48" xml:space="preserve">
<path fill="#555555" d="M-154.9,224.2l-0.4-19.8l-6.9-6.7l0-8.8l-4.4-0.1l-0.1,4.6l-7.8-7.6l-18.7,19.2l0.4,19.8c0,2,0.2,7,0.2,7
	s5,0,7,0l8.4-0.1l0.1-11.4l7.1-0.1l0.1,11.5l7.9-0.2c1.9,0,7-0.1,7-0.1S-154.9,226.1-154.9,224.2L-154.9,224.2z M-160.3,225.9
	c-0.3,0.3-0.8,0.7-1.7,0.7l-4.2,0l0-10.4h-14.7l-0.1,10.2c-0.8,0-6.1,0.1-6.4-0.2c-0.3-0.3-0.7-0.8-0.7-1.7l-0.4-17.9l14-14.4
	l14.4,14l0.4,17.9C-159.6,225.1-160,225.6-160.3,225.9L-160.3,225.9z"/>
</svg>
