<?xml version="1.0" encoding="utf-8"?>
<!-- Generator: Adobe Illustrator 15.0.0, SVG Export Plug-In . SVG Version: 6.00 Build 0)  -->
<!DOCTYPE svg PUBLIC "-//W3C//DTD SVG 1.1//EN" "http://www.w3.org/Graphics/SVG/1.1/DTD/svg11.dtd">
<svg version="1.1" id="Layer_1" xmlns="http://www.w3.org/2000/svg" xmlns:xlink="http://www.w3.org/1999/xlink" x="0px" y="0px"
	 width="18px" height="18px" viewBox="7 7 18 18" enable-background="new 7 7 18 18" xml:space="preserve">
<path fill="#555555" d="M9.454,7h13.091c0.677,0,1.256,0.24,1.735,0.719S25,8.777,25,9.454v13.091c0,0.677-0.24,1.256-0.72,1.735
	S23.222,25,22.545,25H9.454c-0.677,0-1.256-0.24-1.735-0.72S7,23.222,7,22.545V9.454c0-0.677,0.24-1.256,0.719-1.735
	S8.777,7,9.454,7z M12.727,23.363v-9.818H8.636v9c0,0.226,0.08,0.419,0.24,0.578c0.16,0.16,0.353,0.24,0.579,0.24L12.727,23.363
	L12.727,23.363z M23.363,22.546v-9h-9v9.818h8.182c0.226,0,0.418-0.08,0.579-0.239C23.283,22.963,23.363,22.771,23.363,22.546
	L23.363,22.546z M22.546,8.636H9.455c-0.226,0-0.418,0.08-0.579,0.24c-0.16,0.16-0.24,0.353-0.24,0.579v2.455h14.727V9.455
	c0-0.226-0.08-0.418-0.239-0.579C22.963,8.716,22.771,8.636,22.546,8.636L22.546,8.636z"/>
</svg>
