<?xml version="1.0" encoding="utf-8"?>
<!-- Generator: Adobe Illustrator 18.1.1, SVG Export Plug-In . SVG Version: 6.00 Build 0)  -->
<svg version="1.1" id="Layer_1" xmlns="http://www.w3.org/2000/svg" xmlns:xlink="http://www.w3.org/1999/xlink" x="0px" y="0px"
	 width="48px" height="48px" viewBox="-198 184 48 48" enable-background="new -198 184 48 48" xml:space="preserve">
<path fill="#555555" d="M-190.7,185h33.5c1.7,0,3.2,0.6,4.4,1.8c1.2,1.2,1.8,2.7,1.8,4.4v33.5c0,1.7-0.6,3.2-1.8,4.4
	c-1.2,1.2-2.7,1.8-4.4,1.8h-33.5c-1.7,0-3.2-0.6-4.4-1.8c-1.2-1.2-1.8-2.7-1.8-4.4v-33.5c0-1.7,0.6-3.2,1.8-4.4
	S-192.5,185-190.7,185z M-182.4,226.8v-25.1h-10.5v23c0,0.6,0.2,1.1,0.6,1.5s0.9,0.6,1.5,0.6H-182.4L-182.4,226.8z M-155.2,224.7
	v-23h-23v25.1h20.9c0.6,0,1.1-0.2,1.5-0.6C-155.4,225.8-155.2,225.3-155.2,224.7L-155.2,224.7z M-157.3,189.2h-33.5
	c-0.6,0-1.1,0.2-1.5,0.6c-0.4,0.4-0.6,0.9-0.6,1.5v6.3h37.6v-6.3c0-0.6-0.2-1.1-0.6-1.5C-156.2,189.4-156.7,189.2-157.3,189.2
	L-157.3,189.2z"/>
</svg>
