<?xml version="1.0" encoding="utf-8"?>
<!-- Generator: Adobe Illustrator 15.0.0, SVG Export Plug-In . SVG Version: 6.00 Build 0)  -->
<!DOCTYPE svg PUBLIC "-//W3C//DTD SVG 1.1//EN" "http://www.w3.org/Graphics/SVG/1.1/DTD/svg11.dtd">
<svg version="1.1" id="Layer_1" xmlns="http://www.w3.org/2000/svg" xmlns:xlink="http://www.w3.org/1999/xlink" x="0px" y="0px"
	 width="18px" height="18px" viewBox="7 7 18 18" enable-background="new 7 7 18 18" xml:space="preserve">
<path fill="#555555" d="M10.182,8h11.636c0.603,0,1.116,0.213,1.542,0.639C23.785,9.065,24,9.579,24,10.182v11.636
	c0,0.603-0.214,1.116-0.641,1.543C22.934,23.785,22.42,24,21.817,24H10.182c-0.603,0-1.117-0.214-1.542-0.64
	C8.213,22.934,8,22.42,8,21.817V10.182c0-0.603,0.213-1.117,0.639-1.543C9.065,8.213,9.579,8,10.182,8z M13.09,22.545v-8.728H9.455
	v8c0,0.202,0.071,0.373,0.213,0.515c0.142,0.142,0.313,0.213,0.515,0.213H13.09L13.09,22.545z M22.545,21.818v-8h-8v8.728h7.272
	c0.202,0,0.372-0.071,0.515-0.213C22.474,22.189,22.545,22.02,22.545,21.818L22.545,21.818z M21.818,9.454H10.183
	c-0.201,0-0.372,0.071-0.515,0.214C9.525,9.81,9.455,9.981,9.455,10.183v2.182h13.09v-2.182c0-0.201-0.071-0.372-0.213-0.515
	C22.189,9.525,22.02,9.454,21.818,9.454L21.818,9.454z"/>
</svg>
