<?xml version="1.0" encoding="utf-8"?>
<!-- Generator: Adobe Illustrator 16.0.3, SVG Export Plug-In . SVG Version: 6.00 Build 0)  -->
<!DOCTYPE svg PUBLIC "-//W3C//DTD SVG 1.1//EN" "http://www.w3.org/Graphics/SVG/1.1/DTD/svg11.dtd">
<svg version="1.1" id="Layer_1" xmlns="http://www.w3.org/2000/svg" xmlns:xlink="http://www.w3.org/1999/xlink" x="0px" y="0px"
	 width="60px" height="60px" viewBox="-23 -23 60 60" enable-background="new -23 -23 60 60" xml:space="preserve">
<g id="Layer_1_1_" display="none">
	<g display="inline">
		<path d="M-176.1,204.1c0.1,0,0.1,0,0.2,0c0.6,0,1.1,0.2,1.6,0.4s0.8,0.5,1.2,0.8c0.3,0.3,0.6,0.7,0.8,1.2c0.2,0.4,0.3,1,0.4,1.6
			v0.101c0,0.6-0.1,1.1-0.4,1.6c-0.2,0.4-0.5,0.8-0.8,1.101c-0.1,0.1-0.2,0.199-0.3,0.199c-0.3,0.101-0.5-0.199-0.4-0.5
			c0-0.1,0.1-0.199,0.2-0.3c0.5-0.5,0.8-1.1,0.9-2c0-0.3,0-0.6-0.1-0.899c-0.1-0.5-0.3-0.9-0.6-1.301c-0.3-0.399-0.6-0.699-1-0.899
			s-0.9-0.4-1.5-0.4s-1.2,0.101-1.6,0.4c-0.4,0.2-0.8,0.5-1.1,0.8c-0.3,0.3-0.5,0.8-0.6,1.3c-0.1,0.3-0.1,0.601-0.1,0.9
			s0.1,0.6,0.1,0.8c0.1,0.5,0.4,0.9,0.7,1.2c0.1,0.1,0.2,0.2,0.2,0.2c0.1,0.1,0.1,0.3,0,0.399c-0.1,0.101-0.2,0.2-0.3,0.2
			c-0.2,0-0.2-0.1-0.3-0.2c-0.3-0.3-0.6-0.7-0.8-1.1c-0.2-0.4-0.3-0.9-0.4-1.601c0-0.1,0-0.1,0-0.199c0-0.2,0-0.301,0-0.5
			c0.1-1,0.6-1.7,1.2-2.301c0.3-0.3,0.7-0.6,1.2-0.8C-177.2,204.3-176.7,204.1-176.1,204.1L-176.1,204.1z"/>
		<path d="M-173.4,211.2c-0.2,0-0.3-0.101-0.4-0.2c-0.1-0.1-0.1-0.3-0.1-0.4c0-0.1,0.1-0.199,0.2-0.199c0,0,0,0,0.1-0.101
			c0.5-0.6,0.8-1.2,0.9-1.899c0-0.301,0-0.601-0.1-0.801c-0.1-0.5-0.3-0.899-0.6-1.3c-0.3-0.3-0.6-0.6-1-0.8
			c-0.5-0.2-0.9-0.4-1.5-0.4h-0.1c-0.5,0-1,0.101-1.4,0.301c-0.4,0.199-0.8,0.5-1,0.8c-0.3,0.399-0.5,0.8-0.6,1.2
			c-0.1,0.3-0.1,0.6-0.1,0.8c0,0.3,0.1,0.6,0.1,0.8c0.1,0.4,0.4,0.8,0.7,1.2c0,0,0,0,0.1,0.1c0.1,0.101,0.1,0.101,0.2,0.2
			c0.1,0.2,0.1,0.3,0,0.5c-0.1,0.1-0.2,0.2-0.4,0.2c-0.2,0-0.3-0.101-0.4-0.2c-0.3-0.3-0.6-0.7-0.8-1.2c-0.2-0.5-0.4-1-0.4-1.6l0,0
			V208c0-0.2,0-0.3,0-0.5c0.1-0.9,0.5-1.7,1.2-2.3c0.3-0.3,0.7-0.601,1.2-0.8c0.5-0.2,1.1-0.4,1.6-0.4l0,0h0.2
			c0.6,0,1.1,0.1,1.6,0.4c0.5,0.199,0.9,0.5,1.2,0.8s0.6,0.7,0.8,1.2c0.2,0.5,0.4,1,0.4,1.699l0,0v0.101c0,0.6-0.1,1.1-0.4,1.6
			c-0.2,0.4-0.5,0.8-0.8,1.2l0,0c-0.1,0.1-0.2,0.2-0.3,0.2C-173.4,211.2-173.4,211.2-173.4,211.2L-173.4,211.2z M-176,204.7
			L-176,204.7c0.7,0,1.2,0.2,1.7,0.399c0.4,0.2,0.8,0.5,1.1,0.9c0.3,0.4,0.5,0.9,0.6,1.4c0.1,0.3,0.1,0.6,0.1,0.899
			c-0.1,0.8-0.3,1.4-0.9,2.101l-0.1,0.1c-0.1,0-0.1,0.1-0.1,0.1c0,0.101,0,0.2,0,0.2c0,0.101,0.1,0.101,0.2,0.101c0,0,0,0,0.1,0
			c0.1,0,0.1-0.101,0.2-0.101l0,0c0.3-0.3,0.6-0.7,0.8-1.1c0.2-0.5,0.3-1,0.3-1.5V208c0-0.6-0.1-1.1-0.4-1.6
			c-0.2-0.4-0.5-0.801-0.8-1.101c-0.3-0.3-0.7-0.6-1.1-0.8c-0.5-0.2-1-0.3-1.5-0.4h-0.2c-0.5,0-1,0.101-1.5,0.4
			c-0.4,0.2-0.8,0.4-1.1,0.8c-0.6,0.601-1,1.3-1.1,2.2c0,0.1,0,0.3,0,0.4v0.199c0,0.601,0.1,1,0.4,1.5c0.2,0.4,0.4,0.801,0.8,1.101
			c0.1,0.1,0.1,0.1,0.2,0.1l0,0c0.1,0,0.2,0,0.2-0.1c0-0.101,0-0.2,0-0.2c0-0.1-0.1-0.1-0.1-0.1l-0.1-0.101
			c-0.3-0.399-0.6-0.8-0.7-1.3c-0.1-0.3-0.1-0.5-0.1-0.9c0-0.3,0-0.6,0.1-0.899c0.1-0.5,0.3-0.9,0.7-1.3c0.3-0.4,0.7-0.7,1.1-0.9
			C-177.1,204.8-176.6,204.7-176,204.7L-176,204.7z"/>
		<path d="M-174,212.3h-0.1h-0.1c0,0,0,0-0.1,0h-3.2h-0.1c-0.1,0-0.1,0-0.2,0c-0.1,0-0.1,0-0.2,0c-0.2,0-0.4,0.2-0.4,0.5
			s0.2,0.5,0.4,0.5c0,0,0.1,0,0.2,0h0.1h0.1h3.3h0.1h0.1c0.1,0,0.1,0,0.2,0c0.2,0,0.4-0.2,0.4-0.5
			C-173.6,212.5-173.8,212.3-174,212.3z"/>
		<path d="M-174,213.5h-0.1h-0.1c0,0,0,0-0.1,0h-3.2h-0.1c-0.1,0-0.1,0-0.2,0c-0.1,0-0.1,0-0.2,0c-0.2,0-0.4,0.2-0.4,0.5
			c0,0.2,0.1,0.4,0.4,0.5c0.1,0,0.1,0,0.2,0c0,0,0,0,0.1,0c0,0,0,0,0.1,0h3.4c0,0,0,0,0.1,0h0.1h0.1c0.2,0,0.4-0.2,0.4-0.5
			C-173.6,213.7-173.8,213.5-174,213.5z"/>
		<path d="M-174.8,215.9c-0.8,0-1.6,0-2.4,0c-0.2,0-0.3-0.101-0.4-0.301c-0.1-0.1-0.1-0.399-0.1-0.5c0.1-0.199,0.2-0.3,0.4-0.199
			c0.2,0,0.3,0.1,0.3,0.3l0,0c0.6,0,1.2,0,1.9,0c0-0.2,0.1-0.3,0.3-0.3c0.2,0,0.3,0.1,0.4,0.199c0,0.101,0,0.2,0,0.301
			C-174.4,215.6-174.5,215.8-174.8,215.9L-174.8,215.9z"/>
		<path d="M-174.8,216h-2.4c-0.2,0-0.4-0.1-0.5-0.3c0,0-0.2-0.4-0.1-0.601c0.1-0.199,0.2-0.3,0.5-0.3c0,0,0,0,0.1,0
			c0.2,0,0.3,0.101,0.4,0.3h1.7c0.1-0.199,0.2-0.3,0.4-0.3c0,0,0,0,0.1,0c0.2,0,0.4,0.101,0.5,0.3c0,0.101,0,0.2,0,0.301
			C-174.3,215.5-174.3,215.9-174.8,216L-174.8,216L-174.8,216z M-177.2,215.8h2.4c0.2,0,0.3-0.2,0.3-0.399c0-0.101,0-0.2,0-0.2
			c0-0.101-0.1-0.2-0.2-0.2l0,0c-0.1,0-0.2,0-0.2,0.2v0.1h-2c-0.1,0-0.1,0-0.1-0.1l0,0l0,0c0-0.2-0.1-0.2-0.2-0.2l0,0
			c-0.1,0-0.2,0.1-0.2,0.2c0,0.1,0,0.3,0.1,0.399C-177.4,215.7-177.3,215.7-177.2,215.8L-177.2,215.8z"/>
	</g>
</g>
<g id="Layer_2">
	<g>
		<g>
			<path d="M18.554,13.221c-0.442,0-1.332-0.442-1.779-0.89c-0.886-0.886-0.886-2.222,0-3.107c3.112-2.669,4.892-6.666,4.892-10.667
				c0-7.999-6.666-14.665-14.667-14.665C-1-16.109-7.666-9.442-7.666-1.444c0,4.001,1.777,7.999,4.889,10.667
				c0.888,0.886,0.888,2.222,0,3.107c-0.89,0.89-2.222,0.89-3.111,0c-4-3.555-6.222-8.888-6.222-14.218
				C-12.11-12.554-3.667-21,6.999-21s19.111,8.446,19.111,19.113c0,5.33-2.222,10.663-6.223,14.218
				C19.887,13.221,18.996,13.221,18.554,13.221z"/>
		</g>
		<g>
			<path d="M17.222,20.334H-2.334c-1.333,0-2.222-0.89-2.222-2.222c0-1.337,0.89-2.223,2.222-2.223h19.556
				c1.332,0,2.222,0.886,2.222,2.223C19.443,19.444,18.554,20.334,17.222,20.334z"/>
		</g>
		<g>
			<path d="M17.222,26.554H-2.334c-1.333,0-2.222-0.89-2.222-2.223c0-1.332,0.89-2.222,2.222-2.222h19.556
				c1.332,0,2.222,0.89,2.222,2.222C19.443,25.664,18.554,26.554,17.222,26.554z"/>
		</g>
		<path d="M15.442,29.665c-0.89-0.89-2.223-0.89-3.112,0l-1.332,1.333H3.444l-1.335-1.333c-0.887-0.89-2.222-0.89-3.109,0
			c-0.89,0.89-0.89,2.222,0,3.112l1.777,1.774c0.445,0.447,0.89,0.447,1.777,0.447c0,0,0,0,0.444,0c0,0,0,0,0.445,0h8.886
			c0.447,0,0.447,0,0.89,0c0.447,0,0.447-0.447,0.89-0.447l1.779-1.774C16.332,31.887,16.332,30.555,15.442,29.665z"/>
	</g>
	<g>
		<path fill="none" stroke="#000000" stroke-linecap="round" stroke-miterlimit="10" d="M18.554,10.109"/>
	</g>
</g>
</svg>
