<?xml version="1.0" encoding="utf-8"?>
<!-- Generator: Adobe Illustrator 19.0.1, SVG Export Plug-In . SVG Version: 6.00 Build 0)  -->
<svg version="1.1" xmlns="http://www.w3.org/2000/svg" xmlns:xlink="http://www.w3.org/1999/xlink" x="0px" y="0px" width="14px"
	 height="14px" viewBox="-183 203 14 14" style="enable-background:new -183 203 14 14;" xml:space="preserve">
<style type="text/css">
	.st0{display:none;}
	.st1{display:inline;}
	.st2{fill:none;stroke:#000000;stroke-linecap:round;stroke-miterlimit:10;}
</style>
<g id="Layer_1" class="st0">
	<g class="st1">
		<path d="M-176.1,204.1c0.1,0,0.1,0,0.2,0c0.6,0,1.1,0.2,1.6,0.4c0.5,0.2,0.8,0.5,1.2,0.8c0.3,0.3,0.6,0.7,0.8,1.2
			c0.2,0.4,0.3,1,0.4,1.6c0,0,0,0.1,0,0.1c0,0.6-0.1,1.1-0.4,1.6c-0.2,0.4-0.5,0.8-0.8,1.1c-0.1,0.1-0.2,0.2-0.3,0.2
			c-0.3,0.1-0.5-0.2-0.4-0.5c0-0.1,0.1-0.2,0.2-0.3c0.5-0.5,0.8-1.1,0.9-2c0-0.3,0-0.6-0.1-0.9c-0.1-0.5-0.3-0.9-0.6-1.3
			c-0.3-0.4-0.6-0.7-1-0.9c-0.4-0.2-0.9-0.4-1.5-0.4c-0.6,0-1.2,0.1-1.6,0.4c-0.4,0.2-0.8,0.5-1.1,0.8c-0.3,0.3-0.5,0.8-0.6,1.3
			c-0.1,0.3-0.1,0.6-0.1,0.9c0,0.3,0.1,0.6,0.1,0.8c0.1,0.5,0.4,0.9,0.7,1.2c0.1,0.1,0.2,0.2,0.2,0.2c0.1,0.1,0.1,0.3,0,0.4
			c-0.1,0.1-0.2,0.2-0.3,0.2c-0.2,0-0.2-0.1-0.3-0.2c-0.3-0.3-0.6-0.7-0.8-1.1c-0.2-0.4-0.3-0.9-0.4-1.6c0-0.1,0-0.1,0-0.2
			c0-0.2,0-0.3,0-0.5c0.1-1,0.6-1.7,1.2-2.3c0.3-0.3,0.7-0.6,1.2-0.8C-177.2,204.3-176.7,204.1-176.1,204.1L-176.1,204.1z"/>
		<path d="M-173.4,211.2c-0.2,0-0.3-0.1-0.4-0.2c-0.1-0.1-0.1-0.3-0.1-0.4c0-0.1,0.1-0.2,0.2-0.2c0,0,0,0,0.1-0.1
			c0.5-0.6,0.8-1.2,0.9-1.9c0-0.3,0-0.6-0.1-0.8c-0.1-0.5-0.3-0.9-0.6-1.3c-0.3-0.3-0.6-0.6-1-0.8c-0.5-0.2-0.9-0.4-1.5-0.4
			c0,0-0.1,0-0.1,0c-0.5,0-1,0.1-1.4,0.3c-0.4,0.2-0.8,0.5-1,0.8c-0.3,0.4-0.5,0.8-0.6,1.2c-0.1,0.3-0.1,0.6-0.1,0.8
			c0,0.3,0.1,0.6,0.1,0.8c0.1,0.4,0.4,0.8,0.7,1.2c0,0,0,0,0.1,0.1c0.1,0.1,0.1,0.1,0.2,0.2c0.1,0.2,0.1,0.3,0,0.5
			c-0.1,0.1-0.2,0.2-0.4,0.2c-0.2,0-0.3-0.1-0.4-0.2c-0.3-0.3-0.6-0.7-0.8-1.2c-0.2-0.5-0.4-1-0.4-1.6v0V208c0-0.2,0-0.3,0-0.5
			c0.1-0.9,0.5-1.7,1.2-2.3c0.3-0.3,0.7-0.6,1.2-0.8c0.5-0.2,1.1-0.4,1.6-0.4h0h0.2c0.6,0,1.1,0.1,1.6,0.4c0.5,0.2,0.9,0.5,1.2,0.8
			c0.3,0.3,0.6,0.7,0.8,1.2c0.2,0.5,0.4,1,0.4,1.7v0v0.1c0,0.6-0.1,1.1-0.4,1.6c-0.2,0.4-0.5,0.8-0.8,1.2c0,0,0,0,0,0
			c-0.1,0.1-0.2,0.2-0.3,0.2C-173.4,211.2-173.4,211.2-173.4,211.2L-173.4,211.2z M-176,204.7C-176,204.7-176,204.7-176,204.7
			c0.7,0,1.2,0.2,1.7,0.4c0.4,0.2,0.8,0.5,1.1,0.9c0.3,0.4,0.5,0.9,0.6,1.4c0.1,0.3,0.1,0.6,0.1,0.9c-0.1,0.8-0.3,1.4-0.9,2.1
			c0,0-0.1,0.1-0.1,0.1c-0.1,0-0.1,0.1-0.1,0.1c0,0.1,0,0.2,0,0.2c0,0.1,0.1,0.1,0.2,0.1c0,0,0,0,0.1,0c0.1,0,0.1-0.1,0.2-0.1
			c0,0,0,0,0,0c0.3-0.3,0.6-0.7,0.8-1.1c0.2-0.5,0.3-1,0.3-1.5V208c0-0.6-0.1-1.1-0.4-1.6c-0.2-0.4-0.5-0.8-0.8-1.1
			c-0.3-0.3-0.7-0.6-1.1-0.8c-0.5-0.2-1-0.3-1.5-0.4h-0.2c-0.5,0-1,0.1-1.5,0.4c-0.4,0.2-0.8,0.4-1.1,0.8c-0.6,0.6-1,1.3-1.1,2.2
			c0,0.1,0,0.3,0,0.4v0.2c0,0.6,0.1,1,0.4,1.5c0.2,0.4,0.4,0.8,0.8,1.1c0.1,0.1,0.1,0.1,0.2,0.1h0c0.1,0,0.2,0,0.2-0.1
			c0-0.1,0-0.2,0-0.2c0-0.1-0.1-0.1-0.1-0.1c0,0-0.1-0.1-0.1-0.1c-0.3-0.4-0.6-0.8-0.7-1.3c-0.1-0.3-0.1-0.5-0.1-0.9
			c0-0.3,0-0.6,0.1-0.9c0.1-0.5,0.3-0.9,0.7-1.3c0.3-0.4,0.7-0.7,1.1-0.9C-177.1,204.8-176.6,204.7-176,204.7L-176,204.7z"/>
		<path d="M-174,212.3c0,0-0.1,0-0.1,0c0,0-0.1,0-0.1,0c0,0,0,0-0.1,0h-3.2c0,0-0.1,0-0.1,0c-0.1,0-0.1,0-0.2,0c-0.1,0-0.1,0-0.2,0
			c-0.2,0-0.4,0.2-0.4,0.5c0,0.3,0.2,0.5,0.4,0.5c0,0,0.1,0,0.2,0c0,0,0.1,0,0.1,0c0,0,0.1,0,0.1,0h3.3c0,0,0.1,0,0.1,0
			c0,0,0.1,0,0.1,0c0.1,0,0.1,0,0.2,0c0.2,0,0.4-0.2,0.4-0.5C-173.6,212.5-173.8,212.3-174,212.3z"/>
		<path d="M-174,213.5c0,0-0.1,0-0.1,0c0,0-0.1,0-0.1,0c0,0,0,0-0.1,0h-3.2c0,0-0.1,0-0.1,0c-0.1,0-0.1,0-0.2,0c-0.1,0-0.1,0-0.2,0
			c-0.2,0-0.4,0.2-0.4,0.5c0,0.2,0.1,0.4,0.4,0.5c0.1,0,0.1,0,0.2,0c0,0,0,0,0.1,0c0,0,0,0,0.1,0h3.4c0,0,0,0,0.1,0c0,0,0.1,0,0.1,0
			c0,0,0.1,0,0.1,0c0.2,0,0.4-0.2,0.4-0.5C-173.6,213.7-173.8,213.5-174,213.5z"/>
		<path d="M-174.8,215.9c-0.8,0-1.6,0-2.4,0c-0.2,0-0.3-0.1-0.4-0.3c-0.1-0.1-0.1-0.4-0.1-0.5c0.1-0.2,0.2-0.3,0.4-0.2
			c0.2,0,0.3,0.1,0.3,0.3c0,0,0,0,0,0c0.6,0,1.2,0,1.9,0c0-0.2,0.1-0.3,0.3-0.3c0.2,0,0.3,0.1,0.4,0.2c0,0.1,0,0.2,0,0.3
			C-174.4,215.6-174.5,215.8-174.8,215.9L-174.8,215.9z"/>
		<path d="M-174.8,216l-2.4,0c-0.2,0-0.4-0.1-0.5-0.3c0,0-0.2-0.4-0.1-0.6c0.1-0.2,0.2-0.3,0.5-0.3c0,0,0,0,0.1,0
			c0.2,0,0.3,0.1,0.4,0.3h1.7c0.1-0.2,0.2-0.3,0.4-0.3c0,0,0,0,0.1,0c0.2,0,0.4,0.1,0.5,0.3c0,0.1,0,0.2,0,0.3
			C-174.3,215.5-174.3,215.9-174.8,216L-174.8,216L-174.8,216z M-177.2,215.8h2.4c0.2,0,0.3-0.2,0.3-0.4c0-0.1,0-0.2,0-0.2
			c0-0.1-0.1-0.2-0.2-0.2c0,0,0,0,0,0c-0.1,0-0.2,0-0.2,0.2l0,0.1h-2c-0.1,0-0.1,0-0.1-0.1l0,0l0,0c0-0.2-0.1-0.2-0.2-0.2
			c0,0,0,0,0,0c-0.1,0-0.2,0.1-0.2,0.2c0,0.1,0,0.3,0.1,0.4C-177.4,215.7-177.3,215.7-177.2,215.8L-177.2,215.8z"/>
	</g>
</g>
<g id="Layer_2">
	<g>
		<g>
			<path d="M-173.5,211.3c-0.1,0-0.3-0.1-0.4-0.2c-0.2-0.2-0.2-0.5,0-0.7c0.7-0.6,1.1-1.5,1.1-2.4c0-1.8-1.5-3.3-3.3-3.3
				s-3.3,1.5-3.3,3.3c0,0.9,0.4,1.8,1.1,2.4c0.2,0.2,0.2,0.5,0,0.7c-0.2,0.2-0.5,0.2-0.7,0c-0.9-0.8-1.4-2-1.4-3.2
				c0-2.4,1.9-4.3,4.3-4.3s4.3,1.9,4.3,4.3c0,1.2-0.5,2.4-1.4,3.2C-173.2,211.3-173.4,211.3-173.5,211.3z"/>
		</g>
		<g>
			<path d="M-173.8,212.9h-4.4c-0.3,0-0.5-0.2-0.5-0.5s0.2-0.5,0.5-0.5h4.4c0.3,0,0.5,0.2,0.5,0.5S-173.5,212.9-173.8,212.9z"/>
		</g>
		<g>
			<path d="M-173.8,214.3h-4.4c-0.3,0-0.5-0.2-0.5-0.5s0.2-0.5,0.5-0.5h4.4c0.3,0,0.5,0.2,0.5,0.5S-173.5,214.3-173.8,214.3z"/>
		</g>
		<path d="M-174.2,215c-0.2-0.2-0.5-0.2-0.7,0l-0.3,0.3h-1.7l-0.3-0.3c-0.2-0.2-0.5-0.2-0.7,0c-0.2,0.2-0.2,0.5,0,0.7l0.4,0.4
			c0.1,0.1,0.2,0.1,0.4,0.1c0,0,0,0,0.1,0c0,0,0,0,0.1,0h2c0.1,0,0.1,0,0.2,0c0.1,0,0.1-0.1,0.2-0.1l0.4-0.4
			C-174,215.5-174,215.2-174.2,215z"/>
	</g>
	<g>
		<path class="st2" d="M-173.5,210.6"/>
	</g>
</g>
</svg>
