<?xml version="1.0" encoding="utf-8"?>
<!-- Generator: Adobe Illustrator 18.1.1, SVG Export Plug-In . SVG Version: 6.00 Build 0)  -->
<svg version="1.1" id="Layer_1" xmlns="http://www.w3.org/2000/svg" xmlns:xlink="http://www.w3.org/1999/xlink" x="0px" y="0px"
	 width="36px" height="36px" viewBox="-203 183 36 36" enable-background="new -203 183 36 36" xml:space="preserve">
<path fill="#555555" d="M-178.4,206c0.4,0,0.8,0.2,1.1,0.5l4.4,4.4c0.3,0.3,0.5,0.7,0.5,1.1c0,0.4-0.2,0.8-0.5,1.1
	c-0.3,0.3-0.7,0.5-1.1,0.5c-0.4,0-0.8-0.2-1.1-0.5l-4.4-4.4c-0.3-0.3-0.5-0.7-0.5-1.1c0-0.4,0.2-0.8,0.5-1.1
	C-179.2,206.2-178.9,206-178.4,206L-178.4,206z M-191.6,206c0.4,0,0.8,0.2,1.1,0.5c0.3,0.3,0.5,0.7,0.5,1.1c0,0.4-0.2,0.8-0.5,1.1
	l-4.4,4.4c-0.3,0.3-0.7,0.5-1.1,0.5c-0.4,0-0.8-0.2-1.1-0.5c-0.3-0.3-0.5-0.7-0.5-1.1c0-0.4,0.2-0.8,0.4-1.1l4.4-4.4
	C-192.3,206.2-192,206-191.6,206L-191.6,206z M-200.5,199.5h6.2c0.4,0,0.8,0.2,1.1,0.5c0.3,0.3,0.4,0.7,0.4,1.1
	c0,0.4-0.1,0.8-0.5,1.1c-0.3,0.3-0.7,0.5-1.1,0.5h-6.2c-0.4,0-0.8-0.2-1.1-0.5c-0.3-0.3-0.5-0.7-0.5-1.1c0-0.4,0.2-0.8,0.5-1.1
	C-201.2,199.6-200.9,199.5-200.5,199.5z M-185,208.7c0.4,0,0.8,0.2,1.1,0.5c0.3,0.3,0.5,0.7,0.5,1.1v6.2c0,0.4-0.2,0.8-0.5,1.1
	c-0.3,0.3-0.7,0.4-1.1,0.4s-0.8-0.2-1.1-0.5c-0.3-0.3-0.5-0.7-0.5-1.1v-6.2c0-0.4,0.2-0.8,0.5-1.1
	C-185.8,208.9-185.4,208.7-185,208.7z M-195.9,188.5c0.4,0,0.8,0.2,1.1,0.5l4.4,4.4c0.3,0.3,0.5,0.7,0.5,1.1c0,0.4-0.2,0.8-0.5,1.1
	c-0.3,0.3-0.7,0.5-1.1,0.5c-0.4,0-0.8-0.1-1.1-0.4l-4.4-4.4c-0.3-0.3-0.4-0.7-0.4-1.1c0-0.4,0.2-0.8,0.5-1.1
	C-196.7,188.7-196.4,188.5-195.9,188.5L-195.9,188.5z M-175.7,199.5h6.2c0.4,0,0.8,0.2,1.1,0.5c0.3,0.3,0.5,0.7,0.5,1.1
	c0,0.4-0.2,0.8-0.5,1.1c-0.3,0.3-0.7,0.5-1.1,0.5h-6.2c-0.4,0-0.8-0.2-1.1-0.5c-0.3-0.3-0.4-0.7-0.4-1.1c0-0.4,0.2-0.8,0.5-1.1
	C-176.5,199.6-176.2,199.5-175.7,199.5z M-185,184c0.4,0,0.8,0.2,1.1,0.5c0.3,0.3,0.5,0.7,0.5,1.1v6.2c0,0.4-0.2,0.8-0.5,1.1
	c-0.3,0.3-0.7,0.4-1.1,0.4s-0.8-0.1-1.1-0.5c-0.3-0.3-0.5-0.7-0.5-1.1v-6.2c0-0.4,0.2-0.8,0.5-1.1C-185.8,184.2-185.4,184-185,184z
	 M-174.1,188.5c0.4,0,0.8,0.2,1.1,0.5c0.3,0.3,0.5,0.7,0.5,1.1c0,0.4-0.2,0.8-0.5,1.1l-4.4,4.4c-0.3,0.3-0.7,0.5-1.1,0.5
	c-0.4,0-0.8-0.1-1.1-0.4c-0.3-0.3-0.4-0.7-0.4-1.1c0-0.4,0.2-0.8,0.4-1.1l4.4-4.4C-174.9,188.7-174.5,188.5-174.1,188.5z"/>
</svg>
