<?xml version="1.0" encoding="utf-8"?>
<!-- Generator: Adobe Illustrator 15.0.0, SVG Export Plug-In . SVG Version: 6.00 Build 0)  -->
<!DOCTYPE svg PUBLIC "-//W3C//DTD SVG 1.1//EN" "http://www.w3.org/Graphics/SVG/1.1/DTD/svg11.dtd">
<svg version="1.1" id="Layer_1" xmlns="http://www.w3.org/2000/svg" xmlns:xlink="http://www.w3.org/1999/xlink" x="0px" y="0px"
	 width="14px" height="14px" viewBox="9 9 14 14" enable-background="new 9 9 14 14" xml:space="preserve">
<path fill="#555555" d="M18.704,18.063c0.173,0,0.322,0.062,0.448,0.188l1.8,1.8c0.126,0.126,0.188,0.277,0.188,0.452
	c0,0.173-0.062,0.322-0.188,0.448c-0.127,0.126-0.275,0.188-0.448,0.188c-0.175,0-0.326-0.062-0.452-0.188l-1.8-1.8
	c-0.122-0.123-0.184-0.273-0.184-0.452c0-0.176,0.062-0.326,0.187-0.45C18.38,18.126,18.529,18.063,18.704,18.063L18.704,18.063z
	 M13.301,18.063c0.175,0,0.326,0.062,0.45,0.187c0.124,0.124,0.187,0.274,0.187,0.45s-0.063,0.326-0.189,0.452l-1.8,1.8
	c-0.126,0.126-0.275,0.188-0.448,0.188c-0.176,0-0.326-0.062-0.45-0.187c-0.125-0.124-0.187-0.273-0.187-0.45
	c0-0.179,0.061-0.33,0.184-0.452l1.799-1.8C12.974,18.126,13.125,18.063,13.301,18.063L13.301,18.063z M9.637,15.364h2.545
	c0.176,0,0.326,0.062,0.45,0.187c0.125,0.125,0.187,0.274,0.187,0.45c0,0.176-0.062,0.326-0.187,0.45
	c-0.124,0.125-0.274,0.187-0.45,0.187H9.637c-0.176,0-0.325-0.062-0.45-0.187C9.062,16.327,9,16.176,9,16
	c0-0.175,0.062-0.325,0.187-0.45S9.461,15.364,9.637,15.364z M16,19.182c0.176,0,0.325,0.062,0.45,0.188
	c0.124,0.124,0.187,0.273,0.187,0.449v2.546c0,0.176-0.062,0.325-0.187,0.45C16.325,22.938,16.176,23,16,23s-0.326-0.062-0.45-0.186
	c-0.124-0.125-0.187-0.274-0.187-0.45v-2.546c0-0.176,0.062-0.325,0.187-0.449C15.674,19.244,15.824,19.182,16,19.182z
	 M11.501,10.86c0.172,0,0.322,0.063,0.448,0.189l1.8,1.8c0.126,0.126,0.189,0.275,0.189,0.448c0,0.175-0.062,0.326-0.187,0.45
	c-0.125,0.125-0.275,0.187-0.45,0.187c-0.179,0-0.33-0.061-0.453-0.184l-1.8-1.799c-0.123-0.123-0.184-0.273-0.184-0.453
	c0-0.176,0.062-0.326,0.187-0.45S11.326,10.86,11.501,10.86L11.501,10.86z M19.818,15.364h2.545c0.176,0,0.325,0.062,0.449,0.187
	C22.938,15.675,23,15.825,23,16c0,0.176-0.062,0.326-0.188,0.45c-0.124,0.125-0.273,0.187-0.449,0.187h-2.545
	c-0.176,0-0.326-0.062-0.45-0.187c-0.124-0.124-0.187-0.274-0.187-0.45c0-0.175,0.062-0.325,0.187-0.45S19.643,15.364,19.818,15.364
	z M16,9c0.176,0,0.325,0.062,0.45,0.187c0.124,0.125,0.187,0.274,0.187,0.45v2.545c0,0.176-0.062,0.326-0.187,0.45
	c-0.125,0.125-0.274,0.187-0.45,0.187s-0.326-0.062-0.45-0.187c-0.124-0.125-0.187-0.274-0.187-0.45V9.637
	c0-0.176,0.062-0.326,0.187-0.45C15.674,9.062,15.824,9,16,9z M20.504,10.86c0.173,0,0.321,0.063,0.448,0.189
	c0.126,0.126,0.188,0.275,0.188,0.448c0,0.176-0.062,0.326-0.188,0.452l-1.8,1.8c-0.123,0.123-0.272,0.184-0.448,0.184
	c-0.182,0-0.334-0.06-0.454-0.181c-0.121-0.121-0.182-0.272-0.182-0.455c0-0.176,0.062-0.325,0.184-0.448l1.8-1.8
	C20.178,10.923,20.329,10.86,20.504,10.86z"/>
</svg>
