<?xml version="1.0" encoding="utf-8"?>
<!-- Generator: Adobe Illustrator 15.0.0, SVG Export Plug-In . SVG Version: 6.00 Build 0)  -->
<!DOCTYPE svg PUBLIC "-//W3C//DTD SVG 1.1//EN" "http://www.w3.org/Graphics/SVG/1.1/DTD/svg11.dtd">
<svg version="1.1" id="Layer_1" xmlns="http://www.w3.org/2000/svg" xmlns:xlink="http://www.w3.org/1999/xlink" x="0px" y="0px"
	 width="14px" height="14px" viewBox="0 0 14 14" enable-background="new 0 0 14 14" xml:space="preserve">
<path fill="#555555" d="M9.317,8.768c0.148,0,0.275,0.054,0.385,0.162l1.543,1.542c0.107,0.108,0.161,0.238,0.161,0.388
	c0,0.148-0.054,0.276-0.161,0.385c-0.109,0.107-0.236,0.16-0.385,0.16c-0.149,0-0.279-0.053-0.388-0.16L8.931,9.7
	C8.825,9.595,8.772,9.467,8.772,9.313c0-0.15,0.053-0.279,0.16-0.386C9.04,8.822,9.168,8.768,9.317,8.768L9.317,8.768z M4.687,8.768
	c0.15,0,0.279,0.054,0.386,0.161c0.106,0.106,0.16,0.234,0.16,0.386c0,0.15-0.054,0.278-0.162,0.388l-1.542,1.543
	c-0.108,0.107-0.236,0.161-0.385,0.161c-0.15,0-0.279-0.054-0.386-0.161c-0.107-0.105-0.161-0.234-0.161-0.386
	c0-0.153,0.053-0.282,0.158-0.388L4.298,8.93C4.407,8.822,4.536,8.768,4.687,8.768L4.687,8.768z M1.546,6.455h2.182
	c0.15,0,0.279,0.053,0.386,0.16C4.22,6.722,4.272,6.851,4.272,7.001S4.22,7.28,4.113,7.387C4.007,7.494,3.878,7.548,3.728,7.548
	H1.546c-0.15,0-0.278-0.054-0.385-0.161C1.054,7.28,1,7.15,1,7c0-0.149,0.054-0.278,0.161-0.386
	C1.268,6.507,1.396,6.455,1.546,6.455z M7,9.728c0.15,0,0.278,0.053,0.386,0.161c0.106,0.106,0.16,0.233,0.16,0.384v2.184
	c0,0.15-0.053,0.277-0.16,0.385C7.278,12.946,7.15,13,7,13s-0.279-0.054-0.386-0.159c-0.106-0.107-0.16-0.235-0.16-0.386v-2.183
	c0-0.15,0.053-0.278,0.16-0.385C6.721,9.78,6.85,9.728,7,9.728z M3.144,2.594c0.147,0,0.276,0.055,0.385,0.162L5.07,4.3
	c0.108,0.107,0.162,0.235,0.162,0.383c0,0.151-0.053,0.28-0.16,0.387S4.837,5.229,4.687,5.229c-0.153,0-0.283-0.052-0.389-0.157
	L2.755,3.529C2.649,3.424,2.597,3.295,2.597,3.142c0-0.151,0.054-0.28,0.161-0.387C2.865,2.649,2.994,2.594,3.144,2.594L3.144,2.594
	z M10.272,6.455h2.182c0.15,0,0.278,0.053,0.385,0.16C12.946,6.722,13,6.851,13,7c0,0.15-0.054,0.279-0.161,0.386
	c-0.106,0.107-0.234,0.16-0.385,0.16h-2.182c-0.15,0-0.279-0.053-0.386-0.16C9.78,7.279,9.728,7.15,9.728,7
	c0-0.149,0.053-0.278,0.159-0.386C9.994,6.507,10.122,6.455,10.272,6.455z M7,1c0.15,0,0.278,0.054,0.386,0.161
	c0.106,0.106,0.16,0.234,0.16,0.385v2.182c0,0.15-0.053,0.279-0.16,0.386S7.15,4.272,7,4.272S6.721,4.22,6.614,4.113
	c-0.106-0.107-0.16-0.235-0.16-0.386V1.546c0-0.15,0.053-0.279,0.16-0.385C6.721,1.054,6.85,1,7,1z M10.86,2.594
	c0.148,0,0.275,0.055,0.385,0.162c0.107,0.108,0.161,0.236,0.161,0.385c0,0.15-0.054,0.279-0.161,0.388L9.702,5.07
	C9.597,5.176,9.469,5.229,9.317,5.229c-0.156,0-0.286-0.052-0.389-0.155C8.825,4.97,8.772,4.841,8.772,4.683
	c0-0.15,0.053-0.277,0.158-0.383l1.542-1.544C10.581,2.648,10.711,2.594,10.86,2.594z"/>
</svg>
