<?xml version="1.0" encoding="utf-8"?>
<!-- Generator: Adobe Illustrator 15.0.0, SVG Export Plug-In . SVG Version: 6.00 Build 0)  -->
<!DOCTYPE svg PUBLIC "-//W3C//DTD SVG 1.1//EN" "http://www.w3.org/Graphics/SVG/1.1/DTD/svg11.dtd">
<svg version="1.1" id="Layer_1" xmlns="http://www.w3.org/2000/svg" xmlns:xlink="http://www.w3.org/1999/xlink" x="0px" y="0px"
	 width="14px" height="14px" viewBox="0 0 14 14" enable-background="new 0 0 14 14" xml:space="preserve">
<path fill="#555555" d="M9.321,9.14c0.123,0,0.229,0.045,0.321,0.135l1.285,1.284c0.089,0.091,0.135,0.199,0.135,0.324
	c0,0.123-0.046,0.229-0.135,0.32c-0.09,0.09-0.196,0.135-0.321,0.135c-0.123,0-0.231-0.045-0.322-0.135L8.999,9.918
	C8.912,9.83,8.867,9.723,8.867,9.594c0-0.124,0.045-0.231,0.133-0.32C9.091,9.184,9.197,9.14,9.321,9.14L9.321,9.14z M5.464,9.14
	c0.124,0,0.231,0.045,0.321,0.134c0.089,0.088,0.133,0.195,0.133,0.32c0,0.126-0.044,0.232-0.136,0.324l-1.285,1.285
	c-0.09,0.09-0.196,0.135-0.319,0.135c-0.125,0-0.232-0.045-0.322-0.134s-0.134-0.194-0.134-0.321c0-0.128,0.044-0.236,0.132-0.324
	l1.285-1.284C5.229,9.184,5.337,9.14,5.464,9.14L5.464,9.14z M2.846,7.211h1.818c0.126,0,0.232,0.044,0.321,0.134
	c0.089,0.088,0.133,0.195,0.133,0.32S5.074,7.898,4.985,7.986C4.896,8.076,4.79,8.121,4.664,8.121H2.846
	c-0.126,0-0.232-0.045-0.321-0.135C2.437,7.898,2.391,7.79,2.391,7.665s0.046-0.232,0.134-0.32C2.613,7.255,2.72,7.211,2.846,7.211z
	 M7.391,9.938c0.125,0,0.232,0.044,0.322,0.134c0.088,0.088,0.133,0.194,0.133,0.32v1.819c0,0.124-0.045,0.231-0.133,0.321
	c-0.09,0.088-0.197,0.132-0.322,0.132s-0.232-0.044-0.322-0.133c-0.088-0.089-0.133-0.196-0.133-0.321v-1.819
	c0-0.125,0.045-0.231,0.133-0.321C7.158,9.981,7.266,9.938,7.391,9.938z M4.178,3.993c0.123,0,0.229,0.046,0.319,0.135l1.285,1.285
	c0.092,0.091,0.136,0.197,0.136,0.32c0,0.125-0.044,0.232-0.133,0.322c-0.09,0.088-0.197,0.133-0.321,0.133
	c-0.129,0-0.236-0.044-0.324-0.132L3.854,4.772C3.768,4.685,3.724,4.577,3.724,4.449c0-0.126,0.044-0.233,0.133-0.321
	C3.945,4.039,4.053,3.994,4.178,3.993L4.178,3.993z M10.117,7.211h1.818c0.125,0,0.232,0.044,0.32,0.134
	c0.089,0.089,0.135,0.195,0.135,0.32s-0.046,0.233-0.135,0.321c-0.087,0.09-0.194,0.135-0.32,0.135h-1.818
	c-0.125,0-0.232-0.045-0.321-0.135C9.707,7.898,9.664,7.79,9.664,7.665s0.044-0.232,0.132-0.32
	C9.885,7.255,9.992,7.211,10.117,7.211z M7.391,2.665c0.125,0,0.232,0.044,0.322,0.134C7.801,2.888,7.846,2.994,7.846,3.12v1.817
	c0,0.126-0.045,0.232-0.133,0.322c-0.09,0.089-0.197,0.133-0.322,0.133S7.158,5.349,7.068,5.26C6.98,5.171,6.936,5.063,6.936,4.938
	V3.12c0-0.126,0.045-0.232,0.133-0.321C7.158,2.711,7.266,2.665,7.391,2.665z M10.606,3.993c0.124,0,0.229,0.046,0.321,0.135
	c0.089,0.091,0.135,0.197,0.135,0.321s-0.046,0.231-0.135,0.322L9.643,6.057C9.556,6.144,9.448,6.188,9.321,6.188
	c-0.129,0-0.238-0.043-0.324-0.129c-0.086-0.087-0.13-0.194-0.13-0.325c0-0.125,0.045-0.233,0.132-0.32l1.285-1.285
	C10.375,4.039,10.483,3.993,10.606,3.993z"/>
</svg>
