<?xml version="1.0" encoding="utf-8"?>
<!-- Generator: Adobe Illustrator 15.0.0, SVG Export Plug-In . SVG Version: 6.00 Build 0)  -->
<!DOCTYPE svg PUBLIC "-//W3C//DTD SVG 1.1//EN" "http://www.w3.org/Graphics/SVG/1.1/DTD/svg11.dtd">
<svg version="1.1" id="Layer_1" xmlns="http://www.w3.org/2000/svg" xmlns:xlink="http://www.w3.org/1999/xlink" x="0px" y="0px"
	 width="14px" height="14px" viewBox="9 9 14 14" enable-background="new 9 9 14 14" xml:space="preserve">
<path fill="#555555" d="M18.317,17.769c0.148,0,0.276,0.054,0.385,0.162l1.543,1.542c0.107,0.108,0.161,0.238,0.161,0.388
	c0,0.148-0.054,0.276-0.161,0.385c-0.109,0.107-0.236,0.161-0.385,0.161c-0.149,0-0.279-0.054-0.388-0.161l-1.542-1.543
	c-0.105-0.105-0.158-0.234-0.158-0.388c0-0.15,0.054-0.279,0.16-0.386C18.04,17.822,18.168,17.769,18.317,17.769L18.317,17.769z
	 M13.687,17.769c0.15,0,0.279,0.054,0.386,0.16c0.106,0.106,0.16,0.235,0.16,0.386s-0.054,0.279-0.162,0.388l-1.543,1.543
	c-0.108,0.107-0.236,0.161-0.384,0.161c-0.15,0-0.279-0.053-0.386-0.16c-0.107-0.106-0.16-0.234-0.16-0.386
	c0-0.153,0.052-0.283,0.158-0.388l1.542-1.542C13.406,17.822,13.535,17.769,13.687,17.769L13.687,17.769z M10.546,15.455h2.182
	c0.151,0,0.279,0.053,0.385,0.16c0.107,0.106,0.161,0.235,0.161,0.385c0,0.151-0.054,0.28-0.161,0.386
	c-0.106,0.107-0.234,0.161-0.385,0.161h-2.182c-0.151,0-0.279-0.054-0.386-0.161C10.054,16.28,10,16.151,10,16
	c0-0.15,0.054-0.279,0.16-0.385C10.267,15.508,10.395,15.455,10.546,15.455z M16,18.728c0.151,0,0.279,0.053,0.386,0.16
	c0.106,0.106,0.16,0.234,0.16,0.385v2.183c0,0.15-0.054,0.278-0.16,0.386C16.279,21.947,16.151,22,16,22s-0.279-0.053-0.386-0.159
	c-0.106-0.107-0.16-0.235-0.16-0.386v-2.183c0-0.15,0.054-0.278,0.16-0.385C15.721,18.78,15.849,18.728,16,18.728z M12.144,11.594
	c0.148,0,0.276,0.054,0.384,0.162l1.543,1.542c0.108,0.108,0.162,0.236,0.162,0.384c0,0.15-0.053,0.279-0.16,0.386
	c-0.107,0.106-0.236,0.16-0.386,0.16c-0.154,0-0.283-0.052-0.388-0.157l-1.542-1.542c-0.105-0.105-0.158-0.234-0.158-0.388
	c0-0.151,0.053-0.279,0.16-0.386C11.865,11.648,11.994,11.595,12.144,11.594L12.144,11.594z M19.272,15.455h2.182
	c0.15,0,0.279,0.053,0.385,0.16C21.946,15.722,22,15.85,22,16c0,0.151-0.054,0.28-0.161,0.386c-0.105,0.107-0.234,0.161-0.385,0.161
	h-2.182c-0.15,0-0.279-0.054-0.386-0.161C18.78,16.28,18.728,16.151,18.728,16c0-0.15,0.053-0.279,0.159-0.385
	C18.993,15.508,19.122,15.455,19.272,15.455z M16,10c0.151,0,0.279,0.053,0.386,0.16c0.106,0.107,0.16,0.235,0.16,0.386v2.181
	c0,0.151-0.054,0.279-0.16,0.386c-0.107,0.107-0.235,0.16-0.386,0.16s-0.279-0.053-0.386-0.16c-0.106-0.106-0.16-0.235-0.16-0.386
	v-2.181c0-0.151,0.054-0.279,0.16-0.386C15.721,10.054,15.849,10,16,10z M19.86,11.594c0.148,0,0.275,0.054,0.385,0.162
	c0.107,0.108,0.161,0.236,0.161,0.384c0,0.15-0.054,0.279-0.161,0.387l-1.543,1.543c-0.105,0.105-0.233,0.157-0.385,0.157
	c-0.155,0-0.286-0.051-0.389-0.155c-0.104-0.104-0.156-0.233-0.156-0.39c0-0.15,0.053-0.279,0.158-0.384l1.542-1.542
	C19.581,11.648,19.711,11.594,19.86,11.594z"/>
</svg>
