<?xml version="1.0" encoding="utf-8"?>
<!-- Generator: Adobe Illustrator 15.0.0, SVG Export Plug-In . SVG Version: 6.00 Build 0)  -->
<!DOCTYPE svg PUBLIC "-//W3C//DTD SVG 1.1//EN" "http://www.w3.org/Graphics/SVG/1.1/DTD/svg11.dtd">
<svg version="1.1" id="Layer_1" xmlns="http://www.w3.org/2000/svg" xmlns:xlink="http://www.w3.org/1999/xlink" x="0px" y="0px"
	 width="12px" height="12px" viewBox="5 6 12 12" enable-background="new 5 6 12 12" xml:space="preserve">
<path fill="#555555" d="M11,7c0.495,0,0.951,0.122,1.369,0.364c0.418,0.244,0.748,0.575,0.992,0.993
	c0.243,0.418,0.365,0.874,0.365,1.369v1.818h0.909c0.377,0,0.698,0.134,0.965,0.399C15.868,12.211,16,12.532,16,12.909v2.727
	c0,0.376-0.132,0.698-0.398,0.964c-0.268,0.267-0.588,0.4-0.965,0.4H7.364c-0.377,0-0.698-0.134-0.965-0.398
	C6.133,16.334,6,16.012,6,15.637V12.91c0-0.376,0.134-0.698,0.399-0.964c0.267-0.267,0.588-0.399,0.965-0.399h0.909V9.728
	c0-0.494,0.121-0.951,0.365-1.368C8.882,7.941,9.212,7.61,9.63,7.366C10.049,7.122,10.506,7,11,7L11,7z M14.636,12.454H7.364
	c-0.126,0-0.233,0.046-0.322,0.134c-0.088,0.088-0.134,0.195-0.134,0.321v2.727c0,0.126,0.045,0.233,0.134,0.321
	c0.089,0.089,0.196,0.134,0.322,0.134h7.272c0.125,0,0.232-0.045,0.321-0.134c0.089-0.088,0.134-0.195,0.134-0.321v-2.727
	c0-0.125-0.045-0.232-0.134-0.321C14.87,12.498,14.762,12.454,14.636,12.454z M11,7.908c-0.502,0-0.931,0.178-1.286,0.534
	C9.359,8.798,9.181,9.225,9.181,9.727v1.818h3.637V9.727c0-0.502-0.178-0.93-0.534-1.284C11.93,8.087,11.501,7.908,11,7.908
	L11,7.908z"/>
</svg>
