<?xml version="1.0" encoding="utf-8"?>
<!-- Generator: Adobe Illustrator 18.1.1, SVG Export Plug-In . SVG Version: 6.00 Build 0)  -->
<svg version="1.1" id="Layer_1" xmlns="http://www.w3.org/2000/svg" xmlns:xlink="http://www.w3.org/1999/xlink" x="0px" y="0px"
	 width="14px" height="14px" viewBox="-290 401.4 14 14" style="enable-background:new -290 401.4 14 14;" xml:space="preserve">
<path style="fill:#555555;" d="M-287.4,403.5h8.7c0.5,0,0.8,0.2,1.2,0.5c0.3,0.3,0.5,0.7,0.5,1.2v6.5c0,0.5-0.2,0.8-0.5,1.2
	c-0.3,0.3-0.7,0.5-1.2,0.5h-8.7c-0.5,0-0.8-0.2-1.2-0.5c-0.3-0.3-0.5-0.7-0.5-1.2v-6.5c0-0.5,0.2-0.8,0.5-1.2
	S-287.8,403.5-287.4,403.5z M-278.1,411.7v-6l-4.6,3.7c-0.1,0.1-0.2,0.1-0.3,0.1s-0.2,0-0.3-0.1l-4.6-3.7v6c0,0.2,0.1,0.3,0.2,0.4
	c0.1,0.1,0.2,0.2,0.4,0.2h8.7c0.1,0,0.3-0.1,0.4-0.2C-278.1,411.9-278.1,411.8-278.1,411.7L-278.1,411.7z M-278.6,404.6h-8.7
	c-0.1,0-0.1,0-0.2,0l4.5,3.6l4.5-3.6C-278.5,404.6-278.6,404.6-278.6,404.6L-278.6,404.6z"/>
</svg>
