<?xml version="1.0" encoding="utf-8"?>
<!-- Generator: Adobe Illustrator 15.0.0, SVG Export Plug-In . SVG Version: 6.00 Build 0)  -->
<!DOCTYPE svg PUBLIC "-//W3C//DTD SVG 1.1//EN" "http://www.w3.org/Graphics/SVG/1.1/DTD/svg11.dtd">
<svg version="1.1" id="Layer_1" xmlns="http://www.w3.org/2000/svg" xmlns:xlink="http://www.w3.org/1999/xlink" x="0px" y="0px"
	 width="14px" height="13.999px" viewBox="9 9 14 13.999" enable-background="new 9 9 14 13.999" xml:space="preserve">
<path fill="#555555" d="M17.272,16.631c0.176,0,0.327,0.063,0.452,0.189l4.002,4.001v-2.918c0-0.176,0.062-0.325,0.187-0.45
	c0.125-0.124,0.274-0.187,0.45-0.187s0.325,0.062,0.45,0.187C22.938,17.578,23,17.728,23,17.903v4.454
	c0,0.175-0.063,0.326-0.189,0.452s-0.277,0.189-0.452,0.189h-4.454c-0.176,0-0.325-0.062-0.45-0.187
	c-0.124-0.125-0.187-0.274-0.187-0.45s0.062-0.326,0.187-0.45c0.125-0.124,0.274-0.187,0.45-0.187h2.918l-4.001-4.002
	c-0.122-0.129-0.184-0.279-0.184-0.452c0-0.176,0.062-0.326,0.186-0.452C16.948,16.693,17.099,16.63,17.272,16.631L17.272,16.631z
	 M9.637,9h4.454c0.176,0,0.326,0.062,0.45,0.187c0.124,0.125,0.187,0.274,0.187,0.45c0,0.175-0.062,0.325-0.187,0.45
	c-0.125,0.125-0.274,0.187-0.45,0.187h-2.918l4.001,3.997c0.126,0.126,0.189,0.277,0.189,0.452c0,0.176-0.063,0.326-0.189,0.45
	s-0.277,0.187-0.453,0.187c-0.169,0-0.32-0.061-0.452-0.184l-3.997-4.001v2.918c0,0.176-0.062,0.326-0.187,0.45
	c-0.125,0.125-0.274,0.187-0.45,0.187s-0.326-0.062-0.45-0.187C9.062,14.418,9,14.268,9,14.092V9.639
	c0-0.176,0.062-0.326,0.187-0.45s0.274-0.187,0.45-0.187L9.637,9z"/>
</svg>
