<?xml version="1.0" encoding="utf-8"?>
<!-- Generator: Adobe Illustrator 16.0.3, SVG Export Plug-In . SVG Version: 6.00 Build 0)  -->
<!DOCTYPE svg PUBLIC "-//W3C//DTD SVG 1.1//EN" "http://www.w3.org/Graphics/SVG/1.1/DTD/svg11.dtd">
<svg version="1.1" id="Layer_1" xmlns="http://www.w3.org/2000/svg" xmlns:xlink="http://www.w3.org/1999/xlink" x="0px" y="0px"
	 width="10px" height="10px" viewBox="0 0 10 10" enable-background="new 0 0 10 10" xml:space="preserve">
<path fill="#555555" d="M5.727,5.361c0.101,0,0.187,0.035,0.259,0.108l2.286,2.285V6.086c0-0.099,0.035-0.185,0.105-0.256
	c0.072-0.07,0.158-0.106,0.258-0.106c0.101,0,0.186,0.036,0.257,0.106c0.07,0.072,0.106,0.158,0.106,0.256v2.544
	c0,0.101-0.036,0.187-0.107,0.259C8.818,8.962,8.732,8.997,8.633,8.997H6.087c-0.1,0-0.184-0.035-0.256-0.107
	C5.76,8.819,5.725,8.735,5.725,8.634c0-0.101,0.036-0.187,0.106-0.257C5.902,8.306,5.987,8.27,6.087,8.27h1.667L5.47,5.984
	C5.401,5.911,5.365,5.825,5.365,5.725S5.401,5.54,5.471,5.467C5.542,5.396,5.627,5.361,5.727,5.361L5.727,5.361z M1.366,1.003H3.91
	c0.1,0,0.186,0.037,0.257,0.107c0.071,0.071,0.107,0.156,0.107,0.257c0,0.099-0.037,0.186-0.107,0.258
	C4.096,1.695,4.011,1.73,3.91,1.73H2.242l2.286,2.284c0.071,0.071,0.108,0.157,0.108,0.258c0,0.101-0.037,0.186-0.108,0.257
	C4.456,4.6,4.37,4.636,4.269,4.636c-0.096,0-0.182-0.036-0.258-0.105L1.728,2.247v1.667c0,0.1-0.035,0.186-0.106,0.256
	C1.551,4.241,1.464,4.277,1.364,4.277S1.178,4.241,1.107,4.169C1.037,4.098,1.002,4.012,1.002,3.911V1.368
	c0-0.101,0.037-0.186,0.107-0.257c0.071-0.07,0.155-0.106,0.256-0.106V1.003z"/>
</svg>
