<?xml version="1.0" encoding="utf-8"?>
<!-- Generator: Adobe Illustrator 15.0.0, SVG Export Plug-In . SVG Version: 6.00 Build 0)  -->
<!DOCTYPE svg PUBLIC "-//W3C//DTD SVG 1.1//EN" "http://www.w3.org/Graphics/SVG/1.1/DTD/svg11.dtd">
<svg version="1.1" id="Layer_1" xmlns="http://www.w3.org/2000/svg" xmlns:xlink="http://www.w3.org/1999/xlink" x="0px" y="0px"
	 width="14px" height="14px" viewBox="9 8.999 14 14" enable-background="new 9 8.999 14 14" xml:space="preserve">
<path fill="#555555" d="M17.09,16.541c0.151,0,0.281,0.054,0.389,0.162l3.43,3.43V17.63c0-0.15,0.053-0.278,0.16-0.386
	c0.107-0.105,0.235-0.159,0.386-0.159s0.278,0.053,0.385,0.159C21.946,17.352,22,17.481,22,17.63v3.818
	c0,0.15-0.054,0.279-0.162,0.388c-0.107,0.107-0.237,0.161-0.387,0.161h-3.819c-0.15,0-0.277-0.053-0.385-0.16
	c-0.106-0.106-0.16-0.234-0.16-0.386c0-0.15,0.053-0.279,0.16-0.385c0.107-0.107,0.234-0.161,0.385-0.161h2.502l-3.429-3.43
	c-0.104-0.11-0.157-0.239-0.157-0.388c0-0.151,0.053-0.279,0.158-0.388C16.812,16.593,16.942,16.541,17.09,16.541L17.09,16.541z
	 M10.546,10h3.817c0.151,0,0.28,0.054,0.386,0.16c0.106,0.107,0.161,0.234,0.161,0.387c0,0.149-0.054,0.278-0.161,0.386
	c-0.106,0.106-0.234,0.159-0.386,0.159h-2.501l3.43,3.427c0.107,0.107,0.162,0.237,0.162,0.388s-0.055,0.278-0.162,0.386
	c-0.108,0.105-0.238,0.159-0.389,0.159c-0.145,0-0.274-0.053-0.387-0.158l-3.427-3.428v2.501c0,0.15-0.053,0.279-0.16,0.385
	c-0.106,0.107-0.235,0.161-0.386,0.161s-0.279-0.054-0.385-0.161S10,14.515,10,14.364v-3.816c0-0.151,0.054-0.279,0.161-0.386
	c0.106-0.106,0.234-0.16,0.385-0.16V10z"/>
</svg>
