<?xml version="1.0" encoding="utf-8"?>
<!-- Generator: Adobe Illustrator 16.0.3, SVG Export Plug-In . SVG Version: 6.00 Build 0)  -->
<!DOCTYPE svg PUBLIC "-//W3C//DTD SVG 1.1//EN" "http://www.w3.org/Graphics/SVG/1.1/DTD/svg11.dtd">
<svg version="1.1" id="Layer_1" xmlns="http://www.w3.org/2000/svg" xmlns:xlink="http://www.w3.org/1999/xlink" x="0px" y="0px"
	 width="14px" height="14px" viewBox="0 0 14 14" enable-background="new 0 0 14 14" xml:space="preserve">
<path fill="#555555" d="M8.09,7.543c0.151,0,0.281,0.053,0.389,0.162l3.431,3.43V8.631c0-0.148,0.053-0.277,0.159-0.385
	c0.107-0.105,0.236-0.16,0.387-0.16s0.277,0.055,0.385,0.16C12.945,8.354,13,8.482,13,8.631v3.818c0,0.15-0.055,0.279-0.162,0.389
	c-0.107,0.107-0.236,0.16-0.387,0.16H8.632c-0.149,0-0.276-0.053-0.385-0.16c-0.106-0.105-0.16-0.232-0.16-0.385
	c0-0.15,0.054-0.279,0.16-0.385c0.106-0.107,0.233-0.162,0.385-0.162h2.502l-3.429-3.43C7.602,8.367,7.548,8.238,7.548,8.088
	s0.054-0.277,0.158-0.387C7.813,7.594,7.941,7.543,8.09,7.543L8.09,7.543z M1.546,1.002h3.817c0.15,0,0.279,0.055,0.386,0.16
	C5.855,1.27,5.91,1.396,5.91,1.549c0,0.148-0.055,0.278-0.161,0.387C5.643,2.041,5.516,2.094,5.363,2.094H2.861l3.431,3.428
	c0.106,0.106,0.162,0.236,0.162,0.388S6.398,6.188,6.292,6.295C6.184,6.4,6.055,6.454,5.902,6.454c-0.145,0-0.273-0.054-0.387-0.158
	L2.089,2.868v2.501c0,0.15-0.053,0.279-0.159,0.385C1.823,5.861,1.693,5.915,1.543,5.915S1.264,5.861,1.158,5.754
	C1.052,5.646,1,5.518,1,5.366V1.55c0-0.151,0.055-0.278,0.161-0.386c0.106-0.105,0.233-0.16,0.385-0.16V1.002z"/>
</svg>
