<?xml version="1.0" encoding="utf-8"?>
<!-- Generator: Adobe Illustrator 15.0.0, SVG Export Plug-In . SVG Version: 6.00 Build 0)  -->
<!DOCTYPE svg PUBLIC "-//W3C//DTD SVG 1.1//EN" "http://www.w3.org/Graphics/SVG/1.1/DTD/svg11.dtd">
<svg version="1.1" id="Layer_1" xmlns="http://www.w3.org/2000/svg" xmlns:xlink="http://www.w3.org/1999/xlink" x="0px" y="0px"
	 width="18px" height="18px" viewBox="7 7.001 18 18" enable-background="new 7 7.001 18 18" xml:space="preserve">
<path fill="#555555" d="M7.9,9.701H24.1c0.248,0,0.46,0.088,0.637,0.264C24.912,10.141,25,10.353,25,10.601
	s-0.088,0.461-0.264,0.637c-0.177,0.176-0.389,0.264-0.637,0.264H7.9c-0.249,0-0.46-0.088-0.636-0.264
	C7.088,11.062,7,10.85,7,10.601s0.088-0.46,0.264-0.636C7.44,9.789,7.652,9.701,7.9,9.701z M7.9,20.5H24.1
	c0.248,0,0.46,0.088,0.637,0.265C24.912,20.94,25,21.152,25,21.4c0,0.249-0.088,0.461-0.264,0.637
	c-0.177,0.177-0.389,0.264-0.637,0.264H7.9c-0.249,0-0.46-0.087-0.636-0.264C7.088,21.861,7,21.649,7,21.4
	c0-0.248,0.088-0.46,0.264-0.636C7.44,20.588,7.652,20.5,7.9,20.5z M7.9,15.101H24.1c0.248,0,0.46,0.088,0.637,0.264
	C24.912,15.541,25,15.752,25,16.001s-0.088,0.461-0.264,0.636c-0.177,0.177-0.389,0.265-0.637,0.265H7.9
	c-0.249,0-0.46-0.088-0.636-0.265C7.088,16.462,7,16.25,7,16.001s0.088-0.46,0.264-0.636C7.44,15.188,7.652,15.101,7.9,15.101z"/>
</svg>
