<?xml version="1.0" encoding="utf-8"?>
<!-- Generator: Adobe Illustrator 15.0.0, SVG Export Plug-In . SVG Version: 6.00 Build 0)  -->
<!DOCTYPE svg PUBLIC "-//W3C//DTD SVG 1.1//EN" "http://www.w3.org/Graphics/SVG/1.1/DTD/svg11.dtd">
<svg version="1.1" id="Layer_1" xmlns="http://www.w3.org/2000/svg" xmlns:xlink="http://www.w3.org/1999/xlink" x="0px" y="0px"
	 width="18px" height="18px" viewBox="7 7.001 18 18" enable-background="new 7 7.001 18 18" xml:space="preserve">
<path fill="#555555" d="M8.8,10.401h14.399c0.221,0,0.41,0.078,0.566,0.234S24,10.981,24,11.201c0,0.221-0.078,0.41-0.234,0.566
	c-0.158,0.156-0.346,0.234-0.566,0.234H8.8c-0.221,0-0.409-0.078-0.565-0.234C8.078,11.611,8,11.422,8,11.201
	c0-0.222,0.078-0.409,0.235-0.565C8.391,10.479,8.58,10.401,8.8,10.401z M8.8,20h14.399c0.221,0,0.41,0.078,0.566,0.236
	C23.922,20.391,24,20.58,24,20.801c0,0.22-0.078,0.409-0.234,0.565c-0.158,0.157-0.346,0.234-0.566,0.234H8.8
	c-0.221,0-0.409-0.077-0.565-0.234C8.078,21.21,8,21.021,8,20.801c0-0.221,0.078-0.41,0.235-0.566C8.391,20.078,8.58,20,8.8,20z
	 M8.8,15.201h14.399c0.221,0,0.41,0.078,0.566,0.234S24,15.779,24,16.001s-0.078,0.41-0.234,0.565
	c-0.158,0.157-0.346,0.235-0.566,0.235H8.8c-0.221,0-0.409-0.078-0.565-0.235C8.078,16.411,8,16.223,8,16.001
	s0.078-0.409,0.235-0.565C8.391,15.278,8.58,15.201,8.8,15.201z"/>
</svg>
