<?xml version="1.0" encoding="utf-8"?>
<!-- Generator: Adobe Illustrator 16.0.3, SVG Export Plug-In . SVG Version: 6.00 Build 0)  -->
<!DOCTYPE svg PUBLIC "-//W3C//DTD SVG 1.1//EN" "http://www.w3.org/Graphics/SVG/1.1/DTD/svg11.dtd">
<svg version="1.1" id="Layer_1" xmlns="http://www.w3.org/2000/svg" xmlns:xlink="http://www.w3.org/1999/xlink" x="0px" y="0px"
	 width="60px" height="60px" viewBox="-23 -23 60 60" enable-background="new -23 -23 60 60" xml:space="preserve">
<path d="M23.392-0.029c0.649,0,1.198,0.229,1.655,0.69c0.462,0.457,0.686,1.006,0.686,1.656V7c0,2.337-0.42,4.592-1.271,6.75
	c-0.851,2.168-2.004,4.062-3.453,5.694c-1.459,1.628-3.197,2.986-5.219,4.075c-2.021,1.093-4.171,1.783-6.448,2.058v4.83h7.024
	c0.649,0,1.198,0.229,1.655,0.686c0.467,0.458,0.691,1.007,0.691,1.656s-0.229,1.198-0.691,1.655
	c-0.457,0.467-1.006,0.695-1.655,0.695H-2.367c-0.649,0-1.198-0.229-1.656-0.686c-0.462-0.463-0.686-1.007-0.686-1.66
	c0-0.646,0.229-1.199,0.686-1.661c0.453-0.457,1.006-0.681,1.656-0.681h7.025v-4.83c-2.277-0.279-4.427-0.965-6.448-2.054
	c-2.021-1.093-3.76-2.451-5.214-4.079c-1.455-1.628-2.607-3.526-3.458-5.689c-0.846-2.168-1.271-4.423-1.271-6.76V2.317
	c0-0.65,0.229-1.199,0.687-1.656c0.462-0.467,1.006-0.69,1.655-0.69s1.194,0.229,1.656,0.69C-7.274,1.118-7.05,1.667-7.05,2.317V7
	c0,2.547,0.626,4.898,1.884,7.053c1.253,2.149,2.959,3.851,5.109,5.113c2.154,1.253,4.505,1.879,7.052,1.879
	c2.552,0,4.903-0.626,7.058-1.879c2.149-1.263,3.851-2.964,5.113-5.113C20.423,11.898,21.05,9.547,21.05,7V2.317
	c0-0.65,0.233-1.199,0.687-1.656C22.197,0.199,22.742-0.029,23.392-0.029L23.392-0.029z M7-21.1c2.589,0,4.793,0.915,6.627,2.744
	c1.834,1.829,2.744,4.038,2.744,6.623V7c0,2.579-0.91,4.784-2.744,6.618S9.589,16.362,7,16.362c-2.584,0-4.784-0.91-6.618-2.744
	S-2.367,9.579-2.367,7v-18.733c0-2.584,0.915-4.793,2.749-6.623C2.216-20.185,4.416-21.1,7-21.1z M7-16.417
	c-1.29,0-2.396,0.458-3.307,1.372s-1.372,2.021-1.372,3.307V6.995c0,1.295,0.462,2.396,1.372,3.312
	c0.91,0.91,2.017,1.372,3.307,1.372c1.289,0,2.405-0.462,3.311-1.372c0.915-0.915,1.373-2.017,1.373-3.312v-18.733
	c0-1.285-0.458-2.392-1.373-3.307C9.405-15.959,8.289-16.417,7-16.417z"/>
</svg>
