<?xml version="1.0" encoding="utf-8"?>
<!-- Generator: Adobe Illustrator 16.0.3, SVG Export Plug-In . SVG Version: 6.00 Build 0)  -->
<!DOCTYPE svg PUBLIC "-//W3C//DTD SVG 1.1//EN" "http://www.w3.org/Graphics/SVG/1.1/DTD/svg11.dtd">
<svg version="1.1" id="Layer_1" xmlns="http://www.w3.org/2000/svg" xmlns:xlink="http://www.w3.org/1999/xlink" x="0px" y="0px"
	 width="10px" height="10px" viewBox="0 0 10 10" enable-background="new 0 0 10 10" xml:space="preserve">
<path fill="#555555" d="M1.363,1C1.465,1,1.55,1.034,1.621,1.104L3.897,3.38V1.721c0-0.101,0.035-0.185,0.104-0.257
	c0.071-0.07,0.156-0.106,0.257-0.106c0.099,0,0.185,0.035,0.256,0.106c0.071,0.071,0.106,0.156,0.106,0.257v2.531
	c0,0.1-0.037,0.187-0.108,0.258C4.441,4.581,4.356,4.618,4.256,4.618H1.724c-0.1,0-0.186-0.036-0.256-0.107
	c-0.071-0.07-0.106-0.156-0.106-0.255c0-0.101,0.036-0.185,0.106-0.256c0.07-0.071,0.156-0.106,0.256-0.106h1.659L1.107,1.618
	C1.038,1.549,1.002,1.463,1.002,1.361c0-0.103,0.034-0.19,0.103-0.258C1.174,1.034,1.261,1,1.363,1L1.363,1z M5.708,5.342h2.531
	c0.1,0,0.185,0.036,0.256,0.106c0.071,0.071,0.106,0.157,0.106,0.256c0,0.1-0.035,0.186-0.106,0.255
	c-0.069,0.07-0.155,0.106-0.256,0.106H6.58l2.273,2.275C8.924,8.412,8.96,8.498,8.96,8.599c0,0.1-0.036,0.186-0.107,0.257
	C8.783,8.924,8.698,8.96,8.599,8.96c-0.103,0-0.187-0.036-0.257-0.106L6.065,6.58v1.658c0,0.1-0.035,0.186-0.105,0.256
	C5.889,8.565,5.805,8.602,5.704,8.602c-0.1,0-0.186-0.036-0.257-0.107C5.377,8.425,5.341,8.34,5.341,8.238V5.706
	c0-0.097,0.037-0.184,0.108-0.256C5.52,5.379,5.605,5.343,5.708,5.342L5.708,5.342z"/>
</svg>
