<?xml version="1.0" encoding="utf-8"?>
<!-- Generator: Adobe Illustrator 15.0.0, SVG Export Plug-In . SVG Version: 6.00 Build 0)  -->
<!DOCTYPE svg PUBLIC "-//W3C//DTD SVG 1.1//EN" "http://www.w3.org/Graphics/SVG/1.1/DTD/svg11.dtd">
<svg version="1.1" id="Layer_1" xmlns="http://www.w3.org/2000/svg" xmlns:xlink="http://www.w3.org/1999/xlink" x="0px" y="0px"
	 width="13.997px" height="14px" viewBox="9.002 9 13.997 14" enable-background="new 9.002 9 13.997 14" xml:space="preserve">
<path fill="#555555" d="M9.638,9c0.179,0,0.33,0.061,0.453,0.184l4.001,4.001v-2.918c0-0.176,0.062-0.326,0.187-0.45
	s0.274-0.187,0.45-0.187c0.176,0,0.326,0.062,0.45,0.187s0.187,0.274,0.187,0.45v4.454c0,0.176-0.063,0.327-0.189,0.453
	s-0.277,0.189-0.452,0.189H10.27c-0.175,0-0.326-0.062-0.45-0.187c-0.124-0.125-0.186-0.274-0.186-0.45s0.062-0.326,0.186-0.45
	c0.125-0.125,0.275-0.187,0.45-0.187h2.918l-4.001-4.001C9.064,9.966,9.002,9.814,9.002,9.636c0-0.182,0.061-0.334,0.182-0.455
	C9.305,9.06,9.457,9,9.638,9L9.638,9z M17.278,16.636h4.453c0.176,0,0.326,0.062,0.45,0.187c0.125,0.124,0.187,0.274,0.187,0.45
	s-0.062,0.326-0.187,0.45c-0.124,0.124-0.274,0.187-0.45,0.187h-2.918l3.997,4.001c0.126,0.127,0.188,0.277,0.188,0.453
	s-0.062,0.325-0.187,0.45C22.688,22.938,22.538,23,22.362,23c-0.179,0-0.329-0.062-0.452-0.185l-4.001-4.001v2.918
	c0,0.176-0.062,0.326-0.188,0.45c-0.124,0.124-0.273,0.187-0.449,0.187s-0.326-0.062-0.45-0.187
	c-0.125-0.124-0.187-0.274-0.187-0.45v-4.454c0-0.175,0.062-0.326,0.188-0.452c0.127-0.126,0.277-0.188,0.453-0.188L17.278,16.636z"
	/>
</svg>
