<?xml version="1.0" encoding="utf-8"?>
<!-- Generator: Adobe Illustrator 15.0.0, SVG Export Plug-In . SVG Version: 6.00 Build 0)  -->
<!DOCTYPE svg PUBLIC "-//W3C//DTD SVG 1.1//EN" "http://www.w3.org/Graphics/SVG/1.1/DTD/svg11.dtd">
<svg version="1.1" id="Layer_1" xmlns="http://www.w3.org/2000/svg" xmlns:xlink="http://www.w3.org/1999/xlink" x="0px" y="0px"
	 width="14px" height="14px" viewBox="9 9 14 14" enable-background="new 9 9 14 14" xml:space="preserve">
<path fill="#555555" d="M10.547,10c0.153,0,0.282,0.052,0.388,0.157l3.431,3.431v-2.501c0-0.151,0.053-0.279,0.158-0.387
	c0.107-0.105,0.235-0.16,0.387-0.16c0.15,0,0.279,0.053,0.386,0.16s0.16,0.235,0.16,0.387v3.816c0,0.15-0.054,0.28-0.163,0.389
	c-0.106,0.107-0.236,0.162-0.387,0.162h-3.817c-0.15,0-0.279-0.054-0.386-0.161c-0.106-0.106-0.16-0.234-0.16-0.385
	c0-0.151,0.054-0.279,0.16-0.387c0.106-0.106,0.235-0.159,0.386-0.159h2.501l-3.43-3.43c-0.105-0.104-0.158-0.234-0.158-0.388
	c0-0.155,0.052-0.286,0.155-0.389C10.262,10.052,10.393,10,10.547,10L10.547,10z M17.095,16.545h3.816
	c0.15,0,0.279,0.054,0.386,0.161c0.107,0.106,0.16,0.235,0.16,0.386s-0.053,0.279-0.16,0.385c-0.106,0.106-0.235,0.16-0.386,0.16
	h-2.501l3.427,3.43c0.107,0.108,0.161,0.236,0.161,0.389c0,0.15-0.054,0.278-0.161,0.386C21.732,21.946,21.603,22,21.453,22
	c-0.153,0-0.281-0.054-0.387-0.159l-3.431-3.429v2.501c0,0.15-0.053,0.279-0.159,0.385c-0.106,0.107-0.234,0.161-0.386,0.161
	c-0.15,0-0.279-0.054-0.386-0.161c-0.107-0.105-0.16-0.234-0.16-0.385v-3.818c0-0.148,0.053-0.278,0.161-0.387
	c0.108-0.107,0.237-0.16,0.389-0.16L17.095,16.545z"/>
</svg>
