<?xml version="1.0" encoding="utf-8"?>
<!-- Generator: Adobe Illustrator 15.0.0, SVG Export Plug-In . SVG Version: 6.00 Build 0)  -->
<!DOCTYPE svg PUBLIC "-//W3C//DTD SVG 1.1//EN" "http://www.w3.org/Graphics/SVG/1.1/DTD/svg11.dtd">
<svg version="1.1" id="Layer_1" xmlns="http://www.w3.org/2000/svg" xmlns:xlink="http://www.w3.org/1999/xlink" x="0px" y="0px"
	 width="14px" height="14px" viewBox="9.001 9 14 14" enable-background="new 9.001 9 14 14" xml:space="preserve">
<path fill="#555555" d="M11.637,10h3.817c0.151,0,0.279,0.054,0.386,0.161c0.107,0.106,0.161,0.234,0.161,0.385
	s-0.054,0.278-0.161,0.386c-0.106,0.107-0.234,0.16-0.386,0.16h-3.817c-0.15,0-0.279,0.054-0.385,0.16
	c-0.107,0.107-0.161,0.234-0.161,0.387v8.726c0,0.151,0.054,0.28,0.161,0.386c0.106,0.106,0.234,0.16,0.385,0.16h8.727
	c0.151,0,0.278-0.053,0.386-0.16c0.106-0.105,0.16-0.234,0.16-0.386v-3.816c0-0.151,0.054-0.28,0.161-0.387
	C21.176,16.054,21.304,16,21.455,16c0.151,0,0.279,0.054,0.386,0.161c0.106,0.106,0.161,0.234,0.161,0.385v3.817
	c0,0.452-0.161,0.838-0.48,1.158C21.202,21.841,20.816,22,20.364,22h-8.725c-0.452,0-0.838-0.159-1.158-0.479
	c-0.319-0.32-0.479-0.705-0.479-1.158v-8.726c0-0.452,0.159-0.837,0.479-1.157C10.801,10.161,11.187,10.002,11.637,10L11.637,10z
	 M18.183,10h3.271c0.151,0,0.28,0.054,0.387,0.161C21.947,10.268,22,10.396,22,10.546v3.272c0,0.151-0.053,0.279-0.159,0.387
	c-0.106,0.106-0.235,0.159-0.387,0.159c-0.15,0-0.277-0.053-0.385-0.159c-0.107-0.107-0.16-0.235-0.16-0.387v-1.956l-4.525,4.526
	c-0.104,0.104-0.232,0.157-0.384,0.157c-0.156,0-0.286-0.052-0.39-0.155s-0.155-0.233-0.155-0.39c0-0.15,0.053-0.278,0.158-0.384
	l4.525-4.525h-1.955c-0.151,0-0.279-0.053-0.386-0.16c-0.105-0.107-0.16-0.235-0.16-0.386s0.054-0.279,0.16-0.385
	C17.903,10.054,18.032,10,18.183,10L18.183,10z"/>
</svg>
