<?xml version="1.0" encoding="utf-8"?>
<!-- Generator: Adobe Illustrator 15.0.0, SVG Export Plug-In . SVG Version: 6.00 Build 0)  -->
<!DOCTYPE svg PUBLIC "-//W3C//DTD SVG 1.1//EN" "http://www.w3.org/Graphics/SVG/1.1/DTD/svg11.dtd">
<svg version="1.1" id="Layer_1" xmlns="http://www.w3.org/2000/svg" xmlns:xlink="http://www.w3.org/1999/xlink" x="0px" y="0px"
	 width="13.999px" height="14px" viewBox="9.002 9 13.999 14" enable-background="new 9.002 9 13.999 14" xml:space="preserve">
<path fill="#555555" d="M10.91,9h4.454c0.176,0,0.325,0.062,0.45,0.187s0.187,0.274,0.187,0.45s-0.062,0.325-0.187,0.45
	s-0.274,0.187-0.45,0.187H10.91c-0.176,0-0.326,0.062-0.45,0.187c-0.124,0.125-0.187,0.274-0.187,0.45v10.181
	c0,0.176,0.062,0.326,0.187,0.45c0.125,0.124,0.274,0.187,0.45,0.187h10.181c0.176,0,0.325-0.062,0.45-0.187
	c0.124-0.124,0.187-0.274,0.187-0.45v-4.454c0-0.175,0.062-0.325,0.187-0.45C22.039,16.062,22.188,16,22.364,16
	s0.325,0.062,0.45,0.187c0.124,0.125,0.187,0.274,0.187,0.45v4.454c0,0.527-0.187,0.978-0.56,1.35
	c-0.373,0.373-0.823,0.56-1.35,0.56H10.911c-0.527,0-0.977-0.187-1.35-0.56c-0.373-0.372-0.56-0.822-0.56-1.35V10.91
	c0-0.527,0.187-0.977,0.56-1.35C9.935,9.188,10.384,9.001,10.91,9L10.91,9z M18.546,9h3.817c0.176,0,0.326,0.062,0.45,0.187
	C22.938,9.312,23,9.461,23,9.637v3.818c0,0.176-0.062,0.325-0.187,0.45c-0.124,0.125-0.274,0.187-0.45,0.187
	s-0.325-0.062-0.449-0.187c-0.125-0.125-0.187-0.274-0.187-0.45v-2.282l-5.28,5.28c-0.122,0.122-0.271,0.184-0.447,0.184
	c-0.183,0-0.334-0.061-0.455-0.181c-0.121-0.121-0.181-0.273-0.181-0.455c0-0.176,0.061-0.325,0.184-0.448l5.28-5.279h-2.282
	c-0.175,0-0.325-0.062-0.45-0.187c-0.123-0.125-0.186-0.274-0.186-0.45s0.062-0.326,0.186-0.45C18.22,9.062,18.37,9,18.546,9
	L18.546,9z"/>
</svg>
