<?xml version="1.0" encoding="utf-8"?>
<!-- Generator: Adobe Illustrator 15.0.0, SVG Export Plug-In . SVG Version: 6.00 Build 0)  -->
<!DOCTYPE svg PUBLIC "-//W3C//DTD SVG 1.1//EN" "http://www.w3.org/Graphics/SVG/1.1/DTD/svg11.dtd">
<svg version="1.1" id="Layer_1" xmlns="http://www.w3.org/2000/svg" xmlns:xlink="http://www.w3.org/1999/xlink" x="0px" y="0px"
	 width="14px" height="14px" viewBox="9 9 14 14" enable-background="new 9 9 14 14" xml:space="preserve">
<path fill="#555555" d="M11.917,9h8.167c0.482,0,0.896,0.171,1.237,0.513s0.513,0.754,0.513,1.237v10.5
	c0,0.482-0.171,0.896-0.513,1.237S20.566,23,20.084,23h-8.167c-0.483,0-0.896-0.171-1.237-0.513s-0.513-0.755-0.513-1.237v-10.5
	c0-0.483,0.171-0.896,0.513-1.237S11.434,9,11.917,9z M13.667,18.917h4.667c0.161,0,0.298,0.057,0.413,0.171
	c0.113,0.114,0.171,0.252,0.171,0.412c0,0.161-0.058,0.299-0.171,0.413c-0.115,0.114-0.252,0.171-0.413,0.171h-4.667
	c-0.161,0-0.298-0.057-0.413-0.171c-0.114-0.114-0.171-0.252-0.171-0.413c0-0.16,0.057-0.298,0.171-0.412
	C13.369,18.974,13.506,18.917,13.667,18.917z M13.667,16.583h4.667c0.161,0,0.298,0.057,0.413,0.172
	c0.113,0.113,0.171,0.251,0.171,0.412s-0.058,0.299-0.171,0.412c-0.115,0.114-0.252,0.171-0.413,0.171h-4.667
	c-0.161,0-0.298-0.057-0.413-0.171c-0.114-0.113-0.171-0.251-0.171-0.412s0.057-0.299,0.171-0.412
	C13.369,16.64,13.506,16.583,13.667,16.583z M20.083,10.167h-8.167c-0.161,0-0.298,0.057-0.413,0.171
	c-0.114,0.114-0.171,0.251-0.171,0.413v10.5c0,0.161,0.057,0.299,0.171,0.413c0.114,0.114,0.251,0.171,0.413,0.171h8.167
	c0.161,0,0.299-0.057,0.413-0.171s0.171-0.252,0.171-0.413v-10.5c0-0.161-0.057-0.298-0.171-0.413S20.244,10.167,20.083,10.167z
	 M13.667,14.25h4.667c0.161,0,0.298,0.057,0.413,0.171c0.113,0.114,0.171,0.251,0.171,0.413s-0.058,0.299-0.171,0.413
	c-0.115,0.114-0.252,0.171-0.413,0.171h-4.667c-0.161,0-0.298-0.057-0.413-0.171c-0.114-0.114-0.171-0.251-0.171-0.413
	s0.057-0.298,0.171-0.413C13.369,14.307,13.506,14.25,13.667,14.25z M13.667,11.917H16c0.161,0,0.298,0.057,0.413,0.171
	c0.113,0.114,0.171,0.251,0.171,0.413s-0.058,0.298-0.171,0.413c-0.115,0.114-0.252,0.171-0.413,0.171h-2.333
	c-0.161,0-0.298-0.057-0.413-0.171c-0.114-0.114-0.171-0.251-0.171-0.413s0.057-0.298,0.171-0.413
	C13.369,11.974,13.506,11.917,13.667,11.917z"/>
</svg>
