<?xml version="1.0" encoding="utf-8"?>
<!-- Generator: Adobe Illustrator 15.0.0, SVG Export Plug-In . SVG Version: 6.00 Build 0)  -->
<!DOCTYPE svg PUBLIC "-//W3C//DTD SVG 1.1//EN" "http://www.w3.org/Graphics/SVG/1.1/DTD/svg11.dtd">
<svg version="1.1" id="Layer_1" xmlns="http://www.w3.org/2000/svg" xmlns:xlink="http://www.w3.org/1999/xlink" x="0px" y="0px"
	 width="12px" height="12px" viewBox="10 10 12 12" enable-background="new 10 10 12 12" xml:space="preserve">
<path fill="#555555" d="M13.083,11h5.835c0.344,0,0.64,0.122,0.883,0.366c0.244,0.244,0.367,0.539,0.367,0.884v7.5
	c0,0.344-0.122,0.642-0.367,0.884C19.557,20.878,19.263,21,18.918,21h-5.835c-0.345,0-0.64-0.122-0.884-0.366
	s-0.366-0.54-0.366-0.884v-7.5c0-0.344,0.122-0.642,0.366-0.884C12.443,11.122,12.738,11,13.083,11z M14.333,18.083h3.335
	c0.114,0,0.212,0.042,0.295,0.122c0.081,0.082,0.121,0.18,0.121,0.295s-0.041,0.213-0.121,0.295
	c-0.083,0.082-0.181,0.122-0.295,0.122h-3.335c-0.115,0-0.212-0.041-0.294-0.122c-0.082-0.082-0.122-0.18-0.122-0.295
	s0.04-0.213,0.122-0.295C14.121,18.125,14.218,18.083,14.333,18.083z M14.333,16.417h3.335c0.114,0,0.212,0.04,0.295,0.122
	c0.081,0.081,0.121,0.179,0.121,0.294c0,0.116-0.041,0.214-0.121,0.295c-0.083,0.082-0.181,0.122-0.295,0.122h-3.335
	c-0.115,0-0.212-0.041-0.294-0.122s-0.122-0.179-0.122-0.295c0-0.115,0.04-0.213,0.122-0.294
	C14.121,16.457,14.218,16.417,14.333,16.417z M18.917,11.833h-5.834c-0.115,0-0.213,0.042-0.294,0.122
	c-0.082,0.082-0.122,0.18-0.122,0.295v7.5c0,0.115,0.04,0.213,0.122,0.295c0.08,0.082,0.179,0.122,0.294,0.122h5.834
	c0.115,0,0.213-0.041,0.294-0.122c0.083-0.081,0.122-0.18,0.122-0.294v-7.5c0-0.116-0.04-0.214-0.122-0.296
	C19.131,11.874,19.032,11.833,18.917,11.833z M14.333,14.75h3.335c0.114,0,0.212,0.041,0.295,0.122
	c0.081,0.081,0.121,0.179,0.121,0.295c0,0.115-0.041,0.213-0.121,0.294c-0.083,0.082-0.181,0.122-0.295,0.122h-3.335
	c-0.115,0-0.212-0.04-0.294-0.122c-0.082-0.081-0.122-0.179-0.122-0.294c0-0.117,0.04-0.214,0.122-0.295S14.218,14.75,14.333,14.75z
	 M14.333,13.083H16c0.115,0,0.213,0.042,0.295,0.122c0.08,0.082,0.122,0.18,0.122,0.295s-0.043,0.213-0.122,0.295
	c-0.082,0.082-0.18,0.122-0.295,0.122h-1.667c-0.115,0-0.212-0.041-0.294-0.122c-0.082-0.082-0.122-0.18-0.122-0.295
	s0.04-0.213,0.122-0.295C14.121,13.125,14.218,13.083,14.333,13.083z"/>
</svg>
