<?xml version="1.0" encoding="utf-8"?>
<!-- Generator: Adobe Illustrator 18.1.1, SVG Export Plug-In . SVG Version: 6.00 Build 0)  -->
<svg version="1.1" id="Layer_1" xmlns="http://www.w3.org/2000/svg" xmlns:xlink="http://www.w3.org/1999/xlink" x="0px" y="0px"
	 width="36px" height="36px" viewBox="-194 192 36 36" enable-background="new -194 192 36 36" xml:space="preserve">
<path fill="#555555" d="M-185.9,193h19.8c1.2,0,2.2,0.4,3,1.2c0.8,0.8,1.2,1.8,1.2,3v25.5c0,1.2-0.4,2.2-1.2,3
	c-0.8,0.8-1.8,1.2-3,1.2h-19.8c-1.2,0-2.2-0.4-3-1.2c-0.8-0.8-1.2-1.8-1.2-3v-25.5c0-1.2,0.4-2.2,1.2-3
	C-188.1,193.4-187.1,193-185.9,193z M-181.7,217.1h11.3c0.4,0,0.7,0.1,1,0.4c0.3,0.3,0.4,0.6,0.4,1s-0.1,0.7-0.4,1
	c-0.3,0.3-0.6,0.4-1,0.4h-11.3c-0.4,0-0.7-0.1-1-0.4c-0.3-0.3-0.4-0.6-0.4-1s0.1-0.7,0.4-1C-182.4,217.2-182.1,217.1-181.7,217.1z
	 M-181.7,211.4h11.3c0.4,0,0.7,0.1,1,0.4c0.3,0.3,0.4,0.6,0.4,1c0,0.4-0.1,0.7-0.4,1c-0.3,0.3-0.6,0.4-1,0.4h-11.3
	c-0.4,0-0.7-0.1-1-0.4c-0.3-0.3-0.4-0.6-0.4-1c0-0.4,0.1-0.7,0.4-1C-182.4,211.6-182.1,211.4-181.7,211.4z M-166.1,195.8h-19.8
	c-0.4,0-0.7,0.1-1,0.4c-0.3,0.3-0.4,0.6-0.4,1v25.5c0,0.4,0.1,0.7,0.4,1c0.3,0.3,0.6,0.4,1,0.4h19.8c0.4,0,0.7-0.1,1-0.4
	c0.3-0.3,0.4-0.6,0.4-1v-25.5c0-0.4-0.1-0.7-0.4-1C-165.4,196-165.7,195.8-166.1,195.8z M-181.7,205.8h11.3c0.4,0,0.7,0.1,1,0.4
	c0.3,0.3,0.4,0.6,0.4,1c0,0.4-0.1,0.7-0.4,1c-0.3,0.3-0.6,0.4-1,0.4h-11.3c-0.4,0-0.7-0.1-1-0.4c-0.3-0.3-0.4-0.6-0.4-1
	c0-0.4,0.1-0.7,0.4-1C-182.4,205.9-182.1,205.8-181.7,205.8z M-181.7,200.1h5.7c0.4,0,0.7,0.1,1,0.4c0.3,0.3,0.4,0.6,0.4,1
	s-0.1,0.7-0.4,1c-0.3,0.3-0.6,0.4-1,0.4h-5.7c-0.4,0-0.7-0.1-1-0.4c-0.3-0.3-0.4-0.6-0.4-1s0.1-0.7,0.4-1
	C-182.4,200.2-182.1,200.1-181.7,200.1z"/>
</svg>
