<?xml version="1.0" encoding="utf-8"?>
<!-- Generator: Adobe Illustrator 15.0.0, SVG Export Plug-In . SVG Version: 6.00 Build 0)  -->
<!DOCTYPE svg PUBLIC "-//W3C//DTD SVG 1.1//EN" "http://www.w3.org/Graphics/SVG/1.1/DTD/svg11.dtd">
<svg version="1.1" id="Layer_1" xmlns="http://www.w3.org/2000/svg" xmlns:xlink="http://www.w3.org/1999/xlink" x="0px" y="0px"
	 width="14px" height="14px" viewBox="9 9 14 14" enable-background="new 9 9 14 14" xml:space="preserve">
<path fill="#555555" d="M12.5,10h7.001c0.413,0,0.769,0.146,1.06,0.44c0.293,0.293,0.44,0.646,0.44,1.06v9
	c0,0.413-0.146,0.769-0.44,1.06c-0.293,0.293-0.646,0.44-1.06,0.44H12.5c-0.414,0-0.768-0.146-1.061-0.44
	C11.147,21.267,11,20.913,11,20.5v-9c0-0.413,0.146-0.769,0.439-1.06C11.732,10.147,12.086,10,12.5,10z M14,18.5h4.001
	c0.138,0,0.255,0.05,0.354,0.146c0.097,0.099,0.146,0.216,0.146,0.354s-0.05,0.256-0.146,0.354
	c-0.099,0.098-0.216,0.146-0.354,0.146H14c-0.138,0-0.255-0.049-0.354-0.146C13.549,19.256,13.5,19.138,13.5,19
	s0.049-0.255,0.146-0.354C13.745,18.55,13.862,18.5,14,18.5z M14,16.5h4.001c0.138,0,0.255,0.049,0.354,0.147
	c0.097,0.097,0.146,0.215,0.146,0.353c0,0.139-0.05,0.257-0.146,0.354c-0.099,0.098-0.216,0.146-0.354,0.146H14
	c-0.138,0-0.255-0.049-0.354-0.146C13.549,17.257,13.5,17.139,13.5,17c0-0.138,0.049-0.256,0.146-0.353
	C13.745,16.549,13.862,16.5,14,16.5z M19.5,11h-7c-0.139,0-0.256,0.05-0.354,0.146c-0.098,0.099-0.146,0.216-0.146,0.354v9
	c0,0.138,0.049,0.256,0.146,0.354s0.215,0.146,0.354,0.146h7c0.138,0,0.256-0.049,0.354-0.146S20,20.639,20,20.501v-9
	c0-0.139-0.049-0.256-0.146-0.354S19.638,11,19.5,11z M14,14.5h4.001c0.138,0,0.255,0.049,0.354,0.146
	c0.097,0.098,0.146,0.215,0.146,0.354c0,0.139-0.05,0.256-0.146,0.354c-0.099,0.098-0.216,0.146-0.354,0.146H14
	c-0.138,0-0.255-0.049-0.354-0.146c-0.098-0.098-0.146-0.215-0.146-0.354c0-0.14,0.049-0.256,0.146-0.354
	C13.745,14.549,13.862,14.5,14,14.5z M14,12.5h2c0.139,0,0.256,0.05,0.354,0.146c0.096,0.099,0.146,0.216,0.146,0.354
	s-0.051,0.255-0.146,0.354c-0.099,0.098-0.216,0.146-0.354,0.146h-2c-0.138,0-0.255-0.049-0.354-0.146
	c-0.098-0.098-0.146-0.215-0.146-0.354s0.049-0.256,0.146-0.354C13.745,12.55,13.862,12.5,14,12.5z"/>
</svg>
