<?xml version="1.0" encoding="utf-8"?>
<!-- Generator: Adobe Illustrator 15.0.0, SVG Export Plug-In . SVG Version: 6.00 Build 0)  -->
<!DOCTYPE svg PUBLIC "-//W3C//DTD SVG 1.1//EN" "http://www.w3.org/Graphics/SVG/1.1/DTD/svg11.dtd">
<svg version="1.1" id="Layer_1" xmlns="http://www.w3.org/2000/svg" xmlns:xlink="http://www.w3.org/1999/xlink" x="0px" y="0px"
	 width="10px" height="10px" viewBox="11 11.002 10 10" enable-background="new 11 11.002 10 10" xml:space="preserve">
<path fill="#555555" d="M16,11.002c0.138,0,0.256,0.049,0.354,0.147c0.097,0.098,0.146,0.215,0.146,0.353v4h4
	c0.138,0,0.256,0.049,0.353,0.146C20.951,15.746,21,15.864,21,16.002s-0.049,0.256-0.147,0.354
	c-0.097,0.098-0.215,0.146-0.353,0.146h-4v4c0,0.138-0.049,0.256-0.146,0.353c-0.098,0.099-0.215,0.147-0.354,0.147
	s-0.256-0.049-0.354-0.147c-0.098-0.097-0.146-0.215-0.146-0.353v-4h-4c-0.138,0-0.255-0.049-0.353-0.146
	C11.049,16.258,11,16.14,11,16.002s0.049-0.256,0.147-0.354c0.098-0.098,0.215-0.146,0.353-0.146h4v-4
	c0-0.138,0.049-0.255,0.146-0.353C15.744,11.051,15.862,11.002,16,11.002z"/>
</svg>
