<?xml version="1.0" encoding="utf-8"?>
<!-- Generator: Adobe Illustrator 15.0.0, SVG Export Plug-In . SVG Version: 6.00 Build 0)  -->
<!DOCTYPE svg PUBLIC "-//W3C//DTD SVG 1.1//EN" "http://www.w3.org/Graphics/SVG/1.1/DTD/svg11.dtd">
<svg version="1.1" id="Layer_1" xmlns="http://www.w3.org/2000/svg" xmlns:xlink="http://www.w3.org/1999/xlink" x="0px" y="0px"
	 width="14px" height="14px" viewBox="9 9.002 14 14" enable-background="new 9 9.002 14 14" xml:space="preserve">
<path fill="#555555" d="M16,9.002c0.193,0,0.358,0.068,0.495,0.206C16.631,9.344,16.7,9.509,16.7,9.702v5.6h5.6
	c0.193,0,0.358,0.068,0.494,0.206C22.932,15.644,23,15.809,23,16.002s-0.068,0.358-0.206,0.495
	c-0.136,0.137-0.301,0.205-0.494,0.205h-5.6v5.6c0,0.193-0.069,0.358-0.205,0.494c-0.137,0.138-0.302,0.206-0.495,0.206
	s-0.358-0.068-0.495-0.206c-0.137-0.136-0.206-0.301-0.206-0.494v-5.6H9.7c-0.193,0-0.358-0.068-0.495-0.205
	C9.068,16.36,9,16.195,9,16.002s0.068-0.358,0.206-0.495c0.137-0.137,0.301-0.206,0.495-0.206h5.6v-5.6
	c0-0.193,0.068-0.358,0.206-0.495C15.642,9.07,15.807,9.002,16,9.002z"/>
</svg>
