<?xml version="1.0" encoding="utf-8"?>
<!-- Generator: Adobe Illustrator 15.0.0, SVG Export Plug-In . SVG Version: 6.00 Build 0)  -->
<!DOCTYPE svg PUBLIC "-//W3C//DTD SVG 1.1//EN" "http://www.w3.org/Graphics/SVG/1.1/DTD/svg11.dtd">
<svg version="1.1" id="Layer_1" xmlns="http://www.w3.org/2000/svg" xmlns:xlink="http://www.w3.org/1999/xlink" x="0px" y="0px"
	 width="18px" height="18px" viewBox="7 7.002 18 18" enable-background="new 7 7.002 18 18" xml:space="preserve">
<path fill="#555555" d="M16,7.002c0.249,0,0.46,0.088,0.637,0.264C16.812,7.442,16.9,7.654,16.9,7.902v7.199H24.1
	c0.249,0,0.461,0.088,0.636,0.264C24.912,15.542,25,15.753,25,16.002s-0.088,0.461-0.265,0.637
	c-0.175,0.176-0.387,0.264-0.636,0.264H16.9v7.199c0,0.249-0.089,0.461-0.264,0.636c-0.177,0.177-0.388,0.265-0.637,0.265
	s-0.46-0.088-0.636-0.265c-0.176-0.175-0.264-0.387-0.264-0.636v-7.199H7.9c-0.249,0-0.46-0.088-0.636-0.264
	C7.088,16.463,7,16.25,7,16.002s0.088-0.46,0.264-0.636c0.176-0.176,0.388-0.264,0.636-0.264H15.1V7.902
	c0-0.249,0.088-0.46,0.264-0.636C15.54,7.09,15.751,7.002,16,7.002z"/>
</svg>
