<?xml version="1.0" encoding="utf-8"?>
<!-- Generator: Adobe Illustrator 15.0.0, SVG Export Plug-In . SVG Version: 6.00 Build 0)  -->
<!DOCTYPE svg PUBLIC "-//W3C//DTD SVG 1.1//EN" "http://www.w3.org/Graphics/SVG/1.1/DTD/svg11.dtd">
<svg version="1.1" id="Layer_1" xmlns="http://www.w3.org/2000/svg" xmlns:xlink="http://www.w3.org/1999/xlink" x="0px" y="0px"
	 width="18px" height="18px" viewBox="7 7.002 18 18" enable-background="new 7 7.002 18 18" xml:space="preserve">
<path fill="#555555" d="M16,8.002c0.222,0,0.409,0.078,0.566,0.235c0.156,0.156,0.234,0.345,0.234,0.565v6.399h6.398
	c0.223,0,0.41,0.078,0.566,0.234C23.922,15.593,24,15.78,24,16.002s-0.078,0.41-0.236,0.566c-0.154,0.156-0.344,0.234-0.564,0.234
	h-6.398v6.398c0,0.223-0.08,0.41-0.234,0.566c-0.158,0.157-0.346,0.234-0.567,0.234s-0.409-0.077-0.565-0.234
	c-0.156-0.156-0.234-0.344-0.234-0.566v-6.398H8.8c-0.221,0-0.409-0.078-0.565-0.234C8.079,16.412,8,16.223,8,16.002
	s0.078-0.409,0.235-0.565c0.156-0.157,0.345-0.235,0.565-0.235h6.399V8.802c0-0.221,0.078-0.409,0.234-0.565
	C15.591,8.081,15.778,8.002,16,8.002z"/>
</svg>
