<?xml version="1.0" encoding="utf-8"?>
<!-- Generator: Adobe Illustrator 15.0.0, SVG Export Plug-In . SVG Version: 6.00 Build 0)  -->
<!DOCTYPE svg PUBLIC "-//W3C//DTD SVG 1.1//EN" "http://www.w3.org/Graphics/SVG/1.1/DTD/svg11.dtd">
<svg version="1.1" id="Layer_1" xmlns="http://www.w3.org/2000/svg" xmlns:xlink="http://www.w3.org/1999/xlink" x="0px" y="0px"
	 width="14px" height="14px" viewBox="-1 0 14 14" enable-background="new -1 0 14 14" xml:space="preserve">
<path fill="#555555" d="M6,1c0.166,0,0.307,0.059,0.425,0.177c0.116,0.116,0.176,0.258,0.176,0.424v4.799h4.799
	c0.166,0,0.308,0.059,0.424,0.177C11.941,6.693,12,6.834,12,7s-0.059,0.307-0.177,0.425c-0.116,0.117-0.258,0.176-0.424,0.176H6.601
	v4.799c0,0.166-0.06,0.308-0.176,0.424C6.307,12.941,6.166,13,6,13s-0.307-0.059-0.425-0.177c-0.117-0.116-0.176-0.258-0.176-0.424
	V7.601H0.601c-0.166,0-0.308-0.059-0.425-0.176C0.059,7.307,0,7.166,0,7s0.059-0.307,0.177-0.425
	c0.117-0.117,0.258-0.176,0.424-0.176h4.8V1.6c0-0.166,0.059-0.308,0.177-0.425C5.693,1.059,5.834,1,6,1z"/>
</svg>
