<?xml version="1.0" encoding="utf-8"?>
<!-- Generator: Adobe Illustrator 15.0.0, SVG Export Plug-In . SVG Version: 6.00 Build 0)  -->
<!DOCTYPE svg PUBLIC "-//W3C//DTD SVG 1.1//EN" "http://www.w3.org/Graphics/SVG/1.1/DTD/svg11.dtd">
<svg version="1.1" id="Layer_1" xmlns="http://www.w3.org/2000/svg" xmlns:xlink="http://www.w3.org/1999/xlink" x="0px" y="0px"
	 width="18px" height="18px" viewBox="7.066 7.064 18 18" enable-background="new 7.066 7.064 18 18" xml:space="preserve">
<path fill="#555555" d="M15.786,13.334c-0.278,0-0.543,0.038-0.793,0.106c-0.25,0.069-0.524,0.183-0.829,0.339l-0.488-1.318
	c0.303-0.194,0.659-0.345,1.071-0.452c0.413-0.104,0.817-0.155,1.214-0.155c0.496,0,0.907,0.066,1.229,0.197
	c0.323,0.134,0.578,0.301,0.765,0.504c0.188,0.199,0.315,0.423,0.391,0.663s0.111,0.471,0.111,0.691c0,0.214-0.033,0.415-0.1,0.597
	c-0.064,0.185-0.151,0.353-0.25,0.508c-0.101,0.156-0.217,0.305-0.352,0.445c-0.129,0.14-0.261,0.271-0.384,0.396
	c-0.093,0.093-0.19,0.191-0.291,0.297c-0.104,0.105-0.194,0.216-0.277,0.333c-0.08,0.117-0.147,0.239-0.201,0.368
	c-0.055,0.127-0.082,0.259-0.082,0.392c0,0.028,0,0.076,0,0.138s0.003,0.117,0.011,0.164h-1.538
	c-0.018-0.078-0.026-0.164-0.031-0.264c-0.002-0.096-0.006-0.179-0.006-0.25c0-0.217,0.028-0.415,0.082-0.589
	c0.054-0.173,0.126-0.338,0.215-0.489c0.092-0.152,0.193-0.295,0.311-0.426c0.116-0.133,0.238-0.262,0.361-0.385
	c0.179-0.178,0.342-0.355,0.49-0.533c0.148-0.174,0.222-0.375,0.222-0.6c0-0.186-0.073-0.346-0.217-0.478
	C16.278,13.4,16.066,13.334,15.786,13.334L15.786,13.334z M16.874,19.202c0,0.343-0.113,0.608-0.334,0.794
	c-0.222,0.188-0.472,0.28-0.753,0.28c-0.278,0-0.531-0.092-0.75-0.28c-0.224-0.186-0.333-0.451-0.333-0.794
	c0-0.341,0.108-0.607,0.333-0.793c0.219-0.187,0.472-0.279,0.75-0.279c0.279,0,0.531,0.094,0.753,0.279
	C16.761,18.595,16.874,18.861,16.874,19.202z"/>
<path fill="#555555" d="M21.886,8.064H10.249c-1.207,0-2.184,0.977-2.184,2.182v11.638c0,1.205,0.977,2.181,2.184,2.181h11.637
	c1.203,0,2.182-0.976,2.182-2.181V10.246C24.067,9.041,23.09,8.064,21.886,8.064z M22.611,21.884c0,0.401-0.323,0.727-0.726,0.727
	H10.249c-0.403,0-0.728-0.323-0.728-0.727V10.246c0-0.401,0.324-0.727,0.728-0.727h11.637c0.4,0,0.725,0.325,0.725,0.727
	L22.611,21.884L22.611,21.884z"/>
</svg>
