<?xml version="1.0" encoding="utf-8"?>
<!-- Generator: Adobe Illustrator 15.0.0, SVG Export Plug-In . SVG Version: 6.00 Build 0)  -->
<!DOCTYPE svg PUBLIC "-//W3C//DTD SVG 1.1//EN" "http://www.w3.org/Graphics/SVG/1.1/DTD/svg11.dtd">
<svg version="1.1" id="Layer_1" xmlns="http://www.w3.org/2000/svg" xmlns:xlink="http://www.w3.org/1999/xlink" x="0px" y="0px"
	 width="18px" height="17.998px" viewBox="7.067 7.066 18 17.998" enable-background="new 7.067 7.066 18 17.998"
	 xml:space="preserve">
<path fill="#555555" d="M15.751,12.993c-0.313,0-0.61,0.042-0.891,0.12c-0.282,0.078-0.591,0.205-0.934,0.38l-0.549-1.482
	c0.341-0.219,0.741-0.388,1.205-0.508c0.465-0.117,0.92-0.175,1.365-0.175c0.559,0,1.022,0.075,1.383,0.222
	c0.363,0.15,0.65,0.338,0.859,0.566c0.211,0.224,0.356,0.476,0.441,0.747c0.084,0.269,0.125,0.528,0.125,0.776
	c0,0.242-0.037,0.468-0.112,0.673c-0.073,0.207-0.17,0.396-0.281,0.571c-0.114,0.175-0.245,0.343-0.396,0.501
	c-0.146,0.156-0.293,0.305-0.432,0.444c-0.105,0.104-0.214,0.216-0.327,0.334c-0.116,0.119-0.218,0.243-0.312,0.375
	c-0.09,0.132-0.167,0.269-0.226,0.414c-0.062,0.143-0.093,0.291-0.093,0.44c0,0.033,0,0.087,0,0.156
	c0,0.068,0.003,0.132,0.012,0.184h-1.73c-0.02-0.087-0.03-0.185-0.035-0.296c-0.003-0.108-0.006-0.202-0.006-0.282
	c0-0.244,0.03-0.466,0.091-0.663c0.061-0.194,0.142-0.38,0.242-0.55c0.103-0.171,0.218-0.331,0.35-0.479
	c0.13-0.15,0.267-0.294,0.406-0.433c0.202-0.2,0.385-0.399,0.551-0.599c0.167-0.195,0.25-0.422,0.25-0.675
	c0-0.209-0.082-0.389-0.244-0.537C16.305,13.068,16.067,12.992,15.751,12.993L15.751,12.993z M16.974,19.594
	c0,0.386-0.126,0.684-0.375,0.893c-0.25,0.211-0.531,0.315-0.847,0.315c-0.313,0-0.598-0.104-0.844-0.315
	c-0.251-0.209-0.374-0.508-0.374-0.893c0-0.383,0.122-0.683,0.374-0.892c0.246-0.21,0.531-0.314,0.844-0.314
	c0.315,0,0.598,0.105,0.847,0.314C16.848,18.911,16.974,19.211,16.974,19.594z"/>
<path fill="#555555" d="M22.612,7.066H9.524c-1.358,0-2.457,1.099-2.457,2.455v13.089c0,1.356,1.099,2.454,2.457,2.454h13.088
	c1.354,0,2.454-1.098,2.454-2.454V9.521C25.066,8.164,23.967,7.066,22.612,7.066z M23.428,22.61c0,0.452-0.364,0.818-0.816,0.818
	H9.523c-0.454,0-0.819-0.365-0.819-0.818V9.521c0-0.452,0.365-0.818,0.819-0.818h13.088c0.452,0,0.816,0.366,0.816,0.818V22.61z"/>
</svg>
