<?xml version="1.0" encoding="utf-8"?>
<!-- Generator: Adobe Illustrator 16.0.3, SVG Export Plug-In . SVG Version: 6.00 Build 0)  -->
<!DOCTYPE svg PUBLIC "-//W3C//DTD SVG 1.1//EN" "http://www.w3.org/Graphics/SVG/1.1/DTD/svg11.dtd">
<svg version="1.1" id="Layer_1" xmlns="http://www.w3.org/2000/svg" xmlns:xlink="http://www.w3.org/1999/xlink" x="0px" y="0px"
	 width="60px" height="60px" viewBox="-21 -21 60 60" enable-background="new -21 -21 60 60" xml:space="preserve">
<path fill="#555555" d="M8.019-0.555c-0.974,0-1.9,0.133-2.775,0.369C4.369,0.057,3.408,0.457,2.342,1.004L0.634-3.61
	C1.693-4.286,2.94-4.816,4.382-5.192c1.446-0.362,2.86-0.543,4.248-0.543c1.736,0,3.174,0.232,4.299,0.69
	c1.135,0.472,2.023,1.052,2.679,1.763c0.656,0.697,1.101,1.483,1.367,2.321c0.267,0.84,0.39,1.65,0.39,2.419
	c0,0.749-0.116,1.452-0.349,2.088c-0.226,0.649-0.529,1.237-0.875,1.777c-0.355,0.547-0.759,1.066-1.233,1.559
	c-0.451,0.492-0.912,0.95-1.343,1.388c-0.328,0.324-0.663,0.666-1.019,1.039c-0.362,0.366-0.677,0.755-0.971,1.162
	c-0.28,0.41-0.513,0.841-0.704,1.292c-0.191,0.444-0.287,0.902-0.287,1.371c0,0.099,0,0.263,0,0.481s0.014,0.41,0.041,0.574H5.244
	c-0.065-0.273-0.092-0.574-0.109-0.923c-0.007-0.335-0.021-0.629-0.021-0.875c0-0.759,0.099-1.452,0.287-2.064
	c0.188-0.602,0.441-1.182,0.752-1.708c0.325-0.533,0.673-1.032,1.09-1.49c0.403-0.465,0.831-0.916,1.261-1.347
	c0.625-0.625,1.199-1.244,1.716-1.866c0.516-0.608,0.775-1.313,0.775-2.102c0-0.649-0.253-1.209-0.759-1.671
	C9.737-0.322,9-0.555,8.019-0.555L8.019-0.555z M11.826,19.98c0,1.2-0.394,2.13-1.169,2.779c-0.776,0.655-1.651,0.977-2.635,0.977
	c-0.974,0-1.859-0.321-2.625-0.977c-0.786-0.649-1.166-1.579-1.166-2.779c0-1.192,0.379-2.125,1.166-2.774
	c0.766-0.653,1.65-0.978,2.625-0.978c0.978,0,1.859,0.332,2.635,0.978C11.433,17.855,11.826,18.788,11.826,19.98z"/>
<path fill="#555555" d="M29.367-18.997h-40.726c-4.224,0-7.643,3.419-7.643,7.637v40.726c0,4.217,3.419,7.631,7.643,7.631h40.726
	c4.207,0,7.635-3.414,7.635-7.631V-11.36C36.995-15.578,33.578-18.997,29.367-18.997z M31.903,29.365
	c0,1.404-1.132,2.546-2.543,2.546h-40.719c-1.411,0-2.546-1.131-2.546-2.546V-11.36c0-1.405,1.135-2.543,2.546-2.543h40.726
	c1.398,0,2.536,1.135,2.536,2.543V29.365L31.903,29.365z"/>
</svg>
