<?xml version="1.0" encoding="utf-8"?>
<!-- Generator: Adobe Illustrator 18.1.1, SVG Export Plug-In . SVG Version: 6.00 Build 0)  -->
<svg version="1.1" id="Layer_1" xmlns="http://www.w3.org/2000/svg" xmlns:xlink="http://www.w3.org/1999/xlink" x="0px" y="0px"
	 width="36px" height="36px" viewBox="-194 192 36 36" enable-background="new -194 192 36 36" xml:space="preserve">
<path fill="#555555" d="M-177.5,194.5c2,0,3.9,0.4,5.8,1.1c1.9,0.8,3.6,1.9,5.1,3.4c0,0,1.5,1.5,4.5,4.4v-5.9c0-0.4,0.2-0.8,0.5-1.1
	c0.3-0.3,0.7-0.5,1.1-0.5c0.4,0,0.8,0.2,1.1,0.5c0.3,0.3,0.4,0.7,0.4,1.1v9.3c0,0.4-0.1,0.8-0.5,1.1s-0.7,0.5-1.1,0.5h-9.3
	c-0.4,0-0.8-0.2-1.1-0.5c-0.3-0.3-0.5-0.7-0.5-1.1s0.2-0.8,0.5-1.1c0.3-0.3,0.7-0.5,1.1-0.5h5.2c-2.2-2.2-3.6-3.5-4.2-4.1
	c-1.2-1.2-2.6-2.1-4.1-2.7c-1.5-0.6-3-0.9-4.6-0.9c-1.6,0-3.2,0.3-4.6,0.9c-1.5,0.6-2.9,1.5-4.1,2.7c-1.2,1.2-2.1,2.6-2.7,4.1
	c-0.6,1.5-0.9,3-0.9,4.6c0,1.6,0.3,3.2,0.9,4.6c0.6,1.5,1.5,2.9,2.7,4.1c1.2,1.2,2.6,2.1,4.1,2.7c1.5,0.6,3,0.9,4.6,0.9
	s3.2-0.3,4.6-0.9c1.5-0.6,2.9-1.5,4.1-2.7c1.3-1.3,2.3-2.9,2.9-4.6c0.1-0.4,0.4-0.7,0.8-0.9c0.4-0.2,0.8-0.2,1.2-0.1
	c0.4,0.1,0.7,0.4,0.9,0.8c0.2,0.4,0.2,0.8,0.1,1.2c-0.4,1.1-0.9,2.1-1.5,3.1c-0.6,1-1.4,1.9-2.1,2.7c-1.5,1.5-3.2,2.6-5.1,3.4
	c-1.9,0.8-3.8,1.1-5.8,1.1c-2,0-3.9-0.4-5.8-1.1c-1.9-0.8-3.6-1.9-5.1-3.4c-1.5-1.5-2.6-3.2-3.4-5.1c-0.8-1.9-1.1-3.8-1.1-5.8
	c0-2,0.4-3.9,1.1-5.8c0.8-1.9,1.9-3.6,3.4-5.1c1.5-1.5,3.2-2.6,5.1-3.4C-181.5,194.9-179.5,194.5-177.5,194.5L-177.5,194.5z"/>
</svg>
