<?xml version="1.0" encoding="utf-8"?>
<!-- Generator: Adobe Illustrator 15.0.0, SVG Export Plug-In . SVG Version: 6.00 Build 0)  -->
<!DOCTYPE svg PUBLIC "-//W3C//DTD SVG 1.1//EN" "http://www.w3.org/Graphics/SVG/1.1/DTD/svg11.dtd">
<svg version="1.1" id="Layer_1" xmlns="http://www.w3.org/2000/svg" xmlns:xlink="http://www.w3.org/1999/xlink" x="0px" y="0px"
	 width="14px" height="14px" viewBox="9 9 14 14" enable-background="new 9 9 14 14" xml:space="preserve">
<path fill="#555555" d="M15.454,10.545c0.708,0,1.393,0.134,2.055,0.401c0.679,0.274,1.279,0.675,1.803,1.196
	c0.002,0.003,0.535,0.524,1.597,1.564v-2.071c0-0.15,0.054-0.279,0.161-0.386c0.106-0.107,0.234-0.16,0.385-0.16
	c0.151,0,0.279,0.053,0.387,0.16C21.946,11.357,22,11.485,22,11.636v3.272c0,0.151-0.052,0.279-0.159,0.386s-0.235,0.16-0.387,0.16
	h-3.272c-0.15,0-0.278-0.054-0.386-0.16c-0.105-0.107-0.159-0.234-0.159-0.386s0.053-0.279,0.159-0.387
	c0.107-0.106,0.235-0.159,0.386-0.159h1.841c-0.79-0.768-1.284-1.25-1.482-1.449c-0.423-0.423-0.904-0.742-1.445-0.958
	c-0.519-0.214-1.065-0.32-1.641-0.32c-0.574,0-1.12,0.106-1.64,0.32c-0.543,0.216-1.024,0.535-1.445,0.958
	c-0.42,0.422-0.74,0.903-0.959,1.444c-0.213,0.521-0.32,1.067-0.32,1.641s0.107,1.12,0.32,1.641
	c0.219,0.542,0.539,1.024,0.959,1.444c0.421,0.424,0.902,0.744,1.445,0.959c0.52,0.213,1.065,0.319,1.64,0.319
	c0.575,0,1.121-0.106,1.641-0.319c0.541-0.215,1.021-0.535,1.445-0.959c0.472-0.471,0.815-1.015,1.031-1.632
	c0.05-0.143,0.141-0.244,0.277-0.308c0.136-0.063,0.274-0.072,0.417-0.023c0.142,0.052,0.246,0.146,0.311,0.281
	c0.065,0.136,0.072,0.276,0.021,0.417c-0.13,0.373-0.307,0.736-0.529,1.091c-0.224,0.355-0.477,0.671-0.758,0.947
	c-0.521,0.522-1.123,0.922-1.802,1.197c-0.662,0.267-1.347,0.4-2.054,0.4s-1.393-0.134-2.054-0.4
	c-0.679-0.275-1.279-0.675-1.803-1.197c-0.521-0.521-0.921-1.125-1.197-1.803C10.133,17.392,10,16.707,10,16s0.135-1.392,0.4-2.054
	c0.275-0.679,0.675-1.279,1.197-1.803c0.523-0.522,1.124-0.922,1.803-1.197C14.063,10.679,14.748,10.545,15.454,10.545
	L15.454,10.545z"/>
</svg>
