<?xml version="1.0" encoding="utf-8"?>
<!-- Generator: Adobe Illustrator 15.0.0, SVG Export Plug-In . SVG Version: 6.00 Build 0)  -->
<!DOCTYPE svg PUBLIC "-//W3C//DTD SVG 1.1//EN" "http://www.w3.org/Graphics/SVG/1.1/DTD/svg11.dtd">
<svg version="1.1" id="Layer_1" xmlns="http://www.w3.org/2000/svg" xmlns:xlink="http://www.w3.org/1999/xlink" x="0px" y="0px"
	 width="14px" height="14px" viewBox="9.001 8.999 14 14" enable-background="new 9.001 8.999 14 14" xml:space="preserve">
<path fill="#555555" d="M15.364,9.636c0.826,0,1.624,0.156,2.396,0.467c0.792,0.321,1.493,0.787,2.103,1.397
	c0.003,0.003,0.625,0.611,1.864,1.824v-2.416c0-0.176,0.062-0.326,0.187-0.45c0.125-0.125,0.274-0.187,0.45-0.187
	s0.325,0.062,0.45,0.187c0.124,0.125,0.187,0.274,0.187,0.45v3.818c0,0.176-0.062,0.326-0.187,0.45
	c-0.125,0.125-0.274,0.187-0.45,0.187h-3.818c-0.176,0-0.325-0.062-0.45-0.187c-0.124-0.125-0.187-0.274-0.187-0.45
	s0.062-0.326,0.187-0.45c0.125-0.125,0.274-0.187,0.45-0.187h2.148c-0.922-0.895-1.498-1.458-1.73-1.69
	c-0.494-0.494-1.056-0.867-1.686-1.119c-0.606-0.249-1.244-0.373-1.914-0.373s-1.307,0.124-1.914,0.373
	c-0.633,0.252-1.195,0.625-1.686,1.119c-0.49,0.491-0.863,1.053-1.119,1.685c-0.249,0.607-0.373,1.245-0.373,1.914
	s0.124,1.307,0.373,1.914c0.255,0.633,0.628,1.195,1.119,1.686c0.491,0.494,1.053,0.867,1.686,1.118
	c0.606,0.249,1.244,0.373,1.914,0.373s1.307-0.124,1.914-0.373c0.63-0.251,1.191-0.624,1.686-1.118
	c0.55-0.55,0.951-1.185,1.203-1.904c0.057-0.166,0.164-0.286,0.323-0.36s0.321-0.084,0.487-0.027
	c0.166,0.06,0.287,0.169,0.362,0.328c0.076,0.159,0.085,0.322,0.025,0.487c-0.152,0.435-0.359,0.859-0.619,1.273
	c-0.261,0.414-0.555,0.782-0.883,1.104c-0.609,0.61-1.311,1.076-2.103,1.397c-0.772,0.312-1.571,0.467-2.396,0.467
	c-0.825,0-1.624-0.155-2.396-0.467c-0.792-0.321-1.493-0.787-2.103-1.397c-0.609-0.609-1.075-1.311-1.397-2.103
	c-0.312-0.772-0.467-1.571-0.467-2.396s0.156-1.624,0.467-2.396c0.321-0.792,0.787-1.493,1.397-2.103
	c0.61-0.61,1.311-1.076,2.103-1.397C13.74,9.792,14.539,9.636,15.364,9.636L15.364,9.636z"/>
</svg>
