<?xml version="1.0" encoding="utf-8"?>
<!-- Generator: Adobe Illustrator 15.0.0, SVG Export Plug-In . SVG Version: 6.00 Build 0)  -->
<!DOCTYPE svg PUBLIC "-//W3C//DTD SVG 1.1//EN" "http://www.w3.org/Graphics/SVG/1.1/DTD/svg11.dtd">
<svg version="1.1" id="Layer_1" xmlns="http://www.w3.org/2000/svg" xmlns:xlink="http://www.w3.org/1999/xlink" x="0px" y="0px"
	 width="12px" height="12px" viewBox="10.002 9.998 12 12" enable-background="new 10.002 9.998 12 12" xml:space="preserve">
<path fill="#555555" d="M15.546,11.454c0.591,0,1.161,0.11,1.713,0.333c0.566,0.229,1.065,0.562,1.502,0.998
	c0.002,0.002,0.446,0.437,1.331,1.302v-1.726c0-0.125,0.045-0.232,0.134-0.321c0.089-0.09,0.195-0.134,0.321-0.134
	s0.232,0.044,0.321,0.134c0.09,0.089,0.134,0.195,0.134,0.321v2.727c0,0.126-0.045,0.233-0.134,0.321
	c-0.088,0.089-0.195,0.134-0.321,0.134H17.82c-0.126,0-0.233-0.045-0.322-0.134c-0.088-0.088-0.132-0.195-0.132-0.321
	c0-0.125,0.044-0.232,0.132-0.32c0.089-0.09,0.195-0.134,0.322-0.134h1.534c-0.659-0.641-1.069-1.041-1.235-1.207
	c-0.353-0.353-0.753-0.62-1.204-0.8c-0.433-0.177-0.888-0.266-1.366-0.266s-0.934,0.089-1.366,0.266
	c-0.453,0.18-0.854,0.447-1.205,0.8c-0.35,0.351-0.616,0.752-0.799,1.202c-0.178,0.435-0.266,0.89-0.266,1.368
	c0,0.478,0.088,0.935,0.266,1.366c0.183,0.453,0.449,0.854,0.799,1.205c0.351,0.352,0.752,0.619,1.205,0.798
	c0.433,0.179,0.888,0.267,1.366,0.267s0.934-0.088,1.366-0.267c0.451-0.179,0.852-0.446,1.204-0.798
	c0.393-0.395,0.679-0.847,0.859-1.361c0.04-0.118,0.117-0.204,0.229-0.257c0.114-0.053,0.229-0.061,0.349-0.02
	c0.119,0.042,0.205,0.12,0.26,0.234s0.061,0.229,0.017,0.349c-0.107,0.309-0.256,0.612-0.44,0.908
	c-0.188,0.296-0.397,0.56-0.632,0.789c-0.435,0.436-0.936,0.769-1.501,0.997c-0.552,0.224-1.123,0.333-1.713,0.333
	c-0.589,0-1.159-0.111-1.711-0.333c-0.566-0.229-1.066-0.562-1.503-0.997c-0.435-0.436-0.768-0.936-0.997-1.503
	c-0.224-0.551-0.334-1.122-0.334-1.712s0.11-1.16,0.334-1.712c0.229-0.564,0.562-1.066,0.997-1.501
	c0.436-0.436,0.938-0.769,1.503-0.997C14.386,11.564,14.957,11.454,15.546,11.454L15.546,11.454z"/>
</svg>
