<?xml version="1.0" encoding="utf-8"?>
<!-- Generator: Adobe Illustrator 15.0.0, SVG Export Plug-In . SVG Version: 6.00 Build 0)  -->
<!DOCTYPE svg PUBLIC "-//W3C//DTD SVG 1.1//EN" "http://www.w3.org/Graphics/SVG/1.1/DTD/svg11.dtd">
<svg version="1.1" id="Layer_1" xmlns="http://www.w3.org/2000/svg" xmlns:xlink="http://www.w3.org/1999/xlink" x="0px" y="0px"
	 width="12px" height="12px" viewBox="10.001 9.999 12 12" enable-background="new 10.001 9.999 12 12" xml:space="preserve">
<path fill="#555555" d="M15.455,10.545c0.708,0,1.393,0.133,2.055,0.4c0.679,0.275,1.279,0.674,1.802,1.197
	c0.003,0.002,0.536,0.524,1.598,1.563v-2.071c0-0.15,0.054-0.279,0.16-0.386c0.107-0.107,0.235-0.16,0.386-0.16
	s0.279,0.053,0.386,0.16s0.16,0.235,0.16,0.386v3.272c0,0.151-0.054,0.279-0.16,0.386c-0.106,0.106-0.235,0.16-0.386,0.16h-3.272
	c-0.151,0-0.279-0.053-0.386-0.16c-0.106-0.107-0.16-0.235-0.16-0.386c0-0.15,0.054-0.279,0.16-0.385
	c0.106-0.107,0.234-0.16,0.386-0.16h1.841c-0.79-0.768-1.283-1.25-1.482-1.449c-0.424-0.423-0.905-0.743-1.445-0.959
	c-0.52-0.213-1.066-0.319-1.64-0.319s-1.12,0.106-1.64,0.319c-0.543,0.216-1.024,0.536-1.445,0.959
	c-0.42,0.421-0.74,0.902-0.959,1.444c-0.213,0.521-0.319,1.067-0.319,1.641s0.106,1.121,0.319,1.64
	c0.219,0.543,0.539,1.024,0.959,1.445c0.421,0.423,0.902,0.743,1.445,0.958c0.52,0.214,1.066,0.319,1.64,0.319
	s1.121-0.105,1.64-0.319c0.54-0.215,1.021-0.535,1.445-0.958c0.471-0.472,0.814-1.016,1.031-1.633
	c0.048-0.143,0.141-0.245,0.276-0.309c0.137-0.063,0.275-0.072,0.418-0.023c0.143,0.051,0.246,0.145,0.311,0.281
	c0.065,0.137,0.073,0.276,0.021,0.418c-0.13,0.372-0.308,0.736-0.53,1.091c-0.224,0.355-0.476,0.671-0.757,0.946
	c-0.522,0.523-1.123,0.922-1.802,1.197c-0.662,0.268-1.347,0.4-2.055,0.4c-0.707,0-1.392-0.133-2.054-0.4
	c-0.679-0.275-1.279-0.674-1.802-1.197c-0.522-0.522-0.922-1.123-1.198-1.803c-0.267-0.662-0.4-1.347-0.4-2.054
	c0-0.708,0.133-1.392,0.4-2.054c0.275-0.679,0.675-1.28,1.198-1.802c0.522-0.522,1.124-0.922,1.802-1.197
	C14.063,10.678,14.748,10.545,15.455,10.545L15.455,10.545z"/>
</svg>
