<?xml version="1.0" encoding="utf-8"?>
<!-- Generator: Adobe Illustrator 15.0.0, SVG Export Plug-In . SVG Version: 6.00 Build 0)  -->
<!DOCTYPE svg PUBLIC "-//W3C//DTD SVG 1.1//EN" "http://www.w3.org/Graphics/SVG/1.1/DTD/svg11.dtd">
<svg version="1.1" id="Layer_1" xmlns="http://www.w3.org/2000/svg" xmlns:xlink="http://www.w3.org/1999/xlink" x="0px" y="0px"
	 width="14px" height="14px" viewBox="8.334 9 14 14" enable-background="new 8.334 9 14 14" xml:space="preserve">
<path fill="#555555" d="M20.209,10c0.208,0,0.383,0.073,0.53,0.22c0.146,0.146,0.22,0.323,0.22,0.531
	c0,0.207-0.073,0.385-0.223,0.533L16.02,16l4.717,4.716c0.149,0.149,0.223,0.326,0.223,0.534c0,0.207-0.073,0.384-0.22,0.53
	c-0.147,0.146-0.322,0.22-0.53,0.22c-0.211,0-0.389-0.072-0.534-0.217l-5.248-5.249c-0.145-0.145-0.218-0.322-0.218-0.534
	c0-0.211,0.072-0.39,0.218-0.533l5.248-5.25C19.82,10.073,19.998,10.001,20.209,10L20.209,10z M15.709,10
	c0.208,0,0.383,0.073,0.53,0.22c0.146,0.146,0.22,0.323,0.22,0.531c0,0.207-0.075,0.385-0.223,0.533L11.52,16l4.717,4.716
	c0.147,0.149,0.223,0.326,0.223,0.534c0,0.207-0.073,0.384-0.22,0.53c-0.147,0.146-0.322,0.22-0.53,0.22
	c-0.213,0-0.39-0.072-0.534-0.217l-5.25-5.249C9.781,16.39,9.709,16.212,9.709,16c0-0.211,0.072-0.39,0.216-0.533l5.25-5.25
	C15.319,10.073,15.496,10.001,15.709,10L15.709,10z"/>
</svg>
