<?xml version="1.0" encoding="utf-8"?>
<!-- Generator: Adobe Illustrator 15.0.0, SVG Export Plug-In . SVG Version: 6.00 Build 0)  -->
<!DOCTYPE svg PUBLIC "-//W3C//DTD SVG 1.1//EN" "http://www.w3.org/Graphics/SVG/1.1/DTD/svg11.dtd">
<svg version="1.1" id="Layer_1" xmlns="http://www.w3.org/2000/svg" xmlns:xlink="http://www.w3.org/1999/xlink" x="0px" y="0px"
	 width="14px" height="14px" viewBox="8.999 9 14 14" enable-background="new 8.999 9 14 14" xml:space="preserve">
<path fill="#555555" d="M12.817,9h6.363c0.527,0,0.978,0.187,1.351,0.559c0.372,0.373,0.559,0.823,0.559,1.35V23l-5.091-3.818
	L10.908,23V10.909c0-0.527,0.187-0.977,0.56-1.35C11.84,9.186,12.29,9,12.817,9L12.817,9z M19.182,10.272h-6.364
	c-0.176,0-0.326,0.062-0.45,0.187c-0.125,0.125-0.187,0.274-0.187,0.45v9.546L16,17.591l3.818,2.864v-9.546
	c0-0.176-0.062-0.326-0.187-0.45S19.356,10.272,19.182,10.272L19.182,10.272z"/>
</svg>
