<?xml version="1.0" encoding="utf-8"?>
<!-- Generator: Adobe Illustrator 15.0.0, SVG Export Plug-In . SVG Version: 6.00 Build 0)  -->
<!DOCTYPE svg PUBLIC "-//W3C//DTD SVG 1.1//EN" "http://www.w3.org/Graphics/SVG/1.1/DTD/svg11.dtd">
<svg version="1.1" id="Layer_1" xmlns="http://www.w3.org/2000/svg" xmlns:xlink="http://www.w3.org/1999/xlink" x="0px" y="0px"
	 width="14px" height="14px" viewBox="8.999 9 14 14" enable-background="new 8.999 9 14 14" xml:space="preserve">
<path fill="#555555" d="M13.271,10h5.454c0.452,0,0.839,0.161,1.158,0.479c0.318,0.32,0.479,0.706,0.479,1.158V22l-4.363-3.272
	L11.636,22V11.637c0-0.452,0.16-0.838,0.479-1.158C12.434,10.159,12.82,10,13.271,10L13.271,10z M18.727,11.09h-5.454
	c-0.15,0-0.279,0.054-0.386,0.161c-0.107,0.106-0.16,0.234-0.16,0.386v8.182L16,17.363l3.272,2.455v-8.182
	c0-0.151-0.054-0.28-0.16-0.386C19.005,11.145,18.876,11.09,18.727,11.09L18.727,11.09z"/>
</svg>
