<?xml version="1.0" encoding="utf-8"?>
<!-- Generated by IcoMoon.io -->
<!DOCTYPE svg PUBLIC "-//W3C//DTD SVG 1.1//EN" "http://www.w3.org/Graphics/SVG/1.1/DTD/svg11.dtd">
<svg version="1.1" xmlns="http://www.w3.org/2000/svg" xmlns:xlink="http://www.w3.org/1999/xlink" width="32" height="32" viewBox="0 0 32 32">
<path d="M9.849 26.25h12.301v-6.15h-12.301v6.15zM24.2 26.25h2.050v-14.351c0-0.149-0.053-0.355-0.16-0.617-0.105-0.262-0.213-0.446-0.32-0.552l-4.5-4.501c-0.107-0.106-0.289-0.213-0.545-0.32s-0.465-0.161-0.625-0.16v6.663c0 0.427-0.149 0.79-0.448 1.088-0.3 0.299-0.662 0.449-1.089 0.449h-9.227c-0.427 0-0.79-0.15-1.088-0.449s-0.449-0.662-0.449-1.088v-6.663h-2.050v20.5h2.050v-6.663c0-0.427 0.15-0.789 0.449-1.088s0.662-0.448 1.088-0.449h13.326c0.427 0 0.79 0.149 1.090 0.449 0.298 0.299 0.448 0.662 0.448 1.088v6.664zM18.050 11.387v-5.125c0-0.139-0.050-0.259-0.152-0.361-0.1-0.102-0.22-0.152-0.36-0.151h-3.075c-0.139 0-0.259 0.050-0.361 0.151s-0.152 0.222-0.152 0.361v5.125c0 0.139 0.050 0.259 0.152 0.361s0.221 0.152 0.361 0.151h3.075c0.139 0 0.259-0.050 0.36-0.151 0.102-0.101 0.152-0.222 0.152-0.361zM28.301 11.899v14.863c0 0.427-0.15 0.79-0.449 1.089s-0.662 0.449-1.089 0.449h-21.527c-0.427 0-0.79-0.15-1.089-0.449-0.298-0.3-0.448-0.662-0.449-1.089v-21.525c0-0.427 0.149-0.79 0.449-1.088s0.663-0.449 1.089-0.45h14.864c0.427 0 0.897 0.107 1.41 0.321 0.512 0.214 0.919 0.47 1.217 0.769l4.484 4.484c0.301 0.299 0.557 0.705 0.77 1.218s0.32 0.983 0.32 1.408v0z" fill="#555555"></path>
</svg>
