<?xml version="1.0" encoding="utf-8"?>
<!-- Generator: Adobe Illustrator 15.0.0, SVG Export Plug-In . SVG Version: 6.00 Build 0)  -->
<!DOCTYPE svg PUBLIC "-//W3C//DTD SVG 1.1//EN" "http://www.w3.org/Graphics/SVG/1.1/DTD/svg11.dtd">
<svg version="1.1" id="Layer_1" xmlns="http://www.w3.org/2000/svg" xmlns:xlink="http://www.w3.org/1999/xlink" x="0px" y="0px"
	 width="14px" height="13.999px" viewBox="9 9 14 13.999" enable-background="new 9 9 14 13.999" xml:space="preserve">
<path fill="#555555" d="M12.5,21.832h7v-3.499h-7V21.832z M20.666,21.832h1.166v-8.166c0-0.084-0.029-0.202-0.091-0.351
	c-0.06-0.149-0.121-0.254-0.182-0.314l-2.562-2.562c-0.061-0.06-0.164-0.121-0.31-0.182c-0.146-0.062-0.265-0.092-0.355-0.091v3.792
	c0,0.243-0.085,0.45-0.255,0.619c-0.171,0.17-0.377,0.256-0.62,0.256h-5.25c-0.243,0-0.45-0.086-0.619-0.256
	s-0.255-0.377-0.255-0.619v-3.792h-1.167v11.666h1.167V18.04c0-0.242,0.085-0.448,0.255-0.619c0.17-0.17,0.377-0.255,0.619-0.255
	h7.583c0.242,0,0.449,0.085,0.62,0.255c0.169,0.171,0.255,0.377,0.255,0.619V21.832z M17.166,13.375v-2.917
	c0-0.079-0.028-0.147-0.086-0.206s-0.126-0.086-0.205-0.086h-1.75c-0.079,0-0.147,0.028-0.205,0.086s-0.086,0.126-0.086,0.206v2.917
	c0,0.079,0.028,0.147,0.086,0.205s0.125,0.086,0.205,0.086h1.75c0.079,0,0.147-0.028,0.205-0.086
	C17.138,13.523,17.166,13.454,17.166,13.375z M23,13.666v8.458c0,0.243-0.086,0.449-0.256,0.62c-0.17,0.17-0.377,0.255-0.619,0.255
	H9.875c-0.243,0-0.45-0.085-0.62-0.255C9.085,22.572,9,22.367,9,22.124V9.875c0-0.243,0.085-0.449,0.255-0.619
	C9.425,9.086,9.632,9,9.875,9h8.458c0.243,0,0.511,0.061,0.802,0.183c0.292,0.122,0.523,0.268,0.692,0.438l2.552,2.552
	c0.172,0.17,0.317,0.401,0.438,0.693C22.938,13.157,23,13.424,23,13.666L23,13.666z"/>
</svg>
