<?xml version="1.0" encoding="utf-8"?>
<!-- Generator: Adobe Illustrator 15.0.0, SVG Export Plug-In . SVG Version: 6.00 Build 0)  -->
<!DOCTYPE svg PUBLIC "-//W3C//DTD SVG 1.1//EN" "http://www.w3.org/Graphics/SVG/1.1/DTD/svg11.dtd">
<svg version="1.1" id="Layer_1" xmlns="http://www.w3.org/2000/svg" xmlns:xlink="http://www.w3.org/1999/xlink" x="0px" y="0px"
	 width="14px" height="14px" viewBox="9 9 14 14" enable-background="new 9 9 14 14" xml:space="preserve">
<path fill="#555555" d="M13,20.999h6V18h-6V20.999z M19.999,20.999h1v-7c0-0.071-0.024-0.172-0.078-0.3
	c-0.051-0.129-0.104-0.219-0.155-0.27l-2.195-2.197c-0.053-0.051-0.141-0.104-0.266-0.154c-0.127-0.055-0.229-0.079-0.306-0.079
	v3.252c0,0.207-0.073,0.385-0.22,0.53C17.634,14.926,17.457,15,17.249,15h-4.5c-0.209,0-0.386-0.074-0.531-0.22
	C12.073,14.635,12,14.458,12,14.25v-3.252h-1.001v10H12v-3.25c0-0.207,0.072-0.385,0.218-0.53s0.323-0.22,0.531-0.22h6.5
	c0.207,0,0.384,0.074,0.53,0.22c0.146,0.146,0.22,0.323,0.22,0.53V20.999L19.999,20.999z M16.999,13.75v-2.5
	c0-0.068-0.022-0.127-0.073-0.178c-0.05-0.051-0.107-0.074-0.176-0.074h-1.5c-0.066,0-0.126,0.023-0.176,0.074
	c-0.051,0.05-0.073,0.107-0.073,0.178v2.499c0,0.067,0.022,0.126,0.073,0.176c0.05,0.05,0.107,0.073,0.176,0.073h1.5
	c0.066,0,0.126-0.023,0.176-0.073C16.977,13.876,16.999,13.818,16.999,13.75z M22,13.999v7.251c0,0.208-0.073,0.385-0.221,0.53
	C21.635,21.926,21.458,22,21.25,22h-10.5c-0.208,0-0.387-0.073-0.531-0.22C10.074,21.633,10,21.458,10,21.25v-10.5
	c0-0.208,0.073-0.385,0.219-0.53C10.363,10.073,10.542,10,10.75,10H18c0.208,0,0.438,0.053,0.688,0.157
	c0.25,0.104,0.449,0.229,0.594,0.375l2.188,2.188c0.147,0.146,0.271,0.343,0.375,0.595C21.945,13.564,22,13.792,22,13.999L22,13.999
	z"/>
</svg>
