<?xml version="1.0" encoding="utf-8"?>
<!-- Generator: Adobe Illustrator 15.0.0, SVG Export Plug-In . SVG Version: 6.00 Build 0)  -->
<!DOCTYPE svg PUBLIC "-//W3C//DTD SVG 1.1//EN" "http://www.w3.org/Graphics/SVG/1.1/DTD/svg11.dtd">
<svg version="1.1" id="Layer_1" xmlns="http://www.w3.org/2000/svg" xmlns:xlink="http://www.w3.org/1999/xlink" x="0px" y="0px"
	 width="14px" height="14px" viewBox="9 8.999 14 14" enable-background="new 9 8.999 14 14" xml:space="preserve">
<path fill="#555555" d="M14.908,9.999c0.666,0,1.301,0.13,1.908,0.39c0.606,0.26,1.127,0.609,1.565,1.046s0.785,0.96,1.047,1.566
	c0.26,0.606,0.389,1.242,0.389,1.907c0,0.571-0.093,1.117-0.278,1.641c-0.186,0.522-0.45,0.998-0.794,1.422l3.096,3.095
	C21.946,21.171,22,21.3,22,21.452c0,0.157-0.052,0.286-0.155,0.391c-0.104,0.104-0.234,0.156-0.391,0.156
	c-0.154,0-0.282-0.053-0.388-0.158l-3.095-3.097c-0.425,0.343-0.899,0.608-1.423,0.794c-0.521,0.187-1.067,0.278-1.641,0.278
	c-0.664,0-1.301-0.129-1.906-0.389c-0.607-0.261-1.129-0.608-1.566-1.047c-0.438-0.438-0.786-0.959-1.046-1.565
	C10.131,16.208,10,15.573,10,14.908s0.129-1.301,0.39-1.907c0.26-0.607,0.609-1.13,1.046-1.566c0.438-0.438,0.959-0.786,1.566-1.046
	C13.608,10.129,14.244,10,14.908,9.999L14.908,9.999z M14.908,11.09c-0.517,0-1.011,0.102-1.482,0.304
	c-0.471,0.202-0.878,0.473-1.219,0.814c-0.341,0.34-0.611,0.747-0.814,1.219c-0.2,0.472-0.303,0.965-0.303,1.483
	c0,0.518,0.103,1.011,0.303,1.482c0.203,0.471,0.474,0.878,0.814,1.219s0.748,0.612,1.219,0.814
	c0.472,0.201,0.966,0.303,1.482,0.303c0.519,0,1.013-0.101,1.483-0.303c0.472-0.202,0.877-0.474,1.219-0.814
	c0.34-0.341,0.612-0.748,0.813-1.219c0.201-0.472,0.304-0.965,0.304-1.482c0-0.519-0.101-1.012-0.304-1.483
	c-0.201-0.472-0.474-0.877-0.813-1.219c-0.342-0.342-0.747-0.612-1.219-0.814C15.921,11.191,15.426,11.09,14.908,11.09z"/>
</svg>
