<?xml version="1.0" encoding="utf-8"?>
<!-- Generator: Adobe Illustrator 15.0.0, SVG Export Plug-In . SVG Version: 6.00 Build 0)  -->
<!DOCTYPE svg PUBLIC "-//W3C//DTD SVG 1.1//EN" "http://www.w3.org/Graphics/SVG/1.1/DTD/svg11.dtd">
<svg version="1.1" id="Layer_1" xmlns="http://www.w3.org/2000/svg" xmlns:xlink="http://www.w3.org/1999/xlink" x="0px" y="0px"
	 width="14px" height="14px" viewBox="8.999 8.999 14 14" enable-background="new 8.999 8.999 14 14" xml:space="preserve">
<path fill="#555555" d="M14.727,8.999c0.776,0,1.517,0.152,2.225,0.455c0.708,0.303,1.316,0.71,1.827,1.22s0.917,1.12,1.221,1.827
	c0.303,0.708,0.454,1.449,0.454,2.225c0,0.667-0.108,1.304-0.325,1.914c-0.217,0.61-0.526,1.164-0.927,1.66l3.613,3.61
	c0.123,0.123,0.185,0.273,0.185,0.452c0,0.183-0.061,0.334-0.182,0.455s-0.272,0.182-0.455,0.182c-0.179,0-0.329-0.062-0.452-0.185
	l-3.61-3.613c-0.496,0.4-1.05,0.71-1.66,0.927c-0.609,0.218-1.247,0.325-1.914,0.325c-0.776,0-1.518-0.151-2.225-0.454
	c-0.708-0.304-1.316-0.71-1.827-1.221s-0.917-1.119-1.22-1.827c-0.303-0.708-0.455-1.449-0.455-2.225s0.151-1.517,0.455-2.225
	c0.303-0.708,0.71-1.317,1.22-1.827c0.51-0.511,1.119-0.917,1.827-1.22S13.951,9,14.727,8.999L14.727,8.999z M14.727,10.272
	c-0.604,0-1.18,0.118-1.73,0.354c-0.55,0.235-1.024,0.552-1.422,0.95c-0.398,0.397-0.714,0.872-0.95,1.422
	c-0.235,0.55-0.353,1.126-0.353,1.73s0.118,1.18,0.353,1.73c0.236,0.55,0.552,1.024,0.95,1.422c0.397,0.398,0.872,0.715,1.422,0.95
	c0.55,0.235,1.126,0.353,1.73,0.353s1.18-0.117,1.73-0.353c0.55-0.235,1.024-0.552,1.422-0.95c0.397-0.397,0.714-0.872,0.949-1.422
	c0.235-0.55,0.354-1.126,0.354-1.73s-0.118-1.18-0.354-1.73c-0.235-0.55-0.552-1.024-0.949-1.422
	c-0.398-0.398-0.872-0.714-1.422-0.95C15.907,10.39,15.33,10.272,14.727,10.272z"/>
</svg>
