<?xml version="1.0" encoding="utf-8"?>
<!-- Generator: Adobe Illustrator 15.0.0, SVG Export Plug-In . SVG Version: 6.00 Build 0)  -->
<!DOCTYPE svg PUBLIC "-//W3C//DTD SVG 1.1//EN" "http://www.w3.org/Graphics/SVG/1.1/DTD/svg11.dtd">
<svg version="1.1" id="Layer_1" xmlns="http://www.w3.org/2000/svg" xmlns:xlink="http://www.w3.org/1999/xlink" x="0px" y="0px"
	 width="18px" height="18px" viewBox="6.392 7.309 18 18" enable-background="new 6.392 7.309 18 18" xml:space="preserve">
<path fill="#555555" d="M19.143,13.261h-10.5v9.798c0,1.242,1.007,2.25,2.25,2.25h9c1.243,0,2.25-1.008,2.25-2.25v-9.798H19.143z
	 M20.642,23.058c0,0.415-0.336,0.75-0.75,0.75h-9c-0.414,0-0.75-0.336-0.75-0.75V14.76h10.5V23.058z"/>
<path fill="#555555" d="M18.646,13.261h1.499v-2.202c0-2.071-1.678-3.75-3.75-3.75c-2.072,0-3.75,1.679-3.75,3.75v2.202h1.5H18.646z
	 M14.146,11.059c0-1.242,1.008-2.25,2.25-2.25c1.241,0,2.25,1.008,2.25,2.25v2.202h-4.5V11.059z"/>
<path fill="#555555" d="M15.975,13.261h1.377v-1.803c0-1.697-1.542-3.072-3.443-3.072s-3.442,1.375-3.442,3.072v1.803h1.377H15.975z
	 M11.843,11.458c0-1.019,0.925-1.845,2.065-1.845c1.14,0,2.066,0.826,2.066,1.845v1.803h-4.132L11.843,11.458L11.843,11.458z"/>
</svg>
