<?xml version="1.0" encoding="utf-8"?>
<!-- Generator: Adobe Illustrator 15.0.0, SVG Export Plug-In . SVG Version: 6.00 Build 0)  -->
<!DOCTYPE svg PUBLIC "-//W3C//DTD SVG 1.1//EN" "http://www.w3.org/Graphics/SVG/1.1/DTD/svg11.dtd">
<svg version="1.1" id="Layer_1" xmlns="http://www.w3.org/2000/svg" xmlns:xlink="http://www.w3.org/1999/xlink" x="0px" y="0px"
	 width="18px" height="18px" viewBox="6.393 7.309 18 18" enable-background="new 6.393 7.309 18 18" xml:space="preserve">
<path fill="#555555" d="M18.726,13.6H9.393v8.709c0,1.104,0.895,2,2,2h8c1.106,0,2-0.896,2-2V13.6H18.726z M20.06,22.309
	c0,0.368-0.299,0.667-0.667,0.667h-8c-0.368,0-0.667-0.299-0.667-0.667v-7.377h9.334V22.309z"/>
<path fill="#555555" d="M18.285,13.6h1.331v-1.958c0-1.841-1.491-3.333-3.333-3.333c-1.841,0-3.333,1.492-3.333,3.333V13.6h1.333
	H18.285z M14.285,11.642c0-1.104,0.896-1.999,2-1.999c1.103,0,2,0.896,2,1.999V13.6h-4V11.642z"/>
<path fill="#555555" d="M15.91,13.6h1.224v-1.603c0-1.509-1.37-2.731-3.06-2.731c-1.69,0-3.061,1.222-3.061,2.731V13.6h1.225H15.91z
	 M12.237,11.997c0-0.905,0.822-1.64,1.836-1.64c1.013,0,1.837,0.734,1.837,1.64V13.6h-3.674L12.237,11.997L12.237,11.997z"/>
</svg>
