<?xml version="1.0" encoding="utf-8"?>
<!-- Generator: Adobe Illustrator 15.0.0, SVG Export Plug-In . SVG Version: 6.00 Build 0)  -->
<!DOCTYPE svg PUBLIC "-//W3C//DTD SVG 1.1//EN" "http://www.w3.org/Graphics/SVG/1.1/DTD/svg11.dtd">
<svg version="1.1" id="Layer_1" xmlns="http://www.w3.org/2000/svg" xmlns:xlink="http://www.w3.org/1999/xlink" x="0px" y="0px"
	 width="14px" height="14px" viewBox="9.078 9.866 14 14" enable-background="new 9.078 9.866 14 14" xml:space="preserve">
<path fill="#555555" d="M11.473,14.695c0.389,0,0.767,0,1.167,0c0-0.068,0-0.117,0-0.165c0-0.297,0.002-0.594,0-0.891
	c-0.009-0.878,0.425-1.48,1.191-1.843c0.26-0.124,0.566-0.151,0.85-0.229c0.06-0.016,0.122-0.048,0.167-0.088
	c1.372-1.204,3.506-0.551,3.961,1.215c0.051,0.202,0.073,0.413,0.08,0.622c0.014,0.398,0.012,0.799,0,1.197
	c-0.003,0.146,0.05,0.182,0.186,0.178c0.297-0.008,0.593-0.003,0.89-0.002c0.06,0,0.121,0.006,0.187,0.01c0,0.749,0,1.483,0,2.206
	c-0.222-0.069-0.438-0.136-0.655-0.202c-0.04-0.011-0.081-0.015-0.122-0.016c-0.196-0.01-0.211,0.044-0.21-0.228
	c0.002-0.214-0.003-0.43,0.002-0.645c0.003-0.093-0.028-0.136-0.123-0.127c-0.031,0.003-0.062,0-0.091,0c-2.091,0-4.182,0-6.271,0
	c-0.211,0-0.211,0.001-0.211,0.204c-0.001,1.669,0.004,3.34-0.005,5.012c-0.004,0.333,0.195,0.566,0.555,0.553
	c0.42-0.018,0.84-0.004,1.26-0.004c0.061,0,0.121,0.008,0.185,0.009c0.021,0.357,0.111,0.679,0.34,0.987
	c-0.084,0.006-0.138,0.013-0.188,0.013c-0.549,0.002-1.096,0.002-1.644,0c-0.747-0.004-1.322-0.474-1.478-1.203
	c-0.014-0.069-0.018-0.142-0.018-0.213c-0.001-2.063-0.001-4.129-0.001-6.192C11.474,14.807,11.474,14.761,11.473,14.695
	L11.473,14.695z M16.139,11.905c0.035,0.03,0.054,0.045,0.073,0.059c0.585,0.418,0.9,0.969,0.872,1.705
	c-0.013,0.33-0.001,0.663-0.001,1c0.277,0,0.538,0,0.803,0c0-0.481,0.004-0.951-0.001-1.42c0-0.091-0.016-0.184-0.035-0.272
	C17.684,12.218,16.904,11.722,16.139,11.905L16.139,11.905z M16.175,14.678c0-0.416,0.013-0.804-0.001-1.192
	c-0.019-0.466-0.404-0.91-0.859-1.021c-0.133,0.159-0.253,0.404-0.258,0.611c-0.015,0.499-0.015,0.999-0.014,1.502
	c0,0.033,0.049,0.097,0.077,0.097C15.467,14.681,15.813,14.678,16.175,14.678z M13.568,14.668c0.151,0,0.301,0,0.452,0
	c0.04-0.699-0.062-1.387,0.11-2.081c-0.333,0.21-0.535,0.475-0.557,0.828C13.549,13.827,13.568,14.242,13.568,14.668z"/>
<path fill="#555555" d="M20.03,18.278c-0.011,0.201-0.071,0.381-0.214,0.528c-0.057,0.056-0.101,0.102-0.058,0.195
	c0.039,0.087,0.091,0.102,0.177,0.104c0.38,0.01,0.699,0.293,0.741,0.651c0.047,0.396-0.178,0.736-0.554,0.844
	c-0.058,0.018-0.123,0.022-0.182,0.021c-0.082-0.004-0.141,0.007-0.179,0.099c-0.034,0.088-0.015,0.134,0.045,0.197
	c0.298,0.319,0.293,0.784-0.006,1.078c-0.302,0.297-0.759,0.297-1.073-0.008c-0.061-0.058-0.105-0.077-0.186-0.04
	c-0.071,0.035-0.107,0.067-0.109,0.157c-0.009,0.44-0.32,0.758-0.735,0.761c-0.443,0.005-0.767-0.303-0.781-0.749
	c-0.004-0.079-0.014-0.128-0.098-0.165c-0.088-0.038-0.135-0.013-0.196,0.048c-0.323,0.298-0.776,0.289-1.075-0.014
	c-0.297-0.303-0.294-0.752,0.012-1.075c0.06-0.063,0.063-0.111,0.033-0.187c-0.03-0.077-0.074-0.103-0.159-0.104
	c-0.436-0.005-0.762-0.331-0.762-0.755c0-0.419,0.328-0.752,0.761-0.76c0.082-0.002,0.13-0.019,0.16-0.101
	c0.031-0.079,0.025-0.126-0.035-0.188c-0.307-0.321-0.307-0.772-0.008-1.073c0.301-0.301,0.756-0.307,1.076-0.01
	c0.057,0.054,0.1,0.085,0.186,0.05c0.087-0.036,0.105-0.086,0.107-0.172c0.013-0.436,0.345-0.757,0.768-0.754
	c0.417,0.004,0.743,0.33,0.75,0.754c0.001,0.078,0.011,0.13,0.093,0.167c0.095,0.042,0.146,0.012,0.212-0.051
	c0.24-0.224,0.521-0.271,0.824-0.15C19.843,17.689,20.03,17.979,20.03,18.278L20.03,18.278z M16.268,18.765
	c-0.112,0.301-0.199,0.542-0.297,0.781c-0.015,0.04-0.071,0.083-0.111,0.086c-0.142,0.011-0.287,0.002-0.429,0.008
	c-0.141,0.005-0.231,0.101-0.229,0.234c0.004,0.129,0.088,0.214,0.229,0.217c0.137,0.006,0.275,0.004,0.415,0.003
	c0.075-0.001,0.108,0.024,0.137,0.105c0.075,0.216,0.176,0.422,0.257,0.636c0.018,0.042,0.008,0.115-0.021,0.15
	c-0.08,0.098-0.18,0.181-0.267,0.274c-0.124,0.132-0.13,0.264-0.02,0.365c0.101,0.092,0.232,0.082,0.352-0.038
	c0.111-0.112,0.214-0.233,0.286-0.312c0.3,0.111,0.554,0.199,0.802,0.299c0.034,0.013,0.065,0.075,0.067,0.117
	c0.012,0.122,0.003,0.244,0.005,0.367c0.003,0.188,0.082,0.282,0.229,0.283c0.15,0.001,0.229-0.095,0.232-0.277
	c0.002-0.125-0.007-0.248,0.004-0.369c0.004-0.045,0.043-0.108,0.081-0.123c0.245-0.098,0.491-0.185,0.794-0.297
	c0.066,0.076,0.169,0.198,0.279,0.311c0.128,0.127,0.263,0.134,0.365,0.031c0.104-0.104,0.094-0.236-0.037-0.363
	c-0.112-0.108-0.235-0.209-0.308-0.272c0.112-0.309,0.199-0.558,0.298-0.802c0.017-0.039,0.077-0.079,0.121-0.083
	c0.137-0.01,0.275,0,0.414-0.005c0.149-0.005,0.232-0.088,0.232-0.227c0-0.137-0.088-0.225-0.233-0.229
	c-0.138-0.003-0.278,0.004-0.415-0.003c-0.039-0.003-0.1-0.023-0.111-0.053c-0.101-0.259-0.193-0.521-0.301-0.816
	c0.084-0.078,0.197-0.18,0.307-0.287c0.125-0.128,0.135-0.26,0.031-0.364c-0.105-0.104-0.232-0.098-0.363,0.034
	c-0.108,0.112-0.209,0.234-0.274,0.311c-0.308-0.113-0.556-0.202-0.802-0.3c-0.037-0.017-0.074-0.08-0.078-0.122
	c-0.01-0.133-0.001-0.267-0.004-0.399c-0.004-0.152-0.086-0.239-0.218-0.245c-0.138-0.007-0.234,0.084-0.242,0.238
	c-0.004,0.138,0.005,0.276-0.006,0.413c-0.002,0.04-0.035,0.101-0.067,0.112c-0.249,0.099-0.502,0.191-0.795,0.299
	c-0.078-0.083-0.183-0.2-0.296-0.311c-0.125-0.127-0.241-0.135-0.349-0.033c-0.11,0.101-0.107,0.232,0.019,0.361
	C16.064,18.586,16.186,18.688,16.268,18.765L16.268,18.765z"/>
<path fill="#555555" d="M17.677,20.876c-0.561,0.001-1.008-0.44-1.01-0.998c-0.001-0.569,0.44-1.019,1.001-1.022
	c0.568-0.001,1.014,0.44,1.02,1.007C18.691,20.428,18.244,20.875,17.677,20.876L17.677,20.876z M17.198,19.869
	c0.002,0.262,0.216,0.481,0.474,0.483c0.263,0.003,0.488-0.223,0.488-0.486s-0.212-0.478-0.476-0.479
	C17.41,19.383,17.197,19.595,17.198,19.869z"/>
</svg>
