<?xml version="1.0" encoding="utf-8"?>
<!-- Generated by IcoMoon.io -->
<!DOCTYPE svg PUBLIC "-//W3C//DTD SVG 1.1//EN" "http://www.w3.org/Graphics/SVG/1.1/DTD/svg11.dtd">
<svg version="1.1" xmlns="http://www.w3.org/2000/svg" xmlns:xlink="http://www.w3.org/1999/xlink" width="32" height="32" viewBox="0 0 32 32">
<path d="M4.228 11.281c1 0 1.974 0 3.005 0 0-0.176 0-0.302 0-0.428 0-0.762 0.005-1.527-0.001-2.291-0.024-2.258 1.091-3.806 3.062-4.74 0.671-0.321 1.459-0.389 2.188-0.589 0.151-0.040 0.313-0.123 0.429-0.225 3.529-3.099 9.021-1.419 10.19 3.126 0.129 0.519 0.19 1.061 0.208 1.601 0.031 1.024 0.027 2.054 0 3.080-0.010 0.38 0.125 0.469 0.473 0.46 0.765-0.021 1.528-0.009 2.292-0.006 0.155 0 0.311 0.015 0.479 0.025 0 1.927 0 3.818 0 5.677-0.572-0.179-1.127-0.351-1.687-0.521-0.1-0.028-0.208-0.037-0.313-0.040-0.506-0.022-0.541 0.114-0.537-0.586 0.003-0.552-0.009-1.107 0.003-1.659 0.007-0.238-0.076-0.349-0.316-0.327-0.080 0.006-0.159 0-0.237 0-5.38 0-10.757 0-16.135 0-0.543 0-0.543 0.003-0.543 0.527-0.004 4.296 0.012 8.594-0.014 12.893-0.007 0.857 0.506 1.459 1.429 1.422 1.079-0.043 2.162-0.009 3.243-0.009 0.153 0 0.309 0.016 0.475 0.025 0.054 0.915 0.284 1.742 0.874 2.538-0.216 0.016-0.352 0.031-0.485 0.031-1.41 0.003-2.818 0.007-4.229 0-1.922-0.009-3.403-1.218-3.801-3.096-0.036-0.179-0.048-0.364-0.048-0.548-0.003-5.311-0.003-10.624-0.003-15.935-0-0.117-0-0.237-0-0.404zM16.233 4.099c0.092 0.077 0.142 0.117 0.191 0.151 1.505 1.076 2.319 2.494 2.245 4.388-0.032 0.851-0.003 1.705-0.003 2.575 0.714 0 1.387 0 2.068 0 0-1.24 0.007-2.445-0.003-3.654-0.003-0.235-0.040-0.472-0.090-0.701-0.431-1.951-2.436-3.229-4.409-2.76zM16.329 11.235c0-1.070 0.031-2.070-0.006-3.068-0.045-1.199-1.040-2.346-2.208-2.628-0.345 0.407-0.654 1.036-0.666 1.57-0.037 1.286-0.037 2.572-0.034 3.864 0 0.086 0.127 0.249 0.2 0.249 0.891 0.019 1.781 0.013 2.714 0.013zM9.621 11.21c0.389 0 0.774 0 1.165 0 0.103-1.797-0.16-3.571 0.285-5.354-0.857 0.537-1.379 1.221-1.434 2.131-0.066 1.061-0.016 2.128-0.016 3.223z" fill="#555555"></path>
<path d="M26.249 20.498c-0.026 0.518-0.186 0.983-0.551 1.36-0.147 0.145-0.258 0.262-0.15 0.499 0.103 0.225 0.237 0.265 0.455 0.271 0.978 0.022 1.801 0.753 1.909 1.672 0.12 1.020-0.456 1.899-1.426 2.174-0.15 0.043-0.312 0.059-0.467 0.055-0.21-0.007-0.362 0.018-0.46 0.256-0.088 0.225-0.040 0.345 0.115 0.509 0.77 0.82 0.755 2.017-0.013 2.772-0.777 0.764-1.954 0.764-2.764-0.018-0.156-0.148-0.272-0.198-0.475-0.102-0.183 0.089-0.279 0.173-0.283 0.401-0.019 1.132-0.823 1.952-1.892 1.958-1.141 0.012-1.971-0.778-2.011-1.928-0.008-0.203-0.035-0.33-0.25-0.425-0.226-0.097-0.347-0.031-0.508 0.12-0.832 0.767-1.998 0.749-2.766-0.031-0.764-0.777-0.76-1.934 0.028-2.766 0.154-0.163 0.163-0.286 0.086-0.481-0.080-0.2-0.193-0.265-0.41-0.268-1.121-0.013-1.958-0.852-1.958-1.943 0-1.079 0.842-1.934 1.955-1.955 0.211-0.004 0.336-0.049 0.413-0.259 0.080-0.201 0.064-0.321-0.090-0.481-0.788-0.829-0.788-1.989-0.021-2.763 0.771-0.773 1.945-0.789 2.769-0.024 0.145 0.135 0.256 0.219 0.475 0.13 0.225-0.096 0.272-0.222 0.277-0.444 0.034-1.119 0.888-1.946 1.977-1.937 1.073 0.007 1.915 0.845 1.93 1.937 0.002 0.201 0.026 0.333 0.24 0.429 0.244 0.108 0.372 0.031 0.545-0.13 0.619-0.574 1.341-0.698 2.122-0.385 0.714 0.283 1.198 1.030 1.2 1.797zM16.566 21.75c-0.288 0.771-0.514 1.397-0.762 2.011-0.039 0.102-0.183 0.216-0.288 0.222-0.366 0.028-0.737 0.003-1.105 0.016-0.361 0.013-0.592 0.262-0.583 0.607 0.008 0.333 0.222 0.549 0.583 0.558 0.355 0.016 0.712 0.010 1.067 0.007 0.198-0.003 0.281 0.064 0.355 0.271 0.191 0.555 0.451 1.086 0.66 1.637 0.043 0.108 0.020 0.296-0.053 0.386-0.206 0.252-0.463 0.465-0.686 0.706-0.319 0.343-0.333 0.678-0.051 0.938 0.26 0.24 0.601 0.213 0.905-0.096 0.287-0.289 0.55-0.601 0.736-0.802 0.771 0.281 1.424 0.509 2.063 0.765 0.090 0.034 0.17 0.194 0.176 0.299 0.025 0.315 0.006 0.633 0.010 0.947 0.009 0.484 0.212 0.725 0.59 0.727 0.386 0.004 0.59-0.243 0.597-0.715 0.004-0.318-0.017-0.636 0.010-0.947 0.010-0.114 0.11-0.278 0.207-0.315 0.629-0.252 1.267-0.475 2.043-0.762 0.175 0.195 0.434 0.509 0.72 0.799 0.33 0.326 0.676 0.345 0.938 0.080 0.267-0.268 0.242-0.607-0.092-0.935-0.292-0.28-0.609-0.538-0.796-0.703 0.291-0.792 0.515-1.433 0.768-2.063 0.040-0.099 0.197-0.201 0.308-0.21 0.354-0.024 0.712 0 1.067-0.012 0.387-0.012 0.6-0.229 0.6-0.583-0.001-0.352-0.227-0.577-0.603-0.586-0.355-0.009-0.713 0.009-1.067-0.009-0.102-0.006-0.259-0.062-0.286-0.135-0.261-0.663-0.498-1.339-0.774-2.1 0.215-0.2 0.509-0.463 0.79-0.74 0.325-0.327 0.35-0.669 0.083-0.934-0.271-0.268-0.602-0.253-0.935 0.086-0.283 0.29-0.538 0.607-0.709 0.802-0.792-0.294-1.43-0.521-2.060-0.774-0.097-0.040-0.191-0.201-0.201-0.312-0.025-0.342-0.003-0.685-0.012-1.030-0.010-0.388-0.219-0.613-0.558-0.629-0.356-0.016-0.604 0.216-0.623 0.614-0.012 0.355 0.010 0.712-0.015 1.064-0.006 0.104-0.091 0.259-0.176 0.29-0.641 0.256-1.292 0.49-2.046 0.768-0.198-0.213-0.468-0.515-0.757-0.802-0.324-0.326-0.622-0.345-0.899-0.086-0.283 0.262-0.276 0.601 0.049 0.931 0.289 0.29 0.6 0.553 0.813 0.75z" fill="#555555"></path>
<path d="M20.193 27.181c-1.443 0.006-2.594-1.132-2.597-2.566-0.006-1.465 1.132-2.624 2.577-2.631 1.457-0.006 2.607 1.132 2.619 2.59 0.011 1.453-1.139 2.606-2.599 2.606zM18.961 24.594c0.001 0.672 0.554 1.236 1.216 1.245 0.677 0.007 1.261-0.573 1.258-1.254 0-0.679-0.545-1.228-1.224-1.234-0.706-0.009-1.252 0.536-1.25 1.243z" fill="#555555"></path>
</svg>
