<?xml version="1.0" encoding="utf-8"?>
<!-- Generated by IcoMoon.io -->
<!DOCTYPE svg PUBLIC "-//W3C//DTD SVG 1.1//EN" "http://www.w3.org/Graphics/SVG/1.1/DTD/svg11.dtd">
<svg version="1.1" xmlns="http://www.w3.org/2000/svg" xmlns:xlink="http://www.w3.org/1999/xlink" width="32" height="32" viewBox="0 0 32 32">
<path d="M21.66 11.214h-17.549v16.376c0 2.077 1.684 3.761 3.76 3.761h15.042c2.077 0 3.76-1.684 3.76-3.761v-16.376h-5.013zM24.166 27.589c0 0.693-0.561 1.253-1.254 1.253h-15.042c-0.692 0-1.254-0.561-1.254-1.253v-13.869h17.55v13.869z" fill="#555555"></path>
<path d="M20.831 11.214h2.507v-3.681c0-3.461-2.805-6.267-6.268-6.267s-6.268 2.806-6.268 6.267v3.681h2.507zM13.31 7.533c0-2.076 1.685-3.76 3.76-3.76s3.761 1.684 3.761 3.76v3.681h-7.521v-3.681z" fill="#555555"></path>
<path d="M16.366 11.214h2.301v-3.013c0-2.837-2.576-5.135-5.754-5.135s-5.754 2.298-5.754 5.135v3.013h2.302zM9.46 8.201c0-1.702 1.546-3.083 3.452-3.083s3.453 1.38 3.453 3.083v3.013h-6.906v-3.013z" fill="#555555"></path>
</svg>
