<?xml version="1.0" encoding="utf-8"?>
<!-- Generator: Adobe Illustrator 18.1.1, SVG Export Plug-In . SVG Version: 6.00 Build 0)  -->
<svg version="1.1" id="Layer_1" xmlns="http://www.w3.org/2000/svg" xmlns:xlink="http://www.w3.org/1999/xlink" x="0px" y="0px"
	 width="48px" height="48px" viewBox="-198.6 184.3 48 48" enable-background="new -198.6 184.3 48 48" xml:space="preserve">
<path fill="#555555" d="M-165,200.5h-26.8v25c0,3.2,2.6,5.8,5.8,5.8h23c3.2,0,5.8-2.6,5.8-5.8v-25H-165z M-161.2,225.6
	c0,1.1-0.9,1.9-1.9,1.9h-23c-1.1,0-1.9-0.9-1.9-1.9v-21.2h26.8V225.6z"/>
<path fill="#555555" d="M-166.3,200.5h3.8v-5.6c0-5.3-4.3-9.6-9.6-9.6c-5.3,0-9.6,4.3-9.6,9.6v5.6h3.8H-166.3z M-177.8,194.9
	c0-3.2,2.6-5.7,5.8-5.7c3.2,0,5.8,2.6,5.8,5.7v5.6h-11.5V194.9z"/>
<path fill="#555555" d="M-173.1,200.5h3.5v-4.6c0-4.3-3.9-7.9-8.8-7.9s-8.8,3.5-8.8,7.9v4.6h3.5H-173.1z M-183.7,195.9
	c0-2.6,2.4-4.7,5.3-4.7c2.9,0,5.3,2.1,5.3,4.7v4.6h-10.6L-183.7,195.9L-183.7,195.9z"/>
</svg>
