<?xml version="1.0" encoding="utf-8"?>
<!-- Generator: Adobe Illustrator 15.0.0, SVG Export Plug-In . SVG Version: 6.00 Build 0)  -->
<!DOCTYPE svg PUBLIC "-//W3C//DTD SVG 1.1//EN" "http://www.w3.org/Graphics/SVG/1.1/DTD/svg11.dtd">
<svg version="1.1" id="Layer_1" xmlns="http://www.w3.org/2000/svg" xmlns:xlink="http://www.w3.org/1999/xlink" x="0px" y="0px"
	 width="14px" height="14px" viewBox="9.078 9.867 14 14" enable-background="new 9.078 9.867 14 14" xml:space="preserve">
<path fill="#555555" d="M10.705,14.334c0.453,0,0.895,0,1.362,0c0-0.08,0-0.137,0-0.194c0-0.345,0.002-0.692,0-1.039
	c-0.011-1.024,0.495-1.726,1.389-2.149c0.304-0.146,0.661-0.177,0.992-0.268c0.069-0.018,0.142-0.056,0.195-0.102
	c1.6-1.405,4.09-0.643,4.621,1.417c0.059,0.235,0.086,0.481,0.094,0.726c0.015,0.464,0.013,0.931,0,1.396
	c-0.005,0.172,0.057,0.213,0.215,0.208c0.347-0.009,0.692-0.004,1.039-0.002c0.07,0,0.141,0.007,0.217,0.011
	c0,0.874,0,1.731,0,2.574c-0.259-0.081-0.511-0.159-0.765-0.236c-0.046-0.013-0.094-0.017-0.142-0.019
	c-0.229-0.01-0.246,0.052-0.244-0.265c0.002-0.25-0.004-0.502,0.002-0.752c0.003-0.108-0.034-0.158-0.144-0.148
	c-0.036,0.003-0.072,0-0.107,0c-2.439,0-4.877,0-7.316,0c-0.246,0-0.246,0.001-0.246,0.239c-0.001,1.947,0.005,3.896-0.006,5.846
	c-0.003,0.389,0.229,0.661,0.648,0.645c0.489-0.02,0.98-0.004,1.47-0.004c0.07,0,0.14,0.008,0.215,0.011
	c0.025,0.416,0.129,0.79,0.396,1.151c-0.098,0.007-0.16,0.015-0.22,0.015c-0.64,0.001-1.278,0.002-1.917,0
	c-0.872-0.005-1.543-0.553-1.724-1.404c-0.016-0.081-0.021-0.165-0.021-0.248c-0.001-2.408-0.001-4.817-0.001-7.226
	C10.706,14.464,10.706,14.41,10.705,14.334L10.705,14.334z M16.148,11.078c0.042,0.035,0.064,0.053,0.086,0.068
	c0.683,0.488,1.051,1.131,1.018,1.99c-0.015,0.386-0.002,0.773-0.002,1.167c0.324,0,0.629,0,0.938,0
	c0-0.562,0.003-1.109-0.002-1.657c-0.001-0.106-0.018-0.214-0.041-0.318C17.951,11.444,17.042,10.864,16.148,11.078L16.148,11.078z
	 M16.192,14.313c0-0.485,0.014-0.938-0.003-1.391c-0.021-0.543-0.471-1.063-1.001-1.191c-0.156,0.185-0.296,0.47-0.302,0.712
	c-0.017,0.583-0.017,1.166-0.016,1.752c0,0.039,0.058,0.113,0.091,0.113C15.365,14.316,15.769,14.313,16.192,14.313z M13.15,14.302
	c0.176,0,0.351,0,0.528,0c0.046-0.815-0.073-1.619,0.129-2.428c-0.389,0.244-0.625,0.554-0.65,0.966
	C13.127,13.321,13.15,13.805,13.15,14.302z"/>
<path fill="#555555" d="M20.689,18.513c-0.012,0.235-0.084,0.445-0.249,0.617c-0.067,0.065-0.118,0.118-0.068,0.227
	c0.046,0.102,0.107,0.12,0.206,0.122c0.443,0.011,0.817,0.342,0.865,0.759c0.055,0.462-0.206,0.86-0.646,0.985
	c-0.067,0.02-0.142,0.026-0.211,0.025c-0.096-0.004-0.165,0.008-0.209,0.115c-0.04,0.103-0.018,0.157,0.052,0.231
	c0.349,0.372,0.343,0.914-0.006,1.257c-0.353,0.346-0.886,0.346-1.253-0.009c-0.07-0.066-0.123-0.09-0.216-0.046
	c-0.083,0.04-0.126,0.078-0.128,0.183c-0.009,0.513-0.373,0.884-0.857,0.887c-0.518,0.006-0.895-0.353-0.912-0.874
	c-0.004-0.092-0.016-0.149-0.113-0.192c-0.103-0.044-0.158-0.015-0.23,0.055c-0.377,0.348-0.906,0.339-1.254-0.015
	c-0.346-0.353-0.344-0.877,0.013-1.254c0.07-0.074,0.074-0.13,0.039-0.218c-0.036-0.091-0.087-0.12-0.186-0.122
	c-0.508-0.006-0.888-0.387-0.888-0.881c0-0.489,0.382-0.877,0.887-0.887c0.096-0.002,0.152-0.021,0.187-0.117
	c0.036-0.091,0.029-0.146-0.041-0.218c-0.357-0.376-0.357-0.902-0.009-1.253c0.35-0.351,0.882-0.357,1.256-0.011
	c0.065,0.062,0.116,0.1,0.215,0.059c0.102-0.044,0.123-0.101,0.126-0.201c0.015-0.508,0.402-0.883,0.896-0.879
	c0.486,0.004,0.868,0.384,0.875,0.879c0.001,0.091,0.012,0.151,0.108,0.194c0.111,0.049,0.169,0.015,0.247-0.059
	c0.281-0.261,0.608-0.316,0.962-0.175C20.47,17.827,20.689,18.165,20.689,18.513L20.689,18.513z M16.299,19.081
	c-0.131,0.35-0.233,0.633-0.346,0.911c-0.018,0.047-0.083,0.098-0.13,0.101c-0.166,0.013-0.334,0.002-0.501,0.008
	c-0.164,0.006-0.269,0.118-0.265,0.274c0.004,0.151,0.101,0.25,0.265,0.254c0.161,0.007,0.323,0.004,0.484,0.003
	c0.089-0.001,0.127,0.028,0.161,0.123c0.087,0.252,0.205,0.492,0.299,0.742c0.02,0.049,0.009,0.134-0.024,0.175
	c-0.094,0.114-0.21,0.211-0.311,0.32c-0.145,0.155-0.151,0.308-0.023,0.426c0.118,0.108,0.272,0.096,0.41-0.044
	c0.13-0.131,0.25-0.272,0.334-0.364c0.35,0.128,0.646,0.231,0.936,0.348c0.04,0.015,0.076,0.088,0.079,0.136
	c0.012,0.143,0.003,0.286,0.005,0.429c0.004,0.22,0.096,0.329,0.268,0.33c0.175,0.002,0.268-0.11,0.271-0.324
	c0.002-0.145-0.008-0.289,0.005-0.43c0.004-0.052,0.05-0.126,0.094-0.143c0.285-0.114,0.574-0.216,0.926-0.346
	c0.079,0.088,0.197,0.23,0.326,0.362c0.15,0.147,0.307,0.156,0.426,0.036c0.121-0.122,0.109-0.275-0.042-0.424
	c-0.132-0.127-0.275-0.244-0.36-0.318c0.132-0.359,0.233-0.65,0.348-0.936c0.019-0.045,0.09-0.091,0.141-0.096
	c0.16-0.011,0.322,0,0.483-0.005c0.175-0.006,0.271-0.104,0.271-0.265c0-0.16-0.103-0.262-0.273-0.266
	c-0.16-0.004-0.323,0.004-0.483-0.004c-0.046-0.003-0.117-0.028-0.129-0.062c-0.119-0.301-0.227-0.607-0.352-0.952
	c0.098-0.091,0.23-0.21,0.358-0.335c0.146-0.149,0.158-0.304,0.037-0.424c-0.123-0.122-0.272-0.115-0.424,0.039
	c-0.128,0.131-0.244,0.274-0.321,0.363c-0.359-0.133-0.648-0.236-0.935-0.351c-0.044-0.019-0.086-0.092-0.091-0.142
	c-0.012-0.155-0.001-0.311-0.005-0.467c-0.005-0.177-0.1-0.278-0.254-0.285c-0.161-0.008-0.273,0.098-0.282,0.278
	c-0.005,0.161,0.005,0.322-0.007,0.482c-0.003,0.047-0.041,0.117-0.079,0.131c-0.291,0.116-0.586,0.223-0.928,0.349
	c-0.09-0.097-0.213-0.233-0.344-0.363c-0.147-0.148-0.282-0.157-0.408-0.039c-0.128,0.118-0.125,0.272,0.022,0.422
	C16.062,18.873,16.203,18.992,16.299,19.081L16.299,19.081z"/>
<path fill="#555555" d="M17.944,21.544c-0.655,0.002-1.177-0.514-1.178-1.164c-0.003-0.664,0.513-1.189,1.168-1.193
	c0.661-0.002,1.182,0.514,1.188,1.175C19.127,21.021,18.605,21.543,17.944,21.544L17.944,21.544z M17.385,20.37
	c0.001,0.305,0.252,0.561,0.552,0.564c0.307,0.003,0.571-0.26,0.57-0.568c0-0.308-0.247-0.557-0.555-0.56
	C17.632,19.803,17.384,20.05,17.385,20.37z"/>
</svg>
