<?xml version="1.0" encoding="utf-8"?>
<!-- Generator: Adobe Illustrator 16.0.3, SVG Export Plug-In . SVG Version: 6.00 Build 0)  -->
<!DOCTYPE svg PUBLIC "-//W3C//DTD SVG 1.1//EN" "http://www.w3.org/Graphics/SVG/1.1/DTD/svg11.dtd">
<svg version="1.1" id="Layer_1" xmlns="http://www.w3.org/2000/svg" xmlns:xlink="http://www.w3.org/1999/xlink" x="0px" y="0px"
	 width="60px" height="60px" viewBox="-23 -23 60 60" enable-background="new -23 -23 60 60" xml:space="preserve">
<path d="M-13.362-21h40.724c2.105,0,3.91,0.748,5.405,2.233c1.485,1.495,2.233,3.3,2.233,5.4v28c0,2.105-0.748,3.905-2.233,5.396
	c-1.495,1.49-3.3,2.237-5.405,2.237H7L-10.819,35V22.267h-2.543c-2.105,0-3.91-0.738-5.396-2.232
	c-1.5-1.486-2.242-3.291-2.242-5.396v-28c0-2.105,0.743-3.906,2.233-5.396C-17.272-20.252-15.468-21-13.362-21z M27.361-15.91
	h-40.724c-0.702,0-1.303,0.251-1.805,0.748c-0.492,0.497-0.747,1.098-0.747,1.8v28c0,0.702,0.255,1.304,0.747,1.805
	c0.492,0.497,1.094,0.748,1.805,0.748h7.629v7.93l11.102-7.93h21.993c0.702,0,1.304-0.256,1.805-0.748
	c0.492-0.496,0.743-1.098,0.743-1.805v-28c0-0.702-0.251-1.304-0.743-1.8C28.665-15.659,28.072-15.91,27.361-15.91L27.361-15.91z"/>
</svg>
