<?xml version="1.0" encoding="utf-8"?>
<!-- Generator: Adobe Illustrator 15.0.0, SVG Export Plug-In . SVG Version: 6.00 Build 0)  -->
<!DOCTYPE svg PUBLIC "-//W3C//DTD SVG 1.1//EN" "http://www.w3.org/Graphics/SVG/1.1/DTD/svg11.dtd">
<svg version="1.1" id="Layer_1" xmlns="http://www.w3.org/2000/svg" xmlns:xlink="http://www.w3.org/1999/xlink" x="0px" y="0px"
	 width="14px" height="14px" viewBox="9 9 14 14" enable-background="new 9 9 14 14" xml:space="preserve">
<path fill="#555555" d="M10.909,9h10.182c0.526,0,0.977,0.187,1.35,0.559c0.373,0.373,0.56,0.823,0.56,1.35v10.182
	c0,0.526-0.187,0.977-0.56,1.35S21.617,23,21.091,23H10.909c-0.527,0-0.977-0.187-1.35-0.56C9.186,22.067,9,21.617,9,21.091V10.909
	c0-0.527,0.187-0.977,0.559-1.35C9.932,9.186,10.382,9,10.909,9z M21.091,10.272H10.909c-0.176,0-0.326,0.062-0.45,0.187
	s-0.187,0.274-0.187,0.45v10.182c0,0.176,0.062,0.326,0.187,0.45c0.125,0.125,0.274,0.187,0.45,0.187h10.182
	c0.176,0,0.326-0.062,0.45-0.187c0.125-0.124,0.187-0.274,0.187-0.45V10.909c0-0.176-0.062-0.326-0.187-0.45
	C21.417,10.334,21.267,10.272,21.091,10.272z M16,12.818c0.176,0,0.326,0.062,0.451,0.187c0.124,0.125,0.187,0.274,0.187,0.45v1.909
	h1.909c0.176,0,0.325,0.062,0.45,0.187c0.124,0.125,0.187,0.274,0.187,0.45c0,0.176-0.062,0.326-0.187,0.45
	c-0.125,0.125-0.274,0.187-0.45,0.187h-1.909v1.909c0,0.176-0.062,0.326-0.187,0.45c-0.125,0.125-0.275,0.187-0.451,0.187
	c-0.175,0-0.325-0.062-0.45-0.187c-0.125-0.124-0.187-0.274-0.187-0.45v-1.909h-1.909c-0.176,0-0.326-0.062-0.45-0.187
	c-0.125-0.124-0.187-0.274-0.187-0.45c0-0.175,0.062-0.325,0.187-0.45s0.274-0.187,0.45-0.187h1.909v-1.909
	c0-0.176,0.062-0.326,0.187-0.45S15.824,12.818,16,12.818z"/>
</svg>
