<?xml version="1.0" encoding="utf-8"?>
<!-- Generator: Adobe Illustrator 15.0.0, SVG Export Plug-In . SVG Version: 6.00 Build 0)  -->
<!DOCTYPE svg PUBLIC "-//W3C//DTD SVG 1.1//EN" "http://www.w3.org/Graphics/SVG/1.1/DTD/svg11.dtd">
<svg version="1.1" id="Layer_1" xmlns="http://www.w3.org/2000/svg" xmlns:xlink="http://www.w3.org/1999/xlink" x="0px" y="0px"
	 width="14px" height="14px" viewBox="9 9 14 14" enable-background="new 9 9 14 14" xml:space="preserve">
<path fill="#555555" d="M11.637,10h8.727c0.451,0,0.838,0.161,1.157,0.479C21.841,10.799,22,11.185,22,11.637v8.727
	c0,0.451-0.159,0.838-0.479,1.157C21.201,21.841,20.814,22,20.363,22h-8.727c-0.452,0-0.838-0.161-1.157-0.48
	C10.159,21.199,10,20.814,10,20.363v-8.727c0-0.452,0.161-0.838,0.479-1.157C10.799,10.159,11.185,10,11.637,10z M20.363,11.09
	h-8.727c-0.151,0-0.279,0.054-0.386,0.161s-0.161,0.234-0.161,0.386v8.727c0,0.151,0.054,0.279,0.161,0.386
	c0.107,0.107,0.234,0.161,0.386,0.161h8.727c0.151,0,0.279-0.054,0.386-0.161c0.107-0.106,0.161-0.234,0.161-0.386v-8.727
	c0-0.151-0.054-0.279-0.161-0.386C20.643,11.144,20.515,11.09,20.363,11.09z M16,13.273c0.15,0,0.279,0.053,0.387,0.159
	c0.106,0.107,0.161,0.235,0.161,0.386v1.637h1.635c0.151,0,0.279,0.053,0.386,0.16c0.106,0.106,0.16,0.235,0.16,0.386
	s-0.053,0.279-0.16,0.386c-0.106,0.107-0.234,0.161-0.386,0.161h-1.635v1.635c0,0.151-0.054,0.28-0.161,0.386
	c-0.107,0.107-0.236,0.16-0.387,0.16c-0.149,0-0.278-0.053-0.386-0.16c-0.107-0.105-0.16-0.234-0.16-0.386v-1.635h-1.636
	c-0.151,0-0.28-0.054-0.386-0.161c-0.107-0.106-0.161-0.235-0.161-0.386s0.054-0.279,0.161-0.386c0.106-0.107,0.234-0.16,0.386-0.16
	h1.636v-1.637c0-0.15,0.053-0.279,0.16-0.386S15.85,13.273,16,13.273z"/>
</svg>
