<?xml version="1.0" encoding="utf-8"?>
<!-- Generator: Adobe Illustrator 15.0.0, SVG Export Plug-In . SVG Version: 6.00 Build 0)  -->
<!DOCTYPE svg PUBLIC "-//W3C//DTD SVG 1.1//EN" "http://www.w3.org/Graphics/SVG/1.1/DTD/svg11.dtd">
<svg version="1.1" id="Layer_1" xmlns="http://www.w3.org/2000/svg" xmlns:xlink="http://www.w3.org/1999/xlink" x="0px" y="0px"
	 width="14px" height="14px" viewBox="9 9.001 14 14" enable-background="new 9 9.001 14 14" xml:space="preserve">
<path fill="#555555" d="M15.454,10.001h4.909c0.451,0,0.837,0.161,1.157,0.479c0.319,0.32,0.479,0.706,0.479,1.158v4.907
	c0,0.452-0.159,0.839-0.479,1.158c-0.32,0.319-0.706,0.479-1.158,0.479h-2.181v2.181c0,0.451-0.161,0.837-0.48,1.157
	c-0.318,0.319-0.704,0.48-1.157,0.48h-4.905c-0.452,0-0.838-0.161-1.157-0.48c-0.319-0.321-0.48-0.707-0.48-1.158v-4.908
	c0-0.452,0.161-0.838,0.479-1.156c0.32-0.32,0.706-0.479,1.158-0.479h2.18v-2.181c0-0.452,0.16-0.838,0.48-1.158
	C14.617,10.16,15.003,10.001,15.454,10.001z M13.818,16.545v-1.637h-2.18c-0.151,0-0.28,0.054-0.387,0.161
	c-0.105,0.107-0.159,0.234-0.159,0.386v4.907c0,0.152,0.053,0.28,0.159,0.387c0.107,0.106,0.235,0.16,0.387,0.16h4.907
	c0.15,0,0.278-0.054,0.386-0.16c0.106-0.106,0.16-0.234,0.16-0.387v-2.18h-1.636c-0.452,0-0.837-0.16-1.157-0.479
	C13.979,17.383,13.819,16.997,13.818,16.545L13.818,16.545z M20.363,11.091h-4.909c-0.15,0-0.278,0.054-0.385,0.161
	c-0.106,0.106-0.161,0.234-0.161,0.386v4.908c0,0.15,0.054,0.278,0.161,0.386c0.107,0.106,0.234,0.16,0.385,0.16h4.909
	c0.15,0,0.279-0.053,0.385-0.16c0.107-0.107,0.161-0.235,0.161-0.386v-4.908c0-0.151-0.053-0.279-0.161-0.386
	C20.643,11.145,20.514,11.091,20.363,11.091z"/>
</svg>
