<?xml version="1.0" encoding="utf-8"?>
<!-- Generator: Adobe Illustrator 15.0.0, SVG Export Plug-In . SVG Version: 6.00 Build 0)  -->
<!DOCTYPE svg PUBLIC "-//W3C//DTD SVG 1.1//EN" "http://www.w3.org/Graphics/SVG/1.1/DTD/svg11.dtd">
<svg version="1.1" id="Layer_1" xmlns="http://www.w3.org/2000/svg" xmlns:xlink="http://www.w3.org/1999/xlink" x="0px" y="0px"
	 width="14px" height="14px" viewBox="9 9 14 14" enable-background="new 9 9 14 14" xml:space="preserve">
<path fill="#555555" d="M15.364,9h5.728c0.526,0,0.977,0.187,1.35,0.559C22.814,9.932,23,10.382,23,10.909v5.727
	c0,0.527-0.186,0.978-0.559,1.35c-0.373,0.373-0.823,0.56-1.35,0.56h-2.546v2.546c0,0.526-0.187,0.977-0.56,1.35
	c-0.372,0.373-0.822,0.56-1.35,0.56H10.91c-0.527,0-0.977-0.187-1.35-0.56C9.187,22.067,9,21.617,9,21.091v-5.728
	c0-0.527,0.187-0.977,0.559-1.35c0.373-0.373,0.823-0.559,1.35-0.559h2.545v-2.545c0-0.527,0.187-0.977,0.559-1.35
	C14.387,9.186,14.837,9,15.364,9z M13.455,16.636v-1.909H10.91c-0.176,0-0.326,0.062-0.45,0.187s-0.187,0.274-0.187,0.45v5.727
	c0,0.176,0.062,0.326,0.187,0.45c0.125,0.125,0.274,0.187,0.45,0.187h5.727c0.176,0,0.325-0.062,0.45-0.187
	c0.124-0.124,0.187-0.274,0.187-0.45v-2.545h-1.909c-0.527,0-0.977-0.187-1.35-0.56S13.456,17.163,13.455,16.636L13.455,16.636z
	 M21.092,10.272h-5.728c-0.176,0-0.326,0.062-0.45,0.187s-0.187,0.274-0.187,0.45v5.728c0,0.176,0.062,0.325,0.187,0.45
	c0.125,0.124,0.274,0.187,0.45,0.187h5.728c0.176,0,0.325-0.062,0.449-0.187c0.125-0.125,0.188-0.274,0.188-0.45v-5.728
	c0-0.176-0.062-0.326-0.188-0.45C21.417,10.334,21.268,10.272,21.092,10.272z"/>
</svg>
