<?xml version="1.0" encoding="utf-8"?>
<!-- Generator: Adobe Illustrator 19.0.1, SVG Export Plug-In . SVG Version: 6.00 Build 0)  -->
<svg version="1.0" id="Layer_1" xmlns="http://www.w3.org/2000/svg" xmlns:xlink="http://www.w3.org/1999/xlink" x="0px" y="0px"
	 width="12px" height="12px" viewBox="-582 585.9 12 12" enable-background="new -582 585.9 12 12" xml:space="preserve">
<path fill="#555555" d="M-571.7,591.5c0-0.3-0.1-0.4-0.3-0.5s-0.4-0.3-0.5-0.3h-2.2c0-0.3,0.1-0.5,0.3-1c0.3-0.4,0.3-0.8,0.3-1
	c0-0.4-0.1-0.8-0.3-0.9c-0.1-0.3-0.4-0.3-0.8-0.3c-0.1,0.1-0.1,0.3-0.3,0.5c0,0.3-0.1,0.5-0.3,0.8s-0.3,0.5-0.4,0.6
	c-0.1,0.1-0.3,0.3-0.5,0.5c0,0,0,0.1-0.1,0.1c-0.1,0.1-0.1,0.1-0.3,0.3c0,0.1-0.1,0.1-0.3,0.3s-0.1,0.3-0.3,0.3
	c-0.1,0.1-0.1,0.1-0.3,0.3s-0.1,0.1-0.3,0.1s-0.1,0-0.3,0h-2.3v3.9h2.3c0,0,0.1,0,0.3,0s0.1,0,0.3,0c0,0,0.1,0,0.3,0.1
	c0.1,0,0.1,0,0.3,0.1c0,0,0.1,0,0.3,0.1c0.1,0,0.1,0,0.1,0.1c0.9,0.3,1.5,0.5,2.2,0.5h0.8c0.8,0,1-0.4,1-1c0-0.1-0.1-0.3-0.1-0.4
	c0.1-0.1,0.4-0.1,0.4-0.4c0.1-0.1,0.1-0.3,0.1-0.5c0-0.3-0.1-0.3-0.3-0.4c0.3-0.3,0.6-0.5,0.6-0.8c0-0.1,0-0.3,0-0.4
	c0-0.1-0.3-0.3-0.4-0.3c0.1,0,0.5-0.1,0.5-0.3C-571.7,591.9-571.7,591.6-571.7,591.5L-571.7,591.5z M-571.1,591.5
	c0,0.4-0.1,0.8-0.3,1c0,0.1,0.1,0.3,0.1,0.4c0,0.4-0.1,0.6-0.3,0.9c0,0.1,0.1,0.1,0.1,0.3c0,0.4-0.4,0.8-0.6,1.1c0,0.6,0,1-0.4,1.4
	c-0.4,0.4-0.8,0.4-1.3,0.4h-0.8c-0.4,0-0.8,0-1.1-0.1c-0.4-0.1-0.9-0.3-1.4-0.4c-0.5-0.1-0.8-0.3-0.9-0.3h-2.4
	c-0.3,0-0.4-0.1-0.5-0.3s-0.1-0.3-0.1-0.4v-3.9c0-0.3,0-0.3,0.1-0.5c0.1-0.1,0.3-0.3,0.5-0.3h2.3c0.1-0.1,0.5-0.5,0.9-1
	c0.3-0.3,0.4-0.5,0.6-0.8c0.1-0.1,0.3-0.4,0.3-0.6s0.1-0.5,0.1-0.8c0.1-0.3,0.1-0.5,0.3-0.6s0.4-0.1,0.5-0.1c0.4,0,0.6,0.1,0.9,0.3
	s0.4,0.4,0.6,0.8c0.1,0.3,0.3,0.5,0.3,1c0,0.4-0.1,0.9-0.4,1.3h1.1c0.4,0,0.6,0,1,0.4C-571.2,590.7-571.1,591.1-571.1,591.5
	L-571.1,591.5z"/>
</svg>
