<?xml version="1.0" encoding="utf-8"?>
<!-- Generated by IcoMoon.io -->
<!DOCTYPE svg PUBLIC "-//W3C//DTD SVG 1.1//EN" "http://www.w3.org/Graphics/SVG/1.1/DTD/svg11.dtd">
<svg version="1.1" xmlns="http://www.w3.org/2000/svg" xmlns:xlink="http://www.w3.org/1999/xlink" width="32" height="32" viewBox="0 0 32 32">
<path d="M28.78 14.679c0-0.637-0.244-1.196-0.731-1.677s-1.043-0.722-1.668-0.722h-6.597c0-0.725 0.3-1.721 0.9-2.989s0.9-2.271 0.9-3.008c0-1.224-0.2-2.13-0.6-2.717s-1.199-0.881-2.399-0.881c-0.325 0.325-0.562 0.856-0.712 1.593s-0.34 1.521-0.572 2.352-0.603 1.515-1.115 2.052c-0.275 0.287-0.756 0.856-1.443 1.705-0.050 0.063-0.194 0.25-0.431 0.562s-0.434 0.568-0.59 0.768-0.372 0.465-0.647 0.796c-0.275 0.331-0.525 0.606-0.75 0.825s-0.465 0.44-0.722 0.665c-0.256 0.225-0.506 0.394-0.75 0.506s-0.465 0.169-0.665 0.169h-6.958v11.994h6.958c0.162 0 0.359 0.019 0.59 0.056s0.437 0.078 0.618 0.122c0.181 0.044 0.419 0.112 0.712 0.206s0.512 0.166 0.656 0.216c0.144 0.050 0.365 0.128 0.665 0.234s0.481 0.172 0.543 0.197c2.636 0.912 4.773 1.368 6.409 1.368h2.268c2.399 0 2.924-1.043 2.924-3.13 0-0.325-0.46-0.675-0.522-1.050 0.375-0.2 1.1-0.528 1.319-0.984s0.328-0.915 0.328-1.377c0-0.462-0.398-0.893-0.623-1.293 0.662-0.625 1.954-1.368 1.954-2.23 0-0.312-0.062-0.659-0.187-1.040s-0.956-0.678-1.143-0.89c0.4-0.012 1.409-0.306 1.677-0.881s0.403-1.081 0.403-1.518zM30.75 14.66c0 1.112-0.306 2.13-0.918 3.055 0.112 0.412 0.383 0.843 0.383 1.293 0 0.962-0.452 1.862-0.926 2.699 0.037 0.262 0.27 0.531 0.27 0.806 0 1.262-1.018 2.374-1.767 3.336 0.012 1.737-0.018 3.108-1.093 4.114s-2.135 1.151-3.897 1.151h-2.418c-1.199 0-2.383-0.141-3.551-0.422s-2.521-0.69-4.057-1.227c-1.449-0.5-2.311-0.75-2.586-0.75h-7.183c-0.662 0-1.228-0.234-1.696-0.703s-0.346-0.677-0.346-1.339l-0.071-11.994c0-0.662 0.091-0.87 0.56-1.339s0.891-0.703 1.553-0.703h6.921c0.45-0.3 1.52-1.482 2.782-3.119 0.725-0.937 1.322-1.665 1.934-2.327 0.3-0.312 0.807-1.061 0.951-1.817s0.334-1.546 0.571-2.371c0.237-0.825 0.196-1.499 0.733-2.024 0.487-0.462 1.050-0.479 1.687-0.479 1.049 0 1.993 0.274 2.83 0.68s1.331 1.254 1.769 2.116c0.437 0.862 0.656 1.524 0.656 2.986 0 1.162-0.443 2.718-1.042 3.955h3.584c1.299 0 1.995 0.118 2.945 1.067s1.424 2.068 1.424 3.355z" fill="#555555"></path>
</svg>
