<?xml version="1.0" encoding="utf-8"?>
<!-- Generator: Adobe Illustrator 15.0.0, SVG Export Plug-In . SVG Version: 6.00 Build 0)  -->
<!DOCTYPE svg PUBLIC "-//W3C//DTD SVG 1.1//EN" "http://www.w3.org/Graphics/SVG/1.1/DTD/svg11.dtd">
<svg version="1.1" id="Layer_1" xmlns="http://www.w3.org/2000/svg" xmlns:xlink="http://www.w3.org/1999/xlink" x="0px" y="0px"
	 width="13.651px" height="13.998px" viewBox="8.997 8.809 13.651 13.998" enable-background="new 8.997 8.809 13.651 13.998"
	 xml:space="preserve">
<path fill="#555555" d="M20.902,15.365c0-0.25-0.096-0.469-0.286-0.657c-0.191-0.188-0.41-0.282-0.655-0.282h-2.586
	c0-0.285,0.118-0.675,0.353-1.173c0.234-0.497,0.353-0.891,0.353-1.179c0-0.48-0.078-0.835-0.233-1.065
	c-0.157-0.23-0.471-0.346-0.941-0.346c-0.127,0.127-0.22,0.336-0.277,0.625c-0.061,0.288-0.134,0.596-0.226,0.922
	c-0.091,0.326-0.236,0.595-0.438,0.804c-0.107,0.112-0.297,0.337-0.565,0.669c-0.02,0.024-0.076,0.099-0.169,0.221
	s-0.17,0.223-0.231,0.301c-0.061,0.079-0.146,0.183-0.253,0.312c-0.109,0.13-0.206,0.238-0.295,0.323
	c-0.088,0.087-0.183,0.173-0.283,0.262c-0.101,0.088-0.198,0.153-0.295,0.197c-0.095,0.044-0.183,0.066-0.26,0.066h-2.729v4.702
	h2.729c0.062,0,0.141,0.008,0.231,0.021c0.091,0.016,0.171,0.03,0.242,0.047c0.071,0.019,0.165,0.045,0.279,0.082
	c0.115,0.037,0.2,0.065,0.257,0.085c0.058,0.02,0.144,0.051,0.262,0.092c0.117,0.041,0.188,0.066,0.213,0.077
	c1.033,0.357,1.871,0.536,2.512,0.536h0.889c0.941,0,1.147-0.41,1.147-1.227c0-0.128-0.182-0.266-0.205-0.412
	c0.147-0.078,0.432-0.207,0.518-0.385c0.086-0.18,0.128-0.359,0.128-0.541c0-0.181-0.156-0.351-0.243-0.507
	c0.259-0.245,0.767-0.535,0.767-0.875c0-0.122-0.025-0.259-0.074-0.407c-0.05-0.15-0.375-0.266-0.447-0.35
	c0.156-0.004,0.552-0.119,0.657-0.345C20.851,15.734,20.902,15.536,20.902,15.365L20.902,15.365z M21.674,15.358
	c0,0.435-0.12,0.834-0.359,1.197c0.043,0.161,0.15,0.331,0.15,0.507c0,0.377-0.177,0.73-0.363,1.058
	c0.015,0.103,0.105,0.208,0.105,0.316c0,0.494-0.398,0.93-0.692,1.307c0.005,0.682-0.008,1.219-0.429,1.613
	s-0.838,0.451-1.527,0.451H17.61c-0.471,0-0.935-0.056-1.392-0.166c-0.458-0.11-0.989-0.27-1.59-0.481
	c-0.569-0.195-0.907-0.294-1.015-0.294h-2.815c-0.259,0-0.481-0.092-0.664-0.274c-0.185-0.185-0.136-0.266-0.136-0.525l-0.027-4.701
	c0-0.26,0.036-0.342,0.219-0.526c0.184-0.184,0.351-0.274,0.608-0.274h2.715c0.177-0.118,0.596-0.581,1.09-1.223
	c0.284-0.368,0.519-0.652,0.759-0.912c0.117-0.122,0.316-0.416,0.373-0.713c0.056-0.297,0.131-0.605,0.223-0.929
	c0.093-0.323,0.077-0.589,0.288-0.793c0.19-0.181,0.411-0.188,0.661-0.188c0.41,0,0.781,0.107,1.109,0.267
	c0.329,0.158,0.521,0.49,0.694,0.829c0.171,0.338,0.257,0.598,0.257,1.171c0,0.454-0.174,1.065-0.409,1.55h1.406
	c0.509,0,0.781,0.046,1.154,0.419C21.49,14.414,21.676,14.853,21.674,15.358L21.674,15.358z"/>
</svg>
