<?xml version="1.0" encoding="utf-8"?>
<!-- Generator: Adobe Illustrator 15.0.0, SVG Export Plug-In . SVG Version: 6.00 Build 0)  -->
<!DOCTYPE svg PUBLIC "-//W3C//DTD SVG 1.1//EN" "http://www.w3.org/Graphics/SVG/1.1/DTD/svg11.dtd">
<svg version="1.1" id="Layer_1" xmlns="http://www.w3.org/2000/svg" xmlns:xlink="http://www.w3.org/1999/xlink" x="0px" y="0px"
	 width="14px" height="14px" viewBox="8.822 8.808 14 14" enable-background="new 8.822 8.808 14 14" xml:space="preserve">
	 <path id="svg_1" d="m20.902,15.36499c0,-0.25 -0.096,-0.469 -0.286,-0.657c-0.191,-0.188 -0.41,-0.282 -0.655,-0.282l-2.586,0c0,-0.285 0.118,-0.675 0.353,-1.173c0.234,-0.497 0.353,-0.891 0.353,-1.17901c0,-0.48 -0.078,-0.835 -0.233,-1.065c-0.157,-0.23 -0.471,-0.346 -0.941,-0.346c-0.127,0.127 -0.22,0.336 -0.277,0.625c-0.061,0.288 -0.134,0.596 -0.226,0.922c-0.091,0.326 -0.236,0.595 -0.438,0.804c-0.107,0.112 -0.297,0.337 -0.565,0.669c-0.02,0.024 -0.076,0.099 -0.169,0.221s-0.17,0.223 -0.231,0.30101c-0.061,0.079 -0.146,0.183 -0.253,0.312c-0.109,0.13 -0.206,0.23801 -0.295,0.323c-0.088,0.087 -0.183,0.173 -0.283,0.26199c-0.101,0.088 -0.198,0.153 -0.295,0.197c-0.095,0.044 -0.183,0.066 -0.26,0.066l-2.729,0l0,4.702l2.729,0c0.062,0 0.141,0.008 0.231,0.021c0.091,0.016 0.171,0.03 0.242,0.047c0.071,0.019 0.165,0.045 0.279,0.082c0.115,0.037 0.19999,0.065 0.257,0.085c0.058,0.02 0.144,0.05101 0.26199,0.092c0.117,0.041 0.188,0.066 0.213,0.077c1.033,0.357 1.871,0.536 2.512,0.536l0.889,0c0.941,0 1.147,-0.41 1.147,-1.227c0,-0.128 -0.182,-0.266 -0.205,-0.412c0.147,-0.078 0.432,-0.207 0.518,-0.385c0.086,-0.18 0.128,-0.359 0.128,-0.541c0,-0.181 -0.156,-0.351 -0.243,-0.507c0.259,-0.245 0.767,-0.535 0.767,-0.875c0,-0.122 -0.025,-0.259 -0.07399,-0.407c-0.05,-0.15 -0.375,-0.266 -0.447,-0.35c0.156,-0.004 0.55201,-0.119 0.657,-0.345c0.103,-0.224 0.154,-0.422 0.154,-0.593l0,0l0,0l0,-0.00001l0.00003,0.00003z" fill="#555555"/>
</svg>
