<?xml version="1.0" encoding="utf-8"?>
<!-- Generator: Adobe Illustrator 15.0.0, SVG Export Plug-In . SVG Version: 6.00 Build 0)  -->
<!DOCTYPE svg PUBLIC "-//W3C//DTD SVG 1.1//EN" "http://www.w3.org/Graphics/SVG/1.1/DTD/svg11.dtd">
<svg version="1.1" id="Layer_1" xmlns="http://www.w3.org/2000/svg" xmlns:xlink="http://www.w3.org/1999/xlink" x="0px" y="0px"
	 width="14px" height="14px" viewBox="8.823 8.807 14 14" enable-background="new 8.823 8.807 14 14" xml:space="preserve">
<path fill="#555555" d="M21.748,15.292c0-0.292-0.111-0.547-0.334-0.767c-0.223-0.22-0.478-0.33-0.763-0.33h-3.017
	c0-0.332,0.137-0.787,0.411-1.367c0.274-0.58,0.411-1.039,0.411-1.375c0-0.56-0.091-0.974-0.273-1.243
	C18,9.941,17.635,9.806,17.086,9.806c-0.148,0.149-0.257,0.392-0.325,0.729c-0.069,0.337-0.155,0.696-0.262,1.076
	s-0.276,0.693-0.51,0.938c-0.126,0.131-0.346,0.392-0.66,0.78c-0.023,0.029-0.089,0.114-0.197,0.257
	c-0.108,0.143-0.198,0.26-0.27,0.351c-0.071,0.092-0.17,0.213-0.296,0.364c-0.126,0.151-0.24,0.277-0.343,0.377
	c-0.103,0.101-0.213,0.201-0.331,0.304c-0.117,0.103-0.231,0.18-0.343,0.231c-0.112,0.051-0.213,0.077-0.304,0.077h-3.182v5.485
	h3.182c0.074,0,0.164,0.009,0.27,0.026c0.106,0.017,0.2,0.035,0.283,0.055c0.083,0.021,0.192,0.052,0.326,0.095
	s0.234,0.076,0.3,0.099c0.066,0.023,0.167,0.059,0.304,0.107c0.137,0.048,0.22,0.078,0.248,0.09
	c1.205,0.417,2.183,0.625,2.931,0.625h1.037c1.098,0,1.338-0.477,1.338-1.431c0-0.148-0.211-0.309-0.239-0.48
	c0.172-0.091,0.503-0.241,0.604-0.449c0.1-0.209,0.149-0.419,0.149-0.631c0-0.211-0.182-0.408-0.284-0.591
	c0.302-0.286,0.894-0.625,0.894-1.02c0-0.143-0.029-0.302-0.086-0.476c-0.058-0.175-0.437-0.31-0.522-0.407
	c0.183-0.005,0.644-0.14,0.767-0.403C21.687,15.722,21.748,15.491,21.748,15.292L21.748,15.292z M22.649,15.283
	c0,0.508-0.141,0.974-0.42,1.397c0.051,0.188,0.175,0.386,0.175,0.591c0,0.44-0.206,0.852-0.423,1.234
	c0.017,0.12,0.123,0.243,0.123,0.369c0,0.577-0.466,1.085-0.808,1.525c0.006,0.794-0.009,1.421-0.5,1.881
	c-0.492,0.46-0.977,0.526-1.782,0.526h-1.106c-0.548,0-1.089-0.064-1.624-0.193c-0.534-0.128-1.153-0.314-1.855-0.561
	c-0.663-0.229-1.057-0.343-1.183-0.343H9.962c-0.302,0-0.562-0.107-0.775-0.321c-0.214-0.215-0.158-0.31-0.158-0.612l-0.032-5.485
	c0-0.303,0.042-0.398,0.256-0.613c0.214-0.214,0.408-0.321,0.71-0.321h3.166c0.206-0.137,0.695-0.678,1.272-1.426
	c0.332-0.429,0.604-0.761,0.884-1.064c0.137-0.143,0.369-0.485,0.435-0.831s0.153-0.707,0.261-1.084s0.089-0.686,0.335-0.925
	c0.223-0.211,0.48-0.219,0.772-0.219c0.479,0,0.911,0.125,1.294,0.311s0.608,0.573,0.809,0.968c0.2,0.394,0.3,0.697,0.3,1.365
	c0,0.531-0.202,1.243-0.477,1.809h1.64c0.594,0,0.912,0.054,1.347,0.488C22.433,14.182,22.65,14.693,22.649,15.283L22.649,15.283z"
	/>
</svg>
