<?xml version="1.0" encoding="utf-8"?>
<!-- Generator: Adobe Illustrator 15.0.0, SVG Export Plug-In . SVG Version: 6.00 Build 0)  -->
<!DOCTYPE svg PUBLIC "-//W3C//DTD SVG 1.1//EN" "http://www.w3.org/Graphics/SVG/1.1/DTD/svg11.dtd">
<svg version="1.1" id="Layer_1" xmlns="http://www.w3.org/2000/svg" xmlns:xlink="http://www.w3.org/1999/xlink" x="0px" y="0px"
	 width="12px" height="12px" viewBox="9.823 9.808 12 12" enable-background="new 9.823 9.808 12 12" xml:space="preserve">
<path fill="#555555" d="M20.055,15.438c0-0.208-0.079-0.391-0.237-0.547c-0.16-0.156-0.342-0.235-0.546-0.235h-2.155
	c0-0.237,0.099-0.562,0.294-0.978c0.195-0.414,0.294-0.742,0.294-0.982c0-0.4-0.064-0.695-0.194-0.888
	c-0.131-0.192-0.392-0.288-0.783-0.288c-0.106,0.105-0.185,0.28-0.231,0.521c-0.051,0.24-0.111,0.497-0.188,0.769
	c-0.076,0.271-0.196,0.496-0.364,0.671c-0.09,0.093-0.248,0.279-0.472,0.557c-0.017,0.021-0.062,0.083-0.141,0.184
	c-0.077,0.103-0.142,0.187-0.192,0.251c-0.051,0.066-0.122,0.152-0.211,0.26c-0.091,0.109-0.172,0.199-0.245,0.27
	c-0.073,0.072-0.153,0.145-0.236,0.219c-0.085,0.073-0.165,0.127-0.246,0.164c-0.079,0.036-0.152,0.055-0.216,0.055h-2.274v3.919
	h2.274c0.051,0,0.117,0.007,0.191,0.017c0.076,0.015,0.143,0.025,0.202,0.039c0.06,0.016,0.138,0.039,0.232,0.068
	c0.096,0.031,0.166,0.055,0.214,0.071c0.049,0.017,0.12,0.042,0.219,0.076c0.098,0.034,0.157,0.056,0.178,0.065
	c0.86,0.297,1.559,0.446,2.093,0.446h0.741c0.783,0,0.955-0.342,0.955-1.022c0-0.107-0.151-0.222-0.171-0.344
	c0.123-0.064,0.36-0.172,0.433-0.32c0.071-0.15,0.106-0.3,0.106-0.451s-0.13-0.293-0.202-0.423c0.215-0.203,0.639-0.446,0.639-0.729
	c0-0.101-0.021-0.215-0.062-0.338c-0.042-0.126-0.312-0.222-0.372-0.293c0.13-0.003,0.459-0.098,0.547-0.287
	C20.013,15.746,20.055,15.581,20.055,15.438L20.055,15.438z M20.698,15.434c0,0.362-0.1,0.694-0.299,0.997
	c0.035,0.134,0.125,0.275,0.125,0.422c0,0.314-0.147,0.608-0.303,0.882c0.013,0.087,0.088,0.174,0.088,0.264
	c0,0.412-0.332,0.775-0.577,1.089c0.004,0.568-0.007,1.016-0.357,1.345c-0.351,0.328-0.698,0.376-1.272,0.376h-0.791
	c-0.393,0-0.779-0.047-1.16-0.139s-0.824-0.225-1.324-0.4c-0.475-0.163-0.756-0.245-0.847-0.245h-2.345
	c-0.216,0-0.401-0.077-0.554-0.229c-0.154-0.153-0.113-0.221-0.113-0.437l-0.022-3.918c0-0.216,0.03-0.284,0.182-0.438
	c0.154-0.152,0.293-0.229,0.508-0.229h2.262c0.147-0.098,0.496-0.483,0.908-1.019c0.237-0.307,0.434-0.544,0.633-0.761
	c0.098-0.101,0.264-0.347,0.311-0.594s0.109-0.505,0.187-0.773c0.077-0.27,0.064-0.491,0.24-0.661
	c0.157-0.15,0.343-0.157,0.551-0.157c0.341,0,0.65,0.09,0.924,0.223c0.274,0.132,0.435,0.409,0.578,0.69
	c0.143,0.282,0.214,0.499,0.214,0.977c0,0.378-0.145,0.887-0.341,1.292h1.172c0.424,0,0.651,0.038,0.962,0.349
	C20.546,14.646,20.7,15.012,20.698,15.434L20.698,15.434z"/>
</svg>
