<?xml version="1.0" encoding="utf-8"?>
<!-- Generator: Adobe Illustrator 19.0.1, SVG Export Plug-In . SVG Version: 6.00 Build 0)  -->
<svg version="1.1" id="Layer_1" xmlns="http://www.w3.org/2000/svg" xmlns:xlink="http://www.w3.org/1999/xlink" x="0px" y="0px"
	 width="10px" height="10px" viewBox="-182.2 205.8 10 10" style="enable-background:new -182.2 205.8 10 10;" xml:space="preserve"
	>
<style type="text/css">
	.st0{fill:#555555;}
</style>
<path class="st0" d="M-173.8,210.5c0-0.2-0.1-0.3-0.2-0.4c-0.1-0.1-0.3-0.2-0.4-0.2h-1.7c0-0.2,0.1-0.4,0.2-0.8
	c0.2-0.3,0.2-0.6,0.2-0.8c0-0.3-0.1-0.6-0.2-0.7c-0.1-0.2-0.3-0.2-0.6-0.2c-0.1,0.1-0.1,0.2-0.2,0.4c0,0.2-0.1,0.4-0.2,0.6
	c-0.1,0.2-0.2,0.4-0.3,0.5c-0.1,0.1-0.2,0.2-0.4,0.4c0,0,0,0.1-0.1,0.1c-0.1,0.1-0.1,0.1-0.2,0.2c0,0.1-0.1,0.1-0.2,0.2
	c-0.1,0.1-0.1,0.2-0.2,0.2c-0.1,0.1-0.1,0.1-0.2,0.2c-0.1,0.1-0.1,0.1-0.2,0.1c-0.1,0-0.1,0-0.2,0h-1.8v3.1h1.8c0,0,0.1,0,0.2,0
	c0.1,0,0.1,0,0.2,0c0,0,0.1,0,0.2,0.1c0.1,0,0.1,0,0.2,0.1c0,0,0.1,0,0.2,0.1c0.1,0,0.1,0,0.1,0.1c0.7,0.2,1.2,0.4,1.7,0.4h0.6
	c0.6,0,0.8-0.3,0.8-0.8c0-0.1-0.1-0.2-0.1-0.3c0.1-0.1,0.3-0.1,0.3-0.3c0.1-0.1,0.1-0.2,0.1-0.4s-0.1-0.2-0.2-0.3
	c0.2-0.2,0.5-0.4,0.5-0.6c0-0.1,0-0.2,0-0.3c0-0.1-0.2-0.2-0.3-0.2c0.1,0,0.4-0.1,0.4-0.2C-173.8,210.8-173.8,210.6-173.8,210.5
	L-173.8,210.5z M-173.3,210.5c0,0.3-0.1,0.6-0.2,0.8c0,0.1,0.1,0.2,0.1,0.3c0,0.3-0.1,0.5-0.2,0.7c0,0.1,0.1,0.1,0.1,0.2
	c0,0.3-0.3,0.6-0.5,0.9c0,0.5,0,0.8-0.3,1.1c-0.3,0.3-0.6,0.3-1,0.3h-0.6c-0.3,0-0.6,0-0.9-0.1c-0.3-0.1-0.7-0.2-1.1-0.3
	c-0.4-0.1-0.6-0.2-0.7-0.2h-1.9c-0.2,0-0.3-0.1-0.4-0.2c-0.1-0.1-0.1-0.2-0.1-0.3l0-3.1c0-0.2,0-0.2,0.1-0.4
	c0.1-0.1,0.2-0.2,0.4-0.2h1.8c0.1-0.1,0.4-0.4,0.7-0.8c0.2-0.2,0.3-0.4,0.5-0.6c0.1-0.1,0.2-0.3,0.2-0.5s0.1-0.4,0.1-0.6
	c0.1-0.2,0.1-0.4,0.2-0.5c0.1-0.1,0.3-0.1,0.4-0.1c0.3,0,0.5,0.1,0.7,0.2c0.2,0.1,0.3,0.3,0.5,0.6c0.1,0.2,0.2,0.4,0.2,0.8
	c0,0.3-0.1,0.7-0.3,1h0.9c0.3,0,0.5,0,0.8,0.3C-173.4,209.9-173.3,210.2-173.3,210.5L-173.3,210.5z"/>
</svg>
