<?xml version="1.0" encoding="utf-8"?>
<!-- Generated by IcoMoon.io -->
<!DOCTYPE svg PUBLIC "-//W3C//DTD SVG 1.1//EN" "http://www.w3.org/Graphics/SVG/1.1/DTD/svg11.dtd">
<svg version="1.1" xmlns="http://www.w3.org/2000/svg" xmlns:xlink="http://www.w3.org/1999/xlink" width="32" height="32" viewBox="0 0 32 32">
<path d="M13.333 1.333h5.333c1.104 0 2.047 0.391 2.828 1.172s1.172 1.724 1.172 2.828v1.333h5.333c0.368 0 0.683 0.13 0.942 0.391 0.262 0.261 0.392 0.575 0.392 0.943s-0.13 0.682-0.392 0.943c-0.26 0.261-0.574 0.391-0.942 0.391h-1.333v16c0 1.104-0.391 2.047-1.172 2.828s-1.725 1.172-2.828 1.172h-13.333c-1.104 0-2.047-0.391-2.828-1.172s-1.172-1.725-1.172-2.828v-16h-1.333c-0.368 0-0.682-0.13-0.943-0.391s-0.391-0.575-0.391-0.943 0.13-0.682 0.391-0.943 0.575-0.391 0.943-0.391h5.333v-1.333c0-1.104 0.391-2.047 1.172-2.828s1.724-1.172 2.828-1.172zM24 25.333v-16h-16v16c0 0.368 0.13 0.683 0.391 0.942 0.261 0.262 0.575 0.392 0.943 0.392h13.333c0.368 0 0.683-0.13 0.942-0.392 0.262-0.259 0.392-0.574 0.391-0.942v0zM18.667 4h-5.333c-0.368 0-0.682 0.13-0.943 0.391s-0.391 0.575-0.391 0.943v1.333h8v-1.333c0-0.368-0.131-0.682-0.391-0.943-0.261-0.261-0.575-0.391-0.942-0.391v0z" fill="#555555"></path>
<path d="M13 13.5v9c0 0.146-0.047 0.266-0.141 0.359s-0.213 0.141-0.359 0.141h-1c-0.146 0-0.266-0.047-0.359-0.141s-0.141-0.213-0.141-0.359v-9c0-0.146 0.047-0.266 0.141-0.359s0.213-0.141 0.359-0.141h1c0.146 0 0.266 0.047 0.359 0.141s0.141 0.213 0.141 0.359z" fill="#555555"></path>
<path d="M17 13.5v9c0 0.146-0.047 0.266-0.141 0.359s-0.213 0.141-0.359 0.141h-1c-0.146 0-0.266-0.047-0.359-0.141s-0.141-0.213-0.141-0.359v-9c0-0.146 0.047-0.266 0.141-0.359s0.213-0.141 0.359-0.141h1c0.146 0 0.266 0.047 0.359 0.141s0.141 0.213 0.141 0.359z" fill="#555555"></path>
<path d="M21 13.5v9c0 0.146-0.047 0.266-0.141 0.359s-0.213 0.141-0.359 0.141h-1c-0.146 0-0.266-0.047-0.359-0.141s-0.141-0.213-0.141-0.359v-9c0-0.146 0.047-0.266 0.141-0.359s0.213-0.141 0.359-0.141h1c0.146 0 0.266 0.047 0.359 0.141s0.141 0.213 0.141 0.359z" fill="#555555"></path>
</svg>
