<?xml version="1.0" encoding="utf-8"?>
<!-- Generator: Adobe Illustrator 15.0.0, SVG Export Plug-In . SVG Version: 6.00 Build 0)  -->
<!DOCTYPE svg PUBLIC "-//W3C//DTD SVG 1.1//EN" "http://www.w3.org/Graphics/SVG/1.1/DTD/svg11.dtd">
<svg version="1.1" id="Layer_1" xmlns="http://www.w3.org/2000/svg" xmlns:xlink="http://www.w3.org/1999/xlink" x="0px" y="0px"
	 width="14px" height="14px" viewBox="9 8.334 14 14" enable-background="new 9 8.334 14 14" xml:space="preserve">
<path fill="#555555" d="M14.857,9.334h2.286c0.474,0,0.877,0.166,1.212,0.502c0.335,0.335,0.502,0.739,0.502,1.212v0.571h2.285
	c0.159,0,0.293,0.056,0.405,0.168c0.112,0.111,0.166,0.246,0.166,0.404s-0.054,0.292-0.166,0.404
	c-0.112,0.111-0.246,0.167-0.405,0.167h-0.571v6.856c0,0.473-0.167,0.877-0.502,1.212s-0.738,0.503-1.212,0.503h-5.714
	c-0.473,0-0.877-0.168-1.212-0.503c-0.336-0.335-0.503-0.739-0.503-1.212v-6.856h-0.571c-0.157,0-0.292-0.056-0.405-0.167
	c-0.11-0.112-0.166-0.246-0.166-0.404s0.056-0.293,0.166-0.404c0.112-0.112,0.248-0.168,0.405-0.168h2.286v-0.571
	c0-0.473,0.166-0.877,0.502-1.212C13.981,9.5,14.383,9.334,14.857,9.334z M19.429,19.618v-6.856h-6.857v6.856
	c0,0.158,0.056,0.293,0.168,0.404c0.112,0.112,0.246,0.168,0.404,0.168h5.713c0.158,0,0.293-0.056,0.404-0.168
	C19.373,19.911,19.429,19.776,19.429,19.618L19.429,19.618z M17.143,10.477h-2.285c-0.158,0-0.292,0.057-0.404,0.167
	c-0.112,0.112-0.167,0.248-0.167,0.405v0.57h3.428v-0.571c0-0.158-0.055-0.292-0.167-0.404
	C17.435,10.533,17.301,10.477,17.143,10.477L17.143,10.477z"/>
<path fill="#555555" d="M14.715,14.548v3.857c0,0.062-0.021,0.113-0.061,0.154c-0.041,0.039-0.092,0.06-0.154,0.06h-0.429
	c-0.062,0-0.113-0.02-0.153-0.06c-0.041-0.041-0.061-0.091-0.061-0.154v-3.857c0-0.062,0.02-0.113,0.061-0.154
	c0.04-0.041,0.09-0.06,0.153-0.06H14.5c0.062,0,0.114,0.019,0.154,0.06S14.715,14.485,14.715,14.548z"/>
<path fill="#555555" d="M16.429,14.548v3.857c0,0.062-0.021,0.113-0.061,0.154c-0.04,0.039-0.09,0.06-0.154,0.06h-0.428
	c-0.063,0-0.114-0.02-0.154-0.06c-0.04-0.041-0.061-0.091-0.061-0.154v-3.857c0-0.062,0.021-0.113,0.061-0.154s0.09-0.06,0.154-0.06
	h0.428c0.063,0,0.114,0.019,0.154,0.06S16.429,14.485,16.429,14.548z"/>
<path fill="#555555" d="M18.143,14.548v3.857c0,0.062-0.02,0.113-0.061,0.154c-0.04,0.039-0.09,0.06-0.153,0.06H17.5
	c-0.062,0-0.114-0.02-0.154-0.06c-0.04-0.041-0.061-0.091-0.061-0.154v-3.857c0-0.062,0.021-0.113,0.061-0.154
	s0.091-0.06,0.154-0.06h0.429c0.062,0,0.113,0.019,0.153,0.06C18.123,14.435,18.143,14.485,18.143,14.548z"/>
</svg>
