<?xml version="1.0" encoding="utf-8"?>
<!-- Generator: Adobe Illustrator 15.0.0, SVG Export Plug-In . SVG Version: 6.00 Build 0)  -->
<!DOCTYPE svg PUBLIC "-//W3C//DTD SVG 1.1//EN" "http://www.w3.org/Graphics/SVG/1.1/DTD/svg11.dtd">
<svg version="1.1" id="Layer_1" xmlns="http://www.w3.org/2000/svg" xmlns:xlink="http://www.w3.org/1999/xlink" x="0px" y="0px"
	 width="14px" height="14px" viewBox="9 8.333 14 14" enable-background="new 9 8.333 14 14" xml:space="preserve">
<path fill="#555555" d="M14.667,8.333h2.667c0.552,0,1.023,0.195,1.414,0.586s0.586,0.862,0.586,1.414V11h2.666
	c0.185,0,0.342,0.065,0.472,0.195c0.131,0.13,0.195,0.288,0.195,0.472s-0.064,0.341-0.195,0.471
	c-0.13,0.131-0.287,0.196-0.472,0.196h-0.666v8c0,0.552-0.195,1.023-0.586,1.414s-0.862,0.586-1.414,0.586h-6.667
	c-0.552,0-1.023-0.195-1.414-0.586s-0.586-0.862-0.586-1.414v-8H10c-0.184,0-0.341-0.065-0.472-0.196
	c-0.13-0.13-0.195-0.287-0.195-0.471s0.065-0.341,0.195-0.472S9.816,11,10,11h2.667v-0.667c0-0.552,0.195-1.023,0.586-1.414
	S14.114,8.333,14.667,8.333z M20,20.333v-8h-8v8c0,0.185,0.065,0.342,0.195,0.472C12.326,20.936,12.483,21,12.667,21h6.666
	c0.185,0,0.342-0.064,0.472-0.195C19.936,20.675,20,20.518,20,20.333L20,20.333z M17.333,9.667h-2.666
	c-0.184,0-0.341,0.065-0.472,0.195S14,10.15,14,10.334V11h4v-0.667c0-0.184-0.065-0.341-0.195-0.472
	C17.674,9.732,17.517,9.667,17.333,9.667L17.333,9.667z"/>
<path fill="#555555" d="M14.5,14.417v4.5c0,0.073-0.023,0.133-0.071,0.18c-0.047,0.046-0.106,0.07-0.179,0.07h-0.5
	c-0.073,0-0.133-0.023-0.18-0.07s-0.07-0.106-0.07-0.18v-4.5c0-0.073,0.023-0.133,0.07-0.18s0.106-0.07,0.18-0.07h0.5
	c0.073,0,0.133,0.023,0.179,0.07C14.476,14.284,14.5,14.344,14.5,14.417z"/>
<path fill="#555555" d="M16.5,14.417v4.5c0,0.073-0.023,0.133-0.07,0.18c-0.047,0.046-0.106,0.07-0.18,0.07h-0.5
	c-0.073,0-0.133-0.023-0.18-0.07s-0.07-0.106-0.07-0.18v-4.5c0-0.073,0.023-0.133,0.07-0.18s0.106-0.07,0.18-0.07h0.5
	c0.073,0,0.133,0.023,0.18,0.07C16.476,14.284,16.5,14.344,16.5,14.417z"/>
<path fill="#555555" d="M18.5,14.417v4.5c0,0.073-0.023,0.133-0.07,0.18c-0.047,0.046-0.106,0.07-0.18,0.07h-0.5
	c-0.073,0-0.133-0.023-0.18-0.07s-0.07-0.106-0.07-0.18v-4.5c0-0.073,0.023-0.133,0.07-0.18s0.106-0.07,0.18-0.07h0.5
	c0.073,0,0.133,0.023,0.18,0.07C18.476,14.284,18.5,14.344,18.5,14.417z"/>
</svg>
