<?xml version="1.0" encoding="utf-8"?>
<!-- Generator: Adobe Illustrator 19.0.1, SVG Export Plug-In . SVG Version: 6.00 Build 0)  -->
<svg version="1.0" id="Layer_1" xmlns="http://www.w3.org/2000/svg" xmlns:xlink="http://www.w3.org/1999/xlink" x="0px" y="0px"
	 width="12px" height="12px" viewBox="-583 587 12 12" enable-background="new -583 587 12 12" xml:space="preserve">
<g>
	<path fill="#555555" d="M-577.9,588h1.9c0.4,0,0.8,0.1,1,0.4s0.4,0.6,0.4,1v0.5h1.9c0.1,0,0.2,0,0.4,0.1s0.1,0.2,0.1,0.4
		c0,0.1,0,0.2-0.1,0.4c-0.1,0.1-0.3,0.1-0.4,0.1h-0.5v5.8c0,0.4-0.1,0.8-0.4,1c-0.2,0.2-0.6,0.4-1,0.4h-4.8c-0.4,0-0.8-0.1-1-0.4
		s-0.4-0.6-0.4-1v-5.8h-0.5c-0.1,0-0.2,0-0.4-0.1s-0.1-0.2-0.1-0.4c0-0.1,0-0.3,0.1-0.4c0.1-0.1,0.3-0.1,0.4-0.1h1.9v-0.5
		c0-0.4,0.1-0.8,0.4-1C-578.5,588.1-578.2,588-577.9,588z M-574,596.6v-5.8h-5.8v5.8c0,0.1,0,0.2,0.1,0.4c0.1,0.1,0.2,0.1,0.4,0.1
		h4.8c0.1,0,0.2,0,0.4-0.1C-574.1,596.9-574,596.8-574,596.6L-574,596.6z M-575.9,589h-1.9c-0.1,0-0.3,0-0.4,0.1
		c-0.1,0.1-0.1,0.2-0.1,0.4v0.5h2.9v-0.5c0-0.1,0-0.2-0.1-0.4S-575.8,589-575.9,589L-575.9,589z"/>
	<path fill="#555555" d="M-578,592.4v3.2v0.1h-0.1h-0.4h-0.1v-0.1v-3.2v-0.1h0.1h0.4h0.1V592.4z"/>
	<path fill="#555555" d="M-576.5,592.4v3.2v0.1h-0.1h-0.4h-0.1v-0.1v-3.2v-0.1h0.1h0.4h0.1V592.4z"/>
	<path fill="#555555" d="M-575.1,592.4v3.2v0.1h-0.1h-0.4h-0.1v-0.1v-3.2v-0.1h0.1h0.4h0.1V592.4z"/>
</g>
</svg>
