<?xml version="1.0" encoding="utf-8"?>
<!-- Generator: Adobe Illustrator 19.0.1, SVG Export Plug-In . SVG Version: 6.00 Build 0)  -->
<svg version="1.1" id="Layer_1" xmlns="http://www.w3.org/2000/svg" xmlns:xlink="http://www.w3.org/1999/xlink" x="0px" y="0px"
	 width="10px" height="10px" viewBox="-181 204.3 10 10" style="enable-background:new -181 204.3 10 10;" xml:space="preserve">
<style type="text/css">
	.st0{fill:#555555;}
</style>
<path class="st0" d="M-176.8,205.3h1.5c0.3,0,0.6,0.1,0.8,0.3c0.2,0.2,0.3,0.5,0.3,0.8v0.4h1.5c0.1,0,0.2,0,0.3,0.1
	c0.1,0.1,0.1,0.2,0.1,0.3c0,0.1,0,0.2-0.1,0.3c-0.1,0.1-0.2,0.1-0.3,0.1h-0.4v4.6c0,0.3-0.1,0.6-0.3,0.8c-0.2,0.2-0.5,0.3-0.8,0.3
	h-3.8c-0.3,0-0.6-0.1-0.8-0.3c-0.2-0.2-0.3-0.5-0.3-0.8v-4.6h-0.4c-0.1,0-0.2,0-0.3-0.1c-0.1-0.1-0.1-0.2-0.1-0.3
	c0-0.1,0-0.2,0.1-0.3c0.1-0.1,0.2-0.1,0.3-0.1h1.5v-0.4c0-0.3,0.1-0.6,0.3-0.8C-177.3,205.4-177.1,205.3-176.8,205.3z M-173.7,212.2
	v-4.6h-4.6v4.6c0,0.1,0,0.2,0.1,0.3c0.1,0.1,0.2,0.1,0.3,0.1h3.8c0.1,0,0.2,0,0.3-0.1C-173.8,212.4-173.7,212.3-173.7,212.2
	L-173.7,212.2z M-175.2,206.1h-1.5c-0.1,0-0.2,0-0.3,0.1c-0.1,0.1-0.1,0.2-0.1,0.3v0.4h2.3v-0.4c0-0.1,0-0.2-0.1-0.3
	C-175,206.1-175.1,206.1-175.2,206.1L-175.2,206.1z"/>
<path class="st0" d="M-176.9,208.8v2.6c0,0,0,0.1,0,0.1c0,0-0.1,0-0.1,0h-0.3c0,0-0.1,0-0.1,0c0,0,0-0.1,0-0.1v-2.6c0,0,0-0.1,0-0.1
	c0,0,0.1,0,0.1,0h0.3c0,0,0.1,0,0.1,0C-176.9,208.7-176.9,208.8-176.9,208.8z"/>
<path class="st0" d="M-175.7,208.8v2.6c0,0,0,0.1,0,0.1c0,0-0.1,0-0.1,0h-0.3c0,0-0.1,0-0.1,0c0,0,0-0.1,0-0.1v-2.6c0,0,0-0.1,0-0.1
	c0,0,0.1,0,0.1,0h0.3c0,0,0.1,0,0.1,0C-175.7,208.7-175.7,208.8-175.7,208.8z"/>
<path class="st0" d="M-174.6,208.8v2.6c0,0,0,0.1,0,0.1c0,0-0.1,0-0.1,0h-0.3c0,0-0.1,0-0.1,0c0,0,0-0.1,0-0.1v-2.6c0,0,0-0.1,0-0.1
	c0,0,0.1,0,0.1,0h0.3c0,0,0.1,0,0.1,0C-174.6,208.7-174.6,208.8-174.6,208.8z"/>
</svg>
