<?xml version="1.0" encoding="utf-8"?>
<!-- Generator: Adobe Illustrator 16.0.3, SVG Export Plug-In . SVG Version: 6.00 Build 0)  -->
<!DOCTYPE svg PUBLIC "-//W3C//DTD SVG 1.1//EN" "http://www.w3.org/Graphics/SVG/1.1/DTD/svg11.dtd">
<svg version="1.1" id="Layer_1" xmlns="http://www.w3.org/2000/svg" xmlns:xlink="http://www.w3.org/1999/xlink" x="0px" y="0px"
	 width="14px" height="14px" viewBox="9 9 14 14" enable-background="new 9 9 14 14" xml:space="preserve">
<path d="M11.5,12.5H17c0.414,0,0.768,0.146,1.061,0.439S18.5,13.586,18.5,14v0.91L22,13v6l-3.5-1.91V18
	c0,0.414-0.146,0.768-0.439,1.061S17.414,19.5,17,19.5h-5.5c-0.414,0-0.768-0.146-1.061-0.439S10,18.414,10,18v-4
	c0-0.414,0.146-0.768,0.439-1.061S11.086,12.5,11.5,12.5L11.5,12.5z M17,13.5h-5.5c-0.138,0-0.256,0.049-0.354,0.146
	S11,13.862,11,14v4c0,0.138,0.049,0.256,0.146,0.354S11.362,18.5,11.5,18.5H17c0.139,0,0.256-0.049,0.354-0.146S17.5,18.138,17.5,18
	v-4c0-0.138-0.049-0.256-0.146-0.354S17.139,13.5,17,13.5z M21,17.315v-2.632L18.59,16L21,17.315z"/>
</svg>
