<?xml version="1.0" encoding="utf-8"?>
<!-- Generated by IcoMoon.io -->
<!DOCTYPE svg PUBLIC "-//W3C//DTD SVG 1.1//EN" "http://www.w3.org/Graphics/SVG/1.1/DTD/svg11.dtd">
<svg version="1.1" xmlns="http://www.w3.org/2000/svg" xmlns:xlink="http://www.w3.org/1999/xlink" width="32" height="32" viewBox="0 0 32 32">
<path d="M10.588 1.334c5.169 0.003 9.316 4.094 9.289 9.273-0.010 1.26 0.382 2.16 1.274 3.039 5.863 5.794 1.665 1.618 7.501 7.439 0.489 0.489 1.029 0.925 1.531 1.404 1.332 1.277 1.72 2.851 1.186 4.57-0.703 2.286-2.277 3.766-4.615 4.339-1.56 0.384-2.945-0.055-4.076-1.173-4.472-4.406-8.931-8.83-13.384-13.253-2-1.987 6.023 6.039 4.058 4.020-0.729-0.749-1.527-1.075-2.586-1.036-4.505 0.156-8.508-3.075-9.345-7.476-0.114-0.596-0.091-1.196-0.075-1.795 0.013-0.508 0.248-0.579 0.675-0.413 1.202 0.468 2.416 0.922 3.618 1.387 1.506 0.586 2.349 0.244 2.98-1.241 0.235-0.554 0.456-1.111 0.642-1.681 0.381-1.163 0.009-1.997-1.114-2.466-1.191-0.501-2.404-0.951-3.602-1.439-1.013-0.414-1.004-0.421-0.213-1.128 1.779-1.602 3.864-2.387 6.255-2.371zM14.34 19.623c4.753 4.779-0.495-0.472 4.276 4.287 1.733 1.726 3.489 3.43 5.248 5.13 0.771 0.753 1.696 1.010 2.739 0.685 1.531-0.482 2.587-1.489 3.127-3 0.436-1.219 0.133-2.268-0.818-3.137-0.391-0.358-0.804-0.691-1.183-1.065-5.901-5.879-1.765-1.771-7.706-7.612-1.26-1.241-1.854-2.557-1.818-4.341 0.071-3.753-2.756-6.948-6.476-7.498-1.414-0.212-2.811-0.069-4.14 0.502-0.186 0.078-0.469 0.124-0.486 0.342-0.012 0.261 0.294 0.244 0.473 0.319 0.465 0.202 0.948 0.368 1.407 0.579 1.423 0.648 2.153 1.814 2.078 3.359-0.063 1.179-0.606 2.221-1.075 3.27-0.83 1.859-2.602 2.599-4.534 1.935-0.524-0.179-1.029-0.408-1.55-0.6-0.186-0.065-0.407-0.235-0.58-0.068-0.175 0.167-0.026 0.391 0.039 0.583 1.003 2.98 4.365 5.238 7.387 5.036 1.476-0.154 2.606 0.309 3.59 1.296z" fill="#555555"></path>
</svg>
