<?xml version="1.0" encoding="utf-8"?>
<!-- Generator: Adobe Illustrator 15.0.0, SVG Export Plug-In . SVG Version: 6.00 Build 0)  -->
<!DOCTYPE svg PUBLIC "-//W3C//DTD SVG 1.1//EN" "http://www.w3.org/Graphics/SVG/1.1/DTD/svg11.dtd">
<svg version="1.1" id="Layer_1" xmlns="http://www.w3.org/2000/svg" xmlns:xlink="http://www.w3.org/1999/xlink" x="0px" y="0px"
	 width="14px" height="14px" viewBox="9.467 9.434 14 14" enable-background="new 9.467 9.434 14 14" xml:space="preserve">
<path fill="#555555" d="M14.137,10.447c2.049,0.001,3.692,1.623,3.682,3.677c-0.004,0.5,0.151,0.856,0.505,1.205
	c2.325,2.297,0.661,0.641,2.975,2.948c0.194,0.195,0.408,0.367,0.607,0.557c0.527,0.507,0.682,1.129,0.469,1.812
	c-0.277,0.906-0.902,1.493-1.829,1.721c-0.619,0.152-1.167-0.021-1.615-0.465c-1.773-1.748-3.541-3.501-5.307-5.255
	c-0.792-0.787,2.389,2.394,1.608,1.594c-0.288-0.298-0.604-0.427-1.024-0.41c-1.786,0.061-3.373-1.219-3.706-2.965
	c-0.045-0.236-0.035-0.474-0.029-0.712c0.006-0.2,0.099-0.229,0.268-0.163c0.477,0.186,0.958,0.366,1.435,0.55
	c0.597,0.233,0.931,0.098,1.181-0.492c0.093-0.219,0.181-0.44,0.255-0.666c0.15-0.461,0.003-0.791-0.442-0.978
	c-0.472-0.198-0.953-0.378-1.428-0.571c-0.401-0.164-0.398-0.167-0.084-0.446C12.361,10.752,13.188,10.44,14.137,10.447
	L14.137,10.447z M15.623,17.698c1.885,1.895-0.196-0.188,1.695,1.698c0.688,0.685,1.384,1.361,2.081,2.034
	c0.306,0.3,0.672,0.4,1.087,0.271c0.605-0.191,1.024-0.59,1.238-1.19c0.173-0.482,0.054-0.899-0.324-1.242
	c-0.155-0.143-0.318-0.274-0.469-0.423c-2.339-2.33-0.7-0.702-3.056-3.018c-0.499-0.492-0.733-1.015-0.72-1.722
	c0.027-1.487-1.092-2.754-2.567-2.972c-0.561-0.084-1.113-0.028-1.641,0.199c-0.074,0.029-0.187,0.048-0.192,0.135
	c-0.006,0.104,0.115,0.097,0.188,0.126c0.184,0.08,0.375,0.146,0.557,0.229c0.563,0.258,0.854,0.72,0.823,1.332
	c-0.024,0.468-0.24,0.881-0.427,1.296c-0.329,0.736-1.03,1.031-1.797,0.769c-0.209-0.072-0.409-0.162-0.614-0.238
	c-0.074-0.026-0.162-0.093-0.229-0.027c-0.07,0.066-0.011,0.155,0.015,0.232c0.397,1.18,1.73,2.075,2.928,1.997
	C14.784,17.124,15.233,17.308,15.623,17.698L15.623,17.698z"/>
</svg>
