<?xml version="1.0" encoding="utf-8"?>
<!-- Generator: Adobe Illustrator 15.0.0, SVG Export Plug-In . SVG Version: 6.00 Build 0)  -->
<!DOCTYPE svg PUBLIC "-//W3C//DTD SVG 1.1//EN" "http://www.w3.org/Graphics/SVG/1.1/DTD/svg11.dtd">
<svg version="1.1" id="Layer_1" xmlns="http://www.w3.org/2000/svg" xmlns:xlink="http://www.w3.org/1999/xlink" x="0px" y="0px"
	 width="14px" height="14px" viewBox="9.466 9.434 14 14" enable-background="new 9.466 9.434 14 14" xml:space="preserve">
<path fill="#555555" d="M13.748,9.449c2.391,0.001,4.309,1.894,4.296,4.29c-0.005,0.583,0.177,0.999,0.589,1.405
	c2.712,2.68,0.771,0.749,3.47,3.441c0.227,0.227,0.477,0.428,0.709,0.649c0.616,0.591,0.795,1.318,0.548,2.114
	c-0.325,1.057-1.053,1.742-2.135,2.007c-0.722,0.178-1.362-0.025-1.885-0.543c-2.068-2.038-4.131-4.084-6.191-6.13
	c-0.925-0.919,2.786,2.793,1.877,1.859c-0.337-0.347-0.706-0.497-1.196-0.479c-2.084,0.072-3.936-1.422-4.323-3.458
	c-0.053-0.276-0.042-0.553-0.035-0.83c0.006-0.235,0.115-0.268,0.312-0.191c0.556,0.217,1.118,0.427,1.674,0.642
	c0.696,0.271,1.086,0.113,1.378-0.574c0.108-0.256,0.211-0.514,0.297-0.778c0.176-0.538,0.004-0.923-0.516-1.141
	c-0.551-0.231-1.112-0.44-1.666-0.666c-0.468-0.191-0.464-0.195-0.098-0.521C11.677,9.805,12.641,9.441,13.748,9.449L13.748,9.449z
	 M15.483,17.909c2.199,2.21-0.229-0.219,1.978,1.982c0.802,0.799,1.614,1.587,2.427,2.373c0.357,0.349,0.785,0.467,1.268,0.316
	c0.708-0.223,1.196-0.688,1.446-1.388c0.201-0.563,0.062-1.049-0.379-1.45c-0.181-0.166-0.372-0.32-0.547-0.493
	c-2.729-2.719-0.816-0.819-3.564-3.521c-0.582-0.574-0.857-1.183-0.841-2.008c0.032-1.736-1.274-3.213-2.995-3.468
	c-0.654-0.098-1.3-0.032-1.915,0.232c-0.086,0.036-0.217,0.057-0.225,0.158c-0.006,0.121,0.136,0.113,0.219,0.147
	c0.215,0.094,0.438,0.17,0.65,0.268c0.658,0.3,0.996,0.839,0.961,1.554c-0.029,0.545-0.28,1.027-0.498,1.512
	c-0.384,0.86-1.203,1.203-2.097,0.896c-0.243-0.083-0.476-0.189-0.717-0.278c-0.086-0.03-0.188-0.108-0.268-0.031
	c-0.081,0.077-0.012,0.181,0.018,0.27c0.464,1.378,2.019,2.423,3.417,2.33C14.504,17.239,15.027,17.453,15.483,17.909L15.483,17.909
	z"/>
</svg>
