<?xml version="1.0" encoding="utf-8"?>
<!-- Generator: Adobe Illustrator 16.0.3, SVG Export Plug-In . SVG Version: 6.00 Build 0)  -->
<!DOCTYPE svg PUBLIC "-//W3C//DTD SVG 1.1//EN" "http://www.w3.org/Graphics/SVG/1.1/DTD/svg11.dtd">
<svg version="1.1" id="Layer_1" xmlns="http://www.w3.org/2000/svg" xmlns:xlink="http://www.w3.org/1999/xlink" x="0px" y="0px"
	 width="14px" height="14px" viewBox="9 9 14 14" enable-background="new 9 9 14 14" xml:space="preserve">
<path d="M11.636,10.545h8.728c0.451,0,0.837,0.16,1.157,0.479C21.84,11.345,22,11.73,22,12.182v5.455
	c0,0.451-0.16,0.837-0.479,1.156c-0.32,0.32-0.706,0.479-1.157,0.479H19l-0.818-1.091h2.182c0.15,0,0.278-0.053,0.386-0.16
	c0.106-0.106,0.16-0.235,0.16-0.386v-5.454c0-0.151-0.054-0.279-0.16-0.386c-0.107-0.107-0.235-0.16-0.386-0.16h-8.728
	c-0.15,0-0.279,0.053-0.386,0.16c-0.106,0.106-0.16,0.235-0.16,0.386v5.454c0,0.15,0.053,0.279,0.16,0.386
	c0.107,0.107,0.235,0.16,0.386,0.16h2.182L13,19.272h-1.364c-0.452,0-0.837-0.159-1.157-0.479C10.159,18.474,10,18.088,10,17.637
	v-5.455c0-0.452,0.16-0.837,0.479-1.157C10.798,10.706,11.184,10.545,11.636,10.545z M17.091,20.364L16,18.911l-1.091,1.453H17.091
	L17.091,20.364z M12.727,21.454L16,17.091l3.273,4.363H12.727z"/>
</svg>
