<?xml version="1.0" encoding="utf-8"?>
<!-- Generator: Adobe Illustrator 16.0.3, SVG Export Plug-In . SVG Version: 6.00 Build 0)  -->
<!DOCTYPE svg PUBLIC "-//W3C//DTD SVG 1.1//EN" "http://www.w3.org/Graphics/SVG/1.1/DTD/svg11.dtd">
<svg version="1.1" id="Layer_1" xmlns="http://www.w3.org/2000/svg" xmlns:xlink="http://www.w3.org/1999/xlink" x="0px" y="0px"
	 width="14px" height="14px" viewBox="9 9 14 14" enable-background="new 9 9 14 14" xml:space="preserve">
<path d="M10.6,11.801h10.799c0.166,0,0.307,0.059,0.425,0.176C21.941,12.094,22,12.235,22,12.401c0,0.166-0.059,0.307-0.176,0.424
	c-0.118,0.118-0.259,0.176-0.425,0.176H10.6c-0.166,0-0.307-0.059-0.424-0.176C10.059,12.708,10,12.567,10,12.401
	c0-0.166,0.059-0.307,0.176-0.424C10.293,11.859,10.435,11.801,10.6,11.801z M11.8,19.001h8.4c0.166,0,0.307,0.058,0.425,0.176
	c0.116,0.117,0.176,0.259,0.176,0.424c0,0.166-0.06,0.308-0.176,0.424c-0.118,0.118-0.259,0.177-0.425,0.177h-8.4
	c-0.166,0-0.307-0.059-0.424-0.177c-0.117-0.116-0.176-0.258-0.176-0.424c0-0.165,0.059-0.307,0.176-0.424
	C11.494,19.059,11.635,19.001,11.8,19.001z M10.6,16.601h10.799c0.166,0,0.307,0.059,0.425,0.176C21.941,16.894,22,17.035,22,17.2
	c0,0.166-0.059,0.308-0.176,0.425c-0.118,0.117-0.259,0.176-0.425,0.176H10.6c-0.166,0-0.307-0.059-0.424-0.176
	C10.059,17.508,10,17.366,10,17.2c0-0.165,0.059-0.307,0.176-0.424C10.293,16.659,10.435,16.601,10.6,16.601z M11.8,14.201h8.4
	c0.166,0,0.307,0.059,0.425,0.176c0.116,0.118,0.176,0.259,0.176,0.424c0,0.166-0.06,0.307-0.176,0.424
	c-0.118,0.117-0.259,0.176-0.425,0.176h-8.4c-0.166,0-0.307-0.059-0.424-0.176c-0.117-0.117-0.176-0.258-0.176-0.424
	c0-0.166,0.059-0.307,0.176-0.424C11.494,14.259,11.635,14.201,11.8,14.201z"/>
</svg>
