<?xml version="1.0" encoding="utf-8"?>
<!-- Generator: Adobe Illustrator 16.0.3, SVG Export Plug-In . SVG Version: 6.00 Build 0)  -->
<!DOCTYPE svg PUBLIC "-//W3C//DTD SVG 1.1//EN" "http://www.w3.org/Graphics/SVG/1.1/DTD/svg11.dtd">
<svg version="1.1" id="Layer_1" xmlns="http://www.w3.org/2000/svg" xmlns:xlink="http://www.w3.org/1999/xlink" x="0px" y="0px"
	 width="14px" height="14px" viewBox="9 9 14 14" enable-background="new 9 9 14 14" xml:space="preserve">
<path d="M10.6,11.8h10.799c0.166,0,0.307,0.059,0.425,0.176C21.941,12.093,22,12.234,22,12.4c0,0.166-0.059,0.307-0.176,0.424
	C21.706,12.942,21.565,13,21.399,13H10.6c-0.166,0-0.307-0.059-0.424-0.176C10.059,12.708,10,12.566,10,12.4
	c0-0.166,0.059-0.307,0.176-0.424C10.293,11.858,10.435,11.8,10.6,11.8z M13,19h8.399c0.166,0,0.307,0.058,0.425,0.176
	C21.941,19.293,22,19.435,22,19.6c0,0.166-0.059,0.308-0.176,0.424c-0.118,0.118-0.259,0.177-0.425,0.177H13
	c-0.166,0-0.307-0.059-0.424-0.177C12.458,19.907,12.4,19.766,12.4,19.6c0-0.165,0.059-0.307,0.176-0.424
	C12.693,19.058,12.834,19,13,19z M10.6,16.6h10.799c0.166,0,0.307,0.059,0.425,0.176C21.941,16.893,22,17.034,22,17.199
	c0,0.166-0.059,0.308-0.176,0.425c-0.118,0.117-0.259,0.176-0.425,0.176H10.6c-0.166,0-0.307-0.059-0.424-0.176
	C10.059,17.507,10,17.365,10,17.199c0-0.165,0.059-0.307,0.176-0.424C10.293,16.658,10.435,16.6,10.6,16.6z M13,14.2h8.399
	c0.166,0,0.307,0.059,0.425,0.176C21.941,14.493,22,14.634,22,14.8c0,0.166-0.059,0.307-0.176,0.424
	c-0.118,0.117-0.259,0.176-0.425,0.176H13c-0.166,0-0.307-0.059-0.424-0.176S12.4,14.966,12.4,14.8c0-0.166,0.059-0.307,0.176-0.424
	C12.693,14.258,12.834,14.2,13,14.2z"/>
</svg>
