<?xml version="1.0" encoding="utf-8"?>
<!-- Generator: Adobe Illustrator 16.0.3, SVG Export Plug-In . SVG Version: 6.00 Build 0)  -->
<!DOCTYPE svg PUBLIC "-//W3C//DTD SVG 1.1//EN" "http://www.w3.org/Graphics/SVG/1.1/DTD/svg11.dtd">
<svg version="1.1" id="Layer_1" xmlns="http://www.w3.org/2000/svg" xmlns:xlink="http://www.w3.org/1999/xlink" x="0px" y="0px"
	 width="14px" height="14px" viewBox="9 9 14 14" enable-background="new 9 9 14 14" xml:space="preserve">
<path d="M10.6,11.2h3c0.228,0,0.401,0.1,0.521,0.3l4.625,8.099h2.653c0.166,0,0.307,0.06,0.425,0.176
	C21.941,19.894,22,20.035,22,20.2c0,0.166-0.059,0.308-0.176,0.425c-0.118,0.117-0.259,0.176-0.425,0.176h-3
	c-0.228,0-0.401-0.101-0.52-0.301l-4.626-8.099H10.6c-0.166,0-0.307-0.059-0.424-0.176C10.059,12.108,10,11.966,10,11.801
	c0-0.166,0.059-0.307,0.176-0.424C10.293,11.259,10.435,11.2,10.6,11.2z M17.2,11.2h3c0.166,0,0.307,0.059,0.425,0.176
	c0.116,0.117,0.176,0.258,0.176,0.424c0,0.166-0.06,0.307-0.176,0.424c-0.118,0.117-0.259,0.176-0.425,0.176h-3
	c-0.166,0-0.308-0.059-0.424-0.176c-0.118-0.118-0.177-0.259-0.177-0.424c0-0.166,0.059-0.307,0.177-0.424
	C16.893,11.259,17.034,11.2,17.2,11.2z"/>
</svg>
