<?xml version="1.0" encoding="utf-8"?>
<!-- Generator: Adobe Illustrator 16.0.3, SVG Export Plug-In . SVG Version: 6.00 Build 0)  -->
<!DOCTYPE svg PUBLIC "-//W3C//DTD SVG 1.1//EN" "http://www.w3.org/Graphics/SVG/1.1/DTD/svg11.dtd">
<svg version="1.1" id="Layer_1" xmlns="http://www.w3.org/2000/svg" xmlns:xlink="http://www.w3.org/1999/xlink" x="0px" y="0px"
	 width="14px" height="14px" viewBox="9 9 14 14" enable-background="new 9 9 14 14" xml:space="preserve">
<path d="M15.999,10c0.603,0,1.116,0.213,1.543,0.64c0.426,0.426,0.639,0.94,0.639,1.542c0,0.503-0.153,0.95-0.46,1.341
	c-0.307,0.39-0.699,0.646-1.176,0.769v6.588c0.604-0.068,1.177-0.243,1.715-0.526c0.538-0.282,1.001-0.639,1.39-1.066
	c0.388-0.43,0.694-0.93,0.92-1.501s0.339-1.166,0.339-1.785c0-0.15,0.054-0.279,0.16-0.386s0.235-0.16,0.386-0.16
	s0.279,0.054,0.386,0.16S22,15.85,22,16c0,0.815-0.158,1.593-0.476,2.333c-0.316,0.739-0.742,1.377-1.278,1.913
	c-0.535,0.536-1.173,0.962-1.913,1.278S16.815,22,16,22s-1.593-0.159-2.333-0.476c-0.74-0.316-1.378-0.742-1.914-1.278
	s-0.961-1.174-1.278-1.913C10.159,17.593,10,16.815,10,16c0-0.15,0.054-0.279,0.16-0.386c0.107-0.106,0.235-0.16,0.386-0.16
	c0.151,0,0.279,0.054,0.386,0.16s0.16,0.235,0.16,0.386c0,0.619,0.113,1.214,0.339,1.785c0.226,0.571,0.532,1.071,0.92,1.501
	c0.388,0.428,0.851,0.784,1.389,1.066c0.538,0.283,1.11,0.458,1.715,0.526v-6.588c-0.478-0.122-0.87-0.379-1.176-0.769
	c-0.307-0.391-0.46-0.838-0.46-1.341c0-0.602,0.213-1.116,0.64-1.542c0.426-0.427,0.94-0.64,1.542-0.64H15.999z M15.999,11.091
	c-0.301,0-0.558,0.106-0.771,0.319c-0.213,0.213-0.319,0.471-0.319,0.771s0.106,0.558,0.319,0.771c0.213,0.214,0.47,0.32,0.771,0.32
	c0.301,0,0.558-0.106,0.771-0.32c0.214-0.213,0.32-0.47,0.32-0.771s-0.106-0.559-0.32-0.771
	C16.557,11.197,16.3,11.091,15.999,11.091z"/>
</svg>
