<?xml version="1.0" encoding="utf-8"?>
<!-- Generator: Adobe Illustrator 16.0.3, SVG Export Plug-In . SVG Version: 6.00 Build 0)  -->
<!DOCTYPE svg PUBLIC "-//W3C//DTD SVG 1.1//EN" "http://www.w3.org/Graphics/SVG/1.1/DTD/svg11.dtd">
<svg version="1.1" id="Layer_1" xmlns="http://www.w3.org/2000/svg" xmlns:xlink="http://www.w3.org/1999/xlink" x="0px" y="0px"
	 width="14px" height="14px" viewBox="9 9 14 14" enable-background="new 9 9 14 14" xml:space="preserve">
<path d="M13,11.5h6l3,3V19c0,0.414-0.146,0.768-0.439,1.061S20.914,20.5,20.5,20.5h-9c-0.414,0-0.768-0.146-1.061-0.439
	S10,19.414,10,19v-4.5L13,11.5z M21,19v-3.5h-2.195c-0.222,0.578-0.591,1.057-1.107,1.434S16.614,17.5,16,17.5
	c-0.409,0-0.806-0.087-1.191-0.262s-0.722-0.414-1.008-0.717c-0.287-0.303-0.501-0.644-0.645-1.021H11V19
	c0,0.136,0.048,0.253,0.144,0.352c0.096,0.1,0.215,0.148,0.355,0.148h9c0.138,0,0.256-0.049,0.354-0.146S21,19.138,21,19z
	 M20.586,14.5l-1.98-2h-5.191l-2,2H14c0,0.331,0.088,0.649,0.266,0.957c0.177,0.307,0.421,0.558,0.732,0.752
	C15.31,16.403,15.644,16.5,16,16.5s0.69-0.097,1.002-0.291c0.312-0.194,0.555-0.445,0.732-0.752C17.912,15.149,18,14.831,18,14.5
	H20.586z"/>
</svg>
