<?xml version="1.0" encoding="utf-8"?>
<!-- Generator: Adobe Illustrator 16.0.3, SVG Export Plug-In . SVG Version: 6.00 Build 0)  -->
<!DOCTYPE svg PUBLIC "-//W3C//DTD SVG 1.1//EN" "http://www.w3.org/Graphics/SVG/1.1/DTD/svg11.dtd">
<svg version="1.1" id="Layer_1" xmlns="http://www.w3.org/2000/svg" xmlns:xlink="http://www.w3.org/1999/xlink" x="0px" y="0px"
	 width="14px" height="14px" viewBox="9 9 14 14" enable-background="new 9 9 14 14" xml:space="preserve">
<path d="M16,10c0.169,0,0.312,0.057,0.427,0.173l4.2,4.2c0.115,0.116,0.174,0.258,0.174,0.427c0,0.171-0.058,0.315-0.172,0.429
	c-0.113,0.113-0.257,0.171-0.428,0.171c-0.17,0-0.312-0.058-0.428-0.173L16.6,12.047V21.4c0,0.166-0.058,0.307-0.176,0.424
	C16.308,21.941,16.166,22,16,22s-0.307-0.059-0.424-0.176S15.4,21.566,15.4,21.4v-9.353l-3.174,3.179
	c-0.116,0.115-0.258,0.173-0.427,0.173c-0.172,0-0.315-0.058-0.429-0.171C11.256,15.115,11.2,14.971,11.2,14.8
	c0-0.169,0.058-0.312,0.173-0.427l4.2-4.2C15.688,10.057,15.831,10,16,10L16,10z"/>
</svg>
