<?xml version="1.0" encoding="utf-8"?>
<!-- Generator: Adobe Illustrator 16.0.3, SVG Export Plug-In . SVG Version: 6.00 Build 0)  -->
<!DOCTYPE svg PUBLIC "-//W3C//DTD SVG 1.1//EN" "http://www.w3.org/Graphics/SVG/1.1/DTD/svg11.dtd">
<svg version="1.1" id="Layer_1" xmlns="http://www.w3.org/2000/svg" xmlns:xlink="http://www.w3.org/1999/xlink" x="0px" y="0px"
	 width="14px" height="14px" viewBox="9 9 14 14" enable-background="new 9 9 14 14" xml:space="preserve">
<path d="M16,10c0.166,0,0.307,0.059,0.425,0.176c0.117,0.118,0.175,0.259,0.175,0.424v9.352l3.174-3.179
	c0.115-0.115,0.258-0.173,0.427-0.173c0.172,0,0.314,0.057,0.429,0.171c0.114,0.113,0.171,0.257,0.171,0.429
	c0,0.169-0.058,0.312-0.173,0.427l-4.2,4.2C16.311,21.942,16.169,22,16,22s-0.311-0.058-0.426-0.173l-4.2-4.2
	C11.258,17.512,11.2,17.369,11.2,17.2c0-0.172,0.057-0.315,0.171-0.429c0.114-0.114,0.257-0.171,0.429-0.171
	c0.169,0,0.312,0.058,0.427,0.173l3.173,3.179V10.6c0-0.166,0.059-0.307,0.176-0.424C15.693,10.059,15.835,10,16,10L16,10z"/>
</svg>
