<?xml version="1.0" encoding="utf-8"?>
<!-- Generator: Adobe Illustrator 16.0.3, SVG Export Plug-In . SVG Version: 6.00 Build 0)  -->
<!DOCTYPE svg PUBLIC "-//W3C//DTD SVG 1.1//EN" "http://www.w3.org/Graphics/SVG/1.1/DTD/svg11.dtd">
<svg version="1.1" id="Layer_1" xmlns="http://www.w3.org/2000/svg" xmlns:xlink="http://www.w3.org/1999/xlink" x="0px" y="0px"
	 width="14px" height="14px" viewBox="9 9 14 14" enable-background="new 9 9 14 14" xml:space="preserve">
<path d="M14.8,11.199c0.166,0,0.307,0.059,0.425,0.176c0.117,0.117,0.176,0.259,0.176,0.425c0,0.169-0.06,0.311-0.179,0.427
	l-3.173,3.173H21.4c0.165,0,0.307,0.059,0.425,0.176C21.941,15.692,22,15.834,22,16c0,0.165-0.059,0.307-0.175,0.424
	c-0.118,0.118-0.26,0.177-0.425,0.177h-9.352l3.173,3.173c0.119,0.115,0.179,0.258,0.179,0.427c0,0.166-0.059,0.308-0.176,0.424
	c-0.118,0.118-0.259,0.177-0.425,0.177c-0.169,0-0.312-0.058-0.427-0.174l-4.199-4.199C10.058,16.305,10,16.163,10,16.001
	c0-0.163,0.058-0.305,0.174-0.427l4.199-4.2c0.119-0.115,0.261-0.173,0.427-0.173V11.199z"/>
</svg>
