<?xml version="1.0" encoding="utf-8"?>
<!-- Generator: Adobe Illustrator 16.0.3, SVG Export Plug-In . SVG Version: 6.00 Build 0)  -->
<!DOCTYPE svg PUBLIC "-//W3C//DTD SVG 1.1//EN" "http://www.w3.org/Graphics/SVG/1.1/DTD/svg11.dtd">
<svg version="1.1" id="Layer_1" xmlns="http://www.w3.org/2000/svg" xmlns:xlink="http://www.w3.org/1999/xlink" x="0px" y="0px"
	 width="14px" height="14px" viewBox="9 9 14 14" enable-background="new 9 9 14 14" xml:space="preserve">
<path d="M16,10c0.338,0,0.662,0.066,0.971,0.199s0.574,0.311,0.797,0.533s0.4,0.488,0.533,0.797S18.5,12.161,18.5,12.5V13h2v7.5
	c0,0.414-0.146,0.768-0.439,1.061S19.414,22,19,22h-6c-0.414,0-0.768-0.146-1.061-0.439S11.5,20.914,11.5,20.5V13h2v-0.5
	c0-0.338,0.066-0.662,0.199-0.971c0.133-0.309,0.311-0.574,0.534-0.797c0.223-0.223,0.488-0.4,0.797-0.533
	C15.338,10.066,15.661,10,16,10z M19.5,20.5V14h-7v6.5c0,0.138,0.049,0.256,0.146,0.354S12.862,21,13,21h6
	c0.138,0,0.256-0.049,0.354-0.146S19.5,20.638,19.5,20.5L19.5,20.5z M16,11c-0.414,0-0.768,0.146-1.061,0.439S14.5,12.086,14.5,12.5
	V13h3v-0.5c0-0.414-0.146-0.768-0.439-1.061S16.414,11,16,11z"/>
</svg>
