<?xml version="1.0" encoding="utf-8"?>
<!-- Generator: Adobe Illustrator 16.0.3, SVG Export Plug-In . SVG Version: 6.00 Build 0)  -->
<!DOCTYPE svg PUBLIC "-//W3C//DTD SVG 1.1//EN" "http://www.w3.org/Graphics/SVG/1.1/DTD/svg11.dtd">
<svg version="1.1" id="Layer_1" xmlns="http://www.w3.org/2000/svg" xmlns:xlink="http://www.w3.org/1999/xlink" x="0px" y="0px"
	 width="14px" height="14px" viewBox="9 9 14 14" enable-background="new 9 9 14 14" xml:space="preserve">
<path d="M20.363,10c0.452,0,0.838,0.16,1.157,0.479C21.84,10.8,22,11.186,22,11.637v8.728c0,0.451-0.16,0.837-0.479,1.156
	C21.201,21.841,20.815,22,20.363,22c-0.451,0-0.837-0.159-1.156-0.479c-0.32-0.319-0.479-0.705-0.479-1.156v-8.728
	c0-0.451,0.159-0.837,0.479-1.157C19.526,10.16,19.912,10,20.363,10z M11.636,16.546c0.452,0,0.837,0.16,1.157,0.479
	c0.319,0.319,0.479,0.705,0.479,1.157v2.182c0,0.451-0.16,0.837-0.479,1.156C12.474,21.841,12.088,22,11.636,22
	s-0.837-0.159-1.157-0.479C10.16,21.201,10,20.815,10,20.364v-2.182c0-0.452,0.16-0.838,0.479-1.157
	C10.799,16.706,11.185,16.546,11.636,16.546z M11.636,17.637c-0.15,0-0.279,0.054-0.386,0.16c-0.106,0.107-0.16,0.235-0.16,0.386
	v2.182c0,0.15,0.053,0.279,0.16,0.386c0.107,0.107,0.235,0.16,0.386,0.16c0.151,0,0.279-0.053,0.386-0.16
	c0.107-0.106,0.16-0.235,0.16-0.386v-2.182c0-0.15-0.053-0.278-0.16-0.386C11.916,17.69,11.787,17.637,11.636,17.637z M16,13.273
	c0.452,0,0.837,0.159,1.157,0.479c0.319,0.319,0.479,0.705,0.479,1.156v5.455c0,0.451-0.16,0.837-0.479,1.156
	C16.837,21.841,16.452,22,16,22s-0.837-0.159-1.157-0.479c-0.32-0.319-0.479-0.705-0.479-1.156v-5.455
	c0-0.451,0.16-0.837,0.479-1.156C15.163,13.433,15.548,13.273,16,13.273z M16,14.364c-0.15,0-0.279,0.053-0.386,0.16
	c-0.106,0.106-0.16,0.234-0.16,0.386v5.454c0,0.15,0.054,0.279,0.16,0.386c0.107,0.107,0.235,0.16,0.386,0.16
	s0.279-0.053,0.386-0.16c0.106-0.106,0.16-0.235,0.16-0.386V14.91c0-0.151-0.054-0.279-0.16-0.386
	C16.279,14.417,16.15,14.364,16,14.364z M20.363,11.092c-0.15,0-0.279,0.053-0.385,0.159c-0.107,0.107-0.16,0.235-0.16,0.386v8.728
	c0,0.15,0.053,0.279,0.16,0.386c0.105,0.107,0.234,0.16,0.385,0.16c0.151,0,0.279-0.053,0.386-0.16
	c0.107-0.106,0.16-0.235,0.16-0.386v-8.728c0-0.15-0.053-0.278-0.16-0.386C20.643,11.145,20.515,11.092,20.363,11.092z"/>
</svg>
