<?xml version="1.0" encoding="utf-8"?>
<!-- Generator: Adobe Illustrator 16.0.3, SVG Export Plug-In . SVG Version: 6.00 Build 0)  -->
<!DOCTYPE svg PUBLIC "-//W3C//DTD SVG 1.1//EN" "http://www.w3.org/Graphics/SVG/1.1/DTD/svg11.dtd">
<svg version="1.1" id="Layer_1" xmlns="http://www.w3.org/2000/svg" xmlns:xlink="http://www.w3.org/1999/xlink" x="0px" y="0px"
	 width="14px" height="14px" viewBox="9 9 14 14" enable-background="new 9 9 14 14" xml:space="preserve">
<path d="M11.5,12.5H19c0.414,0,0.768,0.146,1.061,0.439S20.5,13.586,20.5,14c0.414,0,0.768,0.146,1.061,0.439S22,15.086,22,15.5v1
	c0,0.413-0.146,0.768-0.439,1.061S20.914,18,20.5,18c0,0.413-0.146,0.768-0.439,1.061S19.414,19.5,19,19.5h-7.5
	c-0.414,0-0.768-0.146-1.061-0.439S10,18.413,10,18v-4c0-0.414,0.146-0.768,0.439-1.061S11.086,12.5,11.5,12.5z M19,13.499h-7.5
	c-0.138,0-0.256,0.049-0.354,0.147C11.049,13.744,11,13.861,11,14v4c0,0.138,0.049,0.256,0.146,0.354S11.362,18.5,11.5,18.5H19
	c0.138,0,0.256-0.049,0.354-0.146S19.5,18.138,19.5,18v-4c0-0.139-0.049-0.256-0.146-0.354C19.256,13.548,19.138,13.499,19,13.499z
	 M20.5,14.999v2c0.138,0,0.256-0.049,0.354-0.146S21,16.637,21,16.499v-1c0-0.138-0.049-0.256-0.146-0.354
	S20.638,14.999,20.5,14.999L20.5,14.999z"/>
</svg>
