<?xml version="1.0" encoding="utf-8"?>
<!-- Generator: Adobe Illustrator 16.0.3, SVG Export Plug-In . SVG Version: 6.00 Build 0)  -->
<!DOCTYPE svg PUBLIC "-//W3C//DTD SVG 1.1//EN" "http://www.w3.org/Graphics/SVG/1.1/DTD/svg11.dtd">
<svg version="1.1" id="Layer_1" xmlns="http://www.w3.org/2000/svg" xmlns:xlink="http://www.w3.org/1999/xlink" x="0px" y="0px"
	 width="14px" height="14px" viewBox="9 9 14 14" enable-background="new 9 9 14 14" xml:space="preserve">
<path d="M12.454,10h8.728v12h-8.728c-0.451,0-0.837-0.16-1.157-0.479c-0.319-0.32-0.479-0.706-0.479-1.157v-8.728
	c0-0.451,0.159-0.837,0.479-1.156C11.617,10.159,12.003,10,12.454,10z M20.09,20.909v-1.092h-7.636c-0.15,0-0.279,0.054-0.386,0.16
	s-0.16,0.235-0.16,0.386s0.054,0.279,0.16,0.386c0.106,0.107,0.235,0.16,0.386,0.16H20.09L20.09,20.909z M20.09,18.728v-7.637
	h-7.636c-0.15,0-0.279,0.054-0.386,0.16s-0.16,0.235-0.16,0.386v7.185c0.179-0.063,0.36-0.094,0.545-0.094H20.09L20.09,18.728z"/>
</svg>
