<?xml version="1.0" encoding="utf-8"?>
<!-- Generator: Adobe Illustrator 16.0.3, SVG Export Plug-In . SVG Version: 6.00 Build 0)  -->
<!DOCTYPE svg PUBLIC "-//W3C//DTD SVG 1.1//EN" "http://www.w3.org/Graphics/SVG/1.1/DTD/svg11.dtd">
<svg version="1.1" id="Layer_1" xmlns="http://www.w3.org/2000/svg" xmlns:xlink="http://www.w3.org/1999/xlink" x="0px" y="0px"
	 width="14px" height="14px" viewBox="9 9 14 14" enable-background="new 9 9 14 14" xml:space="preserve">
<path d="M14.909,10.546h2.182c0.451,0,0.837,0.16,1.156,0.479c0.32,0.319,0.479,0.705,0.479,1.157v0.545h1.637
	c0.451,0,0.837,0.16,1.157,0.479C21.84,13.526,22,13.912,22,14.364v5.454c0,0.451-0.16,0.837-0.479,1.156
	c-0.32,0.32-0.706,0.479-1.157,0.479h-8.728c-0.451,0-0.837-0.159-1.156-0.479C10.159,20.655,10,20.27,10,19.818v-5.454
	c0-0.452,0.159-0.838,0.479-1.157c0.319-0.319,0.705-0.479,1.156-0.479h1.637v-0.545c0-0.452,0.16-0.838,0.479-1.157
	S14.457,10.546,14.909,10.546z M12.182,20.364v-6.546h-0.545c-0.15,0-0.279,0.054-0.386,0.16s-0.16,0.235-0.16,0.386v5.454
	c0,0.15,0.054,0.279,0.16,0.386s0.235,0.16,0.386,0.16H12.182L12.182,20.364z M18.728,20.364v-6.546h-5.455v6.546H18.728z
	 M20.363,13.818h-0.545v6.546h0.545c0.15,0,0.279-0.054,0.386-0.16c0.107-0.106,0.16-0.235,0.16-0.386v-5.454
	c0-0.151-0.053-0.279-0.16-0.386C20.643,13.871,20.514,13.818,20.363,13.818L20.363,13.818z M17.091,11.637h-2.182
	c-0.15,0-0.279,0.053-0.386,0.16c-0.106,0.106-0.16,0.234-0.16,0.386v0.545h3.272v-0.545c0-0.151-0.053-0.279-0.159-0.386
	C17.369,11.689,17.241,11.637,17.091,11.637L17.091,11.637z"/>
</svg>
