<?xml version="1.0" encoding="utf-8"?>
<!-- Generator: Adobe Illustrator 16.0.3, SVG Export Plug-In . SVG Version: 6.00 Build 0)  -->
<!DOCTYPE svg PUBLIC "-//W3C//DTD SVG 1.1//EN" "http://www.w3.org/Graphics/SVG/1.1/DTD/svg11.dtd">
<svg version="1.1" id="Layer_1" xmlns="http://www.w3.org/2000/svg" xmlns:xlink="http://www.w3.org/1999/xlink" x="0px" y="0px"
	 width="14px" height="14px" viewBox="9 9 14 14" enable-background="new 9 9 14 14" xml:space="preserve">
<path d="M14,11h4l1,1.5h1.5c0.414,0,0.768,0.148,1.061,0.447C21.854,13.245,22,13.602,22,14.016v5.492
	c0,0.414-0.146,0.766-0.439,1.057C21.268,20.854,20.914,21,20.5,21h-9c-0.414,0-0.768-0.146-1.061-0.439S10,19.913,10,19.5v-5.492
	c0-0.414,0.146-0.77,0.439-1.064c0.293-0.296,0.646-0.444,1.061-0.443H13L14,11z M16,14c0.338,0,0.663,0.066,0.971,0.199
	c0.309,0.132,0.574,0.31,0.797,0.533c0.222,0.223,0.4,0.488,0.533,0.797S18.5,16.161,18.5,16.5
	c-0.001,0.338-0.067,0.662-0.199,0.971c-0.133,0.309-0.311,0.574-0.533,0.797c-0.224,0.223-0.489,0.4-0.797,0.533
	C16.662,18.934,16.339,19,16,19c-0.339,0-0.663-0.066-0.971-0.199s-0.574-0.311-0.797-0.533s-0.401-0.488-0.533-0.797
	S13.5,16.838,13.5,16.5c0-0.339,0.066-0.662,0.199-0.971c0.133-0.309,0.311-0.574,0.533-0.797c0.223-0.224,0.488-0.401,0.797-0.533
	C15.337,14.066,15.661,14,16,14z M16,14.999c-0.414,0-0.768,0.146-1.061,0.439S14.5,16.085,14.5,16.499s0.146,0.768,0.439,1.061
	s0.646,0.439,1.061,0.439s0.768-0.146,1.061-0.439s0.439-0.646,0.439-1.061s-0.146-0.768-0.439-1.061S16.414,14.999,16,14.999z
	 M18.465,13.499l-0.981-1.5h-2.949l-1,1.5h-2.035c-0.138,0-0.255,0.05-0.354,0.148c-0.098,0.1-0.146,0.22-0.146,0.359v5.492
	c0,0.139,0.049,0.256,0.146,0.354c0.098,0.099,0.216,0.146,0.354,0.146h9c0.142,0,0.26-0.047,0.355-0.142
	c0.097-0.096,0.145-0.212,0.145-0.35v-5.492c0-0.141-0.049-0.262-0.148-0.363c-0.099-0.102-0.216-0.152-0.352-0.152L18.465,13.499
	L18.465,13.499z"/>
</svg>
