<?xml version="1.0" encoding="utf-8"?>
<!-- Generator: Adobe Illustrator 16.0.3, SVG Export Plug-In . SVG Version: 6.00 Build 0)  -->
<!DOCTYPE svg PUBLIC "-//W3C//DTD SVG 1.1//EN" "http://www.w3.org/Graphics/SVG/1.1/DTD/svg11.dtd">
<svg version="1.1" id="Layer_1" xmlns="http://www.w3.org/2000/svg" xmlns:xlink="http://www.w3.org/1999/xlink" x="0px" y="0px"
	 width="14px" height="14px" viewBox="9 9 14 14" enable-background="new 9 9 14 14" xml:space="preserve">
<path d="M16,9.999c0.815,0,1.594,0.158,2.333,0.475c0.74,0.316,1.378,0.743,1.913,1.278c0.536,0.536,0.962,1.173,1.279,1.914
	C21.842,14.406,22,15.184,22,15.999s-0.158,1.594-0.475,2.333c-0.317,0.74-0.743,1.378-1.279,1.913
	c-0.535,0.536-1.173,0.963-1.913,1.279c-0.739,0.316-1.518,0.475-2.333,0.475s-1.593-0.158-2.333-0.475
	c-0.74-0.316-1.378-0.743-1.914-1.279c-0.536-0.535-0.962-1.173-1.278-1.913C10.158,17.593,10,16.814,10,15.999
	s0.158-1.593,0.475-2.333c0.316-0.74,0.743-1.378,1.278-1.914s1.173-0.962,1.914-1.278C14.407,10.157,15.185,9.999,16,9.999z
	 M16,11.09c-0.665,0-1.301,0.13-1.907,0.39c-0.606,0.26-1.128,0.608-1.566,1.046c-0.438,0.438-0.787,0.96-1.046,1.566
	s-0.39,1.242-0.39,1.907c0,0.664,0.129,1.301,0.39,1.907s0.609,1.128,1.046,1.565c0.437,0.438,0.959,0.787,1.566,1.046
	c0.607,0.26,1.242,0.391,1.907,0.391c0.664,0,1.3-0.131,1.907-0.391c0.606-0.259,1.128-0.608,1.565-1.046s0.786-0.959,1.046-1.565
	c0.261-0.606,0.391-1.243,0.391-1.907c-0.001-0.665-0.131-1.3-0.391-1.907c-0.259-0.606-0.608-1.129-1.046-1.566
	s-0.96-0.786-1.565-1.046C17.301,11.22,16.665,11.09,16,11.09z M17.543,13.907c0.15,0,0.279,0.053,0.388,0.16
	c0.107,0.106,0.162,0.235,0.162,0.386s-0.055,0.28-0.162,0.388L16.771,16l1.159,1.155c0.107,0.108,0.162,0.236,0.162,0.384
	c0,0.15-0.055,0.279-0.162,0.386c-0.108,0.106-0.237,0.16-0.388,0.16c-0.151,0-0.279-0.053-0.384-0.157L16,16.771l-1.155,1.155
	c-0.105,0.104-0.234,0.157-0.388,0.157c-0.15,0-0.279-0.053-0.386-0.157c-0.106-0.105-0.16-0.233-0.16-0.385
	c0-0.153,0.052-0.282,0.157-0.387L15.228,16l-1.159-1.159c-0.105-0.105-0.157-0.233-0.157-0.384s0.053-0.28,0.16-0.388
	c0.107-0.108,0.235-0.162,0.386-0.162c0.151,0,0.28,0.054,0.388,0.162L16,15.229l1.159-1.159
	C17.268,13.961,17.396,13.907,17.543,13.907L17.543,13.907z"/>
</svg>
