<?xml version="1.0" encoding="utf-8"?>
<!-- Generator: Adobe Illustrator 16.0.3, SVG Export Plug-In . SVG Version: 6.00 Build 0)  -->
<!DOCTYPE svg PUBLIC "-//W3C//DTD SVG 1.1//EN" "http://www.w3.org/Graphics/SVG/1.1/DTD/svg11.dtd">
<svg version="1.1" id="Layer_1" xmlns="http://www.w3.org/2000/svg" xmlns:xlink="http://www.w3.org/1999/xlink" x="0px" y="0px"
	 width="14px" height="14px" viewBox="9 9 14 14" enable-background="new 9 9 14 14" xml:space="preserve">
<path d="M14.909,10h2.182c0.353,0,0.669,0.102,0.95,0.305s0.479,0.465,0.593,0.786h0.639c0.451,0,0.838,0.16,1.157,0.479
	c0.319,0.32,0.479,0.706,0.479,1.157v7.636c0,0.452-0.16,0.838-0.479,1.157S19.724,22,19.272,22h-6.545
	c-0.452,0-0.837-0.16-1.157-0.479c-0.319-0.319-0.479-0.705-0.479-1.157v-7.636c0-0.452,0.16-0.837,0.479-1.157
	c0.32-0.319,0.706-0.479,1.157-0.479h0.639c0.114-0.321,0.311-0.583,0.592-0.786S14.557,10,14.909,10L14.909,10z M19.272,12.182
	h-0.639c-0.114,0.321-0.312,0.583-0.593,0.786s-0.598,0.305-0.95,0.305h-2.182c-0.353,0-0.669-0.102-0.951-0.305
	c-0.281-0.203-0.479-0.465-0.592-0.786h-0.639c-0.151,0-0.279,0.053-0.386,0.16c-0.107,0.107-0.16,0.235-0.16,0.386v7.637
	c0,0.15,0.053,0.279,0.16,0.386c0.106,0.106,0.235,0.16,0.386,0.16h6.545c0.15,0,0.279-0.054,0.386-0.16s0.16-0.235,0.16-0.386
	v-7.637c0-0.15-0.054-0.279-0.16-0.386C19.552,12.235,19.423,12.182,19.272,12.182L19.272,12.182z M17.091,11.091h-2.182
	c-0.15,0-0.279,0.054-0.386,0.16c-0.106,0.107-0.16,0.235-0.16,0.386s0.053,0.279,0.16,0.386c0.107,0.106,0.235,0.16,0.386,0.16
	h2.182c0.15,0,0.279-0.054,0.386-0.16c0.107-0.106,0.16-0.235,0.16-0.386s-0.053-0.279-0.16-0.386
	C17.37,11.145,17.241,11.091,17.091,11.091z"/>
</svg>
