<?xml version="1.0" encoding="utf-8"?>
<!-- Generator: Adobe Illustrator 16.0.3, SVG Export Plug-In . SVG Version: 6.00 Build 0)  -->
<!DOCTYPE svg PUBLIC "-//W3C//DTD SVG 1.1//EN" "http://www.w3.org/Graphics/SVG/1.1/DTD/svg11.dtd">
<svg version="1.1" id="Layer_1" xmlns="http://www.w3.org/2000/svg" xmlns:xlink="http://www.w3.org/1999/xlink" x="0px" y="0px"
	 width="14px" height="14px" viewBox="9 9 14 14" enable-background="new 9 9 14 14" xml:space="preserve">
<path d="M16,10c0.815,0,1.594,0.158,2.333,0.475c0.74,0.316,1.378,0.743,1.913,1.278c0.536,0.536,0.962,1.173,1.279,1.914
	C21.842,14.407,22,15.185,22,16s-0.158,1.594-0.475,2.333c-0.317,0.74-0.743,1.378-1.279,1.913
	c-0.535,0.536-1.173,0.963-1.913,1.279C17.594,21.842,16.815,22,16,22s-1.593-0.158-2.333-0.475
	c-0.74-0.316-1.378-0.743-1.914-1.279c-0.536-0.535-0.962-1.173-1.278-1.913C10.158,17.594,10,16.815,10,16s0.158-1.593,0.475-2.333
	c0.316-0.74,0.743-1.378,1.278-1.914s1.173-0.962,1.914-1.278C14.407,10.158,15.185,10,16,10z M16,11.091
	c-0.665,0-1.301,0.13-1.907,0.39c-0.606,0.26-1.128,0.608-1.566,1.046c-0.438,0.438-0.787,0.96-1.046,1.566s-0.39,1.242-0.39,1.907
	c0,0.664,0.129,1.301,0.39,1.907s0.609,1.128,1.046,1.565c0.437,0.438,0.959,0.787,1.566,1.046c0.607,0.26,1.242,0.391,1.907,0.391
	c0.664,0,1.3-0.131,1.907-0.391c0.606-0.259,1.128-0.608,1.565-1.046s0.786-0.959,1.046-1.565c0.261-0.606,0.391-1.243,0.391-1.907
	c-0.001-0.665-0.131-1.3-0.391-1.907c-0.259-0.606-0.608-1.129-1.046-1.566s-0.96-0.786-1.565-1.046
	C17.301,11.221,16.665,11.091,16,11.091z M16,12.182c0.15,0,0.279,0.053,0.386,0.16c0.106,0.106,0.16,0.235,0.16,0.386v3.047
	l1.479,1.474c0.105,0.105,0.158,0.234,0.158,0.389c0,0.153-0.053,0.282-0.158,0.388c-0.104,0.104-0.233,0.157-0.388,0.157
	c-0.153,0-0.283-0.053-0.388-0.157l-1.636-1.637c-0.105-0.105-0.158-0.234-0.158-0.388v-3.273c0-0.151,0.053-0.279,0.16-0.386
	C15.722,12.235,15.85,12.182,16,12.182L16,12.182z"/>
</svg>
