<?xml version="1.0" encoding="utf-8"?>
<!-- Generator: Adobe Illustrator 16.0.3, SVG Export Plug-In . SVG Version: 6.00 Build 0)  -->
<!DOCTYPE svg PUBLIC "-//W3C//DTD SVG 1.1//EN" "http://www.w3.org/Graphics/SVG/1.1/DTD/svg11.dtd">
<svg version="1.1" id="Layer_1" xmlns="http://www.w3.org/2000/svg" xmlns:xlink="http://www.w3.org/1999/xlink" x="0px" y="0px"
	 width="14px" height="14px" viewBox="9 9 14 14" enable-background="new 9 9 14 14" xml:space="preserve">
<path d="M17.5,11.25c0.609,0,1.192,0.119,1.748,0.357s1.034,0.558,1.436,0.959s0.721,0.88,0.959,1.436
	C21.881,14.559,22,15.141,22,15.75c0,0.664-0.137,1.292-0.41,1.883c-0.273,0.592-0.651,1.096-1.133,1.514s-1.029,0.721-1.641,0.908
	l0.246-0.242c0.141-0.144,0.25-0.31,0.328-0.5c0.072-0.177,0.109-0.37,0.109-0.578c0-0.052-0.002-0.088-0.004-0.109
	c0.464-0.323,0.83-0.736,1.1-1.24S21,16.336,21,15.75c0-0.474-0.093-0.927-0.277-1.359c-0.186-0.433-0.434-0.805-0.747-1.117
	c-0.313-0.313-0.685-0.562-1.116-0.746c-0.433-0.186-0.886-0.277-1.359-0.277c-0.433,0-0.849,0.077-1.249,0.232
	c-0.399,0.154-0.751,0.365-1.055,0.631c-0.303,0.265-0.558,0.583-0.762,0.953s-0.336,0.765-0.396,1.184H13
	c-0.552,0-1.023,0.195-1.414,0.586S11,16.697,11,17.25c0,0.302,0.059,0.582,0.178,0.84s0.274,0.47,0.467,0.636
	c0.193,0.164,0.407,0.293,0.643,0.386S12.76,19.25,13,19.25h0.586c0.091,0.229,0.208,0.417,0.352,0.563l0.441,0.438H13
	c-0.544,0-1.046-0.135-1.506-0.403c-0.46-0.268-0.824-0.632-1.092-1.091C10.134,18.297,10,17.795,10,17.251
	c0-0.545,0.134-1.047,0.402-1.507c0.269-0.459,0.632-0.823,1.092-1.092c0.459-0.268,0.961-0.402,1.506-0.402h0.258
	c0.206-0.58,0.516-1.097,0.93-1.549c0.414-0.451,0.909-0.807,1.486-1.064S16.859,11.25,17.5,11.25L17.5,11.25z M16.5,15.25
	c0.139,0,0.256,0.049,0.354,0.146c0.099,0.098,0.147,0.216,0.147,0.354v3.294l0.645-0.649c0.096-0.096,0.215-0.144,0.355-0.144
	c0.143,0,0.262,0.047,0.357,0.143c0.095,0.095,0.143,0.214,0.143,0.357c0,0.141-0.049,0.259-0.145,0.355l-1.5,1.5
	c-0.097,0.096-0.215,0.144-0.356,0.144c-0.14,0-0.259-0.048-0.355-0.144l-1.5-1.5c-0.096-0.103-0.144-0.221-0.144-0.355
	c0-0.139,0.049-0.257,0.146-0.354c0.098-0.099,0.215-0.147,0.354-0.147c0.141,0,0.259,0.048,0.355,0.145l0.645,0.648V15.75
	c0-0.138,0.049-0.256,0.147-0.354C16.246,15.299,16.363,15.25,16.5,15.25L16.5,15.25z"/>
</svg>
