<?xml version="1.0" encoding="utf-8"?>
<!-- Generator: Adobe Illustrator 16.0.3, SVG Export Plug-In . SVG Version: 6.00 Build 0)  -->
<!DOCTYPE svg PUBLIC "-//W3C//DTD SVG 1.1//EN" "http://www.w3.org/Graphics/SVG/1.1/DTD/svg11.dtd">
<svg version="1.1" id="Layer_1" xmlns="http://www.w3.org/2000/svg" xmlns:xlink="http://www.w3.org/1999/xlink" x="0px" y="0px"
	 width="14px" height="14px" viewBox="9 9 14 14" enable-background="new 9 9 14 14" xml:space="preserve">
<path d="M11.5,11.5h9c0.414,0,0.768,0.146,1.061,0.439S22,12.586,22,13v6c0,0.414-0.146,0.768-0.439,1.061S20.914,20.5,20.5,20.5h-9
	c-0.414,0-0.768-0.146-1.061-0.439S10,19.414,10,19v-6c0-0.414,0.146-0.768,0.439-1.061S11.086,11.5,11.5,11.5z M13.5,19.5v-7h-2
	c-0.138,0-0.256,0.049-0.354,0.146S11,12.862,11,13v6c0,0.138,0.049,0.256,0.146,0.354S11.362,19.5,11.5,19.5H13.5L13.5,19.5z
	 M17.5,19.5v-7h-3v7H17.5z M20.5,12.5h-2v7h2c0.138,0,0.256-0.049,0.354-0.146S21,19.138,21,19v-6c0-0.138-0.049-0.256-0.146-0.354
	S20.638,12.5,20.5,12.5L20.5,12.5z"/>
</svg>
