<?xml version="1.0" encoding="utf-8"?>
<!-- Generator: Adobe Illustrator 16.0.3, SVG Export Plug-In . SVG Version: 6.00 Build 0)  -->
<!DOCTYPE svg PUBLIC "-//W3C//DTD SVG 1.1//EN" "http://www.w3.org/Graphics/SVG/1.1/DTD/svg11.dtd">
<svg version="1.1" id="Layer_1" xmlns="http://www.w3.org/2000/svg" xmlns:xlink="http://www.w3.org/1999/xlink" x="0px" y="0px"
	 width="14px" height="14px" viewBox="9 9 14 14" enable-background="new 9 9 14 14" xml:space="preserve">
<path d="M19.6,10.001c0.662,0,1.228,0.234,1.697,0.703C21.765,11.174,22,11.739,22,12.401c0,0.663-0.235,1.228-0.703,1.697
	c-0.47,0.469-1.035,0.704-1.697,0.704h-1.2v2.399h1.2c0.662,0,1.228,0.234,1.697,0.703C21.765,18.374,22,18.939,22,19.602
	s-0.235,1.228-0.703,1.697c-0.47,0.468-1.035,0.703-1.697,0.703c-0.663,0-1.228-0.235-1.697-0.703
	c-0.469-0.47-0.703-1.035-0.703-1.697v-1.2H14.8v1.2c0,0.662-0.234,1.228-0.704,1.697c-0.469,0.468-1.034,0.703-1.697,0.703
	c-0.662,0-1.228-0.235-1.697-0.703C10.234,20.829,10,20.264,10,19.602s0.234-1.228,0.703-1.697c0.469-0.469,1.035-0.703,1.697-0.703
	h1.2v-2.399h-1.2c-0.662,0-1.228-0.234-1.697-0.704C10.234,13.629,10,13.064,10,12.401c0-0.662,0.234-1.228,0.703-1.697
	c0.469-0.469,1.035-0.703,1.697-0.703c0.663,0,1.228,0.234,1.697,0.703c0.469,0.469,0.704,1.035,0.704,1.697v1.2h2.399v-1.2
	c0-0.662,0.234-1.228,0.703-1.697C18.372,10.236,18.937,10.001,19.6,10.001z M13.6,19.601v-1.2h-1.2
	c-0.331,0-0.614,0.117-0.848,0.352S11.2,19.27,11.2,19.6c0,0.331,0.117,0.614,0.352,0.849S12.069,20.8,12.4,20.8
	s0.614-0.117,0.848-0.352S13.6,19.931,13.6,19.601L13.6,19.601z M12.4,11.201c-0.331,0-0.614,0.117-0.848,0.352
	c-0.234,0.234-0.352,0.517-0.352,0.848c0,0.331,0.117,0.614,0.352,0.848c0.234,0.235,0.517,0.352,0.848,0.352h1.2v-1.2
	c0-0.331-0.117-0.614-0.352-0.849C13.014,11.318,12.731,11.201,12.4,11.201L12.4,11.201z M17.2,17.201v-2.4h-2.4v2.4H17.2z
	 M19.6,18.4h-1.2v1.2c0,0.331,0.117,0.614,0.351,0.848c0.235,0.235,0.519,0.352,0.849,0.352c0.331,0,0.614-0.116,0.849-0.352
	c0.234-0.233,0.352-0.517,0.352-0.848s-0.117-0.614-0.352-0.849S19.93,18.401,19.6,18.4L19.6,18.4z M19.6,11.201
	c-0.331,0-0.614,0.117-0.849,0.352c-0.234,0.234-0.352,0.517-0.352,0.848v1.2h1.2c0.331,0,0.614-0.117,0.849-0.352
	c0.234-0.234,0.352-0.517,0.352-0.848c0-0.331-0.117-0.614-0.352-0.848C20.214,11.319,19.931,11.202,19.6,11.201L19.6,11.201z"/>
</svg>
