<?xml version="1.0" encoding="utf-8"?>
<!-- Generator: Adobe Illustrator 16.0.3, SVG Export Plug-In . SVG Version: 6.00 Build 0)  -->
<!DOCTYPE svg PUBLIC "-//W3C//DTD SVG 1.1//EN" "http://www.w3.org/Graphics/SVG/1.1/DTD/svg11.dtd">
<svg version="1.1" id="Layer_1" xmlns="http://www.w3.org/2000/svg" xmlns:xlink="http://www.w3.org/1999/xlink" x="0px" y="0px"
	 width="14px" height="14px" viewBox="9 9 14 14" enable-background="new 9 9 14 14" xml:space="preserve">
<path d="M18.182,10h2.182c0.451,0,0.837,0.16,1.157,0.479C21.84,10.798,22,11.184,22,11.636v8.728c0,0.451-0.16,0.837-0.479,1.157
	C21.2,21.84,20.814,22,20.363,22h-2.182c-0.452,0-0.838-0.16-1.157-0.479c-0.319-0.32-0.479-0.706-0.479-1.157v-8.728
	c0-0.452,0.16-0.837,0.479-1.157C17.344,10.159,17.729,10,18.182,10z M11.636,16.545h2.182c0.452,0,0.837,0.16,1.157,0.479
	c0.319,0.319,0.479,0.705,0.479,1.157v2.182c0,0.451-0.16,0.837-0.479,1.157C14.655,21.84,14.269,22,13.817,22h-2.182
	c-0.452,0-0.837-0.16-1.157-0.479C10.159,21.2,10,20.814,10,20.363v-2.182c0-0.452,0.16-0.838,0.479-1.157
	C10.798,16.705,11.184,16.545,11.636,16.545z M13.818,17.636h-2.182c-0.15,0-0.279,0.054-0.386,0.16
	c-0.106,0.107-0.16,0.235-0.16,0.386v2.182c0,0.15,0.054,0.279,0.16,0.386c0.107,0.107,0.235,0.16,0.386,0.16h2.182
	c0.151,0,0.279-0.053,0.386-0.16c0.107-0.106,0.16-0.235,0.16-0.386v-2.182c0-0.15-0.053-0.278-0.16-0.386
	C14.097,17.689,13.969,17.636,13.818,17.636z M11.636,10h2.182c0.452,0,0.837,0.16,1.157,0.479c0.319,0.319,0.479,0.705,0.479,1.157
	v2.182c0,0.452-0.16,0.837-0.479,1.157c-0.32,0.319-0.706,0.479-1.157,0.479h-2.182c-0.452,0-0.837-0.16-1.157-0.479
	C10.159,14.655,10,14.269,10,13.817v-2.182c0-0.452,0.16-0.837,0.479-1.157C10.798,10.159,11.184,10,11.636,10z M13.818,11.09
	h-2.182c-0.15,0-0.279,0.054-0.386,0.16c-0.106,0.107-0.16,0.235-0.16,0.386v2.182c0,0.151,0.054,0.279,0.16,0.386
	c0.107,0.107,0.235,0.16,0.386,0.16h2.182c0.151,0,0.279-0.053,0.386-0.16c0.107-0.106,0.16-0.235,0.16-0.386v-2.182
	c0-0.15-0.053-0.279-0.16-0.386C14.097,11.144,13.969,11.09,13.818,11.09z M20.363,11.09h-2.182c-0.15,0-0.278,0.054-0.386,0.16
	c-0.106,0.107-0.16,0.235-0.16,0.386v8.727c0,0.15,0.054,0.279,0.16,0.386c0.107,0.107,0.235,0.16,0.386,0.16h2.182
	c0.15,0,0.279-0.053,0.386-0.16c0.107-0.106,0.16-0.235,0.16-0.386v-8.727c0-0.15-0.053-0.279-0.16-0.386
	C20.643,11.144,20.514,11.09,20.363,11.09z"/>
</svg>
