<?xml version="1.0" encoding="utf-8"?>
<!-- Generator: Adobe Illustrator 16.0.3, SVG Export Plug-In . SVG Version: 6.00 Build 0)  -->
<!DOCTYPE svg PUBLIC "-//W3C//DTD SVG 1.1//EN" "http://www.w3.org/Graphics/SVG/1.1/DTD/svg11.dtd">
<svg version="1.1" id="Layer_1" xmlns="http://www.w3.org/2000/svg" xmlns:xlink="http://www.w3.org/1999/xlink" x="0px" y="0px"
	 width="14px" height="14px" viewBox="9 9 14 14" enable-background="new 9 9 14 14" xml:space="preserve">
<path d="M18.727,10.001c0.151,0,0.279,0.053,0.386,0.16c0.107,0.107,0.16,0.235,0.16,0.386v1.636c0,0.15,0.054,0.279,0.16,0.386
	c0.106,0.106,0.235,0.16,0.386,0.16h1.636c0.15,0,0.279,0.054,0.386,0.16c0.107,0.106,0.16,0.235,0.16,0.386
	c0,0.15-0.053,0.279-0.16,0.386c-0.106,0.106-0.235,0.16-0.386,0.16h-1.636c-0.452,0-0.837-0.16-1.157-0.479
	c-0.319-0.32-0.479-0.706-0.479-1.157v-1.636c0-0.151,0.053-0.279,0.16-0.386C18.448,10.055,18.577,10.001,18.727,10.001
	L18.727,10.001z M10.546,18.182h1.636c0.452,0,0.837,0.159,1.157,0.479c0.319,0.319,0.479,0.704,0.479,1.156v1.636
	c0,0.151-0.054,0.279-0.16,0.386c-0.106,0.107-0.235,0.16-0.386,0.16c-0.15,0-0.279-0.053-0.386-0.16
	c-0.106-0.106-0.16-0.234-0.16-0.386v-1.636c0-0.15-0.054-0.279-0.16-0.386s-0.235-0.16-0.386-0.16h-1.636
	c-0.15,0-0.279-0.053-0.385-0.16C10.053,19.006,10,18.877,10,18.727c0-0.151,0.053-0.279,0.16-0.386
	C10.267,18.233,10.395,18.181,10.546,18.182L10.546,18.182z M13.273,10.001c0.151,0,0.279,0.053,0.386,0.16
	c0.106,0.107,0.16,0.235,0.16,0.386v1.636c0,0.452-0.16,0.837-0.479,1.157c-0.32,0.319-0.705,0.479-1.157,0.479h-1.636
	c-0.15,0-0.279-0.054-0.386-0.16c-0.106-0.106-0.16-0.235-0.16-0.386c0-0.15,0.053-0.279,0.16-0.386
	c0.107-0.106,0.235-0.16,0.386-0.16h1.636c0.15,0,0.279-0.054,0.386-0.16c0.106-0.106,0.16-0.235,0.16-0.386v-1.636
	c0-0.15,0.054-0.279,0.16-0.385C12.995,10.053,13.123,10,13.273,10.001L13.273,10.001z M19.817,18.182h1.636
	c0.151,0,0.279,0.053,0.386,0.16c0.107,0.106,0.16,0.234,0.16,0.385c0,0.151-0.053,0.279-0.16,0.386
	c-0.106,0.107-0.234,0.16-0.386,0.16h-1.636c-0.15,0-0.279,0.054-0.386,0.16s-0.16,0.235-0.16,0.386v1.636
	c0,0.15-0.053,0.279-0.16,0.386C19.006,21.947,18.877,22,18.727,22c-0.151,0-0.279-0.053-0.386-0.16
	c-0.107-0.106-0.16-0.235-0.16-0.386v-1.636c0-0.452,0.159-0.837,0.479-1.157C18.979,18.342,19.365,18.183,19.817,18.182
	L19.817,18.182z"/>
</svg>
