<?xml version="1.0" encoding="utf-8"?>
<!-- Generator: Adobe Illustrator 16.0.3, SVG Export Plug-In . SVG Version: 6.00 Build 0)  -->
<!DOCTYPE svg PUBLIC "-//W3C//DTD SVG 1.1//EN" "http://www.w3.org/Graphics/SVG/1.1/DTD/svg11.dtd">
<svg version="1.1" id="Layer_1" xmlns="http://www.w3.org/2000/svg" xmlns:xlink="http://www.w3.org/1999/xlink" x="0px" y="0px"
	 width="14px" height="14px" viewBox="9 9 14 14" enable-background="new 9 9 14 14" xml:space="preserve">
<path d="M14,11.5h6.5c0.414,0,0.768,0.146,1.061,0.439S22,12.586,22,13v6c0,0.414-0.146,0.768-0.439,1.061S20.914,20.5,20.5,20.5H14
	L10,16L14,11.5z M20.5,12.5h-6.051L11.34,16l3.109,3.5H20.5c0.138,0,0.256-0.049,0.354-0.146S21,19.138,21,19v-6
	c0-0.138-0.049-0.256-0.146-0.354S20.638,12.5,20.5,12.5L20.5,12.5z M19.5,14.5c0,0.141-0.048,0.259-0.145,0.355L18.207,16
	l1.148,1.145C19.452,17.24,19.5,17.359,19.5,17.5c0,0.144-0.047,0.262-0.143,0.357S19.144,18,19,18c-0.141,0-0.26-0.048-0.355-0.145
	L17.5,16.707l-1.145,1.148C16.259,17.952,16.141,18,16,18c-0.138,0-0.256-0.049-0.354-0.146S15.5,17.638,15.5,17.5
	c0-0.136,0.048-0.254,0.144-0.355L16.793,16l-1.149-1.144c-0.096-0.102-0.144-0.22-0.144-0.356c0-0.138,0.049-0.256,0.146-0.354
	S15.861,14,16,14c0.141,0,0.259,0.048,0.356,0.144l1.145,1.149l1.145-1.149C18.74,14.047,18.858,14,19,14
	c0.143,0,0.262,0.047,0.357,0.142C19.452,14.237,19.5,14.356,19.5,14.5L19.5,14.5z"/>
</svg>
