<?xml version="1.0" encoding="utf-8"?>
<!-- Generator: Adobe Illustrator 16.0.3, SVG Export Plug-In . SVG Version: 6.00 Build 0)  -->
<!DOCTYPE svg PUBLIC "-//W3C//DTD SVG 1.1//EN" "http://www.w3.org/Graphics/SVG/1.1/DTD/svg11.dtd">
<svg version="1.1" id="Layer_1" xmlns="http://www.w3.org/2000/svg" xmlns:xlink="http://www.w3.org/1999/xlink" x="0px" y="0px"
	 width="14px" height="14px" viewBox="9 9 14 14" enable-background="new 9 9 14 14" xml:space="preserve">
<path d="M16,10c0.815,0,1.594,0.158,2.333,0.475c0.74,0.316,1.378,0.743,1.913,1.278c0.536,0.536,0.962,1.173,1.279,1.914
	C21.842,14.407,22,15.185,22,16s-0.158,1.594-0.475,2.333c-0.317,0.74-0.743,1.378-1.279,1.913
	c-0.535,0.536-1.173,0.963-1.913,1.279C17.594,21.842,16.815,22,16,22s-1.593-0.158-2.333-0.475
	c-0.74-0.316-1.378-0.743-1.914-1.279c-0.536-0.535-0.962-1.173-1.278-1.913C10.158,17.594,10,16.815,10,16s0.158-1.593,0.475-2.333
	c0.316-0.74,0.743-1.378,1.278-1.914s1.173-0.962,1.914-1.278C14.407,10.158,15.185,10,16,10z M16,11.091
	c-0.665,0-1.301,0.13-1.907,0.39c-0.606,0.26-1.128,0.608-1.566,1.046c-0.438,0.438-0.787,0.96-1.046,1.566s-0.39,1.242-0.39,1.907
	c0,0.664,0.129,1.301,0.39,1.907s0.609,1.128,1.046,1.565c0.437,0.438,0.959,0.787,1.566,1.046c0.607,0.26,1.242,0.391,1.907,0.391
	c0.664,0,1.3-0.131,1.907-0.391c0.606-0.259,1.128-0.608,1.565-1.046s0.786-0.959,1.046-1.565c0.261-0.606,0.391-1.243,0.391-1.907
	c-0.001-0.665-0.131-1.3-0.391-1.907c-0.259-0.606-0.608-1.129-1.046-1.566s-0.96-0.786-1.565-1.046
	C17.301,11.221,16.665,11.091,16,11.091z M16,13.819c0.603,0,1.116,0.213,1.543,0.639c0.426,0.426,0.64,0.94,0.64,1.543
	c0,0.602-0.214,1.116-0.64,1.542c-0.427,0.427-0.94,0.64-1.543,0.64c-0.602,0-1.117-0.213-1.543-0.64
	c-0.426-0.426-0.639-0.94-0.639-1.542c0-0.603,0.213-1.117,0.639-1.543S15.398,13.819,16,13.819z M16,14.909
	c-0.301,0-0.558,0.106-0.771,0.32c-0.213,0.213-0.32,0.47-0.32,0.771c0,0.301,0.106,0.559,0.32,0.771
	c0.213,0.213,0.47,0.319,0.771,0.319s0.559-0.106,0.771-0.319s0.319-0.471,0.319-0.771c0-0.301-0.106-0.558-0.319-0.771
	C16.559,15.016,16.301,14.909,16,14.909z"/>
</svg>
