<?xml version="1.0" encoding="utf-8"?>
<!-- Generator: Adobe Illustrator 16.0.3, SVG Export Plug-In . SVG Version: 6.00 Build 0)  -->
<!DOCTYPE svg PUBLIC "-//W3C//DTD SVG 1.1//EN" "http://www.w3.org/Graphics/SVG/1.1/DTD/svg11.dtd">
<svg version="1.1" id="Layer_1" xmlns="http://www.w3.org/2000/svg" xmlns:xlink="http://www.w3.org/1999/xlink" x="0px" y="0px"
	 width="14px" height="14px" viewBox="9 9 14 14" enable-background="new 9 9 14 14" xml:space="preserve">
<path d="M12.484,13.516L16,10l3.516,3.516c0.478,0.478,0.839,1.021,1.085,1.631s0.369,1.238,0.369,1.885
	c0,0.649-0.123,1.278-0.369,1.885c-0.246,0.607-0.607,1.148-1.085,1.626s-1.021,0.84-1.631,1.088C17.275,21.877,16.647,22,16,22
	s-1.275-0.123-1.885-0.37c-0.61-0.248-1.153-0.61-1.631-1.088c-0.475-0.478-0.836-1.02-1.083-1.628s-0.371-1.235-0.371-1.883
	c0-0.646,0.124-1.275,0.371-1.885S12.01,13.993,12.484,13.516z M18.734,14.297L16,11.562l-2.734,2.735
	c-0.368,0.371-0.648,0.793-0.842,1.268c-0.192,0.475-0.289,0.963-0.289,1.466c0,0.504,0.096,0.992,0.287,1.465
	s0.473,0.895,0.844,1.266c0.37,0.371,0.793,0.653,1.268,0.846s0.964,0.289,1.467,0.289c0.506,0,0.996-0.097,1.469-0.289
	c0.474-0.192,0.896-0.475,1.267-0.846c0.37-0.371,0.651-0.792,0.843-1.264s0.287-0.961,0.287-1.467c0-0.503-0.096-0.992-0.287-1.467
	C19.387,15.09,19.105,14.667,18.734,14.297L18.734,14.297z"/>
</svg>
