<?xml version="1.0" encoding="utf-8"?>
<!-- Generator: Adobe Illustrator 16.0.3, SVG Export Plug-In . SVG Version: 6.00 Build 0)  -->
<!DOCTYPE svg PUBLIC "-//W3C//DTD SVG 1.1//EN" "http://www.w3.org/Graphics/SVG/1.1/DTD/svg11.dtd">
<svg version="1.1" id="Layer_1" xmlns="http://www.w3.org/2000/svg" xmlns:xlink="http://www.w3.org/1999/xlink" x="0px" y="0px"
	 width="14px" height="14px" viewBox="9 9 14 14" enable-background="new 9 9 14 14" xml:space="preserve">
<path d="M20.363,14.363c0.452,0,0.838,0.16,1.157,0.479S22,15.548,22,16c0,0.451-0.16,0.837-0.479,1.157
	c-0.319,0.319-0.705,0.479-1.157,0.479c-0.451,0-0.837-0.16-1.156-0.479c-0.32-0.32-0.479-0.706-0.479-1.157
	c0-0.452,0.159-0.838,0.479-1.157C19.526,14.523,19.912,14.363,20.363,14.363z M11.636,14.363c0.452,0,0.837,0.16,1.157,0.479
	c0.319,0.319,0.479,0.705,0.479,1.157c0,0.451-0.16,0.837-0.479,1.157c-0.32,0.319-0.706,0.479-1.157,0.479s-0.837-0.16-1.157-0.479
	C10.16,16.837,10,16.451,10,16c0-0.452,0.16-0.838,0.479-1.157C10.799,14.523,11.185,14.363,11.636,14.363z M11.636,15.454
	c-0.15,0-0.279,0.054-0.386,0.16c-0.106,0.106-0.16,0.235-0.16,0.386s0.053,0.279,0.16,0.386c0.107,0.107,0.235,0.16,0.386,0.16
	c0.151,0,0.279-0.053,0.386-0.16c0.107-0.106,0.16-0.235,0.16-0.386s-0.053-0.279-0.16-0.386
	C11.916,15.508,11.787,15.454,11.636,15.454z M16,14.363c0.452,0,0.837,0.16,1.157,0.479c0.319,0.319,0.479,0.705,0.479,1.157
	c0,0.451-0.16,0.837-0.479,1.157c-0.32,0.319-0.706,0.479-1.157,0.479s-0.837-0.16-1.157-0.479c-0.32-0.32-0.479-0.706-0.479-1.157
	c0-0.452,0.16-0.838,0.479-1.157C15.163,14.523,15.548,14.363,16,14.363z M16,15.454c-0.15,0-0.279,0.054-0.386,0.16
	c-0.106,0.106-0.16,0.235-0.16,0.386s0.054,0.279,0.16,0.386c0.107,0.107,0.235,0.16,0.386,0.16s0.279-0.053,0.386-0.16
	c0.106-0.106,0.16-0.235,0.16-0.386s-0.054-0.279-0.16-0.386C16.279,15.508,16.15,15.454,16,15.454z M20.363,15.454
	c-0.15,0-0.279,0.054-0.385,0.16c-0.107,0.106-0.16,0.235-0.16,0.386s0.053,0.279,0.16,0.386c0.105,0.107,0.234,0.16,0.385,0.16
	c0.151,0,0.279-0.053,0.386-0.16c0.107-0.106,0.16-0.235,0.16-0.386s-0.053-0.279-0.16-0.386
	C20.643,15.508,20.515,15.454,20.363,15.454z"/>
</svg>
