<?xml version="1.0" encoding="utf-8"?>
<!-- Generator: Adobe Illustrator 16.0.3, SVG Export Plug-In . SVG Version: 6.00 Build 0)  -->
<!DOCTYPE svg PUBLIC "-//W3C//DTD SVG 1.1//EN" "http://www.w3.org/Graphics/SVG/1.1/DTD/svg11.dtd">
<svg version="1.1" id="Layer_1" xmlns="http://www.w3.org/2000/svg" xmlns:xlink="http://www.w3.org/1999/xlink" x="0px" y="0px"
	 width="14px" height="14px" viewBox="9 9 14 14" enable-background="new 9 9 14 14" xml:space="preserve">
<path d="M16.601,10.03c0.736,0.074,1.435,0.277,2.095,0.609c0.66,0.333,1.241,0.773,1.74,1.321c0.492,0.539,0.874,1.151,1.147,1.837
	C21.86,14.505,22,15.239,22,16c0,0.816-0.158,1.595-0.473,2.336c-0.293,0.702-0.721,1.338-1.283,1.909
	c-0.57,0.563-1.207,0.989-1.909,1.282C17.594,21.843,16.815,22,16,22c-0.762,0-1.496-0.139-2.203-0.418
	c-0.684-0.272-1.297-0.654-1.836-1.146c-0.548-0.5-0.989-1.08-1.321-1.741c-0.332-0.66-0.535-1.358-0.609-2.094
	c-0.014-0.162,0.032-0.303,0.139-0.422c0.107-0.12,0.242-0.18,0.407-0.18c0.139,0,0.26,0.047,0.364,0.141s0.163,0.211,0.177,0.35
	c0.06,0.605,0.225,1.178,0.497,1.717c0.271,0.541,0.633,1.015,1.084,1.424c0.44,0.406,0.94,0.719,1.5,0.938
	c0.58,0.228,1.181,0.341,1.803,0.341c0.667,0,1.304-0.128,1.909-0.384c0.574-0.241,1.095-0.592,1.563-1.053
	c0.461-0.469,0.812-0.989,1.053-1.563c0.256-0.605,0.384-1.242,0.384-1.909c0-0.622-0.114-1.224-0.341-1.803
	c-0.219-0.56-0.531-1.06-0.938-1.5c-0.409-0.452-0.884-0.813-1.424-1.085c-0.539-0.271-1.111-0.437-1.717-0.496
	c-0.139-0.015-0.255-0.073-0.349-0.177s-0.141-0.226-0.141-0.364c0-0.108,0.021-0.201,0.062-0.277
	c0.042-0.077,0.096-0.134,0.164-0.171s0.133-0.063,0.194-0.076c0.061-0.015,0.122-0.021,0.182-0.021L16.601,10.03z M10.546,10h3.272
	c0.15,0,0.279,0.054,0.386,0.16c0.106,0.107,0.16,0.235,0.16,0.386s-0.054,0.279-0.16,0.386c-0.107,0.106-0.235,0.16-0.386,0.16
	h-1.956l4.525,4.525c0.105,0.103,0.158,0.23,0.158,0.384c0,0.156-0.052,0.286-0.156,0.391c-0.104,0.104-0.233,0.155-0.39,0.155
	c-0.154,0-0.283-0.053-0.388-0.158l-4.521-4.525v1.956c0,0.15-0.053,0.279-0.16,0.386c-0.107,0.106-0.235,0.16-0.386,0.16
	c-0.151,0-0.279-0.054-0.386-0.16C10.053,14.099,10,13.97,10,13.819v-3.272c0-0.151,0.053-0.279,0.16-0.386
	C10.267,10.054,10.395,10.001,10.546,10L10.546,10z"/>
</svg>
