<?xml version="1.0" encoding="utf-8"?>
<!-- Generator: Adobe Illustrator 16.0.3, SVG Export Plug-In . SVG Version: 6.00 Build 0)  -->
<!DOCTYPE svg PUBLIC "-//W3C//DTD SVG 1.1//EN" "http://www.w3.org/Graphics/SVG/1.1/DTD/svg11.dtd">
<svg version="1.1" id="Layer_1" xmlns="http://www.w3.org/2000/svg" xmlns:xlink="http://www.w3.org/1999/xlink" x="0px" y="0px"
	 width="14px" height="14px" viewBox="9 9 14 14" enable-background="new 9 9 14 14" xml:space="preserve">
<path d="M18.728,10.001h1.636c0.452,0,0.838,0.16,1.157,0.479C21.84,10.8,22,11.186,22,11.637v1.636c0,0.151-0.054,0.279-0.16,0.386
	s-0.235,0.16-0.386,0.16s-0.279-0.054-0.386-0.16s-0.16-0.235-0.16-0.386v-1.636c0-0.15-0.053-0.279-0.16-0.385
	c-0.106-0.107-0.234-0.16-0.386-0.16h-1.636c-0.15,0-0.279-0.053-0.386-0.16c-0.106-0.106-0.16-0.235-0.16-0.386
	c0-0.15,0.054-0.279,0.16-0.385C18.447,10.053,18.576,10,18.728,10.001L18.728,10.001z M10.547,18.182
	c0.15,0,0.278,0.053,0.386,0.16c0.106,0.106,0.159,0.234,0.159,0.385v1.637c0,0.15,0.054,0.279,0.16,0.386s0.235,0.16,0.386,0.16
	h1.637c0.15,0,0.278,0.053,0.385,0.16c0.107,0.105,0.16,0.234,0.16,0.385s-0.053,0.279-0.16,0.386
	C13.553,21.947,13.425,22,13.274,22h-1.637c-0.451,0-0.837-0.16-1.156-0.479c-0.32-0.319-0.479-0.705-0.479-1.156v-1.637
	c0-0.15,0.053-0.279,0.16-0.385C10.269,18.235,10.396,18.183,10.547,18.182L10.547,18.182z M11.637,10.001h1.637
	c0.15,0,0.278,0.053,0.386,0.16c0.106,0.107,0.159,0.235,0.159,0.386c0,0.151-0.053,0.279-0.159,0.386
	c-0.107,0.106-0.235,0.16-0.386,0.16h-1.637c-0.15,0-0.278,0.053-0.386,0.16c-0.106,0.107-0.159,0.235-0.159,0.386v1.636
	c0,0.15-0.054,0.279-0.16,0.386s-0.235,0.16-0.386,0.16s-0.279-0.053-0.386-0.16S10,13.424,10,13.274v-1.636
	c0-0.452,0.16-0.837,0.479-1.157C10.799,10.161,11.185,10.001,11.637,10.001L11.637,10.001z M21.454,18.182
	c0.15,0,0.279,0.053,0.386,0.16c0.106,0.106,0.16,0.234,0.16,0.385v1.637c0,0.451-0.16,0.837-0.479,1.156
	c-0.319,0.32-0.705,0.479-1.157,0.479h-1.636c-0.15,0-0.279-0.053-0.386-0.16c-0.106-0.106-0.16-0.234-0.16-0.386
	c0-0.15,0.054-0.278,0.16-0.385c0.106-0.107,0.235-0.16,0.386-0.16h1.636c0.15,0,0.279-0.054,0.386-0.16
	c0.107-0.106,0.16-0.235,0.16-0.386v-1.636c0-0.151,0.053-0.279,0.16-0.386C21.176,18.233,21.304,18.181,21.454,18.182
	L21.454,18.182z"/>
</svg>
