<?xml version="1.0" encoding="utf-8"?>
<!-- Generator: Adobe Illustrator 16.0.3, SVG Export Plug-In . SVG Version: 6.00 Build 0)  -->
<!DOCTYPE svg PUBLIC "-//W3C//DTD SVG 1.1//EN" "http://www.w3.org/Graphics/SVG/1.1/DTD/svg11.dtd">
<svg version="1.1" id="Layer_1" xmlns="http://www.w3.org/2000/svg" xmlns:xlink="http://www.w3.org/1999/xlink" x="0px" y="0px"
	 width="14px" height="14px" viewBox="9 9 14 14" enable-background="new 9 9 14 14" xml:space="preserve">
<path d="M12.5,10h5l3.5,3.5v7c0,0.414-0.146,0.768-0.439,1.061S19.914,22,19.5,22h-7c-0.414,0-0.768-0.146-1.061-0.439
	S11,20.914,11,20.5v-9c0-0.414,0.146-0.768,0.439-1.061S12.086,10,12.5,10L12.5,10z M16.5,14.5V11h-4
	c-0.142,0-0.26,0.048-0.355,0.145C12.048,11.241,12,11.359,12,11.5v9c0,0.141,0.048,0.26,0.145,0.355
	C12.24,20.952,12.358,21,12.5,21h7c0.141,0,0.259-0.048,0.355-0.145c0.096-0.096,0.144-0.215,0.144-0.355v-6H16.5z M19.586,13.5
	L17.5,11.414V13.5H19.586z"/>
</svg>
