<?xml version="1.0" encoding="utf-8"?>
<!-- Generator: Adobe Illustrator 16.0.3, SVG Export Plug-In . SVG Version: 6.00 Build 0)  -->
<!DOCTYPE svg PUBLIC "-//W3C//DTD SVG 1.1//EN" "http://www.w3.org/Graphics/SVG/1.1/DTD/svg11.dtd">
<svg version="1.1" id="Layer_1" xmlns="http://www.w3.org/2000/svg" xmlns:xlink="http://www.w3.org/1999/xlink" x="0px" y="0px"
	 width="14px" height="14px" viewBox="9 9 14 14" enable-background="new 9 9 14 14" xml:space="preserve">
<path d="M13.546,10c0.301,0,0.625,0.038,0.972,0.113c0.346,0.075,0.68,0.166,1.001,0.273l0.963,0.319c0,0,0.334,0.091,1.001,0.273
	c0.668,0.182,0.991,0.22,0.972,0.113c0.307,0,0.609-0.018,0.907-0.055c0.299-0.037,0.553-0.082,0.764-0.136
	c0.21-0.054,0.397-0.108,0.564-0.162c0.166-0.054,0.29-0.099,0.372-0.136l0.12-0.055v7.636c-0.028,0.015-0.071,0.033-0.128,0.059
	c-0.058,0.023-0.178,0.067-0.36,0.132c-0.184,0.063-0.374,0.118-0.573,0.166c-0.199,0.047-0.449,0.09-0.753,0.13
	c-0.302,0.04-0.606,0.06-0.913,0.06c-0.301,0-0.625-0.037-0.972-0.113c-0.346-0.075-0.68-0.166-1.001-0.272l-0.963-0.319
	c0,0-0.334-0.091-1.001-0.273c-0.668-0.181-0.992-0.219-0.972-0.112c-0.543,0-1.089,0.061-1.637,0.184v3.634
	c0,0.15-0.053,0.279-0.16,0.386C11.643,21.947,11.515,22,11.363,22c-0.15,0-0.278-0.053-0.385-0.16
	c-0.107-0.106-0.16-0.235-0.16-0.386V10.546c0.028-0.014,0.071-0.033,0.128-0.058c0.057-0.024,0.177-0.068,0.359-0.132
	c0.184-0.064,0.374-0.119,0.573-0.167c0.199-0.046,0.45-0.09,0.753-0.13C12.934,10.021,13.238,10,13.546,10L13.546,10z
	 M13.546,11.091c-0.557,0-1.103,0.072-1.637,0.217v5.399c0.546-0.108,1.091-0.162,1.637-0.162c0.403,0,0.807,0.046,1.21,0.139
	s0.861,0.224,1.376,0.395c0.065,0.022,0.188,0.063,0.368,0.125c0.181,0.062,0.313,0.105,0.396,0.132
	c0.085,0.027,0.207,0.064,0.369,0.111c0.161,0.047,0.297,0.081,0.406,0.103s0.236,0.041,0.378,0.06s0.276,0.027,0.404,0.027
	c0.558,0,1.103-0.072,1.637-0.217v-5.398c-0.546,0.108-1.091,0.162-1.637,0.162c-0.403,0-0.807-0.046-1.21-0.139
	c-0.402-0.092-0.861-0.224-1.376-0.394c-0.065-0.023-0.188-0.064-0.368-0.125c-0.181-0.061-0.313-0.105-0.396-0.132
	s-0.207-0.064-0.369-0.111c-0.161-0.047-0.297-0.081-0.406-0.103c-0.11-0.021-0.235-0.041-0.377-0.06
	C13.809,11.1,13.674,11.091,13.546,11.091z"/>
</svg>
