<?xml version="1.0" encoding="utf-8"?>
<!-- Generator: Adobe Illustrator 16.0.3, SVG Export Plug-In . SVG Version: 6.00 Build 0)  -->
<!DOCTYPE svg PUBLIC "-//W3C//DTD SVG 1.1//EN" "http://www.w3.org/Graphics/SVG/1.1/DTD/svg11.dtd">
<svg version="1.1" id="Layer_1" xmlns="http://www.w3.org/2000/svg" xmlns:xlink="http://www.w3.org/1999/xlink" x="0px" y="0px"
	 width="14px" height="14px" viewBox="9 9 14 14" enable-background="new 9 9 14 14" xml:space="preserve">
<path d="M11.636,10.545h2.728l1.092,1.636h4.909c0.452,0,0.837,0.16,1.157,0.479C21.841,12.981,22,13.366,22,13.818v6
	c0,0.451-0.159,0.838-0.479,1.156c-0.32,0.32-0.705,0.48-1.157,0.48h-8.728c-0.452,0-0.838-0.16-1.157-0.48
	C10.16,20.656,10,20.27,10,19.818v-7.637c0-0.452,0.16-0.837,0.479-1.157C10.799,10.705,11.185,10.545,11.636,10.545L11.636,10.545z
	 M14.871,13.272l-1.053-1.637h-2.182c-0.15,0-0.279,0.054-0.386,0.16c-0.106,0.107-0.16,0.235-0.16,0.386v7.637
	c0,0.15,0.054,0.279,0.16,0.387c0.106,0.105,0.235,0.158,0.386,0.158h8.728c0.15,0,0.279-0.053,0.386-0.158
	c0.106-0.107,0.16-0.236,0.16-0.387v-6c0-0.15-0.054-0.279-0.16-0.386c-0.106-0.106-0.235-0.16-0.386-0.16H14.871z"/>
</svg>
