<?xml version="1.0" encoding="utf-8"?>
<!-- Generator: Adobe Illustrator 16.0.3, SVG Export Plug-In . SVG Version: 6.00 Build 0)  -->
<!DOCTYPE svg PUBLIC "-//W3C//DTD SVG 1.1//EN" "http://www.w3.org/Graphics/SVG/1.1/DTD/svg11.dtd">
<svg version="1.1" id="Layer_1" xmlns="http://www.w3.org/2000/svg" xmlns:xlink="http://www.w3.org/1999/xlink" x="0px" y="0px"
	 width="14px" height="14px" viewBox="9 9 14 14" enable-background="new 9 9 14 14" xml:space="preserve">
<path d="M16,10c0.102,0,0.179,0.002,0.23,0.004c0.529,0.021,1.042,0.107,1.541,0.263c0.499,0.155,0.96,0.362,1.383,0.624
	c0.424,0.262,0.813,0.576,1.166,0.943c0.354,0.368,0.653,0.769,0.898,1.2c0.246,0.432,0.438,0.901,0.576,1.408
	C21.931,14.949,22,15.469,22,16s-0.069,1.05-0.206,1.558c-0.139,0.507-0.33,0.977-0.576,1.408c-0.245,0.432-0.545,0.831-0.898,1.199
	s-0.742,0.683-1.166,0.944c-0.423,0.261-0.884,0.469-1.383,0.624c-0.498,0.154-1.012,0.242-1.541,0.262
	C16.179,21.998,16.102,22,16,22s-0.179-0.002-0.23-0.005c-0.528-0.02-1.042-0.107-1.541-0.262c-0.499-0.155-0.959-0.363-1.383-0.624
	c-0.423-0.262-0.812-0.576-1.166-0.944c-0.354-0.368-0.653-0.768-0.899-1.199s-0.438-0.901-0.575-1.408
	C10.069,17.05,10,16.531,10,16s0.069-1.051,0.207-1.558s0.33-0.977,0.575-1.408s0.545-0.832,0.899-1.2
	c0.354-0.367,0.743-0.682,1.166-0.943c0.423-0.262,0.884-0.469,1.383-0.624s1.012-0.242,1.541-0.263C15.821,10.002,15.898,10,16,10z
	 M13.294,16.546h-2.173c0.114,1.014,0.504,1.904,1.172,2.672c0.667,0.767,1.489,1.277,2.463,1.534
	c-0.369-0.561-0.691-1.194-0.965-1.903S13.351,17.372,13.294,16.546z M17.615,16.546h-3.23c0.028,0.363,0.087,0.728,0.177,1.091
	s0.189,0.686,0.3,0.965c0.111,0.28,0.239,0.556,0.384,0.829s0.276,0.498,0.392,0.673c0.116,0.176,0.237,0.346,0.362,0.508
	c0.125-0.162,0.246-0.332,0.362-0.51c0.117-0.178,0.247-0.402,0.393-0.675c0.145-0.272,0.272-0.549,0.383-0.829
	c0.111-0.28,0.212-0.601,0.301-0.963C17.527,17.272,17.586,16.909,17.615,16.546L17.615,16.546z M14.755,11.249
	c-0.974,0.256-1.795,0.767-2.463,1.533c-0.667,0.768-1.058,1.658-1.172,2.672h2.173C13.394,13.972,13.881,12.569,14.755,11.249z
	 M20.879,16.546H18.71c-0.104,1.485-0.594,2.888-1.466,4.206c0.975-0.257,1.796-0.768,2.463-1.534
	C20.375,18.45,20.766,17.56,20.879,16.546L20.879,16.546z M16,11.39c-0.125,0.162-0.245,0.331-0.36,0.509
	c-0.115,0.178-0.246,0.403-0.392,0.676c-0.146,0.272-0.275,0.549-0.386,0.829c-0.111,0.279-0.211,0.601-0.3,0.963
	c-0.089,0.361-0.148,0.725-0.177,1.088h3.23c-0.028-0.363-0.087-0.727-0.176-1.091c-0.09-0.363-0.19-0.686-0.301-0.965
	c-0.111-0.279-0.239-0.556-0.384-0.829c-0.146-0.272-0.276-0.497-0.392-0.673C16.247,11.721,16.126,11.551,16,11.39L16,11.39z
	 M17.244,11.249c0.872,1.317,1.361,2.72,1.466,4.205h2.169c-0.113-1.014-0.505-1.904-1.172-2.672
	C19.039,12.016,18.219,11.505,17.244,11.249L17.244,11.249z"/>
</svg>
