<?xml version="1.0" encoding="utf-8"?>
<!-- Generator: Adobe Illustrator 16.0.3, SVG Export Plug-In . SVG Version: 6.00 Build 0)  -->
<!DOCTYPE svg PUBLIC "-//W3C//DTD SVG 1.1//EN" "http://www.w3.org/Graphics/SVG/1.1/DTD/svg11.dtd">
<svg version="1.1" id="Layer_1" xmlns="http://www.w3.org/2000/svg" xmlns:xlink="http://www.w3.org/1999/xlink" x="0px" y="0px"
	 width="14px" height="14px" viewBox="9 9 14 14" enable-background="new 9 9 14 14" xml:space="preserve">
<path d="M11.636,10h8.728c0.451,0,0.837,0.159,1.157,0.479C21.84,10.799,22,11.185,22,11.636v8.728c0,0.451-0.16,0.837-0.479,1.157
	C21.2,21.84,20.814,22,20.363,22h-8.728c-0.451,0-0.837-0.16-1.156-0.479C10.159,21.2,10,20.814,10,20.363v-8.728
	c0-0.451,0.159-0.837,0.479-1.156C10.799,10.159,11.185,10,11.636,10z M15.455,20.909v-4.364h-4.364v3.818
	c0,0.15,0.054,0.278,0.16,0.386c0.106,0.106,0.235,0.16,0.386,0.16H15.455z M15.455,15.455v-4.364h-3.818
	c-0.15,0-0.279,0.054-0.386,0.16s-0.16,0.235-0.16,0.386v3.818H15.455z M20.909,20.363v-3.817h-4.364v4.363h3.818
	c0.15,0,0.278-0.053,0.386-0.16C20.855,20.643,20.909,20.514,20.909,20.363z M20.363,11.091h-3.817v4.364h4.363v-3.818
	c0-0.15-0.053-0.279-0.16-0.386C20.643,11.145,20.514,11.091,20.363,11.091z"/>
</svg>
