<?xml version="1.0" encoding="utf-8"?>
<!-- Generator: Adobe Illustrator 16.0.3, SVG Export Plug-In . SVG Version: 6.00 Build 0)  -->
<!DOCTYPE svg PUBLIC "-//W3C//DTD SVG 1.1//EN" "http://www.w3.org/Graphics/SVG/1.1/DTD/svg11.dtd">
<svg version="1.1" id="Layer_1" xmlns="http://www.w3.org/2000/svg" xmlns:xlink="http://www.w3.org/1999/xlink" x="0px" y="0px"
	 width="14px" height="14px" viewBox="9 9 14 14" enable-background="new 9 9 14 14" xml:space="preserve">
<g>
	<path d="M17.503,20.169c0.019-0.462,0.031-0.98,0.031-1.492c0-0.427-0.01-0.849-0.031-1.229c-0.002-0.056,0.023-0.085,0.065-0.099
		C19.557,17.146,19.575,20.448,17.503,20.169L17.503,20.169z M11.929,17.775c-0.153,0.049-0.459-0.095-0.59-0.099
		c-0.518-2.009,0.023-3.685,1.278-4.688c0.865-0.691,2.101-1.219,3.41-1.213c1.567,0.007,2.965,0.724,3.835,1.672
		c0.836,0.911,1.321,2.63,0.722,4.262c-0.155,0.03-0.35,0.022-0.491,0.065c-0.43-0.938-1.876-2.064-3.148-1.442
		c-0.775,0.38-0.562,1.313-0.556,2.393c0.002,0.504-0.097,0.994-0.065,1.41c0.059,0.793,0.582,1.187,1.278,1.213
		c1.596,0.06,2.465-1.119,2.688-2.459c0.605,0.025,1.01-0.148,1.313-0.426c0.838-2.056,0.252-4.428-0.787-5.671
		c-0.546-0.653-1.23-1.162-2.099-1.541c-0.848-0.37-1.947-0.696-3.016-0.623c-1.939,0.134-3.711,1.055-4.688,2.328
		c-0.971,1.266-1.37,3.475-0.623,5.507c0.296,0.326,0.827,0.419,1.41,0.459L11.929,17.775z"/>
	<path d="M14.552,17.382c-0.024,0.471-0.037,0.898-0.038,1.325c-0.001,0.472,0.012,0.941,0.038,1.462
		c-0.458,0.064-0.813-0.044-1.066-0.251c-0.386-0.313-0.539-0.856-0.472-1.361c0.051-0.384,0.229-0.747,0.526-0.972
		C13.792,17.396,14.131,17.305,14.552,17.382L14.552,17.382z M11.798,18.923c0.057,0.398,0.103,0.671,0.23,0.95
		c0.419,0.926,2.122,2.054,3.246,1.213c0.605-0.452,0.393-1.343,0.393-2.327c0-0.483,0.088-1.002,0.066-1.345
		c-0.114-1.719-2.326-1.323-3.18-0.491c-0.137,0.133-0.463,0.801-0.623,0.853L11.798,18.923z"/>
</g>
</svg>
