<?xml version="1.0" encoding="utf-8"?>
<!-- Generator: Adobe Illustrator 16.0.3, SVG Export Plug-In . SVG Version: 6.00 Build 0)  -->
<!DOCTYPE svg PUBLIC "-//W3C//DTD SVG 1.1//EN" "http://www.w3.org/Graphics/SVG/1.1/DTD/svg11.dtd">
<svg version="1.1" id="Layer_1" xmlns="http://www.w3.org/2000/svg" xmlns:xlink="http://www.w3.org/1999/xlink" x="0px" y="0px"
	 width="14px" height="14px" viewBox="9 9 14 14" enable-background="new 9 9 14 14" xml:space="preserve">
<path d="M18.911,10.816c0.561,0,1.077,0.138,1.551,0.414s0.848,0.65,1.124,1.124C21.861,12.827,22,13.344,22,13.904
	c0,0.402-0.077,0.793-0.231,1.173c-0.154,0.379-0.379,0.716-0.674,1.011L16,21.184l-5.095-5.096
	c-0.295-0.295-0.52-0.632-0.673-1.011C10.077,14.697,10,14.307,10,13.904c0-0.56,0.138-1.077,0.414-1.55
	c0.276-0.474,0.651-0.849,1.124-1.124c0.473-0.276,0.99-0.414,1.55-0.414c0.405,0,0.795,0.076,1.172,0.229
	c0.376,0.153,0.713,0.379,1.011,0.676L16,12.449l0.728-0.729c0.295-0.295,0.632-0.52,1.011-0.673
	C18.118,10.894,18.509,10.816,18.911,10.816L18.911,10.816z M18.911,11.846c-0.268,0-0.527,0.051-0.779,0.152
	c-0.253,0.103-0.478,0.252-0.676,0.451L16,13.904l-1.456-1.455c-0.199-0.199-0.424-0.349-0.676-0.451
	c-0.252-0.102-0.512-0.152-0.78-0.152c-0.375,0-0.72,0.092-1.036,0.275c-0.315,0.184-0.564,0.433-0.748,0.748
	c-0.184,0.315-0.275,0.66-0.275,1.035c0,0.269,0.051,0.528,0.153,0.78s0.252,0.478,0.451,0.676L16,19.728l4.367-4.367
	c0.198-0.198,0.349-0.424,0.45-0.676c0.103-0.252,0.153-0.512,0.153-0.78c0-0.375-0.093-0.72-0.276-1.035s-0.433-0.564-0.748-0.748
	C19.632,11.938,19.287,11.846,18.911,11.846L18.911,11.846z"/>
</svg>
