<?xml version="1.0" encoding="utf-8"?>
<!-- Generator: Adobe Illustrator 16.0.3, SVG Export Plug-In . SVG Version: 6.00 Build 0)  -->
<!DOCTYPE svg PUBLIC "-//W3C//DTD SVG 1.1//EN" "http://www.w3.org/Graphics/SVG/1.1/DTD/svg11.dtd">
<svg version="1.1" id="Layer_1" xmlns="http://www.w3.org/2000/svg" xmlns:xlink="http://www.w3.org/1999/xlink" x="0px" y="0px"
	 width="14px" height="14px" viewBox="9 9 14 14" enable-background="new 9 9 14 14" xml:space="preserve">
<path d="M16,10c0.784,0,1.544,0.149,2.28,0.447c0.735,0.299,1.391,0.735,1.964,1.309c0.574,0.574,1.01,1.229,1.309,1.964
	C21.851,14.456,22,15.216,22,16s-0.149,1.544-0.447,2.28c-0.299,0.735-0.734,1.391-1.309,1.964c-0.573,0.574-1.229,1.01-1.964,1.309
	C17.544,21.851,16.784,22,16,22s-1.544-0.149-2.28-0.447c-0.736-0.299-1.391-0.734-1.964-1.309c-0.574-0.573-1.01-1.229-1.309-1.964
	C10.149,17.544,10,16.784,10,16s0.149-1.544,0.447-2.28c0.299-0.736,0.735-1.391,1.309-1.964s1.229-1.01,1.964-1.309
	C14.456,10.149,15.216,10,16,10z M13.725,14.496l-1.56-1.56c-0.353,0.44-0.62,0.923-0.801,1.449
	c-0.182,0.526-0.272,1.064-0.273,1.615c0,0.552,0.091,1.09,0.273,1.615s0.449,1.008,0.801,1.449l1.56-1.561
	c-0.301-0.454-0.452-0.956-0.452-1.504C13.273,15.452,13.424,14.951,13.725,14.496z M19.064,19.835l-1.561-1.56
	c-0.454,0.301-0.956,0.451-1.504,0.451c-0.548,0-1.049-0.15-1.504-0.451l-1.56,1.56c0.44,0.353,0.923,0.619,1.449,0.801
	c0.525,0.183,1.064,0.273,1.615,0.273c0.552,0,1.09-0.091,1.615-0.273C18.141,20.454,18.624,20.187,19.064,19.835z M16,14.364
	c-0.452,0-0.837,0.16-1.157,0.479c-0.32,0.319-0.479,0.705-0.479,1.157s0.16,0.837,0.479,1.157c0.319,0.319,0.705,0.479,1.157,0.479
	s0.837-0.16,1.157-0.479c0.319-0.32,0.479-0.706,0.479-1.157s-0.16-0.837-0.479-1.157C16.837,14.523,16.452,14.364,16,14.364z
	 M16,11.091c-0.551,0-1.09,0.091-1.615,0.273c-0.525,0.182-1.008,0.449-1.449,0.801l1.56,1.56c0.455-0.301,0.956-0.452,1.504-0.452
	c0.548,0,1.05,0.151,1.504,0.452l1.561-1.56c-0.44-0.353-0.924-0.62-1.449-0.801S16.552,11.091,16,11.091z M19.835,12.936
	l-1.56,1.56c0.301,0.455,0.451,0.956,0.451,1.504c0,0.548-0.15,1.05-0.451,1.504l1.56,1.561c0.353-0.441,0.619-0.924,0.801-1.449
	c0.183-0.525,0.273-1.063,0.273-1.615c0-0.551-0.091-1.089-0.273-1.615C20.454,13.859,20.187,13.376,19.835,12.936z"/>
</svg>
