<?xml version="1.0" encoding="utf-8"?>
<!-- Generator: Adobe Illustrator 16.0.3, SVG Export Plug-In . SVG Version: 6.00 Build 0)  -->
<!DOCTYPE svg PUBLIC "-//W3C//DTD SVG 1.1//EN" "http://www.w3.org/Graphics/SVG/1.1/DTD/svg11.dtd">
<svg version="1.1" id="Layer_1" xmlns="http://www.w3.org/2000/svg" xmlns:xlink="http://www.w3.org/1999/xlink" x="0px" y="0px"
	 width="14px" height="14px" viewBox="9 9 14 14" enable-background="new 9 9 14 14" xml:space="preserve">
<path d="M11.636,10h8.728c0.451,0,0.837,0.16,1.157,0.479C21.84,10.798,22,11.184,22,11.636v8.728c0,0.451-0.16,0.837-0.479,1.157
	C21.2,21.84,20.814,22,20.363,22h-8.728c-0.452,0-0.837-0.16-1.157-0.479C10.159,21.2,10,20.814,10,20.363v-8.728
	c0-0.452,0.16-0.837,0.479-1.157C10.798,10.159,11.184,10,11.636,10z M20.909,18.953l-2.728-2.728l-4.684,4.684h6.865
	c0.15,0,0.278-0.054,0.386-0.16c0.106-0.107,0.16-0.235,0.16-0.386V18.953L20.909,18.953z M20.363,11.09h-8.727
	c-0.15,0-0.279,0.054-0.386,0.16c-0.106,0.107-0.16,0.235-0.16,0.386v8.727c0,0.15,0.054,0.279,0.16,0.386
	c0.107,0.107,0.235,0.16,0.386,0.16h0.32l6.226-6.226l2.728,2.728v-5.775c0-0.15-0.053-0.279-0.16-0.386
	C20.643,11.144,20.514,11.09,20.363,11.09z M13.818,12.182c0.452,0,0.837,0.16,1.157,0.479c0.319,0.319,0.479,0.705,0.479,1.157
	s-0.16,0.837-0.479,1.157c-0.32,0.319-0.706,0.479-1.157,0.479s-0.837-0.16-1.157-0.479c-0.32-0.32-0.479-0.706-0.479-1.157
	s0.16-0.837,0.479-1.157C12.98,12.341,13.366,12.182,13.818,12.182z M13.818,13.272c-0.15,0-0.279,0.053-0.386,0.16
	c-0.106,0.107-0.16,0.235-0.16,0.386c0,0.151,0.053,0.279,0.16,0.386c0.107,0.107,0.235,0.16,0.386,0.16
	c0.151,0,0.279-0.053,0.386-0.16c0.107-0.106,0.16-0.235,0.16-0.386c0-0.15-0.053-0.279-0.16-0.386
	C14.097,13.326,13.969,13.272,13.818,13.272z"/>
</svg>
