<?xml version="1.0" encoding="utf-8"?>
<!-- Generator: Adobe Illustrator 16.0.3, SVG Export Plug-In . SVG Version: 6.00 Build 0)  -->
<!DOCTYPE svg PUBLIC "-//W3C//DTD SVG 1.1//EN" "http://www.w3.org/Graphics/SVG/1.1/DTD/svg11.dtd">
<svg version="1.1" id="Layer_1" xmlns="http://www.w3.org/2000/svg" xmlns:xlink="http://www.w3.org/1999/xlink" x="0px" y="0px"
	 width="14px" height="14px" viewBox="9 9 14 14" enable-background="new 9 9 14 14" xml:space="preserve">
<path d="M16,10c0.15,0,0.279,0.054,0.386,0.16c0.106,0.106,0.16,0.235,0.16,0.386v6.319l1.794-1.799
	c0.104-0.104,0.233-0.157,0.388-0.157c0.156,0,0.286,0.052,0.39,0.155s0.155,0.234,0.155,0.391c0,0.153-0.053,0.282-0.157,0.388
	l-2.728,2.727c-0.105,0.105-0.234,0.157-0.388,0.157s-0.283-0.052-0.388-0.157l-2.728-2.727c-0.105-0.111-0.157-0.24-0.157-0.388
	c0-0.151,0.053-0.279,0.16-0.386c0.107-0.107,0.235-0.16,0.386-0.16c0.154,0,0.283,0.053,0.388,0.157l1.793,1.798v-6.318
	c0-0.151,0.053-0.279,0.16-0.386C15.721,10.053,15.85,10,16,10L16,10z M21.454,17.636c0.15,0,0.279,0.054,0.386,0.16
	c0.106,0.107,0.16,0.235,0.16,0.386v2.182c0,0.454-0.158,0.839-0.473,1.155C21.206,21.839,20.822,22,20.376,22h-8.74
	c-0.446,0-0.832-0.16-1.159-0.478C10.159,21.195,10,20.809,10,20.363v-2.182c0-0.15,0.054-0.278,0.16-0.386
	c0.107-0.106,0.235-0.16,0.386-0.16s0.279,0.054,0.386,0.16c0.106,0.107,0.16,0.235,0.16,0.386v2.182c0,0.15,0.053,0.279,0.16,0.386
	c0.107,0.106,0.235,0.16,0.386,0.16h8.74c0.148,0,0.273-0.054,0.377-0.16s0.155-0.235,0.155-0.386v-2.182
	c0-0.15,0.054-0.278,0.16-0.386C21.177,17.689,21.305,17.636,21.454,17.636L21.454,17.636z"/>
</svg>
