<?xml version="1.0" encoding="utf-8"?>
<!-- Generator: Adobe Illustrator 16.0.3, SVG Export Plug-In . SVG Version: 6.00 Build 0)  -->
<!DOCTYPE svg PUBLIC "-//W3C//DTD SVG 1.1//EN" "http://www.w3.org/Graphics/SVG/1.1/DTD/svg11.dtd">
<svg version="1.1" id="Layer_1" xmlns="http://www.w3.org/2000/svg" xmlns:xlink="http://www.w3.org/1999/xlink" x="0px" y="0px"
	 width="14px" height="14px" viewBox="9 9 14 14" enable-background="new 9 9 14 14" xml:space="preserve">
<path d="M18.727,10c0.43,0,0.844,0.081,1.242,0.243c0.398,0.162,0.756,0.401,1.072,0.716c0.314,0.315,0.555,0.673,0.715,1.072
	c0.162,0.399,0.242,0.813,0.244,1.242c0,0.426-0.082,0.84-0.246,1.242c-0.164,0.402-0.4,0.759-0.713,1.072l-1.637,1.636
	c-0.031,0.031-0.078,0.075-0.141,0.133c-0.305,0.27-0.643,0.475-1.02,0.614c-0.375,0.141-0.76,0.211-1.154,0.212
	c-0.496,0-0.967-0.106-1.41-0.319c-0.332-0.156-0.633-0.37-0.903-0.64c-0.27-0.27-0.483-0.571-0.64-0.903
	C14.351,16.106,14.607,16,14.909,16c0.105,0,0.211,0.016,0.319,0.047c0.185,0.298,0.426,0.54,0.724,0.724
	c0.35,0.213,0.729,0.319,1.138,0.319c0.283,0,0.561-0.054,0.826-0.162c0.268-0.107,0.506-0.267,0.717-0.478l1.635-1.636
	c0.211-0.21,0.371-0.449,0.479-0.716s0.162-0.542,0.162-0.827s-0.055-0.56-0.162-0.827s-0.268-0.506-0.479-0.716
	c-0.209-0.21-0.447-0.37-0.715-0.478s-0.543-0.162-0.826-0.162c-0.285,0-0.561,0.054-0.826,0.162
	c-0.268,0.108-0.506,0.267-0.717,0.478l-1.146,1.146c-0.363-0.1-0.74-0.149-1.128-0.149c-0.063,0-0.151,0.003-0.265,0.009
	c0.057-0.063,0.101-0.109,0.132-0.141l1.636-1.636c0.312-0.312,0.669-0.55,1.072-0.713C17.887,10.082,18.301,10,18.727,10L18.727,10
	z M14.909,13.818c0.497,0,0.967,0.106,1.411,0.32c0.333,0.156,0.634,0.369,0.903,0.639s0.482,0.571,0.639,0.903
	C17.648,15.894,17.391,16,17.09,16c-0.104,0-0.211-0.016-0.318-0.047c-0.186-0.298-0.427-0.54-0.725-0.724
	c-0.349-0.213-0.729-0.319-1.138-0.319c-0.284,0-0.56,0.054-0.827,0.162c-0.267,0.108-0.505,0.267-0.716,0.478l-1.636,1.636
	c-0.21,0.21-0.369,0.449-0.478,0.716c-0.108,0.268-0.162,0.543-0.162,0.827c0,0.283,0.054,0.56,0.162,0.826
	c0.108,0.268,0.267,0.506,0.478,0.716c0.21,0.211,0.449,0.369,0.716,0.478s0.542,0.162,0.827,0.162s0.56-0.054,0.827-0.162
	s0.506-0.267,0.716-0.478l1.146-1.146c0.363,0.1,0.739,0.149,1.128,0.149c0.064,0,0.152-0.002,0.266-0.008
	c-0.057,0.063-0.102,0.108-0.133,0.141l-1.636,1.636c-0.315,0.315-0.673,0.554-1.072,0.716C14.116,21.919,13.702,22,13.273,22
	c-0.426,0-0.84-0.081-1.242-0.245c-0.402-0.163-0.759-0.401-1.072-0.714c-0.315-0.315-0.554-0.673-0.716-1.071
	C10.082,19.57,10,19.156,10,18.728s0.081-0.843,0.243-1.242c0.162-0.398,0.4-0.756,0.716-1.071l1.636-1.636
	c0.031-0.031,0.078-0.076,0.141-0.132c0.304-0.27,0.644-0.475,1.019-0.616C14.13,13.89,14.515,13.819,14.909,13.818L14.909,13.818z"
	/>
</svg>
