<?xml version="1.0" encoding="utf-8"?>
<!-- Generator: Adobe Illustrator 16.0.3, SVG Export Plug-In . SVG Version: 6.00 Build 0)  -->
<!DOCTYPE svg PUBLIC "-//W3C//DTD SVG 1.1//EN" "http://www.w3.org/Graphics/SVG/1.1/DTD/svg11.dtd">
<svg version="1.1" id="Layer_1" xmlns="http://www.w3.org/2000/svg" xmlns:xlink="http://www.w3.org/1999/xlink" x="0px" y="0px"
	 width="14px" height="14px" viewBox="9 9 14 14" enable-background="new 9 9 14 14" xml:space="preserve">
<path d="M16,10c0.815,0,1.594,0.158,2.333,0.475c0.74,0.316,1.378,0.743,1.913,1.278c0.536,0.536,0.962,1.173,1.279,1.914
	C21.842,14.407,22,15.185,22,16s-0.158,1.594-0.475,2.333c-0.317,0.74-0.743,1.378-1.279,1.913
	c-0.535,0.536-1.173,0.963-1.913,1.279C17.594,21.842,16.815,22,16,22s-1.593-0.158-2.333-0.475
	c-0.74-0.316-1.378-0.743-1.914-1.279c-0.536-0.535-0.962-1.173-1.278-1.913C10.158,17.594,10,16.815,10,16s0.158-1.593,0.475-2.333
	c0.316-0.74,0.743-1.378,1.278-1.914s1.173-0.962,1.914-1.278C14.407,10.158,15.185,10,16,10z M16.545,11.121v1.606
	c0,0.15-0.053,0.279-0.16,0.386c-0.106,0.106-0.235,0.16-0.386,0.16c-0.15,0-0.279-0.054-0.386-0.16
	c-0.106-0.106-0.16-0.235-0.16-0.386v-1.606c-0.563,0.063-1.096,0.217-1.6,0.464c-0.504,0.247-0.947,0.561-1.328,0.941
	c-0.381,0.381-0.695,0.824-0.942,1.328c-0.247,0.504-0.402,1.038-0.464,1.6h1.606c0.151,0,0.279,0.053,0.386,0.16
	c0.107,0.106,0.16,0.235,0.16,0.386c0,0.15-0.053,0.279-0.16,0.386c-0.106,0.106-0.235,0.16-0.386,0.16H11.12
	c0.063,0.563,0.217,1.097,0.464,1.601s0.561,0.946,0.942,1.327c0.38,0.381,0.823,0.695,1.328,0.941
	c0.504,0.247,1.038,0.402,1.6,0.465v-1.606c0-0.15,0.054-0.279,0.16-0.386c0.107-0.106,0.235-0.16,0.386-0.16
	c0.151,0,0.279,0.054,0.386,0.16c0.107,0.106,0.16,0.235,0.16,0.386v1.606c0.563-0.063,1.097-0.217,1.601-0.465
	c0.504-0.247,0.946-0.561,1.327-0.941s0.695-0.823,0.942-1.327c0.246-0.505,0.401-1.038,0.464-1.601h-1.606
	c-0.15,0-0.279-0.053-0.386-0.16c-0.106-0.107-0.16-0.235-0.16-0.386c0-0.151,0.054-0.279,0.16-0.386
	c0.106-0.107,0.235-0.16,0.386-0.16h1.606c-0.063-0.563-0.218-1.096-0.464-1.6c-0.247-0.504-0.562-0.946-0.942-1.328
	c-0.38-0.381-0.823-0.695-1.327-0.941C17.642,11.338,17.107,11.184,16.545,11.121z"/>
</svg>
