<?xml version="1.0" encoding="utf-8"?>
<!-- Generator: Adobe Illustrator 16.0.3, SVG Export Plug-In . SVG Version: 6.00 Build 0)  -->
<!DOCTYPE svg PUBLIC "-//W3C//DTD SVG 1.1//EN" "http://www.w3.org/Graphics/SVG/1.1/DTD/svg11.dtd">
<svg version="1.1" id="Layer_1" xmlns="http://www.w3.org/2000/svg" xmlns:xlink="http://www.w3.org/1999/xlink" x="0px" y="0px"
	 width="14px" height="14px" viewBox="9 9 14 14" enable-background="new 9 9 14 14" xml:space="preserve">
<path d="M11.636,11.091h8.728c0.451,0,0.837,0.16,1.157,0.479C21.84,11.89,22,12.275,22,12.727v6.545
	c0,0.452-0.16,0.838-0.479,1.157c-0.32,0.319-0.706,0.479-1.157,0.479h-8.728c-0.451,0-0.837-0.16-1.156-0.479
	C10.159,20.11,10,19.725,10,19.272v-6.545c0-0.452,0.159-0.837,0.479-1.157C10.799,11.25,11.185,11.091,11.636,11.091z
	 M20.909,19.272v-5.958l-4.568,3.657c-0.097,0.08-0.21,0.119-0.341,0.119s-0.244-0.039-0.341-0.119l-4.568-3.657v5.958
	c0,0.151,0.054,0.279,0.16,0.386s0.235,0.16,0.386,0.16h8.727c0.15,0,0.279-0.054,0.386-0.16
	C20.856,19.552,20.909,19.424,20.909,19.272L20.909,19.272z M20.363,12.182h-8.727c-0.054,0-0.114,0.01-0.18,0.03L16,15.847
	l4.542-3.635C20.477,12.192,20.417,12.182,20.363,12.182L20.363,12.182z"/>
</svg>
