<?xml version="1.0" encoding="utf-8"?>
<!-- Generator: Adobe Illustrator 16.0.3, SVG Export Plug-In . SVG Version: 6.00 Build 0)  -->
<!DOCTYPE svg PUBLIC "-//W3C//DTD SVG 1.1//EN" "http://www.w3.org/Graphics/SVG/1.1/DTD/svg11.dtd">
<svg version="1.1" id="Layer_1" xmlns="http://www.w3.org/2000/svg" xmlns:xlink="http://www.w3.org/1999/xlink" x="0px" y="0px"
	 width="14px" height="14px" viewBox="9 9 14 14" enable-background="new 9 9 14 14" xml:space="preserve">
<path d="M19.272,10.001h1.091c0.452,0,0.837,0.16,1.157,0.479c0.319,0.319,0.479,0.705,0.479,1.156v1.091
	c0,0.151-0.053,0.279-0.16,0.386c-0.105,0.107-0.234,0.16-0.385,0.16c-0.151,0-0.279-0.053-0.386-0.16
	c-0.107-0.106-0.16-0.234-0.16-0.386v-1.091c0-0.15-0.053-0.278-0.16-0.386c-0.106-0.106-0.235-0.159-0.386-0.159h-1.091
	c-0.15,0-0.279-0.054-0.386-0.16s-0.159-0.235-0.159-0.386s0.053-0.279,0.159-0.386S19.121,10,19.272,10.001L19.272,10.001z
	 M10.547,18.728c0.151,0,0.279,0.053,0.386,0.16c0.107,0.105,0.16,0.234,0.16,0.385v1.091c0,0.151,0.054,0.279,0.16,0.386
	s0.235,0.16,0.386,0.16h1.091c0.15,0,0.279,0.054,0.386,0.16s0.16,0.235,0.16,0.386s-0.054,0.279-0.16,0.386S12.88,22,12.729,22
	h-1.091c-0.452,0-0.837-0.159-1.157-0.479c-0.319-0.32-0.479-0.706-0.479-1.157v-1.091c0-0.15,0.054-0.279,0.16-0.386
	C10.27,18.781,10.397,18.728,10.547,18.728L10.547,18.728z M10.547,14.364c0.151,0,0.279,0.053,0.386,0.16
	c0.107,0.106,0.16,0.234,0.16,0.385v2.182c0,0.151-0.053,0.279-0.16,0.386c-0.106,0.107-0.234,0.16-0.386,0.16
	c-0.15,0-0.278-0.053-0.386-0.16c-0.106-0.106-0.159-0.234-0.159-0.386v-2.182c0-0.15,0.053-0.278,0.159-0.385
	C10.269,14.417,10.396,14.364,10.547,14.364z M14.91,20.908h2.181c0.15,0,0.279,0.054,0.386,0.16s0.16,0.235,0.16,0.386
	s-0.054,0.279-0.16,0.386S17.241,22,17.091,22H14.91c-0.151,0-0.279-0.054-0.386-0.16s-0.16-0.235-0.16-0.386
	s0.054-0.279,0.16-0.386S14.759,20.908,14.91,20.908z M11.638,10.001h1.091c0.15,0,0.279,0.054,0.386,0.16s0.16,0.235,0.16,0.386
	s-0.054,0.278-0.16,0.386c-0.106,0.106-0.235,0.159-0.386,0.159h-1.091c-0.15,0-0.279,0.054-0.386,0.16
	c-0.106,0.107-0.16,0.235-0.16,0.386v1.091c0,0.15-0.053,0.279-0.16,0.386c-0.106,0.106-0.234,0.16-0.385,0.16
	c-0.151,0-0.279-0.054-0.386-0.16c-0.107-0.106-0.16-0.235-0.16-0.386v-1.091c0-0.451,0.159-0.837,0.479-1.156
	C10.8,10.161,11.186,10.002,11.638,10.001L11.638,10.001z M21.454,18.728c0.15,0,0.279,0.053,0.385,0.16
	c0.107,0.105,0.16,0.234,0.16,0.385v1.091c0,0.452-0.159,0.838-0.479,1.157C21.2,21.84,20.815,22,20.363,22h-1.091
	c-0.15,0-0.278-0.054-0.386-0.16c-0.106-0.106-0.16-0.235-0.16-0.386s0.054-0.279,0.16-0.386c0.107-0.106,0.235-0.16,0.386-0.16
	h1.091c0.15,0,0.279-0.054,0.386-0.159c0.106-0.107,0.16-0.235,0.16-0.386v-1.091c0-0.151,0.053-0.279,0.16-0.386
	C21.176,18.779,21.304,18.727,21.454,18.728L21.454,18.728z M21.454,14.364c0.15,0,0.279,0.053,0.385,0.16
	c0.107,0.106,0.16,0.234,0.16,0.385v2.182c0,0.151-0.053,0.279-0.16,0.386c-0.105,0.107-0.234,0.16-0.385,0.16
	c-0.151,0-0.279-0.053-0.386-0.16c-0.107-0.106-0.16-0.234-0.16-0.386v-2.182c0-0.15,0.053-0.278,0.16-0.385
	C21.175,14.417,21.303,14.364,21.454,14.364z M14.91,10.001h2.181c0.15,0,0.279,0.054,0.386,0.16s0.16,0.235,0.16,0.386
	s-0.054,0.278-0.16,0.386c-0.106,0.106-0.235,0.159-0.386,0.159H14.91c-0.151,0-0.279-0.053-0.386-0.159
	c-0.106-0.107-0.16-0.235-0.16-0.386s0.054-0.279,0.16-0.386S14.759,10.001,14.91,10.001z"/>
</svg>
