<?xml version="1.0" encoding="utf-8"?>
<!-- Generator: Adobe Illustrator 16.0.3, SVG Export Plug-In . SVG Version: 6.00 Build 0)  -->
<!DOCTYPE svg PUBLIC "-//W3C//DTD SVG 1.1//EN" "http://www.w3.org/Graphics/SVG/1.1/DTD/svg11.dtd">
<svg version="1.1" id="Layer_1" xmlns="http://www.w3.org/2000/svg" xmlns:xlink="http://www.w3.org/1999/xlink" x="0px" y="0px"
	 width="14px" height="14px" viewBox="9 9 14 14" enable-background="new 9 9 14 14" xml:space="preserve">
<path d="M19.5,14.499c0.139,0,0.256,0.049,0.354,0.147C19.952,14.744,20,14.861,20,15v1c0,0.499-0.09,0.98-0.271,1.442
	c-0.182,0.463-0.428,0.867-0.738,1.215c-0.312,0.348-0.683,0.638-1.114,0.871c-0.431,0.233-0.89,0.38-1.377,0.439v1.031H18
	c0.139,0,0.256,0.049,0.354,0.146c0.099,0.098,0.147,0.216,0.147,0.354c0,0.139-0.049,0.256-0.147,0.354
	C18.256,21.951,18.139,22,18,22h-4c-0.138,0-0.256-0.049-0.354-0.147c-0.098-0.098-0.146-0.215-0.146-0.354
	c0-0.138,0.049-0.256,0.146-0.354s0.216-0.146,0.354-0.146h1.5v-1.031c-0.486-0.06-0.945-0.206-1.377-0.439
	c-0.431-0.233-0.802-0.523-1.113-0.871c-0.311-0.348-0.557-0.752-0.738-1.215C12.091,16.98,12,16.499,12,16v-1
	c0-0.139,0.049-0.256,0.146-0.354c0.099-0.099,0.216-0.147,0.354-0.147c0.138,0,0.255,0.049,0.354,0.147
	c0.097,0.097,0.146,0.215,0.146,0.354v1c0,0.544,0.134,1.046,0.402,1.506c0.268,0.459,0.632,0.822,1.091,1.091
	c0.46,0.268,0.962,0.402,1.506,0.402c0.545,0,1.047-0.135,1.507-0.402c0.46-0.269,0.823-0.632,1.091-1.091
	C18.866,17.046,19,16.544,19,16v-1c0-0.139,0.049-0.256,0.146-0.354C19.245,14.548,19.362,14.499,19.5,14.499L19.5,14.499
	L19.5,14.499z M16,10c0.553,0,1.023,0.195,1.415,0.586c0.391,0.391,0.586,0.862,0.586,1.414v4c0,0.551-0.195,1.022-0.586,1.413
	c-0.392,0.392-0.862,0.586-1.415,0.586c-0.552,0-1.022-0.194-1.413-0.586C14.195,17.022,14,16.551,14,16v-4
	c0-0.552,0.195-1.023,0.587-1.414C14.978,10.195,15.448,10,16,10z"/>
</svg>
