<?xml version="1.0" encoding="utf-8"?>
<!-- Generator: Adobe Illustrator 16.0.3, SVG Export Plug-In . SVG Version: 6.00 Build 0)  -->
<!DOCTYPE svg PUBLIC "-//W3C//DTD SVG 1.1//EN" "http://www.w3.org/Graphics/SVG/1.1/DTD/svg11.dtd">
<svg version="1.1" id="Layer_1" xmlns="http://www.w3.org/2000/svg" xmlns:xlink="http://www.w3.org/1999/xlink" x="0px" y="0px"
	 width="14px" height="14px" viewBox="9 9 14 14" enable-background="new 9 9 14 14" xml:space="preserve">
<g>
	<path d="M13.298,18.658c-0.312-0.348-0.557-0.752-0.738-1.215C12.379,16.981,12.289,16.5,12.289,16v-1
		c0-0.138,0.048-0.256,0.146-0.354c0.098-0.098,0.215-0.146,0.354-0.146s0.256,0.049,0.354,0.146s0.147,0.216,0.147,0.354v1
		c0,0.545,0.134,1.047,0.402,1.506L13.298,18.658z"/>
	<path d="M18.288,14.613V16c0,0.553-0.195,1.023-0.586,1.414S16.84,18,16.288,18c-0.552,0-0.563-0.012-1.062-0.293L18.288,14.613z"
		/>
	<path d="M14.751,17.281c-0.391-0.391-0.463-0.729-0.463-1.281v-4c0-0.552,0.195-1.023,0.586-1.414S15.736,10,16.289,10
		s1.024,0.195,1.415,0.586s0.586,0.862,0.586,1.414v1.346l0.973-0.966L14.751,17.281L14.751,17.281z"/>
	<path d="M14.484,18.357c0.41,0.303-0.114-0.028,0.346,0.24C15.289,18.866,15.791,19,16.335,19s1.046-0.134,1.506-0.402
		s0.823-0.632,1.092-1.092c0.268-0.459,0.402-0.961,0.402-1.506v-1c0-0.138,0.049-0.256,0.146-0.354s0.216-0.146,0.354-0.146l0,0
		c0.138,0,0.256,0.049,0.354,0.146s0.146,0.216,0.146,0.354v1c0,0.5-0.091,0.981-0.271,1.443c-0.181,0.463-0.427,0.867-0.738,1.215
		c-0.311,0.348-0.682,0.638-1.113,0.871c-0.431,0.233-0.89,0.38-1.377,0.439V21h1.5c0.138,0,0.256,0.049,0.354,0.146
		c0.098,0.099,0.146,0.216,0.146,0.354c0,0.139-0.049,0.256-0.146,0.354C18.592,21.952,18.474,22,18.336,22h-4
		c-0.138,0-0.256-0.048-0.354-0.146c-0.098-0.099-0.147-0.216-0.147-0.354c0-0.138,0.049-0.255,0.147-0.354
		C14.08,21.049,14.198,21,14.336,21h1.5v-1.031c-0.487-0.06-0.946-0.206-1.376-0.439c-0.431-0.233-0.175-0.089-0.656-0.436
		L14.484,18.357z"/>
	<path d="M11.302,20.589l0.089-0.088l9.045-8.643l0.812-0.806c0,0,0.07-0.067,0.088-0.208c0.006-0.048-0.194-0.411-0.427-0.41
		c0,0-0.089-0.009-0.189,0.064c-0.1,0.073-0.082,0.079-0.082,0.079l-2.748,2.73l-7.124,6.747c0,0-0.032,0.022-0.032,0.035
		c0,0.012-0.055,0.064-0.067,0.158s0.038,0.17,0.055,0.202c0.018,0.032,0.219,0.246,0.355,0.246
		C11.208,20.697,11.302,20.59,11.302,20.589L11.302,20.589z"/>
</g>
</svg>
