<?xml version="1.0" encoding="utf-8"?>
<!-- Generator: Adobe Illustrator 16.0.3, SVG Export Plug-In . SVG Version: 6.00 Build 0)  -->
<!DOCTYPE svg PUBLIC "-//W3C//DTD SVG 1.1//EN" "http://www.w3.org/Graphics/SVG/1.1/DTD/svg11.dtd">
<svg version="1.1" id="Layer_1" xmlns="http://www.w3.org/2000/svg" xmlns:xlink="http://www.w3.org/1999/xlink" x="0px" y="0px"
	 width="14px" height="14px" viewBox="9 9 14 14" enable-background="new 9 9 14 14" xml:space="preserve">
<path d="M11.636,10.545h8.728c0.451,0,0.837,0.16,1.157,0.479C21.84,11.344,22,11.73,22,12.182v5.454
	c0,0.452-0.16,0.838-0.479,1.157c-0.32,0.319-0.706,0.479-1.157,0.479h-3.818v1.091h1.637c0.15,0,0.279,0.054,0.386,0.16
	s0.16,0.235,0.16,0.386s-0.054,0.279-0.16,0.386s-0.235,0.16-0.386,0.16h-4.364c-0.15,0-0.278-0.054-0.386-0.16
	c-0.106-0.106-0.159-0.235-0.159-0.386s0.053-0.279,0.159-0.386c0.107-0.106,0.235-0.16,0.386-0.16h1.637v-1.091h-3.818
	c-0.451,0-0.837-0.16-1.156-0.479C10.159,18.474,10,18.088,10,17.636v-5.454c0-0.452,0.159-0.837,0.479-1.157
	C10.799,10.705,11.185,10.545,11.636,10.545z M20.363,11.636h-8.727c-0.15,0-0.279,0.053-0.386,0.16
	c-0.106,0.106-0.16,0.235-0.16,0.386v5.454c0,0.15,0.054,0.279,0.16,0.386s0.235,0.16,0.386,0.16h8.727
	c0.15,0,0.279-0.054,0.386-0.16c0.107-0.106,0.16-0.235,0.16-0.386v-5.454c0-0.151-0.053-0.279-0.16-0.386
	C20.643,11.689,20.514,11.636,20.363,11.636z"/>
</svg>
