<?xml version="1.0" encoding="utf-8"?>
<!-- Generator: Adobe Illustrator 16.0.3, SVG Export Plug-In . SVG Version: 6.00 Build 0)  -->
<!DOCTYPE svg PUBLIC "-//W3C//DTD SVG 1.1//EN" "http://www.w3.org/Graphics/SVG/1.1/DTD/svg11.dtd">
<svg version="1.1" id="Layer_1" xmlns="http://www.w3.org/2000/svg" xmlns:xlink="http://www.w3.org/1999/xlink" x="0px" y="0px"
	 width="14px" height="14px" viewBox="9 9 14 14" enable-background="new 9 9 14 14" xml:space="preserve">
<path d="M16,10c0.134,0,0.267,0.004,0.398,0.014C16.133,10.586,16,11.181,16,11.8c0,0.569,0.111,1.112,0.333,1.631
	c0.222,0.519,0.52,0.965,0.895,1.34s0.822,0.673,1.341,0.896S19.632,16,20.2,16c0.619,0,1.214-0.133,1.786-0.398
	C21.995,15.733,22,15.866,22,16c0,0.544-0.072,1.075-0.215,1.594c-0.145,0.519-0.345,0.997-0.604,1.437
	c-0.257,0.439-0.571,0.843-0.939,1.212c-0.369,0.368-0.772,0.683-1.212,0.939c-0.439,0.259-0.918,0.459-1.437,0.604
	C17.075,21.928,16.544,22,16,22s-1.075-0.072-1.594-0.215c-0.519-0.145-0.998-0.345-1.437-0.604
	c-0.439-0.257-0.843-0.571-1.212-0.939c-0.369-0.369-0.682-0.772-0.94-1.212s-0.458-0.918-0.603-1.437
	C10.072,17.075,10,16.544,10,16s0.072-1.075,0.215-1.594c0.144-0.519,0.345-0.998,0.603-1.437c0.258-0.439,0.571-0.843,0.94-1.212
	s0.772-0.682,1.212-0.94c0.439-0.258,0.918-0.458,1.437-0.603C14.925,10.072,15.456,10,16,10L16,10z M14.819,11.345
	c-0.516,0.132-0.996,0.344-1.441,0.638c-0.445,0.293-0.828,0.642-1.148,1.045c-0.32,0.403-0.572,0.861-0.755,1.375
	c-0.183,0.514-0.274,1.045-0.274,1.596c0,0.65,0.126,1.271,0.38,1.863c0.253,0.593,0.595,1.104,1.024,1.533
	c0.43,0.43,0.94,0.771,1.533,1.024c0.592,0.253,1.213,0.379,1.863,0.379c0.55,0,1.082-0.091,1.596-0.273
	c0.515-0.183,0.973-0.435,1.376-0.755c0.402-0.32,0.751-0.703,1.045-1.148s0.507-0.926,0.638-1.441
	c-0.135,0.014-0.286,0.02-0.455,0.02c-0.731,0-1.429-0.143-2.094-0.429c-0.666-0.286-1.24-0.67-1.723-1.153
	c-0.483-0.483-0.868-1.057-1.154-1.723c-0.286-0.665-0.429-1.363-0.429-2.095C14.801,11.632,14.808,11.48,14.819,11.345
	L14.819,11.345z"/>
</svg>
