<?xml version="1.0" encoding="utf-8"?>
<!-- Generator: Adobe Illustrator 16.0.3, SVG Export Plug-In . SVG Version: 6.00 Build 0)  -->
<!DOCTYPE svg PUBLIC "-//W3C//DTD SVG 1.1//EN" "http://www.w3.org/Graphics/SVG/1.1/DTD/svg11.dtd">
<svg version="1.1" id="Layer_1" xmlns="http://www.w3.org/2000/svg" xmlns:xlink="http://www.w3.org/1999/xlink" x="0px" y="0px"
	 width="14px" height="14px" viewBox="9 9 14 14" enable-background="new 9 9 14 14" xml:space="preserve">
<path d="M16,10c0.141,0,0.259,0.048,0.355,0.145l1.766,1.77c0.099,0.099,0.148,0.218,0.148,0.355s-0.049,0.256-0.146,0.354
	s-0.216,0.146-0.354,0.146c-0.138,0-0.256-0.05-0.355-0.148l-0.914-0.914V15.5h3.794l-0.915-0.914
	c-0.099-0.1-0.148-0.218-0.148-0.355s0.049-0.256,0.146-0.354c0.098-0.099,0.216-0.146,0.354-0.146c0.138,0,0.256,0.049,0.354,0.147
	l1.77,1.766C21.951,15.74,22,15.858,22,16c0,0.141-0.049,0.258-0.146,0.352l-1.77,1.77c-0.099,0.099-0.217,0.148-0.354,0.148
	c-0.139,0-0.257-0.049-0.354-0.146s-0.146-0.216-0.146-0.354c0-0.138,0.05-0.256,0.148-0.355l0.915-0.914h-3.794v3.794l0.914-0.915
	c0.1-0.099,0.218-0.148,0.355-0.148c0.139,0,0.257,0.049,0.354,0.146s0.146,0.216,0.146,0.354c0,0.138-0.05,0.256-0.148,0.354
	l-1.766,1.771C16.259,21.951,16.141,22,16,22c-0.138,0-0.255-0.049-0.352-0.145l-1.771-1.771c-0.099-0.099-0.148-0.217-0.148-0.354
	c0-0.139,0.049-0.257,0.147-0.354c0.098-0.098,0.216-0.146,0.354-0.146s0.256,0.05,0.355,0.148l0.914,0.915v-3.794h-3.793
	l0.914,0.914c0.099,0.1,0.148,0.218,0.148,0.355c0,0.139-0.049,0.257-0.146,0.354s-0.216,0.146-0.354,0.146s-0.257-0.05-0.355-0.148
	l-1.77-1.766C10.048,16.259,10,16.141,10,16s0.048-0.26,0.145-0.355l1.77-1.766c0.099-0.099,0.218-0.148,0.355-0.148
	s0.256,0.049,0.354,0.146s0.146,0.216,0.146,0.354s-0.05,0.257-0.148,0.355L11.707,15.5H15.5v-3.793l-0.914,0.914
	c-0.1,0.1-0.218,0.149-0.355,0.149s-0.256-0.05-0.354-0.147c-0.099-0.098-0.147-0.216-0.147-0.354s0.05-0.256,0.148-0.355
	l1.766-1.77C15.74,10.048,15.858,10,16,10L16,10z"/>
</svg>
