<?xml version="1.0" encoding="utf-8"?>
<!-- Generator: Adobe Illustrator 16.0.3, SVG Export Plug-In . SVG Version: 6.00 Build 0)  -->
<!DOCTYPE svg PUBLIC "-//W3C//DTD SVG 1.1//EN" "http://www.w3.org/Graphics/SVG/1.1/DTD/svg11.dtd">
<svg version="1.1" id="Layer_1" xmlns="http://www.w3.org/2000/svg" xmlns:xlink="http://www.w3.org/1999/xlink" x="0px" y="0px"
	 width="14px" height="14px" viewBox="9 9 14 14" enable-background="new 9 9 14 14" xml:space="preserve">
<path d="M12.857,13.715l2.857-2.857v10.285l-2.857-2.857h-1.143c-0.473,0-0.877-0.167-1.212-0.502
	C10.167,17.448,10,17.045,10,16.571v-1.12c0-0.474,0.167-0.881,0.502-1.224c0.334-0.342,0.739-0.514,1.212-0.514L12.857,13.715
	L12.857,13.715z M14.572,18.384v-4.79l-1.241,1.264h-1.616c-0.155,0-0.289,0.059-0.402,0.177c-0.113,0.117-0.17,0.256-0.17,0.417
	v1.12c0,0.158,0.056,0.293,0.167,0.404s0.247,0.168,0.404,0.168h1.616L14.572,18.384z M21.429,13.715c0.164,0,0.3,0.054,0.408,0.163
	C21.946,13.986,22,14.122,22,14.286c0,0.161-0.055,0.296-0.165,0.406L20.522,16l1.313,1.308c0.11,0.11,0.165,0.246,0.165,0.406
	c0,0.164-0.054,0.3-0.163,0.409c-0.108,0.108-0.244,0.162-0.408,0.162c-0.161,0-0.296-0.055-0.406-0.164l-1.308-1.313l-1.309,1.313
	c-0.109,0.109-0.245,0.164-0.406,0.164c-0.163,0-0.3-0.054-0.408-0.162c-0.109-0.109-0.163-0.245-0.163-0.409
	c0-0.16,0.055-0.296,0.165-0.406L18.906,16l-1.313-1.308c-0.11-0.11-0.165-0.245-0.165-0.406c0-0.164,0.054-0.3,0.163-0.408
	c0.108-0.109,0.245-0.163,0.408-0.163c0.161,0,0.297,0.055,0.406,0.165l1.309,1.313l1.308-1.313
	C21.133,13.77,21.268,13.715,21.429,13.715z"/>
</svg>
