<?xml version="1.0" encoding="utf-8"?>
<!-- Generator: Adobe Illustrator 16.0.3, SVG Export Plug-In . SVG Version: 6.00 Build 0)  -->
<!DOCTYPE svg PUBLIC "-//W3C//DTD SVG 1.1//EN" "http://www.w3.org/Graphics/SVG/1.1/DTD/svg11.dtd">
<svg version="1.1" id="Layer_1" xmlns="http://www.w3.org/2000/svg" xmlns:xlink="http://www.w3.org/1999/xlink" x="0px" y="0px"
	 width="14px" height="14px" viewBox="9 9 14 14" enable-background="new 9 9 14 14" xml:space="preserve">
<path d="M16,10c0.153,0,0.282,0.053,0.388,0.158l2.728,2.727c0.104,0.105,0.157,0.234,0.157,0.388c0,0.156-0.052,0.287-0.155,0.39
	s-0.233,0.155-0.39,0.155c-0.154,0-0.283-0.052-0.389-0.158l-1.793-1.798v6.319c0,0.15-0.054,0.279-0.16,0.386
	c-0.107,0.106-0.235,0.16-0.386,0.16s-0.279-0.054-0.386-0.16s-0.16-0.235-0.16-0.386v-6.319l-1.794,1.798
	c-0.11,0.105-0.24,0.158-0.388,0.158c-0.15,0-0.279-0.053-0.386-0.16c-0.106-0.106-0.16-0.235-0.16-0.385
	c0-0.148,0.053-0.277,0.157-0.388l2.728-2.728C15.717,10.053,15.846,10,16,10L16,10z M21.454,17.637c0.15,0,0.279,0.053,0.386,0.16
	c0.106,0.106,0.16,0.235,0.16,0.385v2.183c0,0.454-0.158,0.839-0.473,1.154C21.206,21.84,20.822,22,20.376,22h-8.739
	c-0.446,0-0.833-0.159-1.159-0.478C10.159,21.195,10,20.81,10,20.364v-2.183c0-0.149,0.054-0.278,0.16-0.385
	c0.106-0.107,0.235-0.16,0.386-0.16s0.279,0.053,0.386,0.16c0.106,0.106,0.16,0.235,0.16,0.385v2.183
	c0,0.15,0.053,0.278,0.159,0.385c0.107,0.107,0.235,0.161,0.386,0.161h8.74c0.147,0,0.273-0.054,0.377-0.161
	c0.104-0.106,0.155-0.234,0.155-0.385v-2.183c0-0.149,0.054-0.278,0.16-0.385C21.177,17.689,21.305,17.637,21.454,17.637
	L21.454,17.637z"/>
</svg>
