<?xml version="1.0" encoding="utf-8"?>
<!-- Generator: Adobe Illustrator 16.0.3, SVG Export Plug-In . SVG Version: 6.00 Build 0)  -->
<!DOCTYPE svg PUBLIC "-//W3C//DTD SVG 1.1//EN" "http://www.w3.org/Graphics/SVG/1.1/DTD/svg11.dtd">
<svg version="1.1" id="Layer_1" xmlns="http://www.w3.org/2000/svg" xmlns:xlink="http://www.w3.org/1999/xlink" x="0px" y="0px"
	 width="14px" height="14px" viewBox="9 9 14 14" enable-background="new 9 9 14 14" xml:space="preserve">
<path d="M18.166,10c0.346,0,0.678,0.065,0.996,0.195c0.332,0.133,0.625,0.326,0.88,0.581c0.257,0.26,0.45,0.552,0.58,0.875
	c0.128,0.313,0.191,0.645,0.191,0.996s-0.063,0.684-0.191,0.996c-0.13,0.323-0.323,0.615-0.58,0.875l-4.889,4.889
	c-0.149,0.149-0.326,0.267-0.531,0.353c-0.199,0.077-0.398,0.116-0.598,0.116s-0.397-0.039-0.597-0.116
	c-0.205-0.086-0.382-0.203-0.531-0.353c-0.155-0.155-0.271-0.331-0.349-0.527c-0.077-0.188-0.116-0.387-0.116-0.598
	c0-0.213,0.039-0.413,0.116-0.602c0.077-0.193,0.193-0.369,0.349-0.527l4.511-4.506c0.104-0.105,0.23-0.157,0.378-0.157
	c0.144,0,0.268,0.052,0.373,0.157c0.104,0.105,0.158,0.229,0.158,0.374c0,0.146-0.054,0.272-0.158,0.377l-4.511,4.507
	c-0.102,0.103-0.153,0.229-0.153,0.378c0,0.146,0.052,0.271,0.153,0.373c0.111,0.105,0.236,0.158,0.378,0.158
	c0.141,0,0.267-0.053,0.378-0.158l4.888-4.888c0.308-0.307,0.46-0.681,0.46-1.121c0-0.439-0.152-0.813-0.46-1.12
	c-0.315-0.31-0.69-0.465-1.124-0.465c-0.438,0-0.811,0.155-1.121,0.465l-4.9,4.876c-0.254,0.254-0.448,0.548-0.581,0.879
	c-0.13,0.318-0.195,0.652-0.195,1c0,0.344,0.065,0.677,0.195,1c0.133,0.329,0.327,0.621,0.581,0.876
	c0.263,0.26,0.557,0.455,0.88,0.585s0.656,0.195,0.999,0.195c0.344,0,0.677-0.065,1-0.195s0.617-0.325,0.88-0.585l4.88-4.88
	c0.104-0.105,0.23-0.158,0.377-0.158c0.145,0,0.269,0.053,0.374,0.158s0.158,0.229,0.158,0.373c0,0.147-0.053,0.272-0.158,0.378
	l-4.88,4.88c-0.356,0.356-0.768,0.629-1.232,0.817C14.98,21.909,14.515,22,14.024,22c-0.486,0-0.952-0.091-1.397-0.273
	c-0.465-0.188-0.876-0.461-1.232-0.817c-0.354-0.354-0.625-0.764-0.813-1.229c-0.183-0.448-0.274-0.914-0.274-1.397
	c0-0.487,0.092-0.953,0.274-1.398c0.186-0.459,0.456-0.87,0.813-1.232h0.004l4.896-4.876c0.254-0.254,0.546-0.448,0.875-0.58
	C17.494,10.065,17.826,10.001,18.166,10L18.166,10z"/>
</svg>
