<?xml version="1.0" encoding="utf-8"?>
<!-- Generator: Adobe Illustrator 16.0.3, SVG Export Plug-In . SVG Version: 6.00 Build 0)  -->
<!DOCTYPE svg PUBLIC "-//W3C//DTD SVG 1.1//EN" "http://www.w3.org/Graphics/SVG/1.1/DTD/svg11.dtd">
<svg version="1.1" id="Layer_1" xmlns="http://www.w3.org/2000/svg" xmlns:xlink="http://www.w3.org/1999/xlink" x="0px" y="0px"
	 width="14px" height="14px" viewBox="9 9 14 14" enable-background="new 9 9 14 14" xml:space="preserve">
<path d="M14.5,10h5c0.414,0,0.768,0.146,1.061,0.439S21,11.086,21,11.5v7c0,0.414-0.146,0.768-0.439,1.061s-0.646,0.438-1.061,0.438
	h-5c-0.414,0-0.768-0.146-1.061-0.438S13,18.914,13,18.5v-7c0-0.414,0.146-0.768,0.439-1.061S14.086,10,14.5,10z M12,12.086V20.5
	c0,0.138,0.049,0.256,0.146,0.354S12.362,21,12.5,21h6.414c-0.104,0.294-0.285,0.534-0.543,0.721S17.823,22,17.5,22h-5
	c-0.414,0-0.768-0.146-1.061-0.439S11,20.914,11,20.5v-7c0-0.323,0.094-0.613,0.279-0.871C11.466,12.372,11.706,12.19,12,12.086
	L12,12.086z M19.5,11h-5c-0.139,0-0.256,0.049-0.354,0.146C14.049,11.245,14,11.362,14,11.5v7c0,0.138,0.049,0.256,0.146,0.354
	S14.361,19,14.5,19h5c0.138,0,0.256-0.049,0.354-0.146S20,18.638,20,18.5v-7c0-0.138-0.049-0.256-0.146-0.354
	C19.756,11.049,19.638,11,19.5,11z"/>
</svg>
