<?xml version="1.0" encoding="utf-8"?>
<!-- Generator: Adobe Illustrator 16.0.3, SVG Export Plug-In . SVG Version: 6.00 Build 0)  -->
<!DOCTYPE svg PUBLIC "-//W3C//DTD SVG 1.1//EN" "http://www.w3.org/Graphics/SVG/1.1/DTD/svg11.dtd">
<svg version="1.1" id="Layer_1" xmlns="http://www.w3.org/2000/svg" xmlns:xlink="http://www.w3.org/1999/xlink" x="0px" y="0px"
	 width="14px" height="14px" viewBox="9 9 14 14" enable-background="new 9 9 14 14" xml:space="preserve">
<path d="M14.909,10h4.909c0.15,0,0.279,0.054,0.386,0.16s0.16,0.235,0.16,0.386v10.909c0,0.15-0.054,0.279-0.16,0.386
	S19.969,22,19.818,22s-0.279-0.053-0.386-0.159c-0.107-0.106-0.16-0.235-0.16-0.386V11.092h-1.091v10.363
	c0,0.15-0.054,0.279-0.16,0.386S17.786,22,17.636,22s-0.279-0.053-0.386-0.159s-0.16-0.235-0.16-0.386v-4.909h-2.182
	c-0.594,0-1.142-0.146-1.643-0.439c-0.502-0.292-0.898-0.689-1.191-1.19c-0.292-0.501-0.438-1.049-0.438-1.643
	c0-0.595,0.146-1.142,0.438-1.644c0.294-0.501,0.69-0.897,1.191-1.19S14.314,10.001,14.909,10L14.909,10z M17.092,15.455v-4.364
	h-2.183c-0.602,0-1.116,0.214-1.542,0.64c-0.427,0.427-0.64,0.94-0.64,1.543c0,0.602,0.213,1.116,0.64,1.542
	c0.426,0.427,0.94,0.64,1.542,0.64H17.092L17.092,15.455z"/>
</svg>
