<?xml version="1.0" encoding="utf-8"?>
<!-- Generator: Adobe Illustrator 16.0.3, SVG Export Plug-In . SVG Version: 6.00 Build 0)  -->
<!DOCTYPE svg PUBLIC "-//W3C//DTD SVG 1.1//EN" "http://www.w3.org/Graphics/SVG/1.1/DTD/svg11.dtd">
<svg version="1.1" id="Layer_1" xmlns="http://www.w3.org/2000/svg" xmlns:xlink="http://www.w3.org/1999/xlink" x="0px" y="0px"
	 width="14px" height="14px" viewBox="9 9 14 14" enable-background="new 9 9 14 14" xml:space="preserve">
<path d="M18.666,10c0.553,0,1.023,0.195,1.414,0.586s0.586,0.862,0.586,1.414v8c0,0.552-0.195,1.023-0.586,1.414
	S19.219,22,18.666,22c-0.552,0-1.023-0.195-1.414-0.586S16.666,20.552,16.666,20v-8c0-0.552,0.195-1.023,0.586-1.414
	S18.114,10,18.666,10z M13.334,10c0.552,0,1.023,0.195,1.414,0.586s0.586,0.862,0.586,1.414v8c0,0.552-0.195,1.023-0.586,1.414
	S13.886,22,13.334,22c-0.553,0-1.023-0.195-1.414-0.586S11.334,20.552,11.334,20v-8c0-0.552,0.195-1.023,0.586-1.414
	S12.781,10,13.334,10z M13.334,11.333c-0.185,0-0.342,0.065-0.472,0.196c-0.131,0.13-0.195,0.287-0.195,0.471v8
	c0,0.185,0.064,0.342,0.195,0.472c0.13,0.131,0.287,0.196,0.472,0.196c0.184,0,0.341-0.065,0.471-0.196
	c0.131-0.13,0.196-0.287,0.196-0.472v-8c0-0.184-0.065-0.341-0.196-0.471C13.675,11.398,13.518,11.333,13.334,11.333z
	 M18.666,11.333c-0.184,0-0.341,0.065-0.471,0.196C18.064,11.659,18,11.816,18,12v8c0,0.185,0.064,0.342,0.195,0.472
	c0.13,0.131,0.287,0.196,0.471,0.196c0.185,0,0.342-0.065,0.472-0.196c0.131-0.13,0.196-0.287,0.196-0.472v-8
	c0-0.184-0.065-0.341-0.196-0.471C19.008,11.398,18.851,11.333,18.666,11.333z"/>
</svg>
