<?xml version="1.0" encoding="utf-8"?>
<!-- Generator: Adobe Illustrator 16.0.3, SVG Export Plug-In . SVG Version: 6.00 Build 0)  -->
<!DOCTYPE svg PUBLIC "-//W3C//DTD SVG 1.1//EN" "http://www.w3.org/Graphics/SVG/1.1/DTD/svg11.dtd">
<svg version="1.1" id="Layer_1" xmlns="http://www.w3.org/2000/svg" xmlns:xlink="http://www.w3.org/1999/xlink" x="0px" y="0px"
	 width="14px" height="14px" viewBox="9 9 14 14" enable-background="new 9 9 14 14" xml:space="preserve">
<path d="M16,9.999c0.815,0,1.594,0.158,2.333,0.475c0.74,0.316,1.378,0.743,1.913,1.278c0.536,0.536,0.962,1.173,1.279,1.914
	C21.842,14.406,22,15.184,22,15.999s-0.158,1.594-0.475,2.333c-0.317,0.74-0.743,1.378-1.279,1.913
	c-0.535,0.536-1.173,0.963-1.913,1.279c-0.739,0.316-1.518,0.475-2.333,0.475s-1.593-0.158-2.333-0.475
	c-0.74-0.316-1.378-0.743-1.914-1.279c-0.536-0.535-0.962-1.173-1.278-1.913C10.158,17.593,10,16.814,10,15.999
	s0.158-1.593,0.475-2.333c0.316-0.74,0.743-1.378,1.278-1.914s1.173-0.962,1.914-1.278C14.407,10.157,15.185,9.999,16,9.999z
	 M15.455,16.545V11.12c-0.605,0.068-1.177,0.244-1.715,0.526c-0.538,0.283-1.001,0.639-1.389,1.067
	c-0.388,0.429-0.695,0.929-0.92,1.5c-0.226,0.571-0.339,1.167-0.339,1.786c0,0.665,0.13,1.3,0.39,1.907
	c0.26,0.606,0.608,1.128,1.046,1.566c0.438,0.438,0.96,0.786,1.566,1.046s1.242,0.39,1.907,0.39c0.62,0,1.214-0.113,1.786-0.339
	s1.071-0.532,1.501-0.92c0.429-0.389,0.784-0.852,1.067-1.39c0.281-0.538,0.457-1.11,0.525-1.716L15.455,16.545L15.455,16.545z
	 M16.545,11.12v4.334h4.334c-0.062-0.563-0.217-1.096-0.464-1.6s-0.561-0.946-0.941-1.328c-0.381-0.381-0.823-0.695-1.328-0.941
	C17.642,11.338,17.108,11.183,16.545,11.12L16.545,11.12z"/>
</svg>
