<?xml version="1.0" encoding="utf-8"?>
<!-- Generator: Adobe Illustrator 16.0.3, SVG Export Plug-In . SVG Version: 6.00 Build 0)  -->
<!DOCTYPE svg PUBLIC "-//W3C//DTD SVG 1.1//EN" "http://www.w3.org/Graphics/SVG/1.1/DTD/svg11.dtd">
<svg version="1.1" id="Layer_1" xmlns="http://www.w3.org/2000/svg" xmlns:xlink="http://www.w3.org/1999/xlink" x="0px" y="0px"
	 width="14px" height="14px" viewBox="9 9 14 14" enable-background="new 9 9 14 14" xml:space="preserve">
<path d="M19.856,12.689c0.503,0.503,0.893,1.081,1.168,1.734c0.287,0.676,0.43,1.383,0.43,2.122s-0.143,1.446-0.43,2.122
	c-0.275,0.653-0.665,1.232-1.168,1.734c-0.503,0.503-1.081,0.893-1.734,1.168C17.446,21.857,16.738,22,16,22
	s-1.446-0.143-2.122-0.43c-0.653-0.275-1.231-0.665-1.734-1.168c-0.503-0.502-0.893-1.081-1.168-1.734
	c-0.286-0.676-0.43-1.383-0.43-2.122s0.144-1.446,0.43-2.122c0.275-0.653,0.665-1.231,1.168-1.734
	c0.104-0.105,0.232-0.158,0.384-0.158c0.15,0,0.28,0.053,0.388,0.158c0.107,0.104,0.162,0.232,0.162,0.383s-0.054,0.28-0.162,0.388
	c-0.4,0.4-0.713,0.862-0.938,1.385c-0.228,0.546-0.341,1.112-0.341,1.7s0.113,1.154,0.341,1.7c0.225,0.522,0.537,0.984,0.938,1.385
	s0.862,0.713,1.385,0.938c0.545,0.228,1.112,0.341,1.7,0.341s1.154-0.113,1.7-0.341c0.522-0.225,0.984-0.537,1.384-0.938
	c0.4-0.4,0.713-0.862,0.938-1.385c0.227-0.546,0.34-1.112,0.34-1.7s-0.113-1.154-0.34-1.7c-0.225-0.522-0.537-0.984-0.938-1.385
	c-0.107-0.107-0.162-0.237-0.162-0.388s0.055-0.278,0.162-0.384c0.108-0.105,0.237-0.157,0.388-0.157
	C19.623,12.531,19.751,12.584,19.856,12.689L19.856,12.689z M16.001,10c0.15,0,0.278,0.054,0.386,0.16
	c0.106,0.106,0.159,0.235,0.159,0.386V16c0,0.15-0.053,0.279-0.159,0.386c-0.107,0.106-0.235,0.16-0.386,0.16
	c-0.151,0-0.279-0.054-0.386-0.16c-0.107-0.106-0.16-0.235-0.16-0.386v-5.454c0-0.15,0.053-0.279,0.16-0.386
	C15.722,10.054,15.85,10,16.001,10z"/>
</svg>
