<?xml version="1.0" encoding="utf-8"?>
<!-- Generator: Adobe Illustrator 16.0.3, SVG Export Plug-In . SVG Version: 6.00 Build 0)  -->
<!DOCTYPE svg PUBLIC "-//W3C//DTD SVG 1.1//EN" "http://www.w3.org/Graphics/SVG/1.1/DTD/svg11.dtd">
<svg version="1.1" id="Layer_1" xmlns="http://www.w3.org/2000/svg" xmlns:xlink="http://www.w3.org/1999/xlink" x="0px" y="0px"
	 width="14px" height="14px" viewBox="9 9 14 14" enable-background="new 9 9 14 14" xml:space="preserve">
<path d="M14.364,10.545h3.273c0.451,0,0.837,0.16,1.156,0.479c0.32,0.32,0.479,0.705,0.479,1.157v2.728h1.091
	c0.452,0,0.838,0.16,1.157,0.479C21.84,15.708,22,16.094,22,16.545v2.182c0,0.453-0.16,0.838-0.479,1.158
	c-0.319,0.318-0.705,0.479-1.157,0.479h-1.185c-0.113,0.32-0.312,0.584-0.592,0.787c-0.281,0.203-0.599,0.305-0.95,0.305h-3.273
	c-0.353,0-0.669-0.102-0.951-0.305c-0.281-0.203-0.479-0.467-0.592-0.787h-1.185c-0.452,0-0.837-0.16-1.157-0.479
	C10.16,19.564,10,19.18,10,18.727v-2.182c0-0.451,0.16-0.837,0.479-1.156c0.319-0.32,0.705-0.479,1.157-0.479h1.091v-2.728
	c0-0.452,0.16-0.837,0.479-1.157C13.526,10.705,13.912,10.545,14.364,10.545z M17.637,19.271h-3.273
	c-0.151,0-0.279,0.055-0.386,0.16c-0.107,0.107-0.16,0.236-0.16,0.387s0.053,0.279,0.16,0.385c0.106,0.107,0.235,0.16,0.386,0.16
	h3.273c0.15,0,0.278-0.053,0.386-0.16c0.106-0.105,0.159-0.234,0.159-0.385s-0.053-0.279-0.159-0.387
	C17.915,19.326,17.787,19.271,17.637,19.271z M20.363,16h-8.727c-0.15,0-0.279,0.053-0.386,0.16c-0.106,0.107-0.16,0.235-0.16,0.385
	v2.182c0,0.15,0.054,0.279,0.16,0.387c0.107,0.105,0.235,0.16,0.386,0.16h1.185c0.114-0.322,0.312-0.584,0.593-0.787
	c0.281-0.203,0.598-0.305,0.95-0.305h3.272c0.353,0,0.669,0.102,0.95,0.305s0.479,0.465,0.592,0.787h1.186
	c0.15,0,0.278-0.055,0.386-0.16c0.106-0.107,0.16-0.236,0.16-0.387v-2.182c0-0.15-0.054-0.278-0.16-0.385
	C20.643,16.053,20.515,16,20.363,16L20.363,16z M17.637,11.636h-3.273c-0.151,0-0.279,0.053-0.386,0.16
	c-0.107,0.107-0.16,0.235-0.16,0.386v2.728h4.364v-2.728c0-0.15-0.053-0.279-0.16-0.386C17.915,11.689,17.786,11.636,17.637,11.636
	L17.637,11.636z"/>
</svg>
