<?xml version="1.0" encoding="utf-8"?>
<!-- Generator: Adobe Illustrator 16.0.3, SVG Export Plug-In . SVG Version: 6.00 Build 0)  -->
<!DOCTYPE svg PUBLIC "-//W3C//DTD SVG 1.1//EN" "http://www.w3.org/Graphics/SVG/1.1/DTD/svg11.dtd">
<svg version="1.1" id="Layer_1" xmlns="http://www.w3.org/2000/svg" xmlns:xlink="http://www.w3.org/1999/xlink" x="0px" y="0px"
	 width="14px" height="14px" viewBox="9 9 14 14" enable-background="new 9 9 14 14" xml:space="preserve">
<path d="M16,9.999c0.813,0,1.59,0.159,2.331,0.477c0.74,0.318,1.379,0.744,1.913,1.278c0.535,0.535,0.962,1.173,1.279,1.915
	C21.841,14.41,22,15.187,22,15.999s-0.159,1.59-0.477,2.331c-0.318,0.741-0.744,1.379-1.279,1.914
	c-0.534,0.534-1.172,0.961-1.913,1.278c-0.742,0.317-1.519,0.477-2.331,0.477c-0.812,0-1.589-0.159-2.331-0.477
	c-0.742-0.317-1.38-0.744-1.914-1.278c-0.535-0.535-0.961-1.173-1.279-1.914S10,16.812,10,15.999s0.159-1.589,0.477-2.331
	c0.317-0.742,0.744-1.38,1.279-1.915c0.535-0.535,1.173-0.96,1.914-1.278C14.41,10.158,15.187,9.999,16,9.999z M16,11.333
	c-0.632,0-1.236,0.124-1.813,0.37c-0.577,0.247-1.073,0.578-1.49,0.995s-0.749,0.913-0.995,1.49c-0.247,0.576-0.37,1.18-0.37,1.813
	c0,0.633,0.124,1.236,0.37,1.813c0.247,0.577,0.578,1.073,0.995,1.49c0.417,0.416,0.913,0.748,1.49,0.994
	c0.576,0.247,1.18,0.37,1.813,0.37c0.632,0,1.236-0.123,1.813-0.37c0.576-0.246,1.073-0.578,1.489-0.994
	c0.417-0.417,0.749-0.913,0.995-1.49c0.247-0.576,0.37-1.18,0.37-1.813c0-0.632-0.123-1.236-0.37-1.813
	c-0.246-0.577-0.578-1.073-0.995-1.49c-0.416-0.417-0.913-0.749-1.489-0.995S16.632,11.333,16,11.333z"/>
</svg>
