<?xml version="1.0" encoding="utf-8"?>
<!-- Generator: Adobe Illustrator 16.0.3, SVG Export Plug-In . SVG Version: 6.00 Build 0)  -->
<!DOCTYPE svg PUBLIC "-//W3C//DTD SVG 1.1//EN" "http://www.w3.org/Graphics/SVG/1.1/DTD/svg11.dtd">
<svg version="1.1" id="Layer_1" xmlns="http://www.w3.org/2000/svg" xmlns:xlink="http://www.w3.org/1999/xlink" x="0px" y="0px"
	 width="14px" height="14px" viewBox="9 9 14 14" enable-background="new 9 9 14 14" xml:space="preserve">
<path d="M10.501,16.5h3c0.138,0,0.256,0.049,0.354,0.147c0.098,0.098,0.147,0.215,0.147,0.354c0,0.138-0.049,0.256-0.147,0.354
	s-0.215,0.146-0.354,0.146h-1.687l1.359,1.328c0.385,0.388,0.827,0.681,1.324,0.879c0.477,0.195,0.978,0.293,1.503,0.293
	c0.526,0,1.027-0.098,1.504-0.293c0.26-0.106,0.504-0.237,0.731-0.393c0.229-0.155,0.422-0.314,0.582-0.477
	c0.161-0.163,0.307-0.337,0.438-0.523c0.131-0.187,0.236-0.357,0.316-0.514c0.079-0.156,0.146-0.313,0.2-0.469
	c0.048-0.131,0.134-0.225,0.258-0.283c0.125-0.059,0.252-0.065,0.379-0.021c0.131,0.047,0.225,0.133,0.283,0.256
	s0.066,0.249,0.021,0.377c-0.109,0.333-0.269,0.664-0.477,0.992s-0.442,0.622-0.703,0.882c-0.479,0.479-1.03,0.846-1.651,1.099
	C17.278,20.878,16.65,21,16,21c-0.648,0-1.276-0.122-1.882-0.366c-0.623-0.253-1.173-0.619-1.652-1.099L11,18.103v1.898
	c0,0.138-0.049,0.256-0.147,0.354c-0.098,0.098-0.215,0.146-0.354,0.146c-0.138,0-0.256-0.049-0.354-0.146S10,20.139,10,20.001v-3
	c0-0.138,0.049-0.256,0.146-0.354S10.362,16.501,10.501,16.5L10.501,16.5z M16,11.001c0.648,0,1.276,0.122,1.882,0.367
	c0.623,0.253,1.174,0.618,1.652,1.098l0.008,0.008L21,13.899v-1.898c0-0.139,0.048-0.256,0.146-0.354
	c0.098-0.098,0.215-0.146,0.354-0.146c0.138,0,0.256,0.049,0.354,0.146S22,11.862,22,12.001V15c0,0.139-0.049,0.256-0.146,0.354
	c-0.098,0.099-0.216,0.147-0.354,0.147h-3c-0.138,0-0.256-0.049-0.354-0.147C18.049,15.256,18,15.139,18,15
	c0-0.138,0.049-0.255,0.146-0.354c0.098-0.098,0.216-0.146,0.354-0.146h1.688l-1.359-1.328c-0.38-0.38-0.813-0.67-1.299-0.871
	C17.044,12.101,16.534,12,16,12c-0.526,0-1.027,0.098-1.503,0.293c-0.498,0.198-0.939,0.491-1.324,0.879
	c-0.156,0.139-0.328,0.349-0.514,0.631s-0.33,0.571-0.432,0.865c-0.047,0.13-0.133,0.225-0.258,0.283s-0.251,0.065-0.379,0.021
	c-0.13-0.047-0.225-0.133-0.283-0.256c-0.058-0.124-0.065-0.249-0.021-0.377c0.109-0.333,0.268-0.664,0.477-0.992
	c0.208-0.328,0.442-0.622,0.703-0.883c0.479-0.479,1.03-0.845,1.652-1.098C14.725,11.123,15.352,11,16,11.001L16,11.001z"/>
</svg>
