<?xml version="1.0" encoding="utf-8"?>
<!-- Generator: Adobe Illustrator 16.0.3, SVG Export Plug-In . SVG Version: 6.00 Build 0)  -->
<!DOCTYPE svg PUBLIC "-//W3C//DTD SVG 1.1//EN" "http://www.w3.org/Graphics/SVG/1.1/DTD/svg11.dtd">
<svg version="1.1" id="Layer_1" xmlns="http://www.w3.org/2000/svg" xmlns:xlink="http://www.w3.org/1999/xlink" x="0px" y="0px"
	 width="14px" height="14px" viewBox="9 9 14 14" enable-background="new 9 9 14 14" xml:space="preserve">
<path d="M14.015,11.264c0.148,0,0.276,0.054,0.384,0.16c0.108,0.107,0.162,0.235,0.162,0.386s-0.054,0.28-0.162,0.388l-2.54,2.54
	h5.233c0.665,0,1.301,0.129,1.906,0.388c0.606,0.258,1.129,0.607,1.566,1.046c0.438,0.438,0.786,0.96,1.046,1.565
	S22,18.979,22,19.646v0.545c0,0.151-0.053,0.279-0.16,0.386c-0.106,0.107-0.235,0.16-0.386,0.16c-0.147,0-0.275-0.054-0.384-0.162
	c-0.107-0.107-0.162-0.235-0.162-0.384v-0.545c0-0.517-0.101-1.012-0.303-1.482c-0.201-0.472-0.473-0.878-0.813-1.219
	s-0.747-0.612-1.219-0.814c-0.472-0.202-0.966-0.302-1.482-0.302h-5.233l2.54,2.543c0.108,0.108,0.162,0.236,0.162,0.384
	c0,0.15-0.053,0.28-0.16,0.388c-0.107,0.108-0.235,0.162-0.386,0.162s-0.28-0.054-0.388-0.162l-3.469-3.473
	C10.053,15.565,10,15.436,10,15.282c0-0.151,0.053-0.278,0.157-0.384l3.469-3.473C13.734,11.318,13.863,11.264,14.015,11.264
	L14.015,11.264z"/>
</svg>
