<?xml version="1.0" encoding="utf-8"?>
<!-- Generator: Adobe Illustrator 16.0.3, SVG Export Plug-In . SVG Version: 6.00 Build 0)  -->
<!DOCTYPE svg PUBLIC "-//W3C//DTD SVG 1.1//EN" "http://www.w3.org/Graphics/SVG/1.1/DTD/svg11.dtd">
<svg version="1.1" id="Layer_1" xmlns="http://www.w3.org/2000/svg" xmlns:xlink="http://www.w3.org/1999/xlink" x="0px" y="0px"
	 width="14px" height="14px" viewBox="9 9 14 14" enable-background="new 9 9 14 14" xml:space="preserve">
<path d="M16,10c0.744,0,1.465,0.045,2.16,0.134c0.696,0.09,1.335,0.221,1.916,0.393c0.58,0.171,1.046,0.4,1.397,0.686
	S22,11.82,22,12.182v7.636c0,0.361-0.176,0.685-0.526,0.97s-0.816,0.515-1.397,0.687s-1.22,0.302-1.916,0.392
	C17.465,21.955,16.745,22,16,22c-0.745,0-1.465-0.045-2.16-0.135c-0.696-0.09-1.334-0.22-1.916-0.392
	c-0.582-0.172-1.047-0.401-1.398-0.687S10,20.179,10,19.817v-7.636c0-0.361,0.176-0.685,0.526-0.97s0.816-0.515,1.398-0.686
	c0.581-0.172,1.22-0.303,1.916-0.393C14.535,10.045,15.255,10,16,10z M20.909,19.81v-2.484c-0.557,0.281-1.274,0.494-2.151,0.64
	C17.88,18.11,16.96,18.182,16,18.182c-0.96,0-1.88-0.072-2.757-0.217s-1.595-0.358-2.152-0.64v2.493
	c0.017,0.063,0.093,0.138,0.228,0.226s0.341,0.184,0.62,0.285c0.279,0.103,0.603,0.196,0.972,0.281
	c0.369,0.086,0.825,0.157,1.368,0.214s1.117,0.085,1.722,0.085s1.179-0.028,1.722-0.085s0.999-0.129,1.368-0.215
	c0.369-0.087,0.692-0.182,0.971-0.284c0.279-0.102,0.486-0.197,0.621-0.285C20.816,19.951,20.892,19.875,20.909,19.81z
	 M20.909,15.991v-2.484c-0.557,0.281-1.274,0.494-2.151,0.64C17.88,14.291,16.96,14.364,16,14.363c-0.96,0-1.88-0.072-2.757-0.217
	s-1.595-0.357-2.152-0.64V16c0.017,0.063,0.093,0.138,0.228,0.226c0.135,0.089,0.341,0.184,0.62,0.285
	c0.279,0.103,0.603,0.196,0.972,0.281c0.369,0.086,0.825,0.157,1.368,0.214s1.117,0.085,1.722,0.085s1.179-0.028,1.722-0.085
	s0.998-0.128,1.365-0.214c0.368-0.085,0.691-0.179,0.97-0.281c0.279-0.102,0.486-0.197,0.622-0.287
	C20.815,16.134,20.893,16.057,20.909,15.991L20.909,15.991z M16,11.091c-0.6,0-1.169,0.028-1.708,0.085
	c-0.54,0.057-0.993,0.127-1.36,0.211c-0.366,0.084-0.689,0.177-0.969,0.277c-0.28,0.101-0.489,0.195-0.628,0.285
	s-0.22,0.168-0.243,0.232c0.022,0.065,0.104,0.144,0.243,0.232c0.139,0.09,0.349,0.185,0.628,0.286
	c0.279,0.101,0.603,0.192,0.969,0.276s0.82,0.154,1.36,0.211c0.539,0.058,1.109,0.086,1.708,0.085c0.6,0,1.169-0.028,1.709-0.085
	c0.539-0.057,0.992-0.127,1.359-0.211c0.366-0.084,0.689-0.177,0.97-0.276c0.279-0.101,0.488-0.196,0.628-0.286
	s0.221-0.167,0.243-0.232c-0.022-0.065-0.104-0.143-0.243-0.232c-0.14-0.089-0.349-0.185-0.628-0.285
	c-0.28-0.101-0.604-0.193-0.97-0.277c-0.367-0.083-0.82-0.154-1.359-0.211C17.169,11.119,16.6,11.091,16,11.091z"/>
</svg>
