<?xml version="1.0" encoding="utf-8"?>
<!-- Generator: Adobe Illustrator 16.0.3, SVG Export Plug-In . SVG Version: 6.00 Build 0)  -->
<!DOCTYPE svg PUBLIC "-//W3C//DTD SVG 1.1//EN" "http://www.w3.org/Graphics/SVG/1.1/DTD/svg11.dtd">
<svg version="1.1" id="Layer_1" xmlns="http://www.w3.org/2000/svg" xmlns:xlink="http://www.w3.org/1999/xlink" x="0px" y="0px"
	 width="14px" height="14px" viewBox="9 9 14 14" enable-background="new 9 9 14 14" xml:space="preserve">
<path d="M19.6,10.002c0.662,0,1.228,0.234,1.697,0.703C21.765,11.174,22,11.74,22,12.402c0,0.663-0.235,1.228-0.703,1.697
	c-0.47,0.469-1.035,0.703-1.697,0.703c-0.354,0-0.687-0.072-1.001-0.217c-0.313-0.146-0.584-0.348-0.809-0.607L14.749,15.5
	c0.034,0.166,0.051,0.333,0.051,0.501s-0.017,0.336-0.051,0.502l3.041,1.522c0.225-0.259,0.495-0.462,0.809-0.606
	c0.314-0.146,0.647-0.218,1.001-0.218c0.662,0,1.228,0.234,1.697,0.703C21.765,18.374,22,18.939,22,19.602s-0.235,1.229-0.703,1.697
	c-0.47,0.469-1.035,0.703-1.697,0.703c-0.663,0-1.228-0.234-1.697-0.703c-0.468-0.469-0.703-1.035-0.703-1.697
	c0-0.168,0.018-0.336,0.052-0.501l-3.042-1.523c-0.225,0.26-0.494,0.462-0.808,0.606c-0.314,0.146-0.648,0.219-1.001,0.219
	c-0.662,0-1.228-0.235-1.697-0.703C10.235,17.229,10,16.665,10,16.002c0-0.662,0.234-1.228,0.703-1.697s1.035-0.703,1.697-0.703
	c0.353,0,0.687,0.072,1.001,0.218c0.314,0.145,0.583,0.348,0.808,0.607l3.042-1.523c-0.034-0.166-0.052-0.333-0.052-0.502
	c0-0.662,0.235-1.228,0.703-1.697C18.372,10.236,18.937,10.002,19.6,10.002z M12.4,14.801c-0.331,0-0.614,0.117-0.848,0.352
	c-0.234,0.234-0.352,0.517-0.352,0.848s0.117,0.614,0.352,0.848S12.069,17.2,12.4,17.2s0.614-0.117,0.848-0.352S13.6,16.332,13.6,16
	s-0.117-0.614-0.352-0.848C13.014,14.918,12.731,14.801,12.4,14.801z M19.6,18.4c-0.331,0-0.614,0.117-0.848,0.352
	c-0.235,0.234-0.352,0.518-0.352,0.849c0,0.33,0.116,0.613,0.352,0.848c0.233,0.234,0.517,0.352,0.848,0.352
	s0.614-0.117,0.848-0.352c0.235-0.234,0.352-0.518,0.352-0.848c0-0.331-0.116-0.614-0.352-0.849
	C20.214,18.518,19.931,18.4,19.6,18.4z M19.6,11.202c-0.331,0-0.614,0.117-0.848,0.352c-0.235,0.234-0.352,0.517-0.352,0.848
	s0.116,0.614,0.352,0.848c0.233,0.234,0.517,0.352,0.848,0.352s0.614-0.117,0.848-0.352c0.235-0.234,0.352-0.517,0.352-0.848
	s-0.116-0.614-0.352-0.848C20.214,11.319,19.931,11.202,19.6,11.202z"/>
</svg>
