<?xml version="1.0" encoding="utf-8"?>
<!-- Generator: Adobe Illustrator 16.0.3, SVG Export Plug-In . SVG Version: 6.00 Build 0)  -->
<!DOCTYPE svg PUBLIC "-//W3C//DTD SVG 1.1//EN" "http://www.w3.org/Graphics/SVG/1.1/DTD/svg11.dtd">
<svg version="1.1" id="Layer_1" xmlns="http://www.w3.org/2000/svg" xmlns:xlink="http://www.w3.org/1999/xlink" x="0px" y="0px"
	 width="14px" height="14px" viewBox="9 9 14 14" enable-background="new 9 9 14 14" xml:space="preserve">
<path d="M19,10.001c0.139,0,0.256,0.049,0.355,0.148l2,2c0.096,0.097,0.145,0.214,0.145,0.352c0,0.141-0.049,0.259-0.145,0.355l-2,2
	c-0.096,0.096-0.215,0.145-0.355,0.145c-0.139,0-0.256-0.049-0.354-0.147S18.5,14.639,18.5,14.5c0-0.133,0.049-0.25,0.145-0.352
	L19.793,13H19c-0.469,0-0.908,0.102-1.32,0.307s-0.756,0.483-1.035,0.837C16.215,14.692,16,15.31,16,16
	c0,0.695-0.167,1.341-0.5,1.938c-0.177,0.32-0.392,0.607-0.645,0.863c-0.37,0.377-0.801,0.671-1.293,0.882
	C13.071,19.895,12.55,20,12,20h-1c-0.138,0-0.256-0.049-0.354-0.147c-0.098-0.097-0.146-0.215-0.146-0.354
	c0-0.138,0.049-0.256,0.146-0.353c0.098-0.099,0.215-0.147,0.354-0.147h1c0.471,0,0.912-0.102,1.322-0.305s0.754-0.482,1.033-0.836
	C14.785,17.312,15,16.692,15,16c0-0.695,0.167-1.341,0.5-1.938c0.18-0.323,0.395-0.609,0.645-0.859
	c0.369-0.377,0.801-0.672,1.293-0.884S18.451,12,19,12h0.793l-1.148-1.145c-0.096-0.102-0.145-0.22-0.145-0.355
	c0-0.138,0.049-0.256,0.146-0.354S18.861,10,19,10V10.001z M19,17.001c0.139,0,0.256,0.049,0.355,0.148l2,2
	c0.096,0.096,0.145,0.214,0.145,0.354c0,0.139-0.049,0.256-0.145,0.353l-2,1.999C19.26,21.952,19.141,22,19,22
	c-0.139,0-0.256-0.048-0.354-0.145c-0.098-0.096-0.146-0.213-0.146-0.352c0-0.136,0.049-0.254,0.145-0.355L19.793,20H19
	c-0.549,0-1.07-0.105-1.563-0.316s-0.924-0.505-1.293-0.883c0.2-0.294,0.367-0.607,0.5-0.941c0.279,0.354,0.623,0.633,1.033,0.836
	S18.527,19,19,19h0.793l-1.148-1.144c-0.098-0.102-0.145-0.221-0.145-0.355c0-0.139,0.049-0.256,0.146-0.354
	C18.744,17.05,18.861,17,19,17.001L19,17.001z M11.001,12.001h1c0.549,0,1.07,0.106,1.562,0.318
	c0.492,0.212,0.923,0.507,1.293,0.885c-0.203,0.299-0.37,0.613-0.5,0.941c-0.279-0.354-0.624-0.633-1.035-0.837
	c-0.411-0.205-0.851-0.307-1.32-0.307h-1c-0.138,0-0.255-0.049-0.354-0.147c-0.098-0.098-0.146-0.215-0.146-0.354
	s0.049-0.256,0.146-0.354C10.746,12.049,10.864,12,11.001,12.001L11.001,12.001z"/>
</svg>
