<?xml version="1.0" encoding="utf-8"?>
<!-- Generator: Adobe Illustrator 16.0.3, SVG Export Plug-In . SVG Version: 6.00 Build 0)  -->
<!DOCTYPE svg PUBLIC "-//W3C//DTD SVG 1.1//EN" "http://www.w3.org/Graphics/SVG/1.1/DTD/svg11.dtd">
<svg version="1.1" id="Layer_1" xmlns="http://www.w3.org/2000/svg" xmlns:xlink="http://www.w3.org/1999/xlink" x="0px" y="0px"
	 width="14px" height="14px" viewBox="9 9 14 14" enable-background="new 9 9 14 14" xml:space="preserve">
<path d="M11.876,10c0.207,0,0.385,0.074,0.533,0.223l5.249,5.25c0.145,0.144,0.217,0.32,0.217,0.527
	c0,0.211-0.072,0.389-0.217,0.533l-5.249,5.249c-0.145,0.145-0.322,0.217-0.533,0.217c-0.207,0-0.384-0.072-0.53-0.217
	c-0.147-0.145-0.221-0.32-0.221-0.527c0-0.203,0.072-0.381,0.217-0.533L16.063,16l-4.722-4.716c-0.145-0.152-0.217-0.33-0.217-0.533
	c0-0.208,0.073-0.384,0.221-0.53C11.492,10.073,11.669,10,11.876,10L11.876,10z M20.125,10c0.207,0,0.384,0.073,0.53,0.22
	c0.147,0.146,0.22,0.323,0.22,0.53V21.25c0,0.207-0.072,0.384-0.22,0.53c-0.146,0.146-0.323,0.22-0.53,0.22s-0.384-0.073-0.53-0.22
	s-0.22-0.323-0.22-0.53V10.751c0-0.207,0.073-0.384,0.22-0.53C19.741,10.074,19.918,10,20.125,10z"/>
</svg>
