<?xml version="1.0" encoding="utf-8"?>
<!-- Generator: Adobe Illustrator 16.0.3, SVG Export Plug-In . SVG Version: 6.00 Build 0)  -->
<!DOCTYPE svg PUBLIC "-//W3C//DTD SVG 1.1//EN" "http://www.w3.org/Graphics/SVG/1.1/DTD/svg11.dtd">
<svg version="1.1" id="Layer_1" xmlns="http://www.w3.org/2000/svg" xmlns:xlink="http://www.w3.org/1999/xlink" x="0px" y="0px"
	 width="14px" height="14px" viewBox="9 9 14 14" enable-background="new 9 9 14 14" xml:space="preserve">
<path d="M20.124,10c0.207,0,0.384,0.073,0.53,0.221c0.147,0.146,0.221,0.323,0.221,0.53c0,0.211-0.072,0.389-0.217,0.533L15.937,16
	l4.722,4.723c0.145,0.145,0.217,0.322,0.217,0.533c0,0.207-0.073,0.383-0.221,0.527C20.508,21.928,20.331,22,20.124,22
	c-0.211,0-0.389-0.072-0.533-0.217l-5.249-5.249c-0.145-0.153-0.217-0.33-0.217-0.533c0-0.199,0.072-0.375,0.217-0.528l5.249-5.249
	C19.739,10.075,19.917,10.001,20.124,10L20.124,10z M11.875,10c0.207,0,0.384,0.073,0.53,0.221c0.146,0.146,0.22,0.323,0.22,0.53
	V21.25c0,0.207-0.073,0.384-0.22,0.531C12.259,21.927,12.082,22,11.875,22s-0.384-0.073-0.53-0.219
	c-0.146-0.147-0.22-0.324-0.22-0.531V10.751c0-0.207,0.073-0.384,0.22-0.53C11.491,10.073,11.668,10,11.875,10z"/>
</svg>
