<?xml version="1.0" encoding="utf-8"?>
<!-- Generator: Adobe Illustrator 16.0.3, SVG Export Plug-In . SVG Version: 6.00 Build 0)  -->
<!DOCTYPE svg PUBLIC "-//W3C//DTD SVG 1.1//EN" "http://www.w3.org/Graphics/SVG/1.1/DTD/svg11.dtd">
<svg version="1.1" id="Layer_1" xmlns="http://www.w3.org/2000/svg" xmlns:xlink="http://www.w3.org/1999/xlink" x="0px" y="0px"
	 width="14px" height="14px" viewBox="9 9 14 14" enable-background="new 9 9 14 14" xml:space="preserve">
<path d="M11.636,10h8.728c0.451,0,0.837,0.16,1.157,0.479C21.84,10.799,22,11.185,22,11.636v6c0,0.451-0.16,0.837-0.479,1.156
	c-0.32,0.32-0.706,0.479-1.157,0.479H16L12.182,22v-2.728h-0.546c-0.451,0-0.837-0.159-1.156-0.479
	C10.159,18.474,10,18.088,10,17.637v-6c0-0.452,0.159-0.837,0.479-1.157C10.799,10.16,11.185,10,11.636,10z M20.363,11.091h-8.727
	c-0.15,0-0.279,0.053-0.386,0.16c-0.106,0.106-0.16,0.235-0.16,0.386v6c0,0.15,0.054,0.279,0.16,0.386s0.235,0.16,0.386,0.16h1.636
	v1.7l2.379-1.7h4.713c0.15,0,0.278-0.054,0.386-0.16c0.106-0.106,0.159-0.235,0.159-0.386v-6c0-0.151-0.053-0.279-0.159-0.386
	C20.643,11.144,20.515,11.091,20.363,11.091L20.363,11.091z"/>
</svg>
