<?xml version="1.0" encoding="utf-8"?>
<!-- Generator: Adobe Illustrator 16.0.3, SVG Export Plug-In . SVG Version: 6.00 Build 0)  -->
<!DOCTYPE svg PUBLIC "-//W3C//DTD SVG 1.1//EN" "http://www.w3.org/Graphics/SVG/1.1/DTD/svg11.dtd">
<svg version="1.1" id="Layer_1" xmlns="http://www.w3.org/2000/svg" xmlns:xlink="http://www.w3.org/1999/xlink" x="0px" y="0px"
	 width="14px" height="14px" viewBox="9 9 14 14" enable-background="new 9 9 14 14" xml:space="preserve">
<path d="M11.636,10h8.728c0.451,0,0.837,0.159,1.157,0.479C21.84,10.799,22,11.185,22,11.636v8.728c0,0.451-0.16,0.837-0.479,1.157
	C21.2,21.84,20.814,22,20.363,22h-8.728c-0.451,0-0.837-0.16-1.156-0.479C10.159,21.2,10,20.814,10,20.363v-8.728
	c0-0.451,0.159-0.837,0.479-1.156C10.799,10.159,11.185,10,11.636,10z M20.363,11.091h-8.727c-0.15,0-0.279,0.054-0.386,0.16
	s-0.16,0.235-0.16,0.386v8.727c0,0.15,0.054,0.279,0.16,0.386c0.106,0.107,0.235,0.16,0.386,0.16h8.727
	c0.15,0,0.279-0.053,0.386-0.16c0.107-0.106,0.16-0.235,0.16-0.386v-8.727c0-0.15-0.053-0.279-0.16-0.386
	C20.643,11.145,20.514,11.091,20.363,11.091z M13.818,15.455h4.363c0.15,0,0.279,0.053,0.386,0.159
	c0.106,0.107,0.16,0.235,0.16,0.386c0,0.151-0.054,0.279-0.16,0.386c-0.106,0.107-0.235,0.16-0.386,0.16h-4.363
	c-0.15,0-0.279-0.053-0.386-0.16c-0.106-0.106-0.16-0.234-0.16-0.386c0-0.15,0.054-0.278,0.16-0.386
	C13.539,15.508,13.668,15.455,13.818,15.455z"/>
</svg>
