<?xml version="1.0" encoding="utf-8"?>
<!-- Generator: Adobe Illustrator 16.0.3, SVG Export Plug-In . SVG Version: 6.00 Build 0)  -->
<!DOCTYPE svg PUBLIC "-//W3C//DTD SVG 1.1//EN" "http://www.w3.org/Graphics/SVG/1.1/DTD/svg11.dtd">
<svg version="1.1" id="Layer_1" xmlns="http://www.w3.org/2000/svg" xmlns:xlink="http://www.w3.org/1999/xlink" x="0px" y="0px"
	 width="14px" height="14px" viewBox="9 9 14 14" enable-background="new 9 9 14 14" xml:space="preserve">
<path d="M11.636,10h8.728c0.451,0,0.837,0.16,1.157,0.479C21.84,10.798,22,11.184,22,11.636v8.728c0,0.451-0.16,0.837-0.479,1.157
	C21.2,21.84,20.814,22,20.363,22h-8.728c-0.452,0-0.837-0.16-1.157-0.479C10.159,21.2,10,20.814,10,20.363v-8.728
	c0-0.452,0.16-0.837,0.479-1.157C10.798,10.159,11.184,10,11.636,10z M20.363,11.09h-8.727c-0.15,0-0.279,0.054-0.386,0.16
	c-0.106,0.107-0.16,0.235-0.16,0.386v8.727c0,0.15,0.054,0.279,0.16,0.386c0.107,0.107,0.235,0.16,0.386,0.16h8.727
	c0.15,0,0.279-0.053,0.386-0.16c0.107-0.106,0.16-0.235,0.16-0.386v-8.727c0-0.15-0.053-0.279-0.16-0.386
	C20.643,11.144,20.514,11.09,20.363,11.09z M18.182,14.104c0.147,0,0.275,0.053,0.384,0.16c0.107,0.106,0.162,0.235,0.162,0.386
	c0,0.15-0.055,0.28-0.162,0.388l-2.698,2.697c-0.105,0.105-0.233,0.158-0.384,0.158c-0.153,0-0.283-0.053-0.388-0.158l-1.543-1.542
	c-0.105-0.105-0.158-0.234-0.158-0.388c0-0.151,0.054-0.279,0.16-0.386c0.107-0.107,0.235-0.16,0.386-0.16
	c0.148,0,0.276,0.054,0.384,0.162l1.155,1.159l2.314-2.313C17.902,14.158,18.031,14.104,18.182,14.104L18.182,14.104z"/>
</svg>
