<?xml version="1.0" encoding="utf-8"?>
<!-- Generator: Adobe Illustrator 16.0.3, SVG Export Plug-In . SVG Version: 6.00 Build 0)  -->
<!DOCTYPE svg PUBLIC "-//W3C//DTD SVG 1.1//EN" "http://www.w3.org/Graphics/SVG/1.1/DTD/svg11.dtd">
<svg version="1.1" id="Layer_1" xmlns="http://www.w3.org/2000/svg" xmlns:xlink="http://www.w3.org/1999/xlink" x="0px" y="0px"
	 width="14px" height="14px" viewBox="9 9 14 14" enable-background="new 9 9 14 14" xml:space="preserve">
<path d="M11.636,10h8.728c0.451,0,0.837,0.16,1.157,0.479C21.84,10.798,22,11.184,22,11.636v8.728c0,0.451-0.16,0.837-0.479,1.157
	C21.2,21.84,20.814,22,20.363,22h-8.728c-0.452,0-0.837-0.16-1.157-0.479C10.159,21.2,10,20.814,10,20.363v-8.728
	c0-0.452,0.16-0.837,0.479-1.157C10.798,10.159,11.184,10,11.636,10z M20.363,11.09h-8.727c-0.15,0-0.279,0.054-0.386,0.16
	c-0.106,0.107-0.16,0.235-0.16,0.386v8.727c0,0.15,0.054,0.279,0.16,0.386c0.107,0.107,0.235,0.16,0.386,0.16h8.727
	c0.15,0,0.279-0.053,0.386-0.16c0.107-0.106,0.16-0.235,0.16-0.386v-8.727c0-0.15-0.053-0.279-0.16-0.386
	C20.643,11.144,20.514,11.09,20.363,11.09z M17.543,13.907c0.149,0,0.279,0.054,0.387,0.162c0.108,0.108,0.163,0.237,0.163,0.388
	s-0.055,0.28-0.163,0.388L16.771,16l1.158,1.155c0.108,0.108,0.163,0.237,0.163,0.389c0,0.149-0.055,0.278-0.163,0.385
	c-0.107,0.107-0.237,0.16-0.387,0.16c-0.151,0-0.279-0.053-0.385-0.157L16,16.771l-1.159,1.159c-0.103,0.104-0.23,0.157-0.384,0.157
	c-0.156,0-0.286-0.052-0.39-0.155c-0.104-0.104-0.155-0.233-0.155-0.39c0-0.153,0.053-0.283,0.158-0.388L15.228,16l-1.159-1.155
	c-0.105-0.105-0.158-0.234-0.158-0.388c0-0.151,0.053-0.28,0.16-0.388c0.106-0.108,0.235-0.162,0.386-0.162
	c0.153,0,0.281,0.054,0.384,0.162L16,15.229l1.159-1.159C17.267,13.961,17.395,13.908,17.543,13.907L17.543,13.907z"/>
</svg>
