<?xml version="1.0" encoding="utf-8"?>
<!-- Generator: Adobe Illustrator 16.0.3, SVG Export Plug-In . SVG Version: 6.00 Build 0)  -->
<!DOCTYPE svg PUBLIC "-//W3C//DTD SVG 1.1//EN" "http://www.w3.org/Graphics/SVG/1.1/DTD/svg11.dtd">
<svg version="1.1" id="Layer_1" xmlns="http://www.w3.org/2000/svg" xmlns:xlink="http://www.w3.org/1999/xlink" x="0px" y="0px"
	 width="14px" height="14px" viewBox="9 9 14 14" enable-background="new 9 9 14 14" xml:space="preserve">
<path d="M14.2,10h6c0.497,0,0.921,0.176,1.272,0.527S22,11.303,22,11.8v6c0,0.496-0.176,0.921-0.527,1.272S20.697,19.6,20.2,19.6h-6
	c-0.497,0-0.921-0.176-1.273-0.527S12.4,18.296,12.4,17.8v-6c0-0.497,0.176-0.921,0.527-1.272S13.703,10,14.2,10z M11.2,12.503
	v7.696c0,0.166,0.059,0.308,0.176,0.424c0.117,0.118,0.258,0.177,0.424,0.177h7.697c-0.125,0.353-0.343,0.641-0.651,0.864
	C18.536,21.888,18.188,22,17.8,22h-6c-0.497,0-0.921-0.176-1.272-0.527S10,20.696,10,20.199V14.2c0-0.388,0.112-0.736,0.335-1.046
	C10.559,12.846,10.847,12.628,11.2,12.503L11.2,12.503z M20.2,11.199h-6c-0.166,0-0.307,0.059-0.424,0.176
	C13.658,11.492,13.6,11.634,13.6,11.8v6c0,0.165,0.059,0.307,0.176,0.424c0.117,0.117,0.258,0.176,0.424,0.176h6
	c0.165,0,0.307-0.059,0.424-0.176c0.118-0.117,0.176-0.259,0.176-0.424v-6c0-0.166-0.058-0.308-0.176-0.425
	C20.507,11.258,20.365,11.199,20.2,11.199z"/>
</svg>
