<?xml version="1.0" encoding="utf-8"?>
<!-- Generator: Adobe Illustrator 16.0.3, SVG Export Plug-In . SVG Version: 6.00 Build 0)  -->
<!DOCTYPE svg PUBLIC "-//W3C//DTD SVG 1.1//EN" "http://www.w3.org/Graphics/SVG/1.1/DTD/svg11.dtd">
<svg version="1.1" id="Layer_1" xmlns="http://www.w3.org/2000/svg" xmlns:xlink="http://www.w3.org/1999/xlink" x="0px" y="0px"
	 width="14px" height="14px" viewBox="9 9 14 14" enable-background="new 9 9 14 14" xml:space="preserve">
<path d="M12,10h8c0.552,0,1.023,0.195,1.414,0.586S22,11.448,22,12v8c0,0.552-0.195,1.023-0.586,1.414S20.552,22,20,22h-8
	c-0.552,0-1.023-0.195-1.414-0.586S10,20.552,10,20v-8c0-0.552,0.195-1.023,0.586-1.414S11.448,10,12,10z M20,11.333h-8
	c-0.184,0-0.341,0.065-0.472,0.196c-0.13,0.13-0.195,0.287-0.195,0.471v8c0,0.185,0.065,0.342,0.195,0.472
	c0.131,0.131,0.288,0.196,0.472,0.196h8c0.184,0,0.341-0.065,0.472-0.196c0.13-0.13,0.195-0.287,0.195-0.472v-8
	c0-0.184-0.065-0.341-0.195-0.471C20.341,11.398,20.184,11.333,20,11.333z"/>
</svg>
