<?xml version="1.0" encoding="utf-8"?>
<!-- Generator: Adobe Illustrator 16.0.3, SVG Export Plug-In . SVG Version: 6.00 Build 0)  -->
<!DOCTYPE svg PUBLIC "-//W3C//DTD SVG 1.1//EN" "http://www.w3.org/Graphics/SVG/1.1/DTD/svg11.dtd">
<svg version="1.1" id="Layer_1" xmlns="http://www.w3.org/2000/svg" xmlns:xlink="http://www.w3.org/1999/xlink" x="0px" y="0px"
	 width="14px" height="14px" viewBox="9 9 14 14" enable-background="new 9 9 14 14" xml:space="preserve">
<path d="M16,13.001c0.544,0,1.046,0.134,1.506,0.402c0.46,0.268,0.824,0.632,1.092,1.091S19,15.456,19,16s-0.134,1.046-0.402,1.506
	c-0.269,0.459-0.633,0.823-1.092,1.091C17.047,18.866,16.545,19,16,19s-1.047-0.134-1.506-0.402
	c-0.459-0.268-0.823-0.632-1.091-1.091C13.134,17.047,13,16.545,13,16c0-0.544,0.135-1.046,0.403-1.506
	c0.268-0.459,0.631-0.823,1.091-1.091C14.954,13.135,15.456,13.001,16,13.001z M12.821,18.681c0.138,0,0.255,0.049,0.354,0.148
	c0.098,0.099,0.146,0.217,0.146,0.355c0,0.135-0.049,0.252-0.148,0.352l-0.707,0.706c-0.099,0.1-0.216,0.149-0.352,0.149
	c-0.138,0-0.256-0.05-0.354-0.146c-0.098-0.099-0.147-0.216-0.147-0.354c0-0.141,0.048-0.259,0.145-0.355l0.707-0.706
	C12.563,18.729,12.682,18.681,12.821,18.681L12.821,18.681z M16,20c0.138,0,0.255,0.049,0.354,0.147
	c0.098,0.098,0.146,0.215,0.146,0.354v1c0,0.138-0.049,0.256-0.146,0.354c-0.098,0.098-0.215,0.146-0.354,0.146
	s-0.256-0.049-0.354-0.146S15.5,21.639,15.5,21.501v-1c0-0.139,0.049-0.256,0.146-0.354C15.744,20.049,15.862,20,16,20z
	 M10.5,15.501h1c0.138,0,0.255,0.049,0.354,0.146C11.952,15.745,12,15.863,12,16.001s-0.049,0.256-0.146,0.354
	c-0.098,0.098-0.216,0.146-0.354,0.146h-1c-0.138,0-0.255-0.048-0.354-0.146C10.049,16.257,10,16.139,10,16.001
	s0.049-0.256,0.146-0.354C10.245,15.55,10.362,15.501,10.5,15.501z M16,14.001c-0.552,0-1.023,0.195-1.414,0.586
	S14,15.449,14,16.001c0,0.552,0.195,1.023,0.586,1.414s0.862,0.586,1.414,0.586c0.552,0,1.023-0.195,1.414-0.586
	S18,16.553,18,16.001c0-0.552-0.195-1.023-0.586-1.414S16.552,14.001,16,14.001z M19.184,18.681c0.136,0,0.253,0.049,0.352,0.148
	l0.707,0.706c0.099,0.1,0.148,0.218,0.148,0.355c0,0.136-0.05,0.253-0.148,0.352c-0.1,0.1-0.217,0.149-0.352,0.149
	c-0.139,0-0.257-0.05-0.355-0.149l-0.707-0.706c-0.097-0.097-0.145-0.214-0.145-0.352c0-0.139,0.049-0.258,0.146-0.355
	C18.928,18.73,19.046,18.681,19.184,18.681L19.184,18.681z M12.113,11.61c0.135,0,0.253,0.049,0.352,0.148l0.707,0.707
	c0.099,0.099,0.148,0.216,0.148,0.352c0,0.138-0.049,0.256-0.146,0.354c-0.098,0.098-0.215,0.146-0.354,0.146
	c-0.141,0-0.259-0.048-0.355-0.144l-0.707-0.707c-0.096-0.096-0.145-0.214-0.145-0.355c0-0.138,0.049-0.256,0.147-0.354
	C11.858,11.66,11.976,11.611,12.113,11.61L12.113,11.61z M16,10.001c0.138,0,0.255,0.049,0.354,0.146
	c0.098,0.098,0.146,0.216,0.146,0.354v1c0,0.138-0.049,0.256-0.146,0.354c-0.098,0.098-0.215,0.146-0.354,0.146
	s-0.256-0.049-0.354-0.146S15.5,11.639,15.5,11.501v-1c0-0.138,0.049-0.255,0.146-0.354C15.744,10.05,15.862,10.001,16,10.001z
	 M20.5,15.501h1c0.138,0,0.256,0.049,0.354,0.146S22,15.863,22,16.001s-0.049,0.256-0.146,0.354
	c-0.098,0.098-0.216,0.146-0.354,0.146h-1c-0.139,0-0.256-0.048-0.354-0.146C20.049,16.257,20,16.139,20,16.001
	s0.049-0.256,0.146-0.354C20.244,15.55,20.361,15.501,20.5,15.501z M19.891,11.61c0.135,0,0.252,0.049,0.352,0.148
	c0.099,0.099,0.148,0.216,0.148,0.352c0,0.138-0.05,0.257-0.148,0.356l-0.707,0.707c-0.096,0.096-0.213,0.145-0.352,0.145
	c-0.144,0-0.262-0.048-0.357-0.143c-0.095-0.095-0.143-0.214-0.143-0.357c0-0.138,0.048-0.255,0.145-0.352l0.707-0.707
	C19.634,11.66,19.752,11.61,19.891,11.61z"/>
</svg>
