<?xml version="1.0" encoding="utf-8"?>
<!-- Generator: Adobe Illustrator 16.0.3, SVG Export Plug-In . SVG Version: 6.00 Build 0)  -->
<!DOCTYPE svg PUBLIC "-//W3C//DTD SVG 1.1//EN" "http://www.w3.org/Graphics/SVG/1.1/DTD/svg11.dtd">
<svg version="1.1" id="Layer_1" xmlns="http://www.w3.org/2000/svg" xmlns:xlink="http://www.w3.org/1999/xlink" x="0px" y="0px"
	 width="14px" height="14px" viewBox="9 9 14 14" enable-background="new 9 9 14 14" xml:space="preserve">
<path d="M10,10h6.17l5.352,5.348C21.841,15.666,22,16.051,22,16.503c0,0.454-0.159,0.841-0.478,1.159l-3.861,3.86
	C17.344,21.841,16.958,22,16.507,22c-0.455,0-0.841-0.159-1.159-0.478L10,16.17L10,10L10,10z M20.752,16.12l-5.033-5.029h-4.628
	v4.628l5.028,5.033c0.108,0.104,0.237,0.157,0.388,0.157c0.15,0,0.278-0.053,0.384-0.157l3.86-3.861
	c0.105-0.105,0.158-0.233,0.158-0.384C20.91,16.356,20.857,16.227,20.752,16.12L20.752,16.12z M14.091,12.728
	c0.377,0,0.699,0.133,0.965,0.398s0.398,0.587,0.398,0.965s-0.133,0.699-0.398,0.965s-0.587,0.398-0.965,0.398
	c-0.378,0-0.699-0.133-0.965-0.398c-0.266-0.266-0.399-0.587-0.399-0.965s0.133-0.699,0.399-0.965
	C13.392,12.86,13.713,12.728,14.091,12.728z M14.091,13.818c-0.074,0-0.138,0.027-0.192,0.081s-0.081,0.118-0.081,0.192
	c0,0.074,0.027,0.138,0.081,0.192c0.054,0.054,0.118,0.081,0.192,0.081c0.074,0,0.138-0.027,0.192-0.081
	c0.054-0.054,0.081-0.118,0.081-0.192c0-0.074-0.027-0.138-0.081-0.192C14.229,13.845,14.165,13.818,14.091,13.818z"/>
</svg>
