<?xml version="1.0" encoding="utf-8"?>
<!-- Generator: Adobe Illustrator 16.0.3, SVG Export Plug-In . SVG Version: 6.00 Build 0)  -->
<!DOCTYPE svg PUBLIC "-//W3C//DTD SVG 1.1//EN" "http://www.w3.org/Graphics/SVG/1.1/DTD/svg11.dtd">
<svg version="1.1" id="Layer_1" xmlns="http://www.w3.org/2000/svg" xmlns:xlink="http://www.w3.org/1999/xlink" x="0px" y="0px"
	 width="14px" height="14px" viewBox="9 9 14 14" enable-background="new 9 9 14 14" xml:space="preserve">
<path d="M16,10c0.815,0,1.594,0.158,2.333,0.475c0.74,0.316,1.378,0.743,1.913,1.278c0.536,0.536,0.962,1.173,1.279,1.914
	C21.842,14.407,22,15.185,22,16s-0.158,1.594-0.475,2.333c-0.317,0.74-0.743,1.378-1.279,1.913
	c-0.535,0.536-1.173,0.963-1.913,1.279C17.594,21.842,16.815,22,16,22s-1.593-0.158-2.333-0.475
	c-0.74-0.316-1.378-0.743-1.914-1.279c-0.536-0.535-0.962-1.173-1.278-1.913C10.158,17.594,10,16.815,10,16s0.158-1.593,0.475-2.333
	c0.316-0.74,0.743-1.378,1.278-1.914s1.173-0.962,1.914-1.278C14.407,10.158,15.185,10,16,10z M16,11.091
	c-0.665,0-1.301,0.13-1.907,0.39c-0.606,0.26-1.128,0.608-1.566,1.046c-0.438,0.438-0.787,0.96-1.046,1.566s-0.39,1.242-0.39,1.907
	c0,0.664,0.129,1.301,0.39,1.907s0.609,1.128,1.046,1.565c0.437,0.438,0.959,0.787,1.566,1.046c0.607,0.26,1.242,0.391,1.907,0.391
	c0.664,0,1.3-0.131,1.907-0.391c0.606-0.259,1.128-0.608,1.565-1.046s0.786-0.959,1.046-1.565c0.261-0.606,0.391-1.243,0.391-1.907
	c-0.001-0.665-0.131-1.3-0.391-1.907c-0.259-0.606-0.608-1.129-1.046-1.566s-0.96-0.786-1.565-1.046
	C17.301,11.221,16.665,11.091,16,11.091z M16,12.182c0.517,0,1.012,0.101,1.483,0.303c0.471,0.202,0.877,0.473,1.218,0.814
	c0.342,0.341,0.613,0.748,0.814,1.219c0.202,0.472,0.303,0.966,0.303,1.483s-0.101,1.011-0.303,1.482
	c-0.201,0.473-0.473,0.878-0.814,1.22c-0.341,0.341-0.747,0.611-1.218,0.813c-0.472,0.202-0.967,0.303-1.483,0.303
	c-0.517,0-1.011-0.101-1.483-0.303s-0.878-0.473-1.219-0.813c-0.341-0.342-0.612-0.747-0.814-1.22
	c-0.202-0.472-0.303-0.965-0.303-1.482s0.101-1.012,0.303-1.483c0.202-0.471,0.473-0.877,0.814-1.219
	c0.341-0.341,0.747-0.612,1.219-0.814C14.989,12.283,15.483,12.182,16,12.182z M16,13.273c-0.369,0-0.722,0.072-1.059,0.217
	c-0.337,0.145-0.626,0.338-0.87,0.582c-0.243,0.243-0.437,0.533-0.582,0.87c-0.145,0.336-0.217,0.689-0.217,1.059
	s0.073,0.722,0.217,1.059s0.338,0.626,0.582,0.869c0.244,0.243,0.533,0.438,0.87,0.582c0.336,0.145,0.689,0.217,1.059,0.217
	c0.37,0,0.723-0.072,1.06-0.217c0.336-0.145,0.626-0.339,0.869-0.582s0.438-0.532,0.582-0.869S18.728,16.37,18.728,16
	s-0.072-0.723-0.217-1.059c-0.146-0.337-0.34-0.626-0.582-0.87c-0.243-0.243-0.533-0.437-0.869-0.582
	C16.723,13.345,16.369,13.273,16,13.273z M16,14.364c0.452,0,0.837,0.16,1.157,0.479c0.319,0.32,0.479,0.706,0.479,1.157
	c0,0.451-0.16,0.837-0.479,1.157c-0.32,0.319-0.706,0.479-1.157,0.479s-0.837-0.16-1.157-0.479
	c-0.319-0.319-0.479-0.706-0.479-1.157c0-0.452,0.16-0.837,0.479-1.157C15.163,14.524,15.548,14.364,16,14.364z M16,15.455
	c-0.15,0-0.279,0.053-0.386,0.16c-0.106,0.106-0.16,0.235-0.16,0.386c0,0.15,0.054,0.279,0.16,0.385
	c0.106,0.107,0.235,0.161,0.386,0.161s0.279-0.054,0.386-0.161c0.106-0.106,0.16-0.235,0.16-0.385c0-0.151-0.054-0.279-0.16-0.386
	C16.279,15.508,16.15,15.455,16,15.455z"/>
</svg>
