<?xml version="1.0" encoding="utf-8"?>
<!-- Generator: Adobe Illustrator 16.0.3, SVG Export Plug-In . SVG Version: 6.00 Build 0)  -->
<!DOCTYPE svg PUBLIC "-//W3C//DTD SVG 1.1//EN" "http://www.w3.org/Graphics/SVG/1.1/DTD/svg11.dtd">
<svg version="1.1" id="Layer_1" xmlns="http://www.w3.org/2000/svg" xmlns:xlink="http://www.w3.org/1999/xlink" x="0px" y="0px"
	 width="14px" height="14px" viewBox="9 9 14 14" enable-background="new 9 9 14 14" xml:space="preserve">
<path d="M16,10c0.481,0,0.895,0.172,1.236,0.514c0.343,0.343,0.514,0.755,0.514,1.236v5.379c0.31,0.258,0.554,0.571,0.732,0.939
	c0.178,0.368,0.268,0.763,0.268,1.182c0,0.373-0.072,0.729-0.217,1.068s-0.34,0.633-0.586,0.879
	c-0.246,0.247-0.539,0.441-0.879,0.587C16.729,21.929,16.373,22,16,22s-0.729-0.071-1.068-0.216c-0.34-0.146-0.633-0.34-0.879-0.587
	c-0.246-0.246-0.441-0.539-0.586-0.879s-0.217-0.695-0.217-1.068c0-0.419,0.089-0.813,0.268-1.182s0.422-0.682,0.732-0.939V11.75
	c0-0.481,0.171-0.894,0.514-1.236C15.106,10.172,15.518,10,16,10z M16,11c-0.208,0-0.385,0.073-0.531,0.219
	s-0.219,0.323-0.219,0.531v5.923c-0.299,0.143-0.541,0.355-0.725,0.638c-0.184,0.283-0.275,0.596-0.275,0.939
	c0,0.481,0.171,0.895,0.514,1.236C15.106,20.829,15.519,21,16,21s0.894-0.171,1.236-0.514c0.343-0.342,0.514-0.755,0.514-1.236
	c0-0.344-0.092-0.656-0.274-0.939c-0.184-0.282-0.425-0.495-0.726-0.638V11.75c0-0.208-0.072-0.385-0.218-0.531
	C16.386,11.073,16.209,11,16,11L16,11z"/>
</svg>
