<?xml version="1.0" encoding="utf-8"?>
<!-- Generator: Adobe Illustrator 16.0.3, SVG Export Plug-In . SVG Version: 6.00 Build 0)  -->
<!DOCTYPE svg PUBLIC "-//W3C//DTD SVG 1.1//EN" "http://www.w3.org/Graphics/SVG/1.1/DTD/svg11.dtd">
<svg version="1.1" id="Layer_1" xmlns="http://www.w3.org/2000/svg" xmlns:xlink="http://www.w3.org/1999/xlink" x="0px" y="0px"
	 width="14px" height="14px" viewBox="9 9 14 14" enable-background="new 9 9 14 14" xml:space="preserve">
<path d="M14,12h4c0.542,0,1.06,0.105,1.553,0.316c0.494,0.211,0.92,0.496,1.277,0.854c0.358,0.358,0.643,0.784,0.854,1.277
	C21.896,14.94,22,15.458,22,16s-0.104,1.06-0.315,1.553c-0.212,0.493-0.496,0.919-0.854,1.277c-0.357,0.358-0.783,0.643-1.277,0.854
	C19.06,19.895,18.542,20,18,20h-4c-0.542,0-1.06-0.105-1.553-0.316s-0.919-0.495-1.277-0.854c-0.357-0.358-0.643-0.784-0.854-1.277
	S10,16.542,10,16s0.105-1.06,0.316-1.553c0.211-0.494,0.496-0.919,0.854-1.277c0.358-0.358,0.784-0.643,1.277-0.854S13.458,12,14,12
	z M14,14c0.553,0,1.023,0.195,1.414,0.586C15.805,14.977,16,15.448,16,16c0,0.551-0.195,1.023-0.586,1.414
	c-0.391,0.392-0.861,0.587-1.414,0.587c-0.552,0-1.023-0.195-1.414-0.587C12.195,17.023,12,16.552,12,16
	c0-0.552,0.195-1.023,0.586-1.414C12.977,14.195,13.448,14,14,14z M14,15c-0.275,0-0.512,0.098-0.706,0.293
	c-0.196,0.195-0.293,0.431-0.293,0.707s0.097,0.511,0.293,0.707c0.194,0.195,0.431,0.293,0.706,0.293
	c0.276,0,0.512-0.098,0.707-0.293S15,16.275,15,16s-0.098-0.511-0.293-0.707S14.276,15,14,15z M18,13h-4
	c-0.544,0-1.046,0.134-1.506,0.402s-0.824,0.632-1.092,1.092S11,15.456,11,16c0,0.545,0.134,1.047,0.402,1.506
	c0.269,0.46,0.632,0.823,1.092,1.092C12.953,18.866,13.455,19,14,19h4c0.544,0,1.046-0.134,1.506-0.402s0.823-0.632,1.092-1.092
	C20.865,17.047,21,16.545,21,16c0-0.544-0.134-1.046-0.402-1.506s-0.632-0.824-1.092-1.092C19.047,13.134,18.545,13,18,13z"/>
</svg>
