<?xml version="1.0" encoding="utf-8"?>
<!-- Generator: Adobe Illustrator 16.0.3, SVG Export Plug-In . SVG Version: 6.00 Build 0)  -->
<!DOCTYPE svg PUBLIC "-//W3C//DTD SVG 1.1//EN" "http://www.w3.org/Graphics/SVG/1.1/DTD/svg11.dtd">
<svg version="1.1" id="Layer_1" xmlns="http://www.w3.org/2000/svg" xmlns:xlink="http://www.w3.org/1999/xlink" x="0px" y="0px"
	 width="14px" height="14px" viewBox="9 9 14 14" enable-background="new 9 9 14 14" xml:space="preserve">
<path d="M20.637,11.091V10h-3.273v1.091h1.092v9.818h-1.092V22h3.273v-1.091h-1.092v-9.818H20.637z M17.363,12.369
	c0-0.057-0.105-0.125-0.174-0.173c-0.301-0.225-0.633-0.371-1.002-0.438c-0.369-0.068-0.799-0.102-1.294-0.102
	c-0.358,0-0.728,0.057-1.104,0.172c-0.377,0.115-0.698,0.255-0.963,0.421c-0.307,0.194-0.556,0.416-0.747,0.663
	c-0.192,0.248-0.288,0.507-0.288,0.778c0,0.26,0.069,0.494,0.208,0.703c0.139,0.209,0.355,0.314,0.65,0.314
	c0.33,0,0.588-0.085,0.774-0.257c0.186-0.17,0.278-0.359,0.278-0.566c0-0.194-0.028-0.406-0.084-0.636
	c-0.057-0.229-0.083-0.404-0.083-0.521c0.095-0.101,0.258-0.196,0.491-0.288c0.232-0.091,0.485-0.137,0.756-0.137
	c0.395,0,0.7,0.081,0.915,0.242c0.215,0.163,0.381,0.353,0.5,0.571c0.105,0.195,0.078,0.636,0.078,0.636v1.301
	c0,0.154-0.74,0.366-1.551,0.637c-0.812,0.271-1.304,0.457-1.57,0.557c-0.211,0.083-0.416,0.193-0.658,0.332
	c-0.242,0.139-0.425,0.296-0.573,0.473c-0.188,0.213-0.324,0.451-0.419,0.716c-0.094,0.266-0.138,0.566-0.138,0.902
	c0,0.648,0.212,1.173,0.633,1.574c0.421,0.4,0.96,0.602,1.614,0.602c0.619,0,1.148-0.242,1.587-0.467
	c0.44-0.226,0.852-0.558,1.234-1.104h0.053c0.077,0.545,0.249,0.856,0.522,1.072l0.355,0.019V12.369L17.363,12.369z M16.416,18.851
	c-0.218,0.278-0.486,0.518-0.805,0.723c-0.319,0.203-0.688,0.306-1.106,0.306c-0.396,0-0.72-0.115-0.977-0.347
	c-0.257-0.23-0.385-0.591-0.385-1.08c0-0.378,0.085-0.705,0.257-0.979c0.17-0.275,0.404-0.513,0.698-0.714
	c0.325-0.213,0.675-0.39,1.052-0.532s0.763-0.271,1.265-0.418L16.416,18.851L16.416,18.851z"/>
</svg>
