<?xml version="1.0" encoding="utf-8"?>
<!-- Generator: Adobe Illustrator 16.0.3, SVG Export Plug-In . SVG Version: 6.00 Build 0)  -->
<!DOCTYPE svg PUBLIC "-//W3C//DTD SVG 1.1//EN" "http://www.w3.org/Graphics/SVG/1.1/DTD/svg11.dtd">
<svg version="1.1" id="Layer_1" xmlns="http://www.w3.org/2000/svg" xmlns:xlink="http://www.w3.org/1999/xlink" x="0px" y="0px"
	 width="14px" height="14px" viewBox="9 9 14 14" enable-background="new 9 9 14 14" xml:space="preserve">
<path d="M16,10.5c0.585,0,1.156,0.082,1.708,0.246c0.554,0.164,1.062,0.397,1.523,0.699c0.463,0.303,0.88,0.659,1.25,1.068
	c0.371,0.41,0.68,0.87,0.926,1.381c0.246,0.51,0.416,1.045,0.51,1.605c0.055,0.323,0.082,0.656,0.082,1h-5.5v3
	c0,0.275,0.098,0.512,0.293,0.706c0.195,0.195,0.432,0.293,0.707,0.293s0.512-0.098,0.707-0.293
	c0.194-0.194,0.293-0.431,0.293-0.706c0-0.139,0.048-0.256,0.146-0.354c0.098-0.099,0.215-0.147,0.354-0.147
	c0.138,0,0.256,0.049,0.354,0.147c0.098,0.098,0.146,0.215,0.146,0.354c0,0.552-0.195,1.023-0.586,1.413
	C18.523,21.305,18.052,21.5,17.5,21.5s-1.023-0.195-1.414-0.587c-0.391-0.39-0.586-0.861-0.586-1.413v-3H10
	c0-0.344,0.027-0.677,0.082-1c0.094-0.56,0.264-1.095,0.51-1.605s0.555-0.971,0.926-1.381s0.788-0.766,1.25-1.068
	c0.462-0.302,0.97-0.535,1.523-0.699c0.553-0.164,1.123-0.246,1.708-0.246H16z M16,11.5c-0.792,0-1.535,0.174-2.23,0.523
	c-0.695,0.349-1.275,0.827-1.74,1.433c-0.465,0.607-0.774,1.288-0.928,2.043h9.796c-0.153-0.755-0.463-1.436-0.928-2.043
	c-0.465-0.606-1.045-1.084-1.74-1.433C17.535,11.675,16.791,11.5,16,11.5L16,11.5z"/>
</svg>
