<?xml version="1.0" encoding="utf-8"?>
<!-- Generator: Adobe Illustrator 16.0.3, SVG Export Plug-In . SVG Version: 6.00 Build 0)  -->
<!DOCTYPE svg PUBLIC "-//W3C//DTD SVG 1.1//EN" "http://www.w3.org/Graphics/SVG/1.1/DTD/svg11.dtd">
<svg version="1.1" id="Layer_1" xmlns="http://www.w3.org/2000/svg" xmlns:xlink="http://www.w3.org/1999/xlink" x="0px" y="0px"
	 width="14px" height="14px" viewBox="9 9 14 14" enable-background="new 9 9 14 14" xml:space="preserve">
<path d="M16.001,10c0.593,0,1.141,0.146,1.643,0.438s0.898,0.689,1.19,1.191c0.293,0.501,0.439,1.049,0.439,1.643v0.545
	c0,0.151-0.054,0.279-0.16,0.386c-0.106,0.107-0.235,0.16-0.386,0.16s-0.279-0.053-0.386-0.16c-0.106-0.106-0.16-0.234-0.16-0.386
	v-0.545c0-0.603-0.213-1.116-0.639-1.543c-0.427-0.426-0.94-0.639-1.543-0.639s-1.116,0.213-1.543,0.639
	c-0.426,0.427-0.64,0.94-0.64,1.543v2.182h6.546c0.451,0,0.837,0.16,1.157,0.479C21.84,16.253,22,16.639,22,17.091v3.272
	c0,0.451-0.16,0.837-0.479,1.157C21.2,21.84,20.814,22,20.363,22h-8.728c-0.451,0-0.837-0.16-1.156-0.479
	C10.159,21.2,10,20.814,10,20.363v-3.272c0-0.452,0.159-0.838,0.479-1.157c0.319-0.319,0.705-0.479,1.156-0.479h1.092v-2.182
	c0-0.594,0.146-1.142,0.438-1.643c0.293-0.502,0.689-0.898,1.191-1.191C14.858,10.146,15.406,10,16.001,10L16.001,10z
	 M20.364,16.545h-8.727c-0.151,0-0.279,0.054-0.386,0.16c-0.107,0.106-0.16,0.235-0.16,0.386v3.272c0,0.15,0.053,0.279,0.16,0.386
	c0.106,0.107,0.234,0.16,0.386,0.16h8.727c0.15,0,0.279-0.053,0.386-0.16c0.106-0.106,0.16-0.235,0.16-0.386v-3.272
	c0-0.15-0.054-0.279-0.16-0.386S20.515,16.545,20.364,16.545z"/>
</svg>
