<?xml version="1.0" encoding="utf-8"?>
<!-- Generator: Adobe Illustrator 16.0.3, SVG Export Plug-In . SVG Version: 6.00 Build 0)  -->
<!DOCTYPE svg PUBLIC "-//W3C//DTD SVG 1.1//EN" "http://www.w3.org/Graphics/SVG/1.1/DTD/svg11.dtd">
<svg version="1.1" id="Layer_1" xmlns="http://www.w3.org/2000/svg" xmlns:xlink="http://www.w3.org/1999/xlink" x="0px" y="0px"
	 width="14px" height="14px" viewBox="9 9 14 14" enable-background="new 9 9 14 14" xml:space="preserve">
<path d="M12.5,10h7c0.413,0,0.768,0.146,1.061,0.439S21,11.086,21,11.5v7c0,0.414-0.146,0.768-0.439,1.061S19.913,20,19.5,20h-2v-1
	h2c0.138,0,0.255-0.049,0.354-0.146C19.951,18.756,20,18.638,20,18.5v-7c0-0.138-0.049-0.256-0.146-0.354
	C19.755,11.048,19.638,11,19.5,11h-7c-0.139,0-0.256,0.049-0.354,0.146c-0.099,0.098-0.147,0.215-0.147,0.354v7
	c0,0.138,0.049,0.256,0.147,0.354C12.244,18.951,12.361,19,12.5,19h2v1h-2c-0.414,0-0.768-0.146-1.061-0.439S11,18.914,11,18.5v-7
	c0-0.414,0.146-0.768,0.439-1.061S12.086,10,12.5,10z M16,13.5c0.141,0,0.259,0.048,0.355,0.144l1.999,2
	c0.097,0.096,0.145,0.215,0.145,0.355c0,0.138-0.049,0.256-0.146,0.354c-0.098,0.098-0.216,0.147-0.354,0.147
	c-0.136,0-0.254-0.048-0.355-0.145l-1.145-1.148V21.5c0,0.138-0.049,0.256-0.146,0.354S16.137,22,15.999,22
	c-0.139,0-0.256-0.049-0.354-0.146s-0.146-0.216-0.146-0.354v-6.293l-1.146,1.148c-0.101,0.097-0.22,0.145-0.354,0.145
	c-0.139,0-0.257-0.049-0.354-0.147c-0.098-0.097-0.146-0.215-0.146-0.354c0-0.135,0.049-0.254,0.145-0.355l2-2
	c0.097-0.096,0.215-0.144,0.355-0.144H16z"/>
</svg>
