<?xml version="1.0" encoding="utf-8"?>
<!-- Generator: Adobe Illustrator 16.0.3, SVG Export Plug-In . SVG Version: 6.00 Build 0)  -->
<!DOCTYPE svg PUBLIC "-//W3C//DTD SVG 1.1//EN" "http://www.w3.org/Graphics/SVG/1.1/DTD/svg11.dtd">
<svg version="1.1" id="Layer_1" xmlns="http://www.w3.org/2000/svg" xmlns:xlink="http://www.w3.org/1999/xlink" x="0px" y="0px"
	 width="14px" height="14px" viewBox="9 9 14 14" enable-background="new 9 9 14 14" xml:space="preserve">
<path d="M12.5,14l2.5-2.5v9L12.5,18h-1c-0.414,0-0.768-0.146-1.061-0.439S10,16.914,10,16.5v-0.981c0-0.414,0.146-0.771,0.439-1.07
	C10.732,14.149,11.086,14,11.5,14H12.5L12.5,14z M14,18.086v-4.191L12.914,15H11.5c-0.136,0-0.253,0.052-0.352,0.154
	C11.049,15.257,11,15.379,11,15.52v0.98c0,0.139,0.049,0.256,0.146,0.354S11.362,17,11.5,17h1.414L14,18.086z M17.266,14.332
	c0.097,0,0.187,0.027,0.271,0.082s0.147,0.129,0.189,0.223C17.908,15.077,18,15.531,18,16c0,0.477-0.092,0.929-0.273,1.355
	c-0.039,0.094-0.101,0.169-0.186,0.225c-0.085,0.057-0.177,0.084-0.275,0.084c-0.122,0-0.236-0.046-0.342-0.139
	s-0.158-0.213-0.158-0.361c0-0.061,0.013-0.125,0.039-0.195C16.935,16.661,17,16.338,17,16c0-0.336-0.065-0.66-0.195-0.973
	c-0.026-0.06-0.039-0.125-0.039-0.195c0-0.148,0.051-0.269,0.15-0.362C17.017,14.378,17.133,14.332,17.266,14.332L17.266,14.332z
	 M18.793,12.938c0.188,0,0.331,0.082,0.43,0.246c0.258,0.43,0.449,0.874,0.574,1.332C19.933,15.005,20,15.5,20,16
	c0,0.498-0.067,0.994-0.203,1.489c-0.127,0.463-0.318,0.907-0.574,1.332c-0.096,0.161-0.239,0.242-0.43,0.242
	c-0.13,0-0.246-0.047-0.348-0.141s-0.152-0.214-0.152-0.359c0-0.092,0.025-0.178,0.074-0.258c0.203-0.339,0.358-0.701,0.465-1.086
	C18.944,16.828,19,16.421,19,16c0-0.419-0.056-0.824-0.168-1.215c-0.106-0.386-0.262-0.749-0.465-1.09
	c-0.049-0.075-0.074-0.16-0.074-0.254c0-0.141,0.052-0.26,0.154-0.357C18.55,12.986,18.665,12.937,18.793,12.938L18.793,12.938z
	 M20.289,11.566c0.18,0,0.318,0.073,0.414,0.219c0.425,0.622,0.747,1.292,0.967,2.008C21.891,14.509,22,15.244,22,16
	s-0.109,1.491-0.33,2.207c-0.22,0.716-0.542,1.386-0.967,2.009c-0.094,0.146-0.231,0.218-0.414,0.218
	c-0.136,0-0.252-0.047-0.35-0.141s-0.146-0.213-0.146-0.358c0-0.104,0.029-0.198,0.086-0.281C20.627,18.556,21,17.338,21,15.999
	c0-0.656-0.095-1.294-0.285-1.914c-0.189-0.62-0.469-1.199-0.835-1.738c-0.058-0.083-0.086-0.177-0.086-0.281
	c0-0.146,0.048-0.266,0.146-0.359C20.038,11.613,20.154,11.566,20.289,11.566L20.289,11.566z"/>
</svg>
