<?xml version="1.0" encoding="utf-8"?>
<!-- Generator: Adobe Illustrator 16.0.3, SVG Export Plug-In . SVG Version: 6.00 Build 0)  -->
<!DOCTYPE svg PUBLIC "-//W3C//DTD SVG 1.1//EN" "http://www.w3.org/Graphics/SVG/1.1/DTD/svg11.dtd">
<svg version="1.1" id="Layer_1" xmlns="http://www.w3.org/2000/svg" xmlns:xlink="http://www.w3.org/1999/xlink" x="0px" y="0px"
	 width="14px" height="14px" viewBox="9 9 14 14" enable-background="new 9 9 14 14" xml:space="preserve">
<path d="M14.5,10h3c0.414,0,0.768,0.146,1.061,0.439S19,11.086,19,11.5v1.148c0.469,0.417,0.836,0.916,1.102,1.498
	S20.5,15.346,20.5,16c0,0.653-0.133,1.271-0.398,1.852c-0.266,0.581-0.633,1.08-1.102,1.5V20.5c0,0.414-0.146,0.768-0.439,1.061
	S17.914,22,17.5,22h-3c-0.414,0-0.768-0.146-1.061-0.439S13,20.914,13,20.5v-1.148c-0.469-0.42-0.836-0.919-1.102-1.5
	C11.633,17.271,11.5,16.653,11.5,16c0-0.654,0.133-1.271,0.398-1.854s0.633-1.082,1.102-1.498V11.5c0-0.414,0.146-0.768,0.439-1.061
	S14.086,10,14.5,10z M18,20.499V20.03c-0.625,0.313-1.292,0.469-2,0.469s-1.375-0.155-2-0.469v0.469
	c0,0.139,0.049,0.256,0.147,0.354C14.245,20.95,14.362,21,14.5,21h3c0.139,0,0.256-0.05,0.354-0.146
	C17.952,20.755,18,20.638,18,20.499L18,20.499z M16,12.5c-0.474,0-0.927,0.092-1.359,0.277s-0.804,0.434-1.117,0.746
	c-0.313,0.313-0.561,0.685-0.746,1.117S12.5,15.526,12.5,16s0.092,0.927,0.277,1.359s0.434,0.805,0.746,1.117
	c0.313,0.313,0.685,0.561,1.117,0.746C15.073,19.407,15.526,19.5,16,19.5c0.474,0,0.927-0.093,1.359-0.277
	c0.432-0.186,0.805-0.434,1.117-0.746s0.561-0.685,0.746-1.117S19.5,16.474,19.5,16s-0.092-0.927-0.277-1.359
	s-0.434-0.804-0.746-1.117c-0.313-0.313-0.686-0.561-1.117-0.746C16.927,12.592,16.474,12.5,16,12.5z M16,13.5
	c0.138,0,0.255,0.049,0.354,0.147C16.451,13.744,16.5,13.862,16.5,14v1.793l0.855,0.852C17.451,16.74,17.5,16.858,17.5,17
	c0,0.141-0.049,0.259-0.145,0.355C17.26,17.451,17.141,17.5,17,17.5s-0.259-0.049-0.355-0.145l-1-1
	C15.548,16.259,15.5,16.141,15.5,16v-2c0-0.138,0.049-0.256,0.147-0.354C15.745,13.548,15.862,13.5,16,13.5L16,13.5z M17.5,11h-3
	c-0.138,0-0.256,0.049-0.354,0.146C14.049,11.245,14,11.362,14,11.5v0.469c0.625-0.313,1.292-0.469,2-0.469
	c0.708,0,1.375,0.156,2,0.469V11.5c0-0.138-0.049-0.256-0.146-0.354C17.755,11.049,17.638,11,17.5,11L17.5,11z"/>
</svg>
