<?xml version="1.0" encoding="utf-8"?>
<!-- Generator: Adobe Illustrator 16.0.3, SVG Export Plug-In . SVG Version: 6.00 Build 0)  -->
<!DOCTYPE svg PUBLIC "-//W3C//DTD SVG 1.1//EN" "http://www.w3.org/Graphics/SVG/1.1/DTD/svg11.dtd">
<svg version="1.1" id="Layer_1" xmlns="http://www.w3.org/2000/svg" xmlns:xlink="http://www.w3.org/1999/xlink" x="0px" y="0px"
	 width="14px" height="14px" viewBox="9 9 14 14" enable-background="new 9 9 14 14" xml:space="preserve">
<path d="M14.909,10c0.665,0,1.301,0.13,1.907,0.39c0.606,0.26,1.128,0.608,1.566,1.046c0.438,0.438,0.786,0.959,1.046,1.566
	c0.259,0.607,0.39,1.242,0.39,1.907c0,0.571-0.093,1.118-0.279,1.641c-0.186,0.522-0.451,0.997-0.795,1.423l3.098,3.094
	C21.947,21.172,22,21.301,22,21.455c0,0.156-0.052,0.285-0.155,0.39C21.74,21.948,21.611,22,21.455,22
	c-0.154,0-0.283-0.053-0.389-0.158l-3.094-3.098c-0.426,0.344-0.9,0.609-1.423,0.795c-0.523,0.187-1.07,0.279-1.641,0.279
	c-0.665,0-1.3-0.131-1.907-0.39c-0.606-0.26-1.128-0.609-1.566-1.046c-0.438-0.438-0.787-0.96-1.046-1.566
	C10.13,16.21,10,15.574,10,14.909s0.13-1.3,0.39-1.907c0.26-0.606,0.609-1.129,1.046-1.566c0.437-0.437,0.959-0.786,1.566-1.046
	C13.609,10.13,14.245,10,14.909,10L14.909,10z M14.909,11.091c-0.517,0-1.011,0.101-1.483,0.303
	c-0.472,0.202-0.878,0.473-1.219,0.814s-0.612,0.747-0.814,1.219c-0.202,0.472-0.303,0.966-0.303,1.483s0.101,1.011,0.303,1.483
	c0.202,0.472,0.473,0.878,0.814,1.219s0.747,0.612,1.219,0.814s0.966,0.303,1.483,0.303s1.012-0.101,1.483-0.303
	c0.472-0.202,0.878-0.474,1.219-0.814s0.612-0.747,0.813-1.219c0.202-0.472,0.303-0.966,0.303-1.483s-0.101-1.011-0.303-1.483
	c-0.201-0.472-0.473-0.878-0.813-1.219s-0.747-0.612-1.219-0.814C15.921,11.192,15.426,11.091,14.909,11.091z M13.273,14.364h3.273
	c0.15,0,0.279,0.054,0.386,0.16c0.106,0.107,0.16,0.235,0.16,0.386c0,0.151-0.054,0.279-0.16,0.386
	c-0.106,0.107-0.235,0.16-0.386,0.16h-3.273c-0.151,0-0.279-0.053-0.386-0.16c-0.107-0.106-0.16-0.235-0.16-0.386
	c0-0.15,0.053-0.279,0.16-0.386C12.994,14.417,13.122,14.364,13.273,14.364z"/>
</svg>
