<?xml version="1.0" encoding="utf-8"?>
<!-- Generated by IcoMoon.io -->
<!DOCTYPE svg PUBLIC "-//W3C//DTD SVG 1.1//EN" "http://www.w3.org/Graphics/SVG/1.1/DTD/svg11.dtd">
<svg version="1.1" xmlns="http://www.w3.org/2000/svg" xmlns:xlink="http://www.w3.org/1999/xlink" width="32" height="32" viewBox="0 0 32 32">
<path d="M32 25.333c-2.667-2.667-4-6.667-5.333-13.333-1.155-5.776-4.777-10.667-10.667-10.667s-9.512 4.891-10.667 10.667c-1.333 6.667-2.667 10.667-5.333 13.333h12.232c-0.148 0.418-0.232 0.865-0.232 1.333 0 2.209 1.791 4 4 4s4-1.791 4-4c0-0.468-0.085-0.916-0.232-1.333h12.232zM17.333 26.667c0 0.735-0.598 1.333-1.333 1.333s-1.333-0.598-1.333-1.333 0.598-1.333 1.333-1.333 1.333 0.598 1.333 1.333z" fill="#555555"></path>
</svg>
