<?xml version="1.0" encoding="utf-8"?>
<!-- Generated by IcoMoon.io -->
<!DOCTYPE svg PUBLIC "-//W3C//DTD SVG 1.1//EN" "http://www.w3.org/Graphics/SVG/1.1/DTD/svg11.dtd">
<svg version="1.1" xmlns="http://www.w3.org/2000/svg" xmlns:xlink="http://www.w3.org/1999/xlink" width="32" height="32" viewBox="0 0 32 32">
<path d="M19.845 26.443c0.049-1.197 0.083-2.539 0.082-3.865-0-1.105-0.024-2.198-0.082-3.186-0.003-0.145 0.063-0.22 0.17-0.255 5.154-0.524 5.202 8.031-0.17 7.305zM5.404 20.242c-0.397 0.127-1.19-0.245-1.529-0.255-1.341-5.207 0.061-9.549 3.313-12.147 2.24-1.79 5.442-3.159 8.834-3.143 4.063 0.020 7.684 1.876 9.939 4.332 2.166 2.359 3.422 6.814 1.869 11.043-0.402 0.079-0.905 0.058-1.274 0.17-1.113-2.43-4.859-5.35-8.155-3.738-2.012 0.985-1.459 3.404-1.444 6.201 0.007 1.306-0.25 2.576-0.17 3.653 0.153 2.054 1.51 3.076 3.313 3.143 4.134 0.154 6.387-2.899 6.965-6.371 1.566 0.066 2.615-0.386 3.398-1.104 2.172-5.328 0.654-11.473-2.039-14.696-1.414-1.693-3.188-3.010-5.437-3.992-2.196-0.96-5.045-1.805-7.815-1.614-5.025 0.347-9.617 2.733-12.147 6.031-2.516 3.279-3.55 9.005-1.614 14.271 0.768 0.846 2.142 1.086 3.653 1.189z" fill="#555555"></path>
<path d="M12.2 19.223c-0.063 1.218-0.095 2.328-0.098 3.434-0.003 1.222 0.031 2.439 0.098 3.787-1.188 0.168-2.106-0.114-2.763-0.649-1-0.815-1.395-2.22-1.223-3.529 0.131-0.995 0.591-1.935 1.363-2.516 0.654-0.493 1.531-0.729 2.623-0.526zM5.064 23.215c0.146 1.034 0.266 1.738 0.595 2.463 1.087 2.399 5.498 5.32 8.41 3.143 1.568-1.172 1.019-3.48 1.019-6.031 0-1.251 0.229-2.594 0.17-3.483-0.296-4.455-6.027-3.431-8.24-1.274-0.354 0.345-1.2 2.076-1.614 2.209z" fill="#555555"></path>
</svg>
