<?xml version="1.0" encoding="utf-8"?>
<!-- Generated by IcoMoon.io -->
<!DOCTYPE svg PUBLIC "-//W3C//DTD SVG 1.1//EN" "http://www.w3.org/Graphics/SVG/1.1/DTD/svg11.dtd">
<svg version="1.1" xmlns="http://www.w3.org/2000/svg" xmlns:xlink="http://www.w3.org/1999/xlink" width="32" height="32" viewBox="0 0 32 32">
<path d="M28.669 26.931l-0.284-13.147-4.553-4.431 0.007-5.842-2.915-0.095-0.040 3.059-5.194-5.059-12.367 12.695 0.285 13.147c0.019 1.3 0.132 4.638 0.132 4.638s3.33 0.017 4.628 0l5.558-0.069 0.063-7.574 4.716-0.069 0.070 7.605 5.254-0.101c1.272-0.014 4.638-0.063 4.638-0.063s0.018-3.373 0-4.696zM25.091 28.087c-0.17 0.173-0.537 0.464-1.099 0.473l-2.775 0.020 0.006-6.876h-9.75l-0.037 6.752c-0.565 0.006-4.050 0.035-4.223-0.135-0.173-0.167-0.466-0.536-0.472-1.1l-0.268-11.852 9.274-9.521 9.52 9.276 0.269 11.848c0.007 0.565-0.276 0.943-0.446 1.116z" fill="#555555"></path>
</svg>
