<?xml version="1.0" encoding="utf-8"?>
<!-- Generated by IcoMoon.io -->
<!DOCTYPE svg PUBLIC "-//W3C//DTD SVG 1.1//EN" "http://www.w3.org/Graphics/SVG/1.1/DTD/svg11.dtd">
<svg version="1.1" xmlns="http://www.w3.org/2000/svg" xmlns:xlink="http://www.w3.org/1999/xlink" width="32" height="32" viewBox="0 0 32 32">
<path d="M15.736 0.721c0.193 0 0.385 0 0.577 0 1.598 0.057 2.948 0.418 4.11 0.952 1.158 0.533 2.165 1.228 3 2.063 0.839 0.839 1.544 1.819 2.093 2.97 0.549 1.152 0.887 2.509 0.93 4.125 0 0.068 0 0.135 0 0.203-0.030 1.638-0.386 2.898-0.9 4.043-0.515 1.146-1.194 2.117-2.010 2.933-0.221 0.221-0.394 0.444-0.72 0.517-0.719 0.161-1.347-0.509-1.095-1.23 0.108-0.308 0.359-0.459 0.555-0.675 1.189-1.305 2.102-2.855 2.273-5.137 0.059-0.793-0.015-1.56-0.165-2.258-0.289-1.345-0.863-2.446-1.575-3.36-0.711-0.913-1.625-1.681-2.692-2.25-1.082-0.576-2.352-0.977-3.915-1.020-1.629-0.045-2.968 0.369-4.042 0.9-1.093 0.541-2.026 1.282-2.76 2.175s-1.338 1.959-1.673 3.27c-0.169 0.663-0.284 1.435-0.247 2.22 0.036 0.78 0.151 1.478 0.345 2.123 0.374 1.242 0.989 2.276 1.785 3.157 0.177 0.195 0.442 0.391 0.592 0.645 0.169 0.285 0.172 0.668 0 0.96-0.163 0.277-0.427 0.452-0.78 0.457-0.396 0.006-0.59-0.17-0.825-0.405-0.82-0.82-1.52-1.772-2.047-2.895-0.53-1.129-0.877-2.395-0.945-3.99 0-0.188 0-0.375 0-0.563 0.018-0.404 0.051-0.8 0.105-1.17 0.37-2.515 1.523-4.351 2.97-5.798 0.824-0.824 1.837-1.515 2.985-2.025 1.16-0.515 2.495-0.894 4.072-0.938z" fill="#555555"></path>
<path d="M22.6 18.863c-0.405 0-0.787-0.197-1.021-0.527-0.235-0.332-0.291-0.748-0.153-1.143 0.103-0.294 0.293-0.471 0.461-0.627 0.057-0.053 0.111-0.103 0.158-0.155 1.373-1.507 2.049-3.034 2.192-4.95 0.053-0.703-0.001-1.433-0.159-2.169-0.253-1.179-0.763-2.267-1.516-3.234-0.693-0.89-1.566-1.619-2.593-2.166-1.17-0.624-2.406-0.945-3.777-0.983-0.078-0.002-0.157-0.003-0.235-0.003-1.278 0-2.475 0.285-3.66 0.871-1.048 0.518-1.942 1.223-2.657 2.093-0.789 0.961-1.316 1.991-1.611 3.149-0.187 0.731-0.269 1.467-0.238 2.128 0.035 0.751 0.144 1.42 0.332 2.047 0.345 1.147 0.907 2.14 1.718 3.038 0.051 0.056 0.115 0.117 0.183 0.181 0.152 0.144 0.324 0.308 0.447 0.514 0.229 0.387 0.23 0.888 0.001 1.278-0.228 0.388-0.599 0.605-1.045 0.612-0.547 0.008-0.826-0.272-1.051-0.497-0.886-0.887-1.596-1.89-2.109-2.983-0.599-1.276-0.909-2.582-0.974-4.109l-0-0.013 0-0.576c0.019-0.442 0.056-0.846 0.108-1.202 0.339-2.3 1.339-4.254 3.058-5.973 0.862-0.862 1.898-1.565 3.079-2.090 1.372-0.609 2.743-0.925 4.191-0.964l0.009-0 0.589 0c1.51 0.054 2.933 0.384 4.229 0.981 1.186 0.546 2.226 1.261 3.090 2.125 0.885 0.884 1.609 1.913 2.154 3.057 0.595 1.25 0.918 2.68 0.96 4.251l0 0.008-0 0.208c-0.028 1.493-0.322 2.817-0.927 4.165-0.514 1.145-1.212 2.163-2.074 3.026-0.031 0.031-0.061 0.062-0.090 0.092-0.193 0.2-0.412 0.426-0.782 0.509-0.094 0.021-0.19 0.032-0.284 0.032zM15.958 2.28c0.083 0 0.168 0.001 0.252 0.004 1.47 0.041 2.796 0.386 4.053 1.057 1.105 0.589 2.045 1.374 2.792 2.334 0.811 1.041 1.361 2.214 1.634 3.486 0.171 0.794 0.228 1.584 0.171 2.346-0.154 2.065-0.88 3.707-2.353 5.325-0.064 0.071-0.13 0.132-0.194 0.191-0.137 0.128-0.245 0.228-0.297 0.376-0.071 0.204-0.045 0.408 0.073 0.575 0.117 0.165 0.308 0.264 0.511 0.264 0.049 0 0.098-0.006 0.148-0.017 0.179-0.040 0.29-0.147 0.47-0.334 0.032-0.033 0.064-0.067 0.098-0.1 0.808-0.808 1.463-1.764 1.946-2.84 0.577-1.285 0.846-2.493 0.873-3.918v-0.195c-0.040-1.482-0.343-2.826-0.9-3.995-0.514-1.079-1.197-2.049-2.031-2.883-0.812-0.812-1.791-1.485-2.91-2-1.237-0.569-2.54-0.871-3.985-0.924h-0.568c-1.363 0.038-2.655 0.336-3.95 0.911-1.111 0.493-2.083 1.153-2.891 1.96-1.621 1.621-2.563 3.46-2.882 5.622-0.049 0.333-0.083 0.713-0.102 1.131v0.549c0.063 1.439 0.353 2.667 0.915 3.864 0.482 1.027 1.15 1.972 1.986 2.807 0.223 0.223 0.338 0.314 0.584 0.314l0.015-0c0.226-0.003 0.399-0.106 0.515-0.303 0.112-0.19 0.112-0.454 0.001-0.642-0.078-0.131-0.211-0.257-0.339-0.379-0.073-0.070-0.149-0.141-0.216-0.216-0.874-0.968-1.48-2.040-1.852-3.277-0.204-0.676-0.321-1.395-0.358-2.198-0.034-0.732 0.052-1.51 0.257-2.312 0.318-1.249 0.886-2.358 1.734-3.391 0.771-0.94 1.735-1.699 2.863-2.257 1.273-0.63 2.561-0.936 3.937-0.936z" fill="#555555"></path>
<path d="M11.026 19.096c0.379-0.040 0.855-0.008 1.268-0.008 2.71 0 5.455-0 8.183 0 0.203 0 0.425-0.019 0.607 0.015 0.433 0.081 0.756 0.41 0.765 0.9 0.009 0.488-0.312 0.841-0.72 0.938-0.167 0.039-0.391 0.023-0.615 0.023-3.003-0-5.932 0-8.925 0-0.213 0-0.43 0.015-0.615-0.015-0.454-0.074-0.783-0.44-0.772-0.945 0.010-0.49 0.358-0.858 0.825-0.908z" fill="#555555"></path>
<path d="M11.269 21.28c-0.142 0-0.249-0.007-0.346-0.023-0.622-0.102-1.047-0.619-1.035-1.26 0.013-0.635 0.477-1.145 1.104-1.212 0.14-0.015 0.299-0.022 0.499-0.022 0.138 0 0.28 0.003 0.417 0.007 0.135 0.003 0.262 0.006 0.385 0.006h8.183c0.051 0 0.104-0.001 0.156-0.003 0.057-0.001 0.115-0.003 0.174-0.003 0.137 0 0.241 0.008 0.335 0.026 0.608 0.114 1.008 0.586 1.020 1.201 0.012 0.608-0.374 1.109-0.961 1.248-0.129 0.030-0.265 0.035-0.382 0.035-0.050 0-0.102-0.001-0.154-0.002-0.050-0.001-0.1-0.002-0.151-0.002h-8.925c-0.052 0-0.104 0.001-0.156 0.002-0.055 0.001-0.11 0.002-0.163 0.002zM11.492 19.389c-0.178 0-0.315 0.006-0.433 0.018-0.32 0.034-0.539 0.276-0.546 0.603-0.007 0.331 0.194 0.579 0.51 0.63 0.063 0.010 0.138 0.015 0.245 0.015 0.050 0 0.101-0.001 0.152-0.002 0.056-0.001 0.112-0.002 0.168-0.002h8.925c0.054 0 0.108 0.001 0.162 0.002 0.049 0.001 0.096 0.002 0.143 0.002 0.070 0 0.171-0.002 0.238-0.018 0.226-0.053 0.487-0.25 0.479-0.627-0.006-0.316-0.197-0.54-0.51-0.599-0.054-0.010-0.124-0.015-0.22-0.015-0.052 0-0.105 0.001-0.158 0.003-0.056 0.001-0.114 0.003-0.171 0.003h-8.183c-0.13 0-0.267-0.003-0.399-0.006s-0.271-0.006-0.402-0.006z" fill="#555555"></path>
<path d="M11.026 22.081c0.381-0.041 0.857-0.007 1.268-0.007 2.701-0 5.433 0 8.145 0 0.2 0 0.42-0.021 0.615 0.007 0.453 0.066 0.782 0.432 0.795 0.9 0.014 0.502-0.311 0.854-0.743 0.945-0.239 0.051-0.541 0.022-0.825 0.023-2.818 0-5.598-0-8.46 0-0.284 0-0.57 0.021-0.825-0.015-0.447-0.063-0.803-0.42-0.795-0.938 0.008-0.491 0.351-0.864 0.825-0.915z" fill="#555555"></path>
<path d="M20.733 24.269c-0.077 0-0.156-0.002-0.232-0.004s-0.148-0.004-0.219-0.004h-8.46c-0.074 0-0.151 0.002-0.225 0.003-0.076 0.002-0.154 0.003-0.231 0.003-0.167 0-0.295-0.007-0.413-0.024-0.636-0.090-1.074-0.605-1.064-1.252 0.010-0.64 0.474-1.154 1.104-1.221 0.141-0.015 0.3-0.022 0.5-0.022 0.139 0 0.28 0.003 0.417 0.007 0.135 0.003 0.262 0.006 0.384 0.006h8.145c0.054 0 0.111-0.002 0.171-0.003 0.064-0.002 0.13-0.004 0.197-0.004 0.113 0 0.206 0.006 0.291 0.018 0.609 0.088 1.046 0.582 1.063 1.201 0.017 0.624-0.381 1.13-0.99 1.259-0.121 0.026-0.256 0.037-0.438 0.037zM20.281 23.636c0.079 0 0.159 0.002 0.235 0.004 0.075 0.002 0.147 0.004 0.216 0.004 0.085 0 0.209-0.002 0.309-0.023 0.246-0.052 0.505-0.245 0.495-0.631-0.008-0.314-0.22-0.555-0.527-0.599-0.055-0.008-0.119-0.012-0.202-0.012-0.058 0-0.117 0.002-0.179 0.004s-0.126 0.004-0.19 0.004h-8.145c-0.129 0-0.266-0.003-0.398-0.006-0.133-0.003-0.271-0.006-0.402-0.006-0.178 0-0.315 0.006-0.433 0.019-0.321 0.034-0.541 0.279-0.546 0.609-0.006 0.378 0.26 0.586 0.526 0.623 0.088 0.012 0.188 0.018 0.325 0.018 0.071 0 0.143-0.001 0.218-0.003 0.077-0.002 0.157-0.003 0.237-0.003l8.46 0z" fill="#555555"></path>
<path d="M11.019 25.066c0.376-0.043 0.858-0.008 1.268-0.008 2.708 0 5.437-0 8.152 0 0.205 0 0.419-0.021 0.615 0.008 0.447 0.065 0.801 0.424 0.795 0.938-0.006 0.503-0.353 0.86-0.81 0.923-0.194 0.026-0.415 0.008-0.63 0.007-2.957-0-5.883 0-8.857 0-0.216 0-0.433 0.014-0.607-0.023-0.422-0.087-0.757-0.427-0.742-0.953 0.013-0.48 0.356-0.839 0.818-0.892z" fill="#555555"></path>
<path d="M20.788 27.253c-0.066 0-0.132-0.002-0.196-0.003s-0.124-0.003-0.183-0.003h-8.857c-0.045 0-0.091 0.001-0.135 0.001-0.047 0.001-0.094 0.001-0.14 0.001-0.12 0-0.261-0.004-0.396-0.031-0.611-0.126-1.009-0.635-0.992-1.267s0.467-1.122 1.094-1.194c0.139-0.016 0.297-0.023 0.497-0.023 0.14 0 0.283 0.004 0.421 0.007 0.135 0.003 0.263 0.007 0.385 0.007h8.153c0.057 0 0.114-0.002 0.175-0.004 0.063-0.002 0.129-0.004 0.195-0.004 0.112 0 0.204 0.006 0.29 0.018 0.633 0.092 1.070 0.606 1.063 1.25-0.007 0.638-0.452 1.143-1.080 1.229-0.085 0.012-0.178 0.017-0.293 0.017zM18.698 26.621l1.711 0c0.068 0 0.135 0.002 0.199 0.003 0.063 0.002 0.122 0.003 0.18 0.003 0.086 0 0.152-0.004 0.209-0.011 0.324-0.044 0.536-0.286 0.54-0.617 0.004-0.378-0.262-0.586-0.527-0.625-0.055-0.008-0.119-0.012-0.2-0.012-0.057 0-0.115 0.002-0.176 0.004-0.063 0.002-0.128 0.004-0.193 0.004h-8.153c-0.13 0-0.268-0.004-0.401-0.007-0.135-0.003-0.274-0.007-0.406-0.007-0.175 0-0.31 0.006-0.425 0.019-0.315 0.036-0.532 0.274-0.541 0.591-0.014 0.494 0.374 0.613 0.493 0.638 0.080 0.016 0.186 0.019 0.269 0.019 0.043 0 0.087-0.001 0.131-0.001 0.048-0.001 0.096-0.001 0.144-0.001h7.147z" fill="#555555"></path>
<path d="M19.119 31.001c-2.065 0-4.13 0-6.195 0-0.481-0.058-0.758-0.339-0.938-0.72-0.147-0.312-0.337-0.937-0.195-1.372 0.135-0.416 0.53-0.689 1.005-0.63 0.463 0.057 0.737 0.361 0.818 0.84 0.002 0.006 0.006 0.009 0.015 0.008 1.6 0 3.2 0 4.8 0 0.083-0.473 0.347-0.784 0.81-0.848 0.494-0.068 0.887 0.228 1.020 0.63 0.072 0.216 0.046 0.493 0 0.735-0.135 0.707-0.424 1.258-1.14 1.358z" fill="#555555"></path>
<path d="M19.14 31.314l-6.254-0.002c-0.535-0.065-0.933-0.366-1.183-0.897-0.044-0.094-0.425-0.937-0.209-1.602 0.169-0.519 0.63-0.854 1.175-0.854 0.055 0 0.11 0.003 0.165 0.010 0.503 0.062 0.866 0.365 1.025 0.845h4.326c0.16-0.479 0.512-0.776 1.010-0.845 0.061-0.008 0.123-0.013 0.183-0.013 0.534 0 1.007 0.343 1.176 0.854 0.077 0.233 0.080 0.524 0.010 0.892-0.068 0.359-0.277 1.452-1.404 1.609l-0.021 0.003zM12.944 30.689h6.152c0.466-0.073 0.723-0.404 0.856-1.104 0.061-0.32 0.039-0.491 0.010-0.578-0.086-0.258-0.314-0.425-0.583-0.425-0.032 0-0.065 0.002-0.098 0.007-0.194 0.027-0.462 0.117-0.545 0.592l-0.045 0.259h-5.053c-0.152 0.006-0.284-0.090-0.325-0.235l-0.005-0.017-0.003-0.017c-0.079-0.471-0.35-0.557-0.547-0.582-0.030-0.004-0.060-0.006-0.089-0.006-0.274 0-0.496 0.162-0.581 0.422-0.095 0.291 0.022 0.806 0.181 1.143 0.155 0.331 0.364 0.498 0.675 0.54z" fill="#555555"></path>
</svg>
