<?xml version="1.0" encoding="utf-8"?>
<!-- Generated by IcoMoon.io -->
<!DOCTYPE svg PUBLIC "-//W3C//DTD SVG 1.1//EN" "http://www.w3.org/Graphics/SVG/1.1/DTD/svg11.dtd">
<svg version="1.1" xmlns="http://www.w3.org/2000/svg" xmlns:xlink="http://www.w3.org/1999/xlink" width="32" height="32" viewBox="0 0 32 32">
<path d="M8.026 23.089c-0.83-0.927-1.486-2.007-1.969-3.24s-0.724-2.516-0.724-3.849v-2.667c0-0.368 0.13-0.682 0.391-0.943s0.575-0.391 0.943-0.391 0.682 0.13 0.943 0.391c0.26 0.26 0.391 0.575 0.391 0.943v2.667c0 1.451 0.358 2.79 1.073 4.016z" fill="#555555"></path>
<path d="M21.333 12.302v3.698c0 1.472-0.521 2.729-1.563 3.771s-2.299 1.563-3.771 1.563-1.503-0.031-2.833-0.781z" fill="#555555"></path>
<path d="M11.902 19.416c-1.042-1.042-1.235-1.944-1.235-3.416v-10.667c0-1.472 0.521-2.729 1.563-3.771s2.299-1.563 3.771-1.563 2.729 0.521 3.771 1.563c1.042 1.042 1.563 2.299 1.563 3.771v3.589l2.595-2.577-12.027 13.071z" fill="#555555"></path>
<path d="M11.188 22.286c1.094 0.808-0.304-0.074 0.922 0.641s2.564 1.073 4.016 1.073 2.79-0.358 4.016-1.073 2.196-1.686 2.911-2.911 1.073-2.564 1.073-4.016v-2.667c0-0.368 0.13-0.682 0.391-0.943s0.575-0.391 0.943-0.391h-0c0.368 0 0.682 0.13 0.943 0.391s0.391 0.575 0.391 0.943v2.667c0 1.333-0.241 2.616-0.724 3.849s-1.139 2.313-1.969 3.24-1.819 1.701-2.969 2.323-2.373 1.012-3.672 1.172v2.75h4c0.368 0 0.682 0.13 0.943 0.391s0.391 0.575 0.391 0.943-0.13 0.682-0.391 0.943-0.575 0.391-0.943 0.391h-10.667c-0.368 0-0.682-0.13-0.943-0.391s-0.391-0.575-0.391-0.943 0.13-0.682 0.391-0.943 0.575-0.391 0.943-0.391h4v-2.75c-1.299-0.16-2.523-0.55-3.672-1.172s-0.467-0.236-1.75-1.163z" fill="#555555"></path>
<path d="M2.703 28.238l0.238-0.234 24.121-23.050 2.164-2.148c0 0 0.188-0.18 0.234-0.554 0.016-0.128-0.516-1.097-1.137-1.094 0 0-0.238-0.023-0.504 0.172s-0.219 0.211-0.219 0.211l-7.331 7.281-18.997 17.992c0 0-0.086 0.062-0.086 0.094s-0.148 0.172-0.18 0.422 0.102 0.453 0.148 0.539 0.584 0.656 0.946 0.656c0.351 0 0.601-0.286 0.601-0.286z" fill="#555555"></path>
</svg>
