<?xml version="1.0" encoding="utf-8"?>
<!-- Generated by IcoMoon.io -->
<!DOCTYPE svg PUBLIC "-//W3C//DTD SVG 1.1//EN" "http://www.w3.org/Graphics/SVG/1.1/DTD/svg11.dtd">
<svg version="1.1" xmlns="http://www.w3.org/2000/svg" xmlns:xlink="http://www.w3.org/1999/xlink" width="32" height="32" viewBox="0 0 32 32">
<path d="M25.333 12c0.368 0 0.682 0.13 0.943 0.391s0.391 0.575 0.391 0.943v2.667c0 1.333-0.241 2.616-0.724 3.849s-1.139 2.313-1.969 3.24-1.819 1.701-2.969 2.323-2.373 1.012-3.672 1.172v2.75h4c0.368 0 0.682 0.13 0.943 0.391s0.391 0.575 0.391 0.943-0.13 0.682-0.391 0.943-0.575 0.391-0.943 0.391h-10.667c-0.368 0-0.682-0.13-0.943-0.391s-0.391-0.575-0.391-0.943 0.13-0.682 0.391-0.943 0.575-0.391 0.943-0.391h4v-2.75c-1.299-0.16-2.523-0.55-3.672-1.172s-2.139-1.396-2.969-2.323-1.486-2.007-1.969-3.24-0.724-2.516-0.724-3.849v-2.667c0-0.368 0.13-0.682 0.391-0.943s0.575-0.391 0.943-0.391 0.682 0.13 0.943 0.391c0.26 0.26 0.391 0.575 0.391 0.943v2.667c0 1.451 0.358 2.79 1.073 4.016s1.686 2.196 2.911 2.911 2.564 1.073 4.016 1.073 2.79-0.358 4.016-1.073 2.196-1.686 2.911-2.911 1.073-2.564 1.073-4.016v-2.667c0-0.368 0.13-0.682 0.391-0.943s0.575-0.391 0.943-0.391v0zM16 0c1.472 0 2.729 0.521 3.771 1.563s1.563 2.299 1.563 3.771v10.667c0 1.472-0.521 2.729-1.563 3.771s-2.299 1.563-3.771 1.563-2.729-0.521-3.771-1.563-1.563-2.299-1.563-3.771v-10.667c0-1.472 0.521-2.729 1.563-3.771s2.299-1.563 3.771-1.563z" fill="#555555"></path>
</svg>
