<?xml version="1.0" encoding="utf-8"?>
<!-- Generated by IcoMoon.io -->
<!DOCTYPE svg PUBLIC "-//W3C//DTD SVG 1.1//EN" "http://www.w3.org/Graphics/SVG/1.1/DTD/svg11.dtd">
<svg version="1.1" xmlns="http://www.w3.org/2000/svg" xmlns:xlink="http://www.w3.org/1999/xlink" width="32" height="32" viewBox="0 0 32 32">
<path d="M15.504 10.58c-0.56 0-1.090 0.076-1.59 0.215-0.503 0.139-1.055 0.365-1.667 0.678l-0.981-2.646c0.61-0.39 1.324-0.692 2.152-0.906 0.83-0.209 1.642-0.313 2.437-0.313 0.996 0 1.824 0.133 2.468 0.396 0.65 0.267 1.161 0.604 1.535 1.011 0.377 0.4 0.636 0.849 0.789 1.332 0.148 0.481 0.222 0.943 0.222 1.386 0 0.432-0.066 0.836-0.2 1.201-0.132 0.369-0.304 0.707-0.503 1.020-0.203 0.312-0.438 0.612-0.706 0.894-0.262 0.279-0.522 0.544-0.771 0.793-0.188 0.187-0.381 0.386-0.583 0.597-0.207 0.211-0.388 0.434-0.557 0.667-0.16 0.235-0.297 0.481-0.403 0.739-0.111 0.257-0.166 0.52-0.166 0.787 0 0.060 0 0.156 0 0.279s0.006 0.235 0.023 0.329h-3.090c-0.035-0.155-0.054-0.33-0.062-0.529-0.006-0.194-0.010-0.362-0.010-0.503 0-0.436 0.053-0.832 0.162-1.184 0.109-0.347 0.254-0.679 0.432-0.982 0.183-0.306 0.389-0.591 0.625-0.855 0.233-0.268 0.477-0.526 0.725-0.773 0.36-0.357 0.687-0.713 0.984-1.069 0.297-0.349 0.448-0.753 0.448-1.205 0-0.373-0.146-0.694-0.436-0.958-0.289-0.266-0.714-0.402-1.277-0.402zM17.686 22.365c0 0.688-0.225 1.22-0.67 1.593-0.445 0.376-0.948 0.564-1.512 0.564-0.56 0-1.068-0.188-1.507-0.564-0.449-0.373-0.667-0.906-0.667-1.593 0-0.683 0.218-1.219 0.667-1.591 0.439-0.375 0.947-0.562 1.507-0.562 0.563 0 1.067 0.188 1.512 0.562 0.445 0.372 0.67 0.908 0.67 1.591z" fill="#555555"></path>
<path d="M27.751 0h-23.365c-2.424 0-4.386 1.961-4.386 4.382v23.366c0 2.421 1.961 4.382 4.386 4.382h23.365c2.419 0 4.383-1.96 4.383-4.382v-23.366c0-2.422-1.964-4.382-4.383-4.382zM29.208 27.749c0 0.808-0.652 1.461-1.458 1.461h-23.365c-0.811 0-1.462-0.652-1.462-1.461v-23.366c0-0.808 0.652-1.461 1.462-1.461h23.365c0.806 0 1.458 0.653 1.458 1.461v23.366z" fill="#555555"></path>
</svg>
